<mxfile host="drawio-plugin" modified="2021-10-17T20:33:42.384Z" agent="5.0 (Windows NT 6.2; Win64; x64) AppleWebKit/537.36 (KHTML, like Gecko) Chrome/81.0.4044.113 Safari/537.36" version="13.7.9" etag="pK1aisNX7iRh2SUr1Wpv" type="embed"><diagram id="wiD89-_gEED-ooSzES7n" name="Page-1"><mxGraphModel dx="1371" dy="691" grid="1" gridSize="10" guides="1" tooltips="1" connect="1" arrows="1" fold="1" page="1" pageScale="1" pageWidth="850" pageHeight="1100" math="0" shadow="0"><root><mxCell id="0"/><mxCell id="1" parent="0"/><mxCell id="74" style="edgeStyle=none;rounded=0;orthogonalLoop=1;jettySize=auto;html=1;exitX=0.25;exitY=1;exitDx=0;exitDy=0;startArrow=classic;startFill=1;" edge="1" parent="1" source="72" target="9"><mxGeometry relative="1" as="geometry"/></mxCell><mxCell id="75" style="edgeStyle=none;rounded=0;orthogonalLoop=1;jettySize=auto;html=1;exitX=0.75;exitY=1;exitDx=0;exitDy=0;entryX=0.5;entryY=0;entryDx=0;entryDy=0;startArrow=classic;startFill=1;" edge="1" parent="1" source="72" target="34"><mxGeometry relative="1" as="geometry"/></mxCell><mxCell id="72" value="" style="whiteSpace=wrap;html=1;fillColor=none;dashed=1;" vertex="1" parent="1"><mxGeometry x="441.5" y="292.33" width="210" height="200.3" as="geometry"/></mxCell><mxCell id="41" style="edgeStyle=orthogonalEdgeStyle;rounded=0;orthogonalLoop=1;jettySize=auto;html=1;" edge="1" parent="1" source="54" target="35"><mxGeometry relative="1" as="geometry"/></mxCell><mxCell id="4" value="" style="dashed=0;outlineConnect=0;html=1;align=center;labelPosition=center;verticalLabelPosition=bottom;verticalAlign=top;shape=mxgraph.weblogos.github;aspect=fixed;" vertex="1" parent="1"><mxGeometry x="232.5" y="121.03999999999999" width="85" height="85" as="geometry"/></mxCell><mxCell id="67" style="edgeStyle=none;rounded=0;orthogonalLoop=1;jettySize=auto;html=1;startArrow=none;startFill=0;" edge="1" parent="1" source="8" target="4"><mxGeometry relative="1" as="geometry"/></mxCell><mxCell id="8" value="" style="aspect=fixed;html=1;points=[];align=center;image;fontSize=12;image=img/lib/azure2/general/Code.svg;" vertex="1" parent="1"><mxGeometry x="10" y="129" width="85" height="69.07" as="geometry"/></mxCell><mxCell id="9" value="" style="aspect=fixed;html=1;points=[];align=center;image;fontSize=12;image=img/lib/mscae/Cache_Redis_Product.svg;" vertex="1" parent="1"><mxGeometry x="453" y="575.3299999999999" width="85" height="71.4" as="geometry"/></mxCell><mxCell id="76" style="edgeStyle=none;rounded=0;orthogonalLoop=1;jettySize=auto;html=1;exitX=0;exitY=0.5;exitDx=0;exitDy=0;startArrow=classic;startFill=1;" edge="1" parent="1" source="13" target="72"><mxGeometry relative="1" as="geometry"/></mxCell><mxCell id="13" value="Users" style="strokeColor=#dddddd;shadow=1;strokeWidth=1;rounded=1;absoluteArcSize=1;arcSize=2;labelPosition=center;verticalLabelPosition=middle;align=center;verticalAlign=bottom;spacingLeft=0;fontColor=#999999;fontSize=12;whiteSpace=wrap;spacingBottom=2;aspect=fixed;" vertex="1" parent="1"><mxGeometry x="774" y="340.88" width="85" height="103.21" as="geometry"/></mxCell><mxCell id="14" value="" style="dashed=0;connectable=0;html=1;fillColor=#757575;strokeColor=none;shape=mxgraph.gcp2.users;part=1;" vertex="1" parent="13"><mxGeometry x="0.5" width="50" height="31.5" relative="1" as="geometry"><mxPoint x="-25" y="19.25" as="offset"/></mxGeometry></mxCell><mxCell id="68" style="edgeStyle=none;rounded=0;orthogonalLoop=1;jettySize=auto;html=1;entryX=0.5;entryY=1;entryDx=0;entryDy=0;startArrow=none;startFill=0;" edge="1" parent="1" source="15" target="21"><mxGeometry relative="1" as="geometry"/></mxCell><mxCell id="15" value="Amazon ECR" style="outlineConnect=0;fontColor=#232F3E;gradientColor=none;strokeColor=#ffffff;fillColor=#232F3E;dashed=0;verticalLabelPosition=middle;verticalAlign=bottom;align=center;html=1;whiteSpace=wrap;fontSize=10;fontStyle=1;spacing=3;shape=mxgraph.aws4.productIcon;prIcon=mxgraph.aws4.ecr;aspect=fixed;" vertex="1" parent="1"><mxGeometry x="117.5" y="500" width="85" height="106.25" as="geometry"/></mxCell><mxCell id="21" value="" style="shape=image;verticalLabelPosition=bottom;labelBackgroundColor=#ffffff;verticalAlign=top;aspect=fixed;imageAspect=0;image=data:image/png,iVBORw0KGgoAAAANSUhEUgAAAuQAAAFLCAMAAACp2GnxAAAAUVBMVEVHcEw0Rk1jpDoAAAAvRTcvP0VTiDAQFxMnOC4kNCttsj85TVQDmsckuOsCjLgArNk5TlU2W2bD3uMXfpk7RksfxvUrbYAthJ4DnsUpn8KXu8QUxoe5AAAACnRSTlMA5en8osbDHX1PAjU1xAAAIABJREFUeNrsnQ23oiAQhreOCsS14Eio//+PLuBHVmIqqKjz7r1729NS7fb4NjMy479/IBAIBAKBQCAQCAQCgUAgEAgEAoFAIBAIBAKBQCAQCAQCgUAgEAgEAoFAIBAIBAKBQCAQCAQCgUAgEAgEAoFAIBAIBAKBQCAQCAQCgUAgEGia0E/B/xFo54riH4qActDOFTPKBnUh8J8E2j3kgwLIQQA5CLQLyK2xyskhJxgnGwhjMBbfkAuZPvuVi/NCjnBy21AJhoTfN+Sp4jxtfzQ3Tws5IpsSXnNOgHOvkMv8WcrymVc3U3WzVDdPCjnC11sQuoKd+4Sc8Wcp8qcU6VMwczMXZ4U8FMQrzAFRb5Bz+SxpRTblp4acBIS4wRySUIDcc6QS3YITnHMGyL0yntwCVAKUA+SHDVUgZAHIvTN+C1ZAOUB+dMaBcoD8+IwD5QD58Rm/3SD7BMhd6yrX0CG/AuUAuZuSW/BKgFaA/NDBCoTlALmrrnuA/Aq4AuTzhW+7EOzWAsgPnHVC7gmQOyq67UQRAAuQHzjrhNwTID94+RDKiJ4gZxXZdZNQzs4C+Y6M/ORWjmaqhjwvn6n6LnN1M69vnqSReS9ZJ+SeJJqpy5ojKYJ8g/BtVzpxGZGwuaKU8twi6Xe4EA6xkWtfRn5qK8dmDJbtu6L5+5tWM+LYOhO01GuMw3uHotvOdN4yIqELyR/kWD9ccBE+ue1O5NyQi34N3Sd+LPQGeXMYBvYWJfuD/LRlRG2TInv0q5BU5JbcMpWCysKyMPMHOWo/GzAYOVj5bJ/8BbmuoaTtj2c98nAIco+JZ/wKgAKifG9Z57lzzxryu7w/sqwoskyRrW4qfGVWQ57mua6D6x/V6MOqJF5BntVrqwXVTZ9ObgJyJnlglOPbLnXSMmIdrtxp9pDsfqf8cVd/lKJ4CFZDXgr5zGmZcv5MBX/monxy0UDO+CN7LdBrM+ERcmTGoMu0rCiPwcjByuc7OVOg8nvBZMW7YlbxXkNOFeTsHXLaQM4V5K8FBnLqEXJ9DDKepg3lgZTBottOFZ3aycOEvDLyMm0pp0HMJCa33YqAk4cGOWmMvEM5lA+hjHgkJ0eRMnJRprV4IPXyHRv5Oa08aCcnFwU5T9Mu5dvvbtxr1nne3DNsyLWR5y/IS3PFua13a+HbrnXCMmLQ4QrWkKcdlULvCsNg5GDlR3FypKMV2YU8zbWVbxuWR7edKwLIA4LcvLb8DXL9rJRtufGW3Hav812xLGTI32ornULilgFLsn/IE3DycCDXITlNP5Sbhgx0TCOvLjO7+BVvCTh5MJBH7wXEJmDZ0soXzTo717FaFvOz5Z4hO3n8lXe2ActWVr5k+RCvV6jE4OShQK4HAuRpr5VvdHZ/SSMnKwZGJ7PygJ0c9RRXGitnl6OVD/GqtcoIIA8b8moPyxZWTtateFwh9ww2XBE+IS97INcFFrpF/0SyLnRLBizJiZ2cy0dRM8tayFkHcllBzlrI5SNj7QL/Tt4Hecq2ST3J2syBlfuFPHv1eGZVy2b26vEs2x7Pqt3zo8ezu+Cu/rg45FJRflk9Xlky68RrpwCHyz0RwaT3S/2KNEn3GSMpnr+79W1Pq76QE+RmN+LquRNe3VcXPfN0sDIipsMjDWlmdDdf5rv5nVMhS4sUyPz1N99/mBM2Q1PkiBPkOl5Zval50fNAaH3ID2blhP4Y3Em5FjNf5rv9XXefWX6Z+9q/+f7j16jEy2jI817IebtLC6nPBYzNnF31kyz4xi26+/Df+pAfrIxIqqGenmcdzl7oAfIqHEI4iuPLhV6qw+miFMfRQq3OywK3xXMeK/fEQyMN9dZVMTTv0Pd9YnRSajnjWW8rpwrv3sPucsELvH3J8SBPDubklN4fRZ8eOu7uD3yNY4qs6F+nktKejSUNhIJy2xPeJ0Eu7ZAPKca7MvJtID+UleMKcstsTg25dainfU7iQ4rBK01w2xOOh7x/F6Ipr4yYHO01bHHOOq9JcvUJeZLgKIHc88vJ71lVy25K27qendWQp3na1MK7lwAykH8sqMYmNpCbwnnfNYP414L6YcZDjpm1htiE95xLmWX3SlkmOW+TDxZ7NCq38uG1SogRvvqB/FofwIg4Hnv4cJBn7K5PUN6FNGfiOX88RAN5ScunZGlK9VnN/ClF+hSshrxeUJgFevShehjRQF5f8q1e0LnEoYK8XZDpBXp9ZsYujoWc0CHIFeBZ9lWoL+5ZW9yhEQnCyPHvg2US5J19565HHzpauJLxCnJanYnXCNIWcqYgV6EBky3kmvcKcrPg/gY5bSC3XsezC7lZUNTbXMZDjqgt8ywFl5ktHlKfFy3mnqwq8gaS5XCZAvl76c/NzKPDOfkIyGlQkMe2oLyUVsIrP8+8Dnt2SQATNOaxJjzvZ00EJZB7ToM8KCcfCMofv1SYk66edp0nPq0Su0H+HWEgl8+Zw5QR8U6dvHcmxTjGa8g3N3IyMr4f/8TYczRFwMm3hdzEK2wW5Jk/I3fIOsnYAH885MjzYXiU3HO3Tm4q5TSfwfifx/EsswsY1/F7C0dDnnj/sMHg5NtCrsfaMjY3WIm3NXKrRy4AuQPlB7FyslsnNwPKWT6VcfWU/iaZR97hcYEc+08cjlFGxLt18n9Yb8Ji5UTG7x6vSTEbHrtBukAeLZAeE3DyTSGvLuPJpyedlHqaCpr4J2eJcMWF8uRkkIfm5Coqp+8By1jGPV2Qgvhn3CnxvC6RIR/ByvGOnby+Wm0+gXHm8aIrc7POaGKQP/5wIKumD+Dkq0COLl3Kf9cOM+bzInHYfwDgeDIoWSK2wuDkm4YrkWFW8HIU43fudWPWTCNP0FS7nRArkQU+eA5g5Tuuk8eXKYwX9bYsb9dbifwj47xBa/DR0WnLiHutrpC46fORo2IVWe2w9XcRROI/jyPu+8kHKcdnzT13WSdHuO1T5vkIxlUwXm8i93dFocS7K3ppmhgMoZOTlhH7nPxuh/zF7DTI6yahnLpDjnDcNN+zMTnnX8bb7k5/SRTxHazYt35PfAGR/7CcHAPyuk+zkIrspk/z1eNZPvO6x1Mq5hW+su3xfF9gWjZlt8ezu0Df7PZ4dhbU7Z7DkCOEiCa86dTksr94WPe9/RV/uuGNigZxj1eynYnLHMYnNzIPpLbknLmnQ7e+WKhbH/fAjfQ0rCjuDEJiL8TTV29b07esJ9JJlWoK0cxdufjsXZ4Z3uJZB81kXgcoTw5dRtTz0vq+zK7sFo0PZbqP0jbvUBFkW3fXsxDtcxIZtz6hMVz8+WLjOK4mYbVxB5c9JzoL2R1TJMRrLhe9RF7fp3lGfp33eNNN2e68Mz+BdmLl8dC8Q96ZY/g21FDfZxt4SJs7++8bnpPY/4tz+5jElm8hFOHdbVnFeyH8a/CcNnHPUWXkN7QdRm9G5GGHcmbAEu0E8sGphawZNFsz9u6bg8MLq99YZ1LtiDmJ7wvqP3Ue1TJaUbkzz/PSsrs2E59zFdXKOCLeR30Sv0WKH/Y65zXYKU8OnHvSPUjY79HSDl7auyQK3vkYMFF4hBXgC3zSJl4/8n+FELMONPuzHbiM2A5h3qVknvfw/VFX0UbOTECv5zQr/VsokiRek7efYfK8F2HNPqPDWjli5soo7WjN9CD6uIQFpSu8FzOzTjS5dugEudV7j5t7kgryVgdk/E94PaO5Vvnwd+gz9+Mk8nt2H+8Ccno4yL/7IcI18vnEzY6ZyMmsXEPOX5AXx2O8oCsZudfy4ZjwfvZKG5YzrTz4MiI253yO5eTFt5Gv8JHqddPKKFOd/zoSrwWW4HNP/O7kj6P5+KNgPvfR+i4f2gLaUQ/mcLBhrwWWBCDflPHKyKNQjdzpMoUOL8T2AXJMKz8a5F99P9xfE77/rNMSzo58MJejLfF62jOk3BMfHvLvbY+6ehRP+i9ZsXxoMfKRD+b0keL3cs4BlRFxtCrk+WqLrIwbIx9IO6ONm5edHswJckvpcv9Nzfi7PWBByCWbAWzOpAPjRe88FauRo2jjS6dgpwdzSw6Iz39IQGXEiH3NQRuGvHTwVfk9dXMM4wMX+vzt45+XBPobNHIUU+bnzZn7KY+csj+313L1mnoGk3uinq70j5NB72eDcsbKmcCVBi+RTz4w9H6xci7jbyX/ZteKzcjxRf3b/Yzc99oIHK0DuQXLuTOnQykjYvZ9DT/ycTLo8cnpLC8vZb05VkwBtuTNKlnOiVX0ZweV9+JjalDvm4lI3fWMNzRy4ualji/m6jVeCcTKcdPKrjBHtg1ajzZQabppJvtqmcvXBnAxGtj2wNCrmMwnPm3R9t7L7K/oXB4l7kU8ajsu3CmfPXEfudVpXI844jVeCSH3RLjbURM3XTGoD3KFKX9hSicAV5ql4r3hYcT61zHVruJTOL9nsvPP41mm/bwy8u8Ln5HX7ApDueu7g71+wl9XgzzxGq8EUEYkb+9r1R5jumOM971C8r8yzyV/b8URbBRwBvAPwl/txeWg9XPR1w7Ee1t+etd/HyJZ9n0tN93bH+ne57e/7XgN5tlGjh1DH+fYCXmNVza2coSjS38jb2xGY5om+UzqWQ2cM9HTfimY6cIprXhrvvlA/xrrB7Y6MAba22jV/mNBvX7i75fMmobQ/+yd7ZKrKBCGYxYFxhwLJ6mpGe//QldQEzWCIt18GDn7Y/fUJprk4bX7hW5kRRCXQxb6k764f/4/u5Xs76aCOuawzpC7zrKIbEQue6cJU/1wVyzfQaGvTC67unlVcjaMn64KrStbXi1uVq//mbx2Q1W0rGvurrxw6S1V1ZkaxitkGdsr57uhuLqGxM73cwUNyoPlnm2GlW0qFd5cg7/YFUJsLEgGfKXl6zeMjOyq3t998nLhOmXcJx0F/UAhbMQ2wcoEcNn8W2eJjR0qlueSsL2ysJ+Xdh+vFXTqSciXg4XCK+QENPwKIOWcbRuqidBd5mmH+ke1ocjZjmH1SwGfvGwVK7hDfoWdttFWwnVG+bgl228646ZrR1fdSz+1Emw/Ec6AATxaKGxQHm1Rs/IQx7TckhlaxKubgDtB3CjkX7ABLPEMOQd1yr9M7XmDDtknrq5ShFzPeLcM5KF6eX+SthwPF54hJ8AfKtZKODaHvEoe8ao7sRA/WOHQT/Yvz5BfgTPPWCvhVOZ5Tw5yE+OV8FTYWQDTwH1DvhhesK/DSbncgJsc5EbEu13kGY1ayBchZ94h59AfK1IpV0H5LSnKjYx7C1acMrQv90ABAnIGbK+YzzgPG6+IpILyFcZrP86Ko+K5hz8Qd0WcM4M0pJy9OeVVwoh3zorIPHxxBXjs6h/yAh7yKKNyKrdApeOvrCB+646V8ODXUngUvuKAvHCjPEavnKozsG5pUL4m490RWj56H7qZELFA/oUAOTvjFWTGPS11OqMAkPHFCnmU8Qov39aDKgcKAyLeB+Q+GjU7RiuLkPNjQL4rXiH/tYNgxysQkP9rmu+m+QuG+K32tC/L2VuJBnIKveS501/5Dxny7vTluzPlVfPdjSYQ472x4icmZMeAnMN/tF1BOTrkXBVXOEL+Kxlv6rpGoXwL4pWqXC495T3khByy2BMdctk/zl3K20ilFqVQcv4vBON3X1tWsCyIo0BeRAk5l4WgonKi/O/7W+0ZaeADlsqC8Zx+DOT0hNwu9ZSQ3x0hbxTkbbjSpp+Vb8S71Xwf27JAlgUhIOcQuQJG4vkVJeQy9RSzVU9byttopSssrsWj+f7zjPjAuL+NE+EhJxBPGAwLMVLIqWzNMpfyah/kZQkIuRXjovS4OQgBckvr/QpRoflBkHcuYn1zoPzfC/I2+fSLeM945nNBGSNuBZgo5ITcKOVvUbkV5UPiqYT82yviIRiPAfIFKecQt+EPcrXOuTRwcO/6r1QOlDd95ilqkGilsmS8LP1uDMKA3JauYk65dRsYhK22EUN+WZbyykrKG7kYJNeEKo+ID/G4581vBQII1u85o5xavwHBgLyIFnJVICSqPZTLNj/9kme3rF95RDyMjuNAbm9QXyfHhtjX48GXv0UNebfsWd9sKW8Bv//cOzb/JObOG7QqO8ZFEMadzWQKtOmrGDDne6YdfCGz1bK+d8hV2X55t9Py31ZIZefNn99B0L0SHo5x52VBDqah14IxUlzBpprrJ7PYoMXIMHq2h4HmBXeHClXbKa/uzyMe6urXr6HS39lPGYhxZ71zby4EMK4Yz6g4t9oOI9cELNVMvKWA3ieHroif3wCID4xnIQquKMYzvfAMOc5N0Jgh77bc1qr58ZSmNioZxo86/+QxOfGkj8k9I15V6qghkYUpKsQoEmOeIQdv+Ll3f5Y/yC9MFu5LgX50o6zF8Kf9j4f667cjfZqmcg/GdxA+2Cp5oEYfrkBixEAQmkv9heRBIL+QxSN7lo6EeDwU3430U6oAhFe3rmbZ395aaBhQVBQgJOchohWfkKs9t4ah9L1+4Q1R7lbtG33KS8J1+cDo3FCED8lJiGjFJ+RdWC7qpl4cjWL7RfcwvBPehyqiDNnjgyPAwINHK87zjEcP+YUrdpZI/l78Oxcp30t4dfsRpb+6fO24wscK9Bo6WqEYbxoZ5P2mWy3Py+PPI+HPUEVkgRuScQQdJaGjFR5EyD1D3iWflpQ3/gB/LnKW5BJ6wDfR8hqvYMyyve2z1LHZHh/Meb9f1mb880V4b46HWeWEJbJAiIGCXz/OHvwayh8PO8orL4D3xmFI5xBQymlYKecIIXlxSWbI9X1Lyht0vhXivYxnkXROdcsTedDU84qwxBXrabUau1xIyhuQ3LMCGz+DjEfzUEQ4RIqFFHKMNCNayolc5XxYBebTfVwV+Lj1y/itjMejF266SwNK+RVhGTclIR8oF1bpZ1OhjnvdyziJKrfh8GLKAgo5QXjP6CkXFpT/w0dcrv9Ephbw5xd7kfICYX2ruCQ35KqQeNg45n/oiJcsugciB49XvBgsHOHK/JIm5XaO+R8q4p6OkLBePINec/SxTatAuDC5pDi65nGlhcvyh4F4+YxU4vyWruCZGsVmHOO6iWWdYyux2zoeivKnMR6PNQ6bKDIEZ3L/ZQnCe6YQsigxt7BZACm/VQPiIirbEFTKUZZSdwYrHynkKhXJO5el3hizNH9gIv4jBsRzEvU3yOGTNVSHRcej0/ODXxIetBXzFnIZszTetPx2H1Z+JOIsdpEo4KUc02HBmFjFJe3B1fKnKLdi3gAkmz3iQq79xP8cRJByxI3l7HIK+cIU55mQMYs0zRt0yp+Et1fMUkDcjUhtLIsVlhOE1CJR+3Aes3SRebktNt8fmCvChegRZzSRbMYFEJ2wUhzKC4rw6Eg565xjrlzzeovTskfM7z+1GDW/yFN6AjIEQFCSTy3jFCMCStE07xHcEpzbirnqG/pEXGQssQ1tV4ScDYFyLeNO0dFBhLz70smz/UopVjlvLFZ8ZIzy0vCMpZfGYOSe8JTrGecfnXXOMM+efYZK1YfFRcxvN2kViknnuSxFwl1tROqJ8gLnQsXlYIOyPCv7xPCh7JbG0I/lT7uYKRvj1vWotaKMVbKcJSsKHMWbAM0+9Yy7WTn8crzBieRcdCbIo1d0iXqzgrkqGFKtcetaNX4egnAZjWc5YUl/WwQFE0DKDYw7BSvkcshBOes4HxRdkj60ketwf/5p7lU16vpcy/BkHKD0gHOeevKCsBsRdFWI4Nz6obLON85bQVeEKl+x28Ylu4GW0/aJPdi16Hqajz1CofyUrBVwfojviSGpIcgK/5Xj5BMHsg+XOW8FnaiNLaJX5AH20ehRnveDVn+ZK74PIwROemhiECBkKSjS7DyykI9Ab0OXCckLlE/hbv+zxZu1eB/s++FYrFDXkIVd0J4U/PIpgzIms9E54DPcW7hzxthxvxa8BRVeYMm4o01ZXD5tSFmXuM8Gk2QfJPBGk/I1XNgVIxp3joX45RwfNgiS/bE/Zrmu7Y9wY5ycv/nnPcqumD6FPeariDsalB+QdZ4D1qhYf/ZTq6BlHXHXiml2/uKnlCNEuJtT0GLLm32dQn4Ov7nntjyObuC82JTmBzo65RyfbCNu5oZyor9OsbUlqivjxflrn1KOrI6ckWKKelEwi3N3nLcLnEJ+2oie0KHdmVLWyxDOG79O+/DMPSOHx5nxM+s8bUQXyvHxAdjzlaZ9SD9i6T0BKV/ZbBLFLaYp5LLnhBChT8fkqo8uS3uuuW8Av+LmdBygdDTJrJP1dT5BKeeZ6M4FSptygJI1xJ+BQtQaJWkf0md/zZB8keEm0nanIGp50EIWmKrRNIX8WdgQ8PZpPlQ2J25PQWjlFUfMYfr7p/n7PCEXcUCedrwC0y8FQcyBiv8TtQ9jU/LEbR4YvYQWcwpV+Z/o7sNTySOUcmCbhUP140p1HehU8vhyz807ZrfdEVybolRtgVPJ47MRITEHRDzd3Yenkscq5RCYc9CG/jx5yE8lj8hGBMGcMtjeuOnau6eSx5p7Dsnezq+EEuAm5wnvPjyVPFIbcSzn1nt6wAlPu3j5VPLYpdyac04wDh1KeRv5qeRx554jyraAzlmBdKZzyruKTiWP2kZ8L1Zmmr3/stUw3nXTLl4+lTwZKR8XLpOuzaQcsgtlUSBfMQ0h7ztyyu+G2is5lS/vO3jSPdd+9QCllpCvVi3R9s274xE1774+x8BLo8jXwQZJAPBcjLsrlzmzUHLKyKQ1s+VJhLNXt69/bw+ih1wefC4Mx9dSUr5apMt/szwIVJ73JdSp0xmke0Cvx2I89qyTsuztyIcRaWtKzkn5/mpRbuScs3LpuIk5iVrIWf9qrlHg/O3d1RSmm7+acjRDIClnx4KcxY94uTBaFtQj2qjkVCJeLr+crD/h9a+eYa6BnLLhr7ONiPf3tknO36YvZFZyLCmPWsi1iA+cmpVcC2m5pSBzw8XNkFPyOo6cWt2cjHCo/QSE1Ct+JMhjzjp5boBUKR43KTnLSuMwxcqrFy/LfAXy52HnSzcnZ5Dx3lam4OIEBM2uiuMwHrN9uMKBCgOYVskpWYHUnKytXlxk3Aj5mPE3JV+dQeYpqPlsoJDzU8g9jFVIOzHXiCXNyy1Dp5dk/aWjGbIA+ZTxfO65bLg1/RTkms8Gm14dxkYkMTNuOfgOxnWrN2QLg0YlJ/p7W42jnj7LMrWaKQLdKeAouWfEWSdZPCd26QDZJSWnmdj6cmbcK/Dk7Wk+vpTcBDkZn+A8uwYttW9vnLh6xgVKD7GD2IgsGcaFOuVbrQLrgmVuYFzk/SoyI8bJscx4OaxETq5ugjwX+nlE38OSzkqhfC7xS82K+Pvn167EnlIes5DPSM5m9nO2ouRkysF0dYWTFZD4NBmYJYAsfwvJ3yA3Mj6DdPr285vLqW5x9ZkZ4P2I/Mw6Mf3xCQjZW9y8iDkfrTNOEV8wJwwgTTFayP44ybNswuYU8hmHs1CZmGaQurnxZ5svY1Ky8tlAxwFsxGjtw4nDXC5aae8m2kvJ6bp/wgwgjTBqL67ZF2pY1p9xOLs+F5Mgas08mT9nWGmc/aeUJyPkk3hB90O+xebPj5MvWyAGkCbRzBaHURdDCDJ/TMzegWamWGRpkufTeF6YngLwqdFpH2IJ+etxb1r4m2VgTyXnGxg3gJQLa8YnSm5kfKzEpr3nTOOwEL+MJ597xpt1jrU0N9zljHL+LuQmW21CI7e+uAbyPDcyPrLvjfUVbDmY2nVzn2wjRmsfjvc1mX9JNn54D0o+spFXNp+OHhj5kpBndMezx7zSxMpNH22cMow/xK6b+2Apj1fI6faFarKg5KTcOEUmF+L2F1+FXDCT/8c36fjkf6Qry0Rn7pnMppWRAUgs4OqVfCNHc6eDvfOVX9wgXyqFewZYhofM1J0Z5wuvb8bj4TEJ24gR7z7M/2/v3LZbV2EoajpwQcMv/P/XnsTpiblIINykhuy1novjNBMhCYS4PUV1gBZxZHs+qnTo3e8g53zuJ6XViDhIG7nHYTTzhxESDPkb1GNL40CO0thM07+HCpbEg4PdkDOMH38mR535o4hzr/60C9i0acSBTx+60ON3+hwHGzTZi9KUe4H6k5Cznx6lg0iXMUoMvj+1yvyzsefINW++cCF0wePDkke4UdeH2ZSjPoeghJydYdQMiTPG01S4P7XK/LNpxJGLl32HTx37qVsKeTAayClzjfy5w9k55MIqcnw1HnKX5kTzmbJe4q3MasqHLl62oSuFt6aW/GkKg2qz5DgJ9sg7+3McZZALjEchpW1uTzHf31x1WRgh6nxbckX1mlmNZy/kawq5PZeHTiGXogFnq4tUi/Fo0frr32TCNOLYdx8evCxdkGeWXFnVayXI3WnIg3TCux4vpIWbnLdlLkggTmvK6SMhzy25CnL3eshlR6caL6RFbYHbtTfXxJ1TphEHv/vwTy35NZAzu1zUKAi6GPLZYs/R7z48eHHvt+SiuxLOQy4GzBVL7jXJmQshny2NOHrrlE7I7UuzK/YV2RVprBx4pvV60jH2KyGfy5QP3zrF9mVX1t9lV7a3pBB9fQsgpJDnp1V8Y0vgCsjnij2Hv3Hfd+XJXXYTW+9mUHjPZpCvbz0lM7CdVhkB8pnSiOO3TolO6mko3dLkceQSUNeysbKPOws5T/mzdjUmWc34xZATDPkLvb/Qk+FY8/McfQe0tnzZCKd2FYuzK3z06dZylUov16hetHst5POkEWfovGyC/pbWo/j9f9tJGpvIBHxemDTnIBecLVscXvGNWqKBIJ8l9pyiYefhQrTrGG3hBquKb4op8lw1/KmztmzRhK86V5S9vyIKuRjyWdKIU3ReJn35G5WUxtfZkno6PeszImfJ/BJyhvKoamI35WvX1ctXQz6HKZ+j8/KRu255HPEFLbbcV2nBQBxfNryqkJkrTUpWniy73mzfdjXkc8Sek3Re9vorKbhL4oyy3Dd2VraVIrzOAAADUUlEQVQ6+acg5yg/lp5baLrJRUBjQj5DGnGWzsvxLXG1FEn0d/FssNumoTz2a6S7TagbcmPq94sntzzWb/4cEPLxHZavWTpiJze4Va6JizHxrIUOcroibUXh2IyLugFsdE1ckvYuM4lOaDKh2Z+9HvLxHZZ5ur7HlY5i5jhe7VO3JvZixAKGVUyErAnlrhPyvJFL/SiWstviMJCPTjkt8ygBmAUtubo5t7jxHOEnSdJ9LfP84xWC6zHO9LJPr25OKijyTSXHNcrw+dPJDQr52JTPxHhmZ8s+3M6nLQKtnDYJN2PONNGsxYdpv5/iEvB7O3tjkneqXMJfeCxUj0/vN/wLl7IPAfnIlE/FeNkYJ0XKrw2HNjm6euM0GU7WbNWTsbRWhtPeCOLeiMpKkDdsuQ/ilYn3+fN4N640aAzIFxo0+vyajHHGdb2R9tBq8tiN4cEGeXh7/52KDqI3y22z0bUWh5ktp9bLGXtX8s2YxNAgkC9uyEzit1uW6SlXNvAso8dW42N37sOrfTyTUqHCY9G8HEPyKJDfAqIBT2VNyHgH5aTfnlHn7jSdcqt9PKu2XPdy40I+nssyn6vSRblxmjy43HZc+HD7O0uex85r98uNbMn3X2cgzL/8Mq3a3blDZRPFKaxxZbNH7ImrhDyj3HW/nB8b8luQ/DUK4m6ZWLRu4SykmklS3Ur3jQ8PcnaFoZx6v9u6DA75PaE/QAT6TVMj/pPQDrIZt3R+koTmbqazJgTdGhLvePKut+O+m/T4wPdZHg3y/Utcyvm3n53wn7T0xqIQ7vslrm1rVmH4Zqzijn4J82KGWLZo7llwyperEo/5/eFUixPCWC4oef99gbyn5VPkyK8hpDCEnQPdqZJ9luSjt1X3H7p9uMlnCTv8Z/Oq6GDu98Fi04vHJAzp5DXSuzl5nwj6BM5NOHRnzOl/aOftjlIyvOvD09GWG/5YMsow2O8Q+9rj7RY9v/putP+hISDxsaTTvmNJdOo3pudwd26aNUcLp6rcbZhTPr69vNz+kGDHIQiCIAiCIAiCIAiCIAiCIAiCIAiCIAiCIAiCIAiCIAiCIAiCIAiCIAiCIAiCIAiCIAiCIAiCIAiCIAiCIAiCIAiCIAiCIAiCPlL/ATGc4OXFaLxzAAAAAElFTkSuQmCC;" vertex="1" parent="1"><mxGeometry x="478.3199999999999" y="361.99" width="136.37" height="61" as="geometry"/></mxCell><mxCell id="30" value="" style="aspect=fixed;html=1;points=[];align=center;image;fontSize=12;image=img/lib/mscae/Docker.svg;" vertex="1" parent="1"><mxGeometry x="117.5" y="230" width="85" height="69.7" as="geometry"/></mxCell><mxCell id="34" value="" style="shape=image;verticalLabelPosition=bottom;labelBackgroundColor=#ffffff;verticalAlign=top;aspect=fixed;imageAspect=0;image=data:image/png,iVBORw0KGgoAAAANSUhEUgAAAggAAAE6CAYAAABzpqpYAAAgAElEQVR4XuydB3wUxRfH3+zulXQgdELvvRcRkKKiIKAgKGBDmlTpXTx674KCIIiCGgUUFATFANI7SIfQSSCQUNLvdmf+n5m9QED+knK5XHn7/yMluzNvvrN3+9s3b94jgAcSyCSBlceO+X277u+ayTYaFKsyH4kYNbMWG58vwHzr5RZvnu1Zq2BCJrvAy5EAEkACSMDJBIiT+8PuPIRAaCiTZ+5f8MoDVR16837iC4kagEYkoASAMAoAEhgoBaNCIafZdNwsyZsCfJUdTRvU/Ht6mwaxHoIBh4EEkAAS8FgCKBA8dmqzbmCvWD4vdv7m3WWXk6SmDAgwkIEBA5AI8N/EL3Fn6X8h4i8MJErBn1iT8vub1/oa5a+6vFh+Z/8WLZKzzlJsGQkgASSABDJKAAVCRsl56XUtLEvK7L8WsSea+eXi7gJGCICkgXAdpD4eioQnQAkPgwYypZDTQBNK5s45OUhSvto8uWeklyLFYSMBJIAEXJIACgSXnBbXNKrXolU51x27du52spJbt9AGGhgBiJbiMvj/hgsnAlcN/FQCkhAUmvA/+NisUCJf4NwQH2Xuxkl9r9pdD64JAa1CAkgACXgJARQIXjLRjhhm2T5Tfz+bYGguMQ2oxMSDnnsOCANg/3UnEQrAJN0ExoBwQcEM4ndKCBBCQNasIGkSVM7v82sRP1PXdZZeUY6wGdtAAkgACSCBjBFAgZAxbl531dvzvqm/7sj1XVYigcQk0IRHQAYJrPpDXo8y0B0EPPaACwLCgHFxALog4AfXFSzl30WIAr+GL1PwGAUinAwmGg+V8uZcUKlSlWErujRJ8jrYOGAkgASQgAsQQIHgApPgDiYU/2jSL5eTDa0JI0AlGYh46FMhCkw0GUoEB53O52PaGh8XL8cT+b3w6Lt+qmwCTTIJ74DY3QDEHqqgiJ0OXCjoyw5cIABI1B7KQHiMAgMTVbX6RYIH/jmx9wJ3YIQ2IgEkgAQ8iQAKBE+azSwai4UxaUHXaXfvMgikwOMH+NNc9wYUMlkvN6lS+rkVfTrcfNg9Y6THkl99bt6LynH3QeLgEzfuDboPRqCSBIRyQUCBSZK+PMGdCFwo2GMUCONeB0l4FiSiAiEU8gK90rxmsddX9Ol8NIuGiM0iASSABJDAEwRQIOAt8UwCHyz+ufL3u04dt8oKUJCE94ARGfwgCYa2faGk5bWGF/+rkR6LN/heiLxV6erNqCWXE2lVRgxi9wPXCjz+wB66+FgTelyD/hPeo5kmaRVy+y46OGtw/2cajCcgASSABJBApgmgQMg0Qs9v4MVxX/YKu3hnEZXMwPjOA6ICozLkhfh9USss9dJKgHsi9k5eWinOJk0+FH6jZbLiA5QCEIlnUeC+CS4WuPeAr0fwnREGu2OBn8TAyGxQ1JdsP79oZOO09onnIQEkgASQQMYIoEDIGDevuqrJmM+Gbrtxbzowo3jzF/9jDIr5alsvLhrxYkZgvLsgtPix8GvtLt6NnxFPTAAgi2b05QZ7wiUR5/BoByUPjuRCoYjRdnFk9+aVe9aqhSmcMwIfr0ECSAAJpIEACoQ0QPL2U5paPu8bdjl2gX2rgogR4EGGBQ3Jx298+UnVzPAZserXnNuOX/rkVGTMx3GyWaRHkDUGmsQFQ0reBKEc7FkZGfBAyRyKdqd1tbL9VvRt+31m+sdrkQASQAJI4OkEUCDgnfFMAm/N/7be2oM39thkLgx4EKF414dcCsRGLxmWk4jEBpk7Rny3qdja3adGXX2gfmCVRJAC8A2SwpuQkr9ZeBb0hQhgNlAYg0L+5j9kBS5SyqIVSbkV5GuIDzLLcYGSFG8yK7dLhhSKKF40JD4wqEJch4rEmjkr8WokgASQgPcQQIHgPXOd4ZGGXrvm093yzb371GAUjfAXe4mCrFFoVbnIgJ+HdJ6X4cafuPDN6csbHrgcPS8i3lZd5bUduEbgYkF4Lbg44Z3L9qUHfReETFXQ+OoDD1UQ4sH+izCQJQAzATArEuTy8ztPqLYuX6Cyp3GNMrstbZtjMiZHTRy2gwSQgMcRQIHgcVOaNQPK133iviibqQ6TNCBUFg9qfvPkJ4nnIr/6tKwje+XBjH9/sshyMCJ2SJwm+Wiy7jl4uOTABYA9AyNLSd8shEtK/IL991RGPcy7wFMuqCr4AoMgf/MZXwNsyaGQ7Y0rld89o0vLR1s1HTkgbAsJIAEk4IYEUCC44aRlh8n1h8wZve920kTxsKaKCBbkGxDNWhK8VbdCt6/7vLHM0Xa9NevrMjvO3vzjlo0WISDxzZWiTz1pQirBkLrjFJHwVGP0mAbhd2AaSCDZW1TBh1EIDvA5Fuxj/r5QDuPGGqO6nbDwJAx4IAEkgAS8lAAKBC+d+PQOO3T3bp9ey/+KilFN/qlf5vkNlIslRn++/JN8HRwQi/CkXdO27Cy4Yv3eLefiWEVR/4E9PW9C+sZjFwq8LbsG0JvmWy15cUoNCvmaTufzN0+sVjp4y5Kene6kr308GwkgASTg/gRQILj/HDptBOX6zZh3Plbrr4mtjvztm7vyGchUgkbFA78J+7Tne1lhDGNMrjl0zoYTd6yv2iQFJKoCJfJTEyw96v/xetM8jkG3Vz9DJGKyp4Pk2R0Jk4DyZROSkgJaFkGQ/iwRKoXkXRQSaJj0/fCuEVkxPmwTCSABJOCKBFAguOKsuKhNC8NO+o9b/cvt2zbFrAcL8shADYDK4MOs8OHz5csu7NH2XFaZ/9a0FV02nro6K5GYcjLGEzYZQKMaEFn3KvAHvlg+4A/8FCPshaHEv/B/pDLPzKQXkBK7IlICGp/4KNiXKnjuBYVRMGr34bV6FReGlM41fGbz5vFZNUZsFwkgASTgKgRQILjKTLiJHc0sX4zdfjl6nEoUAKYAAatIu8yzHgaod+GVBpVy/Nizw/2sGg5jjHx/IjzEFqMqZknT9l6+Vnv7wVPNNcW39Y3bUT6JNpWoslHRJEkSOoBRwogkM2KQqSguxZcVNHvWRl5h0u5VECkdU30chEDg/+f/rgADGxioBHlIMjSrUqzCNwPePQPEngs6qwaL7SIBJIAEspEACoRshO+uXVcbOv/CP3eSS/IwP7E7gD9JZRuYbEYoklNjk+YONWRFPELaeT0eqGDZtk2ukLNgvt/3nmx1+NzVwWci7pfSTGaxpMCjDvQy1f/e+SAUAuMeB5u94qReblKmGlTPZzzZqelzjQa9Uj8m7XbhmUgACSAB9yGAAsF95splLO25fEPpNdtPnrsjc/e8XjtBZgQ0xQZGmxkaFfHZ9ueEXk1cxuAnDHl3xko//7x5Su4/Gb78ZGRMDZvMK00qwB7zIqRkcdSAMO5B4CWoZdC4V0GmIKkKmLX4pKYVCn6yYVS3ma46VrQLCSABJJBRAigQMkrOy69rOnphx53X7q+2KRIwpggaPNiPyRqYVBUal8rTffPYnktdHVP72aG5rFbrK4fCL82IsEoFmaQAYbLwLIBkTxDJy1unxFzo+R1F7AJfw1CoDfIp2slXqldo+2XfrIu/cHWOaB8SQAKeRwAFgufNqVNGxGMB6oxYuOBoZGIflSc2FLsZuAdeEn8OYFaoXTR3zb8sPQ87xaBMdmIJC1N2/32hauS9+LHnbse2tspGICJjIwWhD4DvmuCZmnUxJASRcDJIYueDGazW8oHK0lZzh/XD/AmZnAy8HAkgAZcggALBJabBPY0YsnKz39aT5/45GpVUnFd5lKgej6BXS6CQ16hGtWlcueKSTq3cJo8AFz6vTf+mXNS9+2PO3IjpFKv4ivgEWQPQJC4OUspOpKSBVkUQI2EqyKBBLjO52Kx80Q6rP+58yD1nFa1GAkgACdhfghAEEsgMgVcnf5Xn0PmrJ+6wgLxUuORFggGxlVDSKFQJ9ll/ZFa/14kbRvx3nL2i4rFL0T0u3Uvqn2Tk2ycNYlfkowJSPCCB2gM1JZBEISkKZqJZiwXSJSfnju6POx0yc3fhtUgACWQnAfQgZCd9D+m77azl9X4/enVPosFPT0bED8aTDwEYaRI0Lpl/wOZPezisoJOzsb03d3WVY9dvfnY6MqGhZjSD9rAWBB+mfbyPGUVBZhoUNtKzjWtWar+i5+v/ONtm7A8JIAEkkFkCKBAySxCvFwRaTPp84O/nH8zmlRb58oKemEjPZljIAPBq7fK1lnZ/zY3d7oy0n/FtiyNXIxdejqVFeTZJxnNOS1wI6cWk+DKLSNckqk7y5QheFMqmlQv0G9Qq573PLBYL1nbAzwsSQAJuQwAFgttMlWsb2j40VD6149Km03HyS3rNBJ5bQH8e8pTFhXzozhmLhjfO3vwIjmFYfdC8QVfvx0+4q0m+QggIJwIFxsctciekFIUShamBahIU96FrX25UsdvnnV+76xgrsBUkgASQQNYSQIGQtXy9qnVepnlpz4nxEclGM5N4oCIRTgTCazcwK9TLn2PGrqm9h3kClDl/Hi+xaN1vc67HsRZJRFFEAStx6JUmiT0Toy4ZeOUKFQJlcvuFMvne+XnYB1s8gQGOAQkgAc8mgALBs+fX6aMb+v3WGot+33cgASSJbwEU79JEFsF7ASwxvk3dSvW+6dX2hNMNy6IOX7Usen3f1buf3aNyIZ5yOiUiQXyw9OKT+mHP6GygiVCjYO4R5cqWn7eiS5OkLDILm0UCSAAJZJoACoRMI8QGniTQdPTCGTsjHgzRqAKaxAsoUfGAlICXUWYHriwcUTerdjUwJtY2WFa1/7TZ3rjxvGn0lo0bzj5IeimZSiBqPkgpnoQUkaBv/hSrEEyDEoHK2ufK5umxsu/70XgHIQEkgARckQAKBFecFQ+wqVjP8cev2IyVCZXtwXsUCOWVEZPhlQrFOq4f0fl7Rwyz/fTl1UA2vXv60rUSiYpSQSaGMn40cVODqpXfX/Bhi9uO6COtbbSYsvSVHWcjvk8AcxAVsQk8R4Jwodh/cZcCBcKdK6BBEQOJfPO5aq1mfdDcjYM300oHz0MCSMDdCKBAcLcZcxN7d1+75vP6+G8e3FGNChXBiikPSQoFZPVqxJcjizniLb/luEXv/xEet8ImVjSs9td1BUIUKzxfuUSj7/t3/NuZyGbv3u2z5NtdOy/FWWtokgwq4RUjU21e4MWfgBd/kkACCjlBhXYNqnRe0q3VamfaiX0hASSABJ5FAAXCswjhzzNMoLll8YCtl27PUSWzSCikL9DLYNASoXWN0h+vGfDW/Aw3nurCkK7jI29opvxicYFXZrQv/Bu1ZHihfMEJf4zsMtYR/aSnjVcnfDP8r3NXpqqKBJTwBEs8iRTPuKgJDwKvCyUSLjEKBqrCi6UKjt809oNP09MHnosEkAASyEoCKBCykq63t80YKdBj6r6bqlJbD9JjQCUe0U8gN0s4G7V8bDlHIOqxYYPvmnX/RN1lsh/fXsmTNvJNBFwn+Ksa7Vy7dK0v+r95xBF9paeNd75YW/XXvSePxoEBNGIEAKs9FTUvcKXnTNCLTTMgRGPPFfb/6+/x/V9MTx94LhJAAkggqwigQMgqstiuIPDB5+sar95zKswqm0XiIH4QUMBIrWxMu6YlP2ld95IjUL27OLTI+j3nTt0nvn7cpS8xmyjhzLcbFpCsWyKWjWnuiH7S20bXpaG59hy7vOtsnFqOAi8bLTIjPIpJsG9v4LLJpFEo5GPbFf7F6Abp7QfPRwJIAAk4mgAKBEcTxfb+RaBEzynbL1mVRkwsM/CaBgSIpEEFf+XAyQVD6jgKWbsZy1v9cfL6+gfER7yZ87d0QjQwM6Z1rlOswdLeb+91VF/paSc0NFT+4bq0/dej4c+rMt/LwQUCFwr6pkielpnbymRePppCYR8WHr5oeBnCy0TigQSQABLIJgIoELIJvDd123zc0ne3XryzUuNxhFQGTWwB1CCI2uLurRgd6IhgxRSe5T+eOuH8XTJGU2QAylMe850TVqiUQxp3dO5wS3Zyf23aiv47zlyZFwtmsbAARANg9iBGRkUcJ5EIEI1AiEmNXPvFiKK1COERjXggASSABJxOAAWC05F7X4fLLzHz4Mkzou5qECBRCTR9+R0MYIM3qxf/8LuP317uKCp8F8Hk5TsjY2w0iKdBFvkcKUDFADLg+GdDsr1g1Evjl7xw+NKdjTFg9OXLIIwY+IKIPauSXSSIhQgGeWS4M713+xffrVHimKP4YDtIAAkggbQSQIGQVlJ4XqYIlOozbcuFBPkl4frnK/CiNLINQkza5auLxxTPVONPXFyp/8z5px/QflyI8FTPMmXQ/9XabWZ3bLrekf1ktK135v1Yf9OxC6tjqKko96Q8StPMW+R0eBgnj9eQIQ9JujPk7ddeGvZy9aMZ7Q+vQwJIAAlkhAAKhIxQw2vSTaDqx9MH/nOPzQaZAOU7DewudbNmU4d/PcpkceB6+wcLQ/NvOHDhQowk+XEXfi5Ivnfnq5G5CQ9IcJHjwwXfFdxy4spfkclQlmebFLrAXkZaBDESvkTCJQKFIoEGeKtRzRpT33zB6TsxXAQXmoEEkEA2EECBkA3QvbHLt+f/2HDNgbM7NNkIVOz/14s4cVd6x6rFOnwzoP2PjuRSutf0+eGJWj/+iK0UJH93fN7gTo5s3xFtjVr9Z741+w6Fnb+vlWdihwOPS0jxIuj7NPVCVwzyKMlRNYvlr7NxTLcrjugb20ACSAAJPIsACoRnEcKfO4TAQcYMrT+aFnEz2ZCbEU1/GIo3ZQrlfVjE6c9GhIgEBg463p7yXbHfzl4+ndOgXtq0ZEy1ioRYHdS0Q5uZv/G8ae4voWuuJMsteRAn3+4ociQ89Cbw7lSRdzGfgd18rlJI7bX937nuUCOwMSSABJDAUwigQMDbwmkEqgycufD4PdJbYqrIUSB+BwYGK2Wv1yzl9+OgDomONKbVmPnDG9equnrw6y9cc2S7jm4rLIwpXX+c+sulRLkFl0jcw8I9B4ynW+TeFuFxUUFhMhTxgxt1yoXU+b5fxwhH24HtIQEkgARSE0CBgPeD0wg0G7+o4bbwmB1UMgAvjSxTCjwogIfkvVOvZP2VH7Xd4zRjXKyjsLAwpcdPe34NT5Ca8xgNIQrshyTSR/B/4wWvKFTMY7peIF+ucluGvhfvYsNAc5AAEvAgAigQPGgyXX0o/E35w7Vz7l2Js/lRXgaapwEQd6AVquYwbz02Z7BXpxkOZUwe02/qlvPxUlN9CcZ+2D0IhAd3cm4UoIg/++21MhXbLejfItnV5x3tQwJIwD0JoEBwz3lzW6srDZw7+GRM4kwmKfoY+Fo78JoJ8dCmTumgVf3feeC2g3OA4ZawMGVV6K5dF+ONdTSFByqmEgqClf6RlYkKdfKaN+yeOqCNIxNNOWAI2AQSQAIeQgAFgodMpLsMo/3MVTXXH7t8MFnhGQQf3X4KBWhRPW/V9QPeP+4uY8kqO4ds3uz328Z/7p65Tw18F4ZIUZ1yMB7GSIExCYxgg+r55cl7pw0bnVW2YLtIAAl4LwEUCN4799kycovFIn0bE3TxQmxyUVGamYsExqsaEqif37xy19R+72eLYS7WaY/FG3w37j8Sf10z8fzLevyB2N3AazYwIBoTyw2KZmVv1yjbZeXHb37tYkNAc5AAEnBzAigQ3HwC3dH850Ys7rH/5t3FIuUyyEAIL3isQm41Edo+X9NvSc9WCe44Lkfb3N4S6v/HxRPR9+QAo9gSKkpmS8AkfalBEmmfNAhUbNaezWvUmtah5T+OtgHbQwJIwHsJoEDw3rnPtpG/PmV5sc0nrl9KNJrFIkPK1j6ZJkO1/IFVDk3rhw86++z0mP99yR8OnjsdK/ka+FIDT1RNGF92eJQygqevLiAlXV+19JPiTQjRa2rjgQSQABLIJAEUCJkEiJennwBjjJTpO3PfhXhSW+LPMwqgybKIzq+V37zkwNR+PdPfqude0WbqV/W3novalaABUJFMiQBjsn0rJBUFqSTCoKAB9l9bPLyu55LAkSEBJOBMAigQnEkb+3pI4MXxSzqEhd/9QbO7y/kPeOLlYBIP7WvVzPV579fuIq5HBBqOXjBs7424aSpRgKXsZhC5EhiARECivCYkg+o5yNQDc4aNRHZIAAkggcwSQIGQWYJ4fYYItJ8dmmvT4bPR8YoJmKg3QEXpY5laoXYB35f2Tu3/Z4Ya9uCLqg+Yueb4PVtbTZIBmO454DUcgPE4DptIOeVLVdq2drH63/TtuM+DUeDQkAAScAIBFAhOgIxdPJ1AreGL/jgcFfcif/cV6wzAH3waVAqEP0/MH/YScnucQGgok0dtm/rPpQS5PI9P1D+8RAgsUQ2SSwTCIBexqn1fqZ/T0qFJHDJEAkgACWSUAAqEjJLD6zJNoKVlaaU/Lt76xyobRcVCvtlRYhqYiA1eLVui5NqRnS9muhMPa6Db/G9Dfjl65Ug0M+TmPoRHuSTsCoExXlEbqgSRq23a1CppadIEgxY97B7A4SABZxFAgeAs0tjPvwhYloeZF2/fHhkp+eUQGRX5Pn9JBVkzQbncMPXkrEG4lv6U+6bJyAWtD95M+CVWeFx4rGJKdUz7yQTARG1Qr1DOj7dP6jUfbz0kgASQQEYIoEDICDW8xmEE3pzz7YC1x6/PEQWKeJ0BJjb3Qy6FQrtalfIs6dnqjsM686CGXh2/eNWf4dGdbJJRD1RMOYRg4DEdKhioCq2rF6/+48DORz1o6DgUJIAEnEQABYKTQGM3TyfQyrLY96/wyPgE2UdUeNRjERjImgTV8yqTDs4cOAbZ/ZsAY0wq23fKofMJSjUhDzi7lMBF7okhvF4DgTI5CTQpUThgUZ8OGI+ANxISQALpIoACIV248OSsIPDC2CXzd16N7qcRXp+BiocbAQXyyonwZoPyuRe+3zY6K/p19zbfXRBafOOR8NMxzGCSGAVKmF4WmhfR5nkSROZFFZ4vFDB756Q+Q/SUVHggASSABNJGAAVC2jjhWVlIwMKYNP398ckJio/C4xAkEbDI34oJlAmkc8/OGz4wC7t366abj/uyy1/ht7/SFANQkR9B3xEi6jaABrxqpo/tATQuX6TBplHddrn1YNF4JIAEnEoABYJTcWNn/49A0zFf/LbjWnQLVTIJgUC5F4FJ4E8SoVODCtUWd217DOk9nUD1wbPXH79jbaXJEkhUA8o9MfaAT6AyENCgYrABBr/2hk+XJsWTkCMSQAJIIC0EUCCkhRKe4wQCjAS/PyExhviauG+cu8ol7ioHCQoak7ZcXzymuROMcMsueiz+vcDanXsj7ij+wnNAwKqLBO6HYXzJhntlJKhdyDh/36T+H7vlINFoJIAEnE4ABYLTkWOH/4/AGzO++vmXk7fa8GJE3IOgZ1gEUMAGDQoFDQ+b1Gc60ns6gfpjvmy6//rtrRoowCR9eYGnrmZ8dwjwVAgEfDWr1rJKsSo/DnnnFHJEAkgACTyLAAqEZxHCnzuNQGhoqNz797M3o5kpN+N7/IUHgedGYJCH2ZIHtW1VYORrVbBGw1NmpH1oqHz5aMzxI9djK6gy3wnChQHjzgMhEgjYgDADlPYn/5z9bHAVp00qdoQEkIDbEkCB4LZT55mGt5i45N0/z99eaSVGEXTPXeZ6jkUKBYza+R4dR1WwNMGSxk+b/dZzV+f769CZm/GGAH23qPh0M3vlRwp8pwMv6PR8wcBR2yf3nuKZdxCOCgkgAUcRQIHgKJLYjsMIFPtoxukbSbZyNmISiZPE1j0hFlQoZlLOXPx8SCXC0wfi8S8CL33y+QdbryUuB5IEjJmB/QsTr9Wg3h/U8oWqY9o9fwURIgEkgAT+HwEUCHhvuByBft/+Ue+rrYf+SgLiIxYZmAyM8Ddg/mcVQnzp2cuLRlcghPD3ZDxSEWgfGmrc+Uf41UiV5FMYAVUkn+LbH3nAIj+RgAQUygey1Sfnj+iM8JAAEkACKBDwHnArAo0nLF+680JkV548iaXk9xEL6hRkSqBMADt9+rPhFdxqUE4ytuOin6r8tO/CURuReNZlYPZ4hEfdMwig1qS3n69Q9csebc85ySzsBgkgATcjgB4EN5swbzGXpxKuPHD2gTP3bDX4A07To+1EwCLRJDAAg5fLBk/9dVRXLOj075uCVP542q6T96TnqEQB+E6GVJ90XjlTZgSKBWibLnw2ooW33FM4TiSABNJHAAVC+njh2U4kMGPzsbzfbv17xz9R8WWpSCGse8r5Tn8m2cBPTaLlni9oPtSzp82JZrlFVyuPHfPrM2v93VjZ16BHLKY+9GyLfiQ5aUCz58pN6twMYxHcYlbRSCTgXAIoEJzLG3tLJ4HQkyeNIz/buPlyIjTW9J17dqHAQGEq9KpfrdSCni3C09msV5xee/CsLw9Gq934XkeRhZkfImkSL9VAQLZpUClY+uXonKGvewUQHCQSQALpIoACIV248OTsINDlq82Ff9q+/3wsMZnExn77wbftvV237Cure72+OTvscvU+GWNy0IeTo+PAEERTrTHwJQbOkW8hDZKS707t3Txfz1q10Avj6hOK9iEBJxNAgeBk4NhdxggU7jvnj2vxthfFAoM9WJHHLvZuXq32Zx1fPpixVj3/qiajFs3/O+JePw2MwPhSA8+ymKqmo0Gzwstl8vT5bUyPRZ5PA0eIBJBAegigQEgPLTw3Wwj0Xb6h3Nfbj5yOlUwgcjADgCyyCVN4uYRv0CZL/wfZYpibdJqr6+SYGE3OCTw7ZcrOUOFFkIEQBrmZ9frt5aMLu8lw0EwkgAScRAAFgpNAYzcZJ1Bv2IIlB6ISu2siUPHhYjqYbUmsSZ1An039+ydnvHXPv7LZ+KWbtl269QoViZOeDFjUwAwA87q0LtizUYVIz6eBI0QCSCCtBFAgpJUUnpctBEIZk4d/PFe9FKcCULGFQayf8z+XD5C00wuGKNlimBt1uvnmTb83x6yM4wj1SpkpyZPsQfUnju4AACAASURBVIuUQs08hu0HZgxs7EbDQlORABLIYgIoELIYMDafOQId56xsuubota02othTLusaQaIqtClZoNvaTz5YlrkevOPqQt2mhEVopLGo7ihJek6JlIMRCFRj4x58Oy7AO2jgKJEAEkgLARQIaaGE52QbgdoD5449fC9pnMbfevkzTUTfUzBqqjry65EmC6ZbTtPctJjwTc/NF65+QYnpYWZK/uFnjFd85JklNPiwbqV2Sz96bW2aGsSTkAAS8HgCKBA8forde4AVB8/9/VS02lykW0556ZUYFCZJ0deWjc3t3qNznvVhYUx58/tJ0TFWU6BwHqT+5PMElQSgoJR899rS0cGERy7igQSQgNcTQIHg9beAawMo1HvmpYgEVoyJ110JCFFFyeI25fK0WTu863rXtt61rCvVa8pPFxPkdpRnShL1GVIdBMCkaaxfs+r5Z77XPMq1LEdrkAASyA4CKBCygzr2mSYCoQdjgrp+tuRePMjAJAaMcVc4gC9Njh1afHQOiwWrOaYJpP2kN2aufun3oxe3JBpNqXIhpHwFaCIzZZW8vr8dnj7wtfS0i+ciASTgmQRQIHjmvHrEqJqOXdp++5WYUE3S18h50SaZApT0UzeeWzSqpUcM0omDsDAmLes9/fT1JCijV3jkh/4VIBJUMg2MqhVeLBSc67epve860TTsCgkgARckgALBBScFTdIJlOw7e8XlONv7miQBoVQ8xRRQ4c2qxap+N6DTceSUfgL1hs8ZdOBW4iwKfFeI2DMqCjcJfSAEmBUaFcs7PGxct+npbx2vQAJIwJMIoEDwpNn0oLEwxkiR3jOvXU9khZjECwzpSww5SNK1u8s/KeJBQ3XqUGZs3uw3PfTwpWjNkIcSBrwuAxcKIgZUVIWmkJMmwqs1SgWt6v8OZqh06uxgZ0jAtQigQHCt+UBr7ASGr99fcf5PW04kSQY9/4HdFV7eV113euGItggq4wSqDJw9/cS95KGMexH0vaOpGmOgUAYvlsnb5ffRXVZkvBe8EgkgAXcngALB3WfQQ+2vPWjOyMN3rZP5Pn0qMv8RUJgVWpfL+8LaEd12eOiwnTKsHovXF/lx37Er91VfoIpmzy+h7xIRyw2EQIiB3nq9TeWiC1q0wDTWTpkV7AQJuB4BFAiuNydoEQAU7DFlc6QVXtbTAhMRUhcoa8l3vxzug/v0M3+LVOw/67NTsayPqPAo6D6eWVHRkqBOkRwv7J7UF8VY5nFjC0jALQmgQHDLafN8o3N1mRp+F0gJEW1vTwucmyQfvbP8k+qeP/qsH2GnJeuqrdn5zxFNMoEq9IF9V4NdJ8iEQAl/tqdzcHwDi8XyZIWnrDcQe0ACSCDbCaBAyPYpQAOeJBAWFeXfeviy2Fiw12ESpYkZlDQnrw//fGwbJOYYAjWGLFxzJDqurajP8JRvApOWBA1K5auzdWyPA47pEVtBAkjAnQigQHCn2fISWwd+vfn9+VsPrdBkw8MR810Mz+f36/f31D6feQmGLB9mi0lLqv15+uYRm8EMLEUh2L01erJlAhXzGjeemPEx5pzI8tnADpCA6xFAgeB6c+L1FlX/eMrgYw+kmTTF7U0AjFSD3s1qVpj73kunvR6QAwFUGrTg91N3k5o/XEMgAESU1eZLDhqYNBu0qlG03I8D3j3rwG6xKSSABNyAAAoEN5gkbzOxYp9Jf55KMDZ7FDbHwJ+o8N3EkX6tCpIEb+ORleNtaPmyyu6LN45pxE/sXtA1GU+KQIFQGQixQYUc8oITc4f1z0o7sG0kgARcjwAKBNebE6+3qEC3iYciVVMN4fXmb7QMIL8PxEYsHBKEOxgce3tYLBbpu7s+O87HSs9TykNCJeAJlDh0osnAZBUCmc3WvV6JgrN6drrj2N6xNSSABFyZAAoEV54dL7UtZ7fpF+9qpLh4kyUAEiWQS7GeubN0dHkvRZKlw24x+au6W09H7E02GoFoBERpbXsKZmAyyKBB+ZzGeSfmDByQpYZg40gACbgUARQILjUdaAwn4N9lyvU4phQCXpZYvMwSyEUSt0UvH9sECTmeQI/FBw1/H/sr/EwiFGYg8yAEe/Ik/rsMhFHIoaiJ3V99rsz0dk2uO94CbBEJIAFXJIACwRVnxYtt4hUHF3w0Iyk6WTKAxB9QRDysCpnU324sHolliLPo3mg769t6P5+4uocxntr6yfTLADK1Qblc5vEn5wz6NItMwGaRABJwMQIoEFxsQrzdnIMRzLfp2GnxD1T+Jqs/qHhBoaI+dO3lz0e083Y+WTX+HosXG347EHnjhuaf57GsiikdEoDcxHZ7eIeaxYc2bx6fVXZgu0gACbgOARQIrjMXaAkA/H6N5Wo9Zkq0VeI5ELgHQQJCKJQ00h8uLB75NkLKOgLvzPmu8Q/HrobZJEXsYnj84EWcVKicw/zpkXmDxmedFdgyEkACrkIABYKrzATaIQisvRCbt8P4BbdUkSQpRSBoUMpo++784k86ORLT8rAwc5cmTZIc2aY7t9U+NFTetfF0QgSYjUBSvhoefUXwWIRgmUaObfdm8f4tSmMRJ3eebLQdCaSBAAqENEDCU5xH4OujZwt1nb3muso9CHyJgREgRIMyJtuqs1988o6jLGGMkXLdPr1TrnhIq1/G9NjtqHbdvZ1201f2+eXUzc9Uwd5eZltPqyg2NsiaFarnMY87OHOwxd3HivYjASTw3wRQIOAd4lIEFm7/p/DHyzZc1T0IukCQQINSBvW7c1+OcZgHofHYud/vuMbeqpRDvXJs9pDimF/h0W0Q8P742Fhi9te3OnKBxuy1HnlCZgZBEo2c1uuloj1r1bK51M2DxiABJOBQAigQHIoTG8ssgW8OXi7QZf53EarMCzWleBAolDDSH8IdFIPQ8bOf3l978NQKm2QGszUW3m3WsMziLi+fz6ztnnJ9Y8vCtX9fjn1DIzyTogRMxCPYdzYwCgqToEFxn6XbLH27e8qYcRxIAAn8mwAKBLwrXIrAhrMPcredtPC27WEMgigOAEVNdM2VL0a+mVljXxq2oOCOW/dvJBMjcN8EAQ3q5Pdtsndqv22ZbdtTrg89yYxdZk6+mwCKryi3LfwI3Iugp7XktRqCZRrbd1Dr3JaKFa2eMm4cBxJAAo8TQIGAd4RLEfj7yr2cL1qWxiSLN1Z97ZsvgRcyqb9eXzyqVWaMbT91cdC2k9fu3ZFzAiHJQIkRZMqgZv6AdfunftQ2M2172rWVPp5x7PQDVkUTAkEDsAsFfZx8R4MGdfMFTNk1ve8oTxs7jgcJIAGdAAoEvBNcikAYY+bW3WclxmqpttkxArnlxK13lo19MaPG8qDESh9PP3r6HqtCuXeCqUBABkYo+KoJ0LVRncILurfALIF2wPN3nmw4fOn6HUnEBISpQB/uakiZAQZ+zBoTv2JMcEbnBK9DAkjAtQmgQHDt+fE66/iDPFePmXF3VeabUg+AAIGcknoyZtmoShkF0mD052/sunF/rUR4ZQEq0jcLx7lEQWYAVXLJvY7MGvJFRtv3xOtCuk48eYMqFRjYt5w+NkgGBqZBw5CcI/6a+NE0Txw/jgkJeDsBFAjefge44Pj9u0y9FgdSiNiLz8sOMwJ5zST61hdDc2fE3HdnrMz764mrV+9KRpOIyhdOcv5f3rYCDDQIMapxPy8ekasWr2+MhyDQft53b6w7fGmtRgz6jsdH9beFuJKoCv6SGvNgOXoR8JZBAp5IAAWCJ86qm48pd/fpF++oUPzRMAgEERt8N3KkuUVpku4EPTWHzh5z7HbSBJXwDIH82WavI81lAuOr6xoQJkGzov4fbh7fe7mb43OY+dybU6jn9IsRNrmYnlmRByk+TE8h/q5AMrStVLhl6OD3NjqsY2wICSABlyCAAsElpgGNSE0gzwcT9twm5noPX1mZBGZIhgFvNio59bWGF9NDa/bu3T7Tl4XduUV5RL5dGDBeIlLS0wnzrXygiqRAZQPIoTMLhtRKT/uefm6LCUtGbgmPnqyLK87t8a8Mzi4/qNE9i2p5LRbLk/mZPR0Pjg8JeDQBFAgePb3uObhqA2f8cewuvMjDBAhQ4FvtFE2FRoVzvPfXpF7fpGdUzw2c/cqBaHWTKj/tVud5Fvhef004FnyoBi+Vzlt7/ZiuB9PThyefGxYWpnT+7uDlSCsrxFKLA3taBJ5+mZfTerNqwYahA9/Z5ckscGxIwNsIoEDwthl3g/HWGDRjwNEYNofyt3z7Fju+D7+cv+2r0wtGd03PEMr0m7HkXBzpzvMdpOzpT329xACocCwwkBnvw/jDyQUDsShUKkgNR382avf1B5M07kUQcSF6+CiPS+A5EfgOyBBIjn69Ws1CC/q3SPcSUHrmE89FAkjAeQRQIDiPNfaURgLdvlrf9OuwY1ttio99GUAPK8xn0PbcWjKyfhqbgTDGlM4fTYqOSPYNBMLz+TwtGp+39qisdA5ZhXb1yhZe2r0dbnm0g94YGZmn+7gVxyKT5AKUazauqIQ3wR61yHTp9XLxXB/8/mm3r9M6P3geEkACrk0ABYJrz49XWrebMZ/mXaffi+WZjFK5tXNI6vV7y0YWTiuU1rNX1tp07MYBVeI7FfTKkI9n/qAg8XLSfB8D4cvnRrHnv1ygNO/0/CED0tqPN5zXePzCIbvC780QRbQYEfkjUidP4iW5c2rJ0KxsSN4fR3142xuY4BiRgKcTQIHg6TPspuML7jb9TIwGZe25FMVz3Qw2GN7qhXyWts9HpWVYVT+e8tY/98n3/FxK5KdcwlvVdHe5EA98NwOBnEa4379twxKWV+rHpKUfbziHMSaF9J52+EaSVFUIAxGwmHrkfEcIger5fS42qlux5tw3mtzzBi44RiTgyQRQIHjy7Lrx2EK6T/k5QpXa8CVuvuOAb0fkb6l1cypj98wePCEtQyv78aw55+/bBlBQACTNXr445UoGBi0ZfEwmeKDq6+r8uSdejIkNqucyzzs8axB6EVKBfnXckld3hEdtjFdkAGavtmn/Od8myuERxqC4n3S5VMEcfSsXNm6b+d578WmZKzwHCSAB1yOAAsH15gQtAoA6Q2d2O3LL9qVNVHXU3dl8R0MBWT0asXR09bRAKtB7xvabCdBIj763LzFIqtjaKGsMqufzTaxRNuTsiu2nqlmJWeRD4OcSpkEuE7vft1ndEEuHJnFp6ctbzqkxZN5Px24ntdMku6jiwZ2UAFUUYFTVy0MDgKypkEuB2OJ5Apb5GqQv/prQ6xyW1PaWuwTH6SkEUCB4ykx62DjWHbmbo/O8BdEJxCxJTAbKXQgMwF9Oujdk6ehgC3cn/MehJ/mZHBNpM+bg3nDdHc4fXlwESEIv1C8WuHzXpz265uo28fZd6hPMhQGT9PwIMlPhufx+i3ZOHdDHw9Bmajj9vtwY8s2+oxfvU2aQNBk0XtdCeF14Lgl78KJYftBdMoTJYNTioUQu49ly+fK3rjryvQvPmrtMGYgXIwEk4DACKBAchhIbcjSBvN2nHLttk6roZRN4mWEFJFDh5bL5h2wa+cGs/+pvxuZdecd99+etOOJr36SgJ/mRqAhXFGLh9aohTX4e2HFbg08Wztt9Lba/WIoQjzUmAvXzgO3BJ+3b5+3fojRu3UsF+7mhs185eDt5k40YdFb8Z09JoqQrBz51EvDtpDwYNMSHRTWqUvKlElHBpyyWJtzlgAcSQAIuSgAFgotODJoFUHfQnC8OxST3VCXu9tcf3TwxTx6iXry1fHTJ/2LUyPJ5092X7mxVJbP9NJ41UQJCJWCSCrKmQcN8/oW3Te9/XXgbuk6PiWSQgzGDnpyJMJAohRrBppUHZw94H+fjcQINRi5Ysyciti0QI2h82YaLK+GqsR9CEPDdDin/RkAhGlAeVMIkyMGSrM3KFej946juy5AtEkACrkkABYJrzgtaBQBDv99aY95vOw9ZZb2wo9htQCj4qIT98fXQoAaExP4/ULVHzetwMCLxB/a03QsSA1NyErSrXzLX6t6d7/I26g2dN/vA7YSBGs+VIB5q+rpEDtmmrR4+0i8jNSA8eRJ7LF5suHJH2r/1QnQ1xreREgpUOAyIfclBuBXsiZUYSIwCFXELPJaEawm+e0QCHy05qXZIwN4a1Qu2mNOhQ6InM8OxIQF3I4ACwd1mzJvsZYwU7DX1SGSyoarIqMj42z8FicpQLUj79fC84a3+H47SPccPuWA1z9DrLzx6rRWhDIRCIUmFOc3LKB06dND4T2eH7vaZsnXbjTtWY06+DKGJ6oWSCFyslkPZd3juoHrehD4tY7VYmLQHlle7ePN26NV4W0meb0ITawl8S2lK+Ud7cKjwJ/C02SnzwSeCn6sIr5AvUFu5YPO12qUKNPqiV4cbaekfz0ECSCBrCaBAyFq+2HomCVQfMX/w8cjEmZos299M+WuqDH5aYmL8yjG+/6/5Ur2nLbiQIPV9fK++/WzGH/rG7UfnDmqc+voaw+dMO3LLOkwCGTSJii2PfAOEAZi6sPtr+brVr4h5EZ4CnOdIaDRuaSVN1QacvBbVOQGMRioEAl+q4VEKsj3Nte2xSpp6Uxyyfe8D1cAMxFo80LCrbtmC7y/v0/FaJm8fvBwJIIFMEECBkAl4eGnWExgeejBo5V9/3otMku1rDPrLqUIZ1C/sN3THhD4zn2ZFwZ7T10ZYpTf0n6VaGycAEmPQpGjwwq2Wrn1TX9tjcWjQL4cvXIpKVnLyB5t442UMCCFQzle9dHrhqBJZP2L37oFXz1zz25GaCZS9ExH9oHNMkuavynwJgnsMDIIlZ5py8MBFfb8DBcoUkKQkIJoB/GTtfqX8fj/smtS/F3nGjhX3JobWIwHXJYACwXXnBi2zE6gyeMHcU9HxH6vARYKe04An5PFnKmtcPLf/BkvPhCdh5es+df8tVa6tFxbSb3O+tCCqDxKA/i/XbTK3Y5NtT15XY/DsSSfuWEdZJaO9UBQ/wwYGRmiPJmUbLHy/7R6cmLQRCD150vjNL4eeu52Q3OrK7duvRydoJTXJpHtneFAjD0ngQYv2Lai81ZQlIC7qZEYhn1E6X69UnrfXDvvwcNp6xbOQABJwFAEUCI4iie1kGYEuC38u/OuRU1fvaLwOgF7+mR98ubtabrLi8MzBHwJ5GC4vfpb/o2k3biaTgo/yAacUF9LrLwxoXqfI7I4v/MuFPXLtn8HLNh4Kv6NBEE2p3cC3WDIJCrC4qOdbVCj4oz1uIcsG7IEN87LRc/aE1z11M7ZjrNXaJyaBgcqnUVKAUF5pk4hSGTyXAvfciL9ITCS0MhDNWiqX4ev5s4b0bkJ4wgU8kAAScAYBFAjOoIx9ZJpAzeHzJxy5lTyGewEYKGKZgIEGElWhUYm8LcMs3TemdBJ2iZnbTpiceI8aRGbExw+eYhlYk8r5A7YMfXoa4NpD5489eCtpHPCoe0l3icuUCTf5m1WLDQ0d+NZTlzUyPUgvacASFua/d/v5987cjH45OllqncAIEQUimQSUz1dK0iWRl8ImFiBkpkE+k+1swzLF3vph8LvHvAQVDhMJZCsBFAjZih87TyuBAcvDcvy0a/fF65o5J3+ASDy9r8QTHwH4sESoW7Jg962fdF3G0/laNu4NmfbDX9cSeeVBftiT+OiebAY+tkT6Qo6cvpsW9H9qAqT558+bps/4+XCkFSpodseEzIiI0A/UkqB51XLBPw7qgAGLaZ28/zjvlzO3AyZ9tap3xIOETreTbFVsYAaJSqDJuiAjGq+jwUUhXx6SwKQla+Vz+445MnvgtCe9Rg4wB5tAAkggFQEUCHg7uA2BBmOWvLj/yp0/bPzFkvAUv/whIgMBFYw2FUrn8QmtWqLgitsPEmr8dS5yoiriCB4dvNogIzYI1hK0fiVko8Vi+b/pmpuNX157/+WI/fFUAirSL5tEESeZMaiZx3fVvml93sXaAo69ddrP+a7l3vMXLTeTpFo2Zk+8JHIn6Ekw+PzpFTc1KOMn721UudI7S3q2CHesFdgaEkACKQRQIOC94FYEagyZ+9ORO9Z2KTkR9BDElD33DBRbIoBkAhvfFpl69wI/jy9LEA3q5wv8a/fU3s2eNfDnx342dN/V+9M1YhLLGbwfHoVvTE6Cl6sUqb1++HsHn9UG/jz9BF6Z+GX/g5eixsRoch4eb6KnrNKzMvLslpQoIBENcmiJULlYzrbbxvX/GcVa+jnjFUjgWQRQIDyLEP7cpQjwrYg/7z8dflszBvOEPGLDnD3OQNzMjK9Zc68C30DHf6X2IPAtiwATXq/fdHSbBmHPGhjf319pwOzfT99jLzHJBowaeJlCkFUjFA1MvNqyTLUyC/q3wDoNzwKZgZ8vD7tknr4udGV4HHldpcTAhR3jWS6ZPWW2qPOggkI1qJLbb16F/MGjv/k/MSUZ6B4vQQJIIKXGHZJAAu5E4LWpXxfZ+c+187FGg0jII4o5PaYEnvi7GBx3VTPwo/EJ8Sstfmkdb4/QP4I2bNl1Icbml9sq87dYFWSV/06hbqGgnnsm9V6S1rbwvPQTaDl5ecPdF67+8kA159QUnpuCCzUuABUgQjRIYtmhhFG78nqDOi1mvfPiqfT3glcgASTwNALoQcD7wi0JvPvl+uI/7jp5PhkUWU/CY99Ez3MlcN+BiDcQLgUQKREpARkoPF8wYNKOyX3GpGfQPRavL7J615HwJMVX4Y8kxusJMAkCtAfQvm7lYsv6truSnvbw3PQRWHzwoGH5jzt2HolS6ySLYATOn5ft5lPLBYIVJOoDASwOGpYq1HjD2A+3p68HPBsJIAEUCHgPeBQBy+ZdeSd/u+WGzWBWeDVBoRGovo+eb5vTV65twJhJJODJLz+4HvnVuMIZgfDO4jUFfthxPIIa/UDTn0wgM4DKucxbjs7+uHlG2sRr0kfgg0Vr6oX+fXR3kimA8MBRSeMikC8jqQCyKpxEPkkA1YKVT/fMGzY+fa3j2UgACTxJAD0IeE+4NYGalsW+927eu3o5EYKZRIAS/kbJ6yjwrXF6fIKsEajgr90MKVu12KZMxAx0+3Jz8VU7911IlswiFyD/v4GqUD1/UIf9U3v/6NYg3cT4Hov/CNp94uje07FqOZ4PgxJNL/ik8QBSVdR+kCmFkoG2AxPmj3quA1+HwAMJIIEMEUCBkCFseJErEVgeFmbeeiyq5aHwywuvRsflsypG8aBQVAqFA803KhfJ269x1fob+7conemAwr5fbXhr6Y4T3yeJ7ZX6zoicihY3rFXDgsPbNPi/5addiZe722JhTDo0ddVHf52+uDBeMYvlJD4PVJZAVpnwHnEvUrCiXu/TqllLS5t6x919zGg/EsgOAigQsoM69pklBBhj5L2Z3+QJj7oZIMn+rFi+gMTWhd6J6tDBsW+Rb89Z9cGG49eWJ/Dy09xJIVEo72/ccGr+oNZZMjBs9KkEXrYsLnf++u2/r6jm3Dx4FBhfZuL1OniGTU0U9QpgNPGl8oVb/TT8na2IEQkggfQRQIGQPl54NhIQBN6e/V3XjScvLX0gMv0xMNsY1Arx+3DnlH7LEZHzCMzfeN70bdhvc49HxX+UDGYAmcecSECoAkxWgWgUfEHVquXxnb1r5qBhzrMMe0IC7k8ABYL7zyGOIJsIvDph6es7L0Z+GwcmP77tLkhKvNupabXqCzu3xF0NTp6T5uOWtvzn2q0lt1SloCYRkR9B5dk2JZ6uGUAhFCoHSVsOzx3yil4zEg8kgASeRQAFwrMI4c+RwH8QaPbJ/IZHIxN+u6fKAfzDVNjHuvPS56MbIjTnE5gdutvn6z27R1y6bx0by3gdjkdVIYHKoIANcitJ23o2rtPG8k6LB863EHtEAu5FAAWCe80XWuuCBNrP+Pq57aeuf30b5NIKJVA7j69l98x+41zQVK8w6fUpK2oevhI5/2YC1LdJMjBe0UszAOH5MAhAER8SWadckao/9u9w2yuA4CCRQAYJoEDIIDi8DAmkJtBj8ZoCfx67sPlKglbZDCTpjVolW3/bt8MfSCl7CFjCwpSNvx2deCo6fng8z4NBGFDGk2jx3JsUSvrD9Yol81b+eWCXe9ljIfaKBFyfAAoE158jtNBNCISePGm0fLFl1YUH8W8Gylpk39fqVbO0bR7lJuZ7pJkd5nzz+s7zt9ZFJVBQ9RQZomAXAROU89PWvVWzVidLlyZJHjl4HBQSyCQBFAiZBIiXI4EnCTzfd2KtGzHRhWoXCToZOuXT8NeGTh0VrUnRe2YPW4xVB9N+v8zYvCvvr2F7isZSucyDuIRSUdF38yqyyQeA+IhWeCnoVAdPuc0Yi5eoDEym/txrEODr41ewaMnX9p67Jmpx8GRa3ItAeD0HpkJ+H9iVEBd3JMCoPKhXpuL0H0d0uJ92C/FMJODZBFAgePb84uhcgACvJTB96abIcoVD5vmW9pv8Y4cOmN3vKfPC81i8ZFlS+IEVaiQkJQ69GnO/fiIYQONVHO35DXiWa2YvAP14hS6+MYGX/ea/hJtAz6jJCEiEAOXiQBR24ufxSpAEJEaAKjaQNL70AFBMSV518ctP3nGBWwZNQAIuQQAFgktMAxrh6QR46egyPabeqlwq78K3iwdM6IAi4eGUd56/MfBmXHTVyDtRP12Ois1rlf1A40LAvhtRFOsUBbl4AW9ee4GLgJTDXspTrB3wf+PCQKgIXQykbGhk/Br7XyQGEk9yxTQAWQKJquCvyYnFTXG/Hv1yfAdPvxdxfEggrQRQIKSVFJ6HBBxAoFS38eeL5M2xJrha/tHe7El41fJtYK4cStljVyJGhkcnvKHKBrCJN3y9fgZQXoXTDlz8WS/XLX5/ePAHPq/c+Ugw8OJN+vFEqgMhFrjjhleC5P4Iopm1pNjiwT7b65YtOv/Lj9qH4fKPA25wbMKjCKBA8KjpxMG4A4F6w2b/YE20VZ3VdlilJk14jmDvo9kyCgAAIABJREFUOSwWi7Sb5Vu18/yttxMNAcBkm/7gZwbgiauZ8ARwTwEvxPRf+Yx4uSwCTF8tsOsGjT/+eYSB+Ed+tcL/TDVQmEaBqrRggPlahVzm6b2fb7G8hQNqc3jPzOFIvZEACgRvnHUcc7YTGLB4TYGYiOsTuzTu39ObRMLzoxaN3H0rdjKjCgBT9UDDlKUBe2yA7jmQ7EKB/8aASHxJgAuHVP4BHmcgESCUgaIlgwk08DeZII+/YXsuE5wzG5WdlSuWPbzl4PFLhZJNamJwjLbNYvEqQZbtNzoa4NYEUCC49fSh8e5MgAflcfu9ybX93JA54/ffSfiEEgNfHLAvBehv/PydX2gFET+g/y7+lVfOZMnAgOcz4P4BmxAEecyGqCK5/Bb7mn2+TbgfdyekcEhi6MD2Sd7E053vf7Td9QmgQHD9OUILkYDHEOgdGua/+vfdsfeZMZVAeGJ4fMlBV04iqZGsJoMMKgQZFFuhXIE/EIDPchvZ1d8nDbiJYsBjbg0ciAsSQIHggpOCJiEBTybw3OhlI/ZGRE8RDhQRVKgHGz7cfWB3I9QqkQ8MCfeHxaragYJBypWRY/pea0K8K2bDk+8DHJvrE0CB4PpzhBYiAY8i0MyyqMSe81HhCUae74jvQEgRCY+GKQpfmdjlK58PLUlEEQU8kAAScDYBFAjOJo79IQEvJ8BjL6oNmfn98Ri1A48rAEiJG0wVgsgADIxBncL+c3ZN7DPIy5Hh8JFAthBAgZAt2LFTJODdBFpPWxaw98yNB3eYL1DhIEiVyIj/nfLwRAI+JCmpbqHgt8Im9l7v3cRw9EjA+QRQIDifOfaIBJAAALSeuKLRpgsR21RiIoyHFojYA73iIk+VzDMa8NoJgUxOqF7Q/Pb2SX02IDgkgAScRwAFgvNYY09IAAk8QeC5EZ9tOBAZ95rGCy0RWa+hYN/fQAjf+EhAZhR8ZRvULZjn0y3ju0/AnQt4GyEB5xBAgeAcztgLEkAC/4dA4e5Tj0ZYlapUsi812Gso6JsdeZZFvtsBwKTZoFqI/55Xa5V9Hcto4+2EBLKeAAqErGeMPSABJPAfBBhjcoGu4y/fBFOIrMmiUBOvxGgvzPDwSu5RIFSDXCxRrZDfv1lTn7idFosFdzjg3YUEsogACoQsAovNIgEkkHYCn+86Vmn8N5sO3EqSzbyaEk0pziSasH9N8SyKlIi4BKOWDDULBJ8oEOD/8trR70amvSc8EwkggbQSQIGQVlJ4HhJAAllKYMH245XHf/3r5jtMKSAxClSUb7IfKVUaCa/eSIDwKk1MAzNV4bmyhUcbA2NnberfPzlLDcTGkYCXEUCB4GUTjsNFAq5M4CBjho59p1wIT5CKUBG0mGItA4nx/Q28QBMPTdATLBGSDAoFKGCgULNk/mrrRnQ9/u9az648YrQNCbguARQIrjs3aBkS8E4CjJF6I+YvPHQrsRfXB5o9HTMjvALkoxLQqco7AQENDFRjxf1g14Q+rzfrULGi1Tvh4aiRgOMIoEBwHEtsCQkgAUcRYIz0XbG556rtBz+/J5nsuiClzKPeCRcI3MVgr4kJEmPA6zv4k/jkF0oGD/t1TN/5jjIH20EC3kgABYI3zjqOGQm4CYG3Z31X+PCViB0XH2jFNKEKeG6EVEdKWeiUApA8bTNRQNaoVjKQbjq9YERrzJvgJpONZrocARQILjclaBASQAKpCQxZudlv/4XL4/Zdvj3YJhn1HQ4ph3Aq8EqQPF8Cz8JIRPCixFMnUIC8inr5g+bVWk7p0OIUUkUCSCB9BFAgpI8Xno0EkEA2EXjl08UNTkfe+e6aVQnRC0RLqcpFP7UopIhNyEGsCQ2KBL+xwdJnSzaZjt0iAbckgALBLacNjUYC3knAsjzM/MeF01OOXLv9caJiflgImnsVJKYB5YGMDw/+9aYBdyf4qKpWKa95/IEZg8Z7JzkcNRJIPwEUCOlnhlcgASSQzQS6Lgwtte/ctXmX7iW2SCA+YomB8WUGypcbUr7W+HIDr+agF34iYGX18gWtfckn+m2LxZJSYzqbR4LdIwHXJYACwXXnBi1DAkjgGQQ6zl79wr7w66NvxmkvJREJKOH5EeyHqOGgL0boWyIlkDUrVAxS1r5QumKnBf1bYGIlvMOQwH8QQIGAtwcSQAJuT6Dj3NUNDl2O+PTGPVuDRJDMTHgR9B0PIn5RokCYJP6FBy+WCqA/t2hUotOcDh0S3X7wOAAkkEUEUCBkEVhsFgkgAecT6LVoTYmwE+ETbyZrbR5QyZfvaOD+A0ZMAMQGwBQgRBUehbK+sO6VRsU6o0hw/jxhj+5BAAWCe8wTWokEkEA6CMz9c2++Zeu2DbuSTN6LUyG3DARs4tuOgsS4H0EGmdmgQg7D9y+UrPABLjekAy6e6jUEUCB4zVTjQJGA9xEIPXnSOGv5HxNPx8R1i6dKTk3iJaMlYJIkMi8STYNKOeTpb+SKG4mlo73v/sAR/zcBFAh4hyABJODxBCxhYeZdW0/+sOd67CtxhBllZgRN4pUhGRhUDaqH+A7dN+XjmR4PAgeIBNJBAAVCOmDhqUgACbg3gZOMGVv3mXnlWqwtn02WiERknikBfNV4aFW1dLsfhnRe694jROuRgOMIoEBwHEtsCQkgATch0HPpupGrd5ycHCf7AAEVCCWQ12BlAzo1Lz+8ae2zbjIMNBMJZCkBFAhZihcbRwJIwFUJfDBnXY79F8+Gn7tPcmkGmdeVhhJBqnXCu+9W7VSr4BlXtRvtQgLOIoACwVmksR8kgARcjgBP3bwl/Pz0A9ei+lFiEJkX8xvliCl93y3zXtX88S5nMBqEBJxIAAWCE2FjV0gACbgmgeZTlr6y98Kd7x4wJQcwFfKZ4OZ3w4cXb1KcJLmmxWgVEsh6AigQsp4x9oAEkIAbEGg7cWnRs7fv/Xz2flI1BibIB7bLS0e3L9eidGlMyewG84cmOp4ACgTHM8UWkQAScFMCQ1Zu9tt85J8RZ2OSxvB0zSUDjNvPLBja2E2Hg2YjgUwRQIGQKXx4MRJAAp5I4Pkxi1ofuxH9C1Ap4asVowI7EMJ3Q+KBBLyKAAoEr5puHCwSQAJpJdB8wpIX94RH/VEzJM+csIk9B6X1OjwPCXgKARQInjKTOA4kgAQcTqDzrOX1/jl3+Ye2BUhJi8WiOrwDbBAJuDABFAguPDloGhJAAtlPgDFGtm3bJjdp0gQFQvZPB1rgRAIoEJwIG7tCAkgACSABJOAuBFAguMtMoZ1IAAkgASSABJxIAAWCE2FjV0gACSABJIAE3IUACgR3mSm0EwkgASSABJCAEwmgQHAibOwKCSABJIAEkIC7EECB4C4zhXYiASSABJAAEnAiARQIToSNXSEBJIAEkAAScBcCKBDcZabQTiSABJAAEkACTiSAAsGJsLErJIAEkAASQALuQgAFgrvMFNqJBJAAEkACSMCJBFAgOBE2doUEkAASQAJIwF0IoEBwl5lCO5EAEkACSAAJOJEACgQnwsaukAASQAJIAAm4CwEUCO4yU2gnEkACSAAJIAEnEkCB4ETY2BUSQAJIAAkgAXchgALBXWYK7UQCSAAJIAEk4EQCKBCcCBu7QgJIAAkgASTgLgRQILjLTKGdSAAJIAEkgAScSAAFghNhY1dIAAkgASSABNyFAAoEd5kptBMJIAEkgASQgBMJoEBwImzsCgkgASSABJCAuxBIt0DYfPOm3+crNrxx+258xTv341rG2qhio0RhlBKJMGomRA30870e7Ee2tn+p4bK+L9aNdhcYzraTMUY+WLC604Wrt6reehD7aryNGGyESIRSkAlQo0TU4EDfiwFGsqNpozrrP23R4DwhhDnbTuwPCSABJIAEvI/AMwXCymM3/VauWfvh6cg77R4wuTRocsEkCqARSdAiTANGZGAg8b8A/x9h/BmmgixJ4MfY5SJBhv1NK5cZO69rm7Peh/jfI241ds6rRyLjxt1VjeWSGA1gTAFGKADRAMAAAh9ny7UAA5AZA07YzyAlKqp6rXCw+WiNkoVXLOn15u8oGPCO+i8CjFkkgE9lgC1GiLS+DNYHuWzJ8ZItOQE0TQNKNSIDAL/zXP1IsdEIAEwijFBGrL4h/wSX77Qnu21nLEwBCDBCPA0E2fYKmK0/wX3FACapjVNt4/0mGd8Ec8AvANcTAF61usJ3RMThpUUDWExzTdKfGEaqU/mv+44CJRLwu1M/M1EOOlKgWq/9TuXp5Z09VSBYLBZpe1LObsdvxXdLBq1mIp8nYtYnU6ZAKJcBXCDIALwFpgER0oAfDAgoXCsAf9JRwh9uGpgJSypkln7p1KRON0uHJnHeyP3tOcsbbzsV8XmMaiinUi6o+EeFARcIAieHyWgqlgKn/h/OmYsyBiAxAIWq4GeAm4V85L8rFgka+cOwnuHeyBTH/IhAbGRonrv/7Gtnjb76KrHeLUPjLxlMRlKMWpNlVU0GwlQgzGa/vx7da7qgf+a7QvajTjFRfBz0F5KEfK8uL9/ppw+dYZwQWzH1yl8+8GsdKfF2GzUuqhiNv+Wr0Fh/GeQCVE0GDVTxGU45dJOdw1b//tX7kkECIpuASUq8pllvUv/cmirnu+KTu9R1/zxFwoJ9X/uBVKxodQY33sfJb196x+/27m8e9pfyFvSfBhBgBIASAhKjEBdUJ7ryh9tyO8tm7Ocpd27rccua7L0SOSdaI1WpZAD+eNd1npJK7/GnGX+75Z/UlC8X+8MLuChIeajZAJgiPswSUYFQAoGK7Uatgrl7bRn/0QZvmYD2oaHGc3uuf306OuFtVfIRgooRCZjEv0gIEC4WgIss/mHQPTP8kyEcCFwN2IWXLsYIEHGuLtL4l7sf0ZIL+cDK8X3a9O3gxA+9t8yfK48z6si80vFXDw3UYs68LMVHlgRbDBggCRSqfy75HSYR/i6me6P0Ty4XB+K/Dw/9M+v6xyMpw79VZEgq+25Y8ZbLm2aV5feurMr54MzePtrNYw0IWJtp9y8pkvoAjEwVfLnnj/9PFnzFBxaAewOFd9VulRPZpnSZMp/ivcIuqPi/Uca/PXyBmnPaNBJwQvUJOeRbpMamok1eXk9IEz6oLDlubOk6jfyzYhgTXtK0H/zrTx+LBHFBtaLLdt2PAiHt+DJ95mO37ouffj5l96XoEYmyUf8SEb/4hKb8+VlvGvxOtL+ZMEk8BEF8RfFlB0m8DPMvq5zAoG7xgE82ju09MdMjcPEGWlkW+56KjP71slVuwigRD3zOVjzgGffApC+kQGgE4VHgn/aUFwausG1QItBw863nKteZ1LH5NRfHguZlggBjTIrYPqSPNeJoTxZzqqJivQMyf3MVnzD9Dkk5xGfusX/JRMcudikfV0K+VitKdt7QxZGmsfPfBt64fqR/csThdtLdK9Uk602QITFFWj3WVQrbp32KUzk8HGneU9t6sq8n7Uq5K/j3sBCL3LNL+VeIBFYSACRncUj2KfBzrtJNv8pdY8ivjl6WuLCq0Xt+t/7+Wl+EfvRm+sxvP+5CIAwoKJAQVDO6bNd9KBCy/G561MFDgfDcqEWdDkVEr1KJUahM8QDKooMwCv4KhWr5crz596Rea7Kom2xvtsfiDb7bDx9bd94mv0xUGTSFi6esMIu/uRARs1DM1xYx7bNRRTqQdEr1rDAL23QoAe7ivvZndE/15v6xcOdMfjONE2+rKYt7Du3MDRrj31AJBdqsKNXxF4cIhMSLq4rePLH+I1vUye6GB+HBBrCK5VH9nZeIWCB38bSkdfr0pWDd8cHAAInEH+TC9SPNQcX7FXgx9zpCLI/WS9La6FPOO/VNo/dy3Nn5NbMvv6RVPD0SuATictSLLvvhHhQImZiH9F4q5qn97K8L/XXm+vW7Vh9gYLO/+ae3qbScn7IkASBpMuQENbFVvaIVVvTqeDktV7vTOXyHQotJX6/54/ztNzRJX0JgQnhlxSh0n4REFZCIFeoU8Fm1a0r/d7KiJ2wzewjE7J1R5cGN3b9pV/8KMdN44YHib4J8EeFxn0H22JcdvTpKIHDhFbUlZlDslb9HSfGnc/pQmxBelEmCsyZRIIyIQGGHPC2zA9Z/9MlHKRYuxfeTJtb8kyAA5JAXjvsXadg3b91hf2fWZBQImSWYPdeLx1WFvtMs52PZp6pCgFEec5Alr7mpRshXzzWxhl7CTG5cWDS0sKNdWtmD81GvHeev7rjmQPhqVTGLOAEtSz0y9lgFsbyjgR/YEn5dNiaoCSFZtqaY3Xy9qf+ov0eOiDsWOsWUfMm+oKx/PkV8gT1+Nas/sa7I2xEC4cG+ycH3Iw//pV3cUkUmcaBwt7uIK9CXAe1hP4JzCvMs0fjZDFiERvNlBy6EqAxU0r+fE02lwJy/9keFGnZdRfJmPLgcBUI2T3AGuyehoUwe+NfkWzdUn2BQVT2EQA+pf+yBnsH2H1322GuO/hfu3pIhGVpXCOm5dtgHSzLdh4s0YNmwwfebjafPXUqkhcQGkIdfNQ+DBhxnqb5E91DT6ZEeFLo3rDzui64tLY7rCFtyNgHuhbp3bMbeqG3T6vixe/xdVsS/8c8of2CJaffEp1UaQWdWIMTunVzh9qkNewz3DgUSUO3eGEkEHeqCIOXD9Si8Iws+wWkcbdaepgcy6iKB31OPvlL4N7QP+JTrtLNg9XavkPzN4zNiCQqEjFDL/mvIW1OXVV1/8trRJMVP34vPPQjpDJzL6DC4245H8udTY+/eWjkhV0bbcbXrGg6f231vZPwSm8x3bDvxELtK+O4HCvVym+7tmTkgpxN7x64cSICLgzthAwfGHVk5SyF37ZLdi90FT2GbGYGgXv+15cVfR33vk3jGX2z/FOF6qR+MDpxMt23KvnmdELBpfiCVfu1Akdbl6mUkLgEFgnveBKT+sDlv7rud9COjBuBB9SxN+1MdMFjhcteD62Rmgx7PV33u8+4t9jqg5WxtwmJh/2vvOsCjKL74m91r6SE9offee5Gm/kFFxQI2RBCV3kSQTixIUxSkqlQbBguKqBSB0EvoUkMPBNJIv747/+/N3oVQb/eSkEvY/T4FvZnZmTezM7955fe45SmfXr5kJGWLzXmMAgQIGdmZ3071L1ZhqC93WwLXdk5qnrnny31+fCaIIgtofQCmP7e7WywV3QUI9MIyw6kNCxN9cw6VYZoDhxYGj0N8HkZzzd0nEHUKLJiT+U/ZwACa6i8uKfvMt28pnXAVICiVmGeUJ9UGTh131qz9hHOGv9wShKKwk44brKxaBB1/pNBhjnBQQWcxXVw0wUeiDyy5z2OT5z0bezFzjU2jBaQ5QIefB/3gew3EbDYun+T1oN+tvq/gEsAwuzOxX2b6Ze1npDvoOc9RAhyHjmTy3eSUfI4F7/WDb8FdgJDwz5tJ4smVYRqMT3hQF6IHL567vlHpmkAtLzJOoHsm7mUWTShEPjltqHe1N+cpGZIKEJRIy3PKkmoDp39w1sRNJoRIvEduROJJ1AcO9adcN330wBZ5iSyIAmipFSb0bBwQ/eSTWZ4jHuU9qTr8sx0XsmhbDD6ThKkU70hRwgW5L6JTpJ4IFvOycQgQlHZA+aDVGoUqgdTYYYOzDi6apydWB0uMFKWC0JnFsMt4nOuHfdOctA4lwkSn6x1u+lgqjzpJRqueU0SC3QRyI59aXvOVX2WHOdLrvz16/sd+m/T0Bht5/nA75s8hT7x5gsh/4N4e3497KsYPikpP5QKJGWdV+sf5SGtA8mpVHEiVR6AAwNvRAk0g16dpVvX+cQFKuqkCBCXS8pyypPqgGR+fNXETFH4XjhHgtiVC5dBAuJx8g+VnYCYKxu4uv0XpQxKhdTDZv+vT0S08RzzKetJnfkyjn/aePmRG3wOUAUWYoECDwJjuKAT76iA72wxmRl7poLOW3RXpMNCLFotl5UQVIMiWm2cUpDc2Bpxe83GGT0asdIChn44CUMD2c0oAyTmRqIwTeTCLPkB9yoM+oj5wWv0S//AKZt43ypKbdvYrauMEC1hAD3rPEICLXlhsQr4PSg/pVp/UBt3GpcvpPKUx/MnvVmYHJv/thf5WKFeZos1rHrU5SDCEnzX+oaEAdg7niAMicGAGHxB8y4NvRAMwRNYCQ2Ak8BqDA4k4buOKLw0uRoesmAz4IQi0gyU3A0zJFyA38RjYkk+BN58MhLMDL1C2HhjDJmd3gEXJ21XOLsXKUAIWzht8m495N7TdlM/lyB3LqABBrqQ8qxypOWTWx2dywW2AgD6/L7aoCoeOnIV4Gw8gotrODUdHyoFOzIZOVcoFr49+64ZniUleb2oM+zQmPht6ML4DFjuNAOH2iJB7tOVA6loqwPieHWDWD5vBqEWEILN+XrMSQDBQq8W8YoIKEORNnceUSt4yql3Owa+267lc4EQR8DiUs3k7B4C+CnagoKEGSPeuCJFNe60QTemTgmq0MkNEj9TSFk6sZOIyj88OurEhOk0v5ji89ZUDBDT12DmpHlO9owOf6A0kvPkN/0ptpvMa/Rr/yMapUKFbBjuzi/FBxk3T0W+ijObU5pa0k4uM8f+EGcRU0GDYtZNz00HBLWeN4bbGi4SZGrL9G6bUeutQmNzhqQBBrqQ8qxwDCKdz6AR3mRM5KkDrcr47g718lq47m7hEoHoHF7mcJXdTGGydEgpdKvlNXT9l4ETPEpPr3izYfrTMuGXrkrIo1RKqAZHFSTGvT9eVpWufpD3gbAl9H2vx/Py/9+7P5fF8VxpY5dAgUKvFogIE17L3sBIpG4ctNB+bPwC7xaOfjqicvY9SDqzlu0JE467lvasPu+JhQyy27qQdnHUld+u4soyWmkOyNjzs2LVYdp+wPGoNcL8SiB4sIc3BUK7NC5G1HvmHRD1tlN3QAy6IUTEp20Y1siSdWWu/+k9ZLwEY1wGaP+S4SaGYmC8MAgSOgJkPEqv2+6MZ8WlzSM5QVIAgR0qeV6YAAEGyuGmoAE0i/GLrVS/39K/bD2RlUX8QHUmIlA0XoxlECCJmeK19/TJf9H0uQ1n94i3dfNRnXx9Ig7fwo2P6XcZ0LMfU4oi1xpTOoghNInzm1AwPnPfboQvxubwPALE52pE7PhUgyJWUJ5a7+vsbV8m5lVGMXItD0hplAAFvtRlcKK38v6mVveq8dckTx1gcfUK2xFMrtwq+N2JBL1CwcahrYZ5Cih48KDFVmki0AFW7Xw2t2K6Vd8OSA8Lope/LXDr4+9dw4c8X9NQkmSUcfmeurnRoLmWeK6hFAS0YWk6cEtpu8odyBKgCBDlS8rwypNrgT6eezRXHy4KRd+k/B3ZoFu63bd/0IR0e+/DrzzefzRwh8mhmcCefAwWs2rlq0GMbp7z1r+eJ6+49ijlOdUPnzEhKtnKBqHKU/0hfppQ2gYdAzpI9vHuXiDMnT5f97b/zZ0w82oWVtIdvVgGCfPl7VklUCZ9d0V7wurE9z7CkXH+kAVvNVy0Vnlzh9TCbE26f2fRD0YGJsUvSA+lVABHZppTNvUR25kyHxYEtslNiWLM+Lb2r9ypxGhqaEBN05civR7nTv5QFB9mqlEJO/oPE05ZKveMrP7+shpxaKkCQIyXPK1MAgCCl0eCoHZpGeW3b/8nwDj2ivwlaG5+cZtVixjC8Pct/JBODABzloaLecuGNl9vWiO5UdOlH5ffMdcmOk+aN2JaQ+zlL4ey6eL4SkuMBJmBF1V1Vb/tXZxZO6P/qzO+rqwBBkSBLRWEa/5f+zOb3zb65xxSPx+lAJnBaCHjk47f9m435RnEjpbjC5Q1joqzHvr7qRTKYI7UiHJ9nr0fwTSCXlIHAZm89EvbIjB0lVWQp28fVyDz43Wm9eIVpqdi9QsFgcL1lBLS+Uaff7mA51VSAIEdKnlemYACBeUkL0CzCL3bf9EEd8TtqNnL2D3FZ4svA8tHLfxhAYI59HPCCFdqVC2y89ZPBh+W3UHwlI/tNP3eNkipERKclmf1wsh4izBIJ+PAW6FK7fJXVo3tf6DU7ptovh07Fm9D7WRGux3erGgSZM+BxxeiFH2qdWTfxpK/1giK7uHMgqAC2Ez2UH7HRn5B22R43wGLsUMr2d2vk7ltwWkssTK0u9zO9vctMHV/p+eRy3X+JJASpZ0vmgz4JCX/2Pqw9+20DgQUySOYDuQ+6Tmfq6+XWGvyfr5w6KkCQIyXPK1MIAEGEFhGG2D3ThyFAgMErfg3+ZtOpFIsGcxu78xlKNq76ZcivRz9/7wXPE9mtPer5+U+P/Xbk3Ea0yckGB84mmHkBx8tBJS/rmvMLxz+HP7065/vqv8WdP2PSqCYGT5//wuyf5cz82pfWzzjha03Ic55z0v/e7z3MYY6l60VCJR8oO3K9ChBuE1jixkG1bf8tPaETLbdQycs+4R0kB+gA6tVy3PLgdlNlcy8U5hopzLaStgzvZTu46FvKWRxJquS3jjt7lqaqqdawc95yaqkAQY6UPK9MAQCCRLqCoVjNIg2x+6ZJAAGphr+/Pv1UvJVUx5TOIgYNM6c9BYOnAD5iDjxeL6ramjH9zymo+cCLVnx72n8JNr6ulJRJyoB2/yc/G4tURy/aoHWFoHZbPhq4Mw8gHFB9EB74ZBbzC+npxbXiN0w96WO7rLgnEokSfmo+UH74Ll9CGrqVVEfxi0tIhYsbB9Umx5ac0IDF7R6j0o8SPQR0/XKJf513FNMNu/3iIqp4dfOIttZD3+zQEVwq8rUHzu5k8ZVNtYdfUAFCEc2PJzRb6AABBzUuZmvrmX/v3ClSHZFIXpSgA2mtckSABsH6iYc/HTnVEwR1tz6M+mF9rcUbD5zMgfxJmZR8aMiOR6G8l7Dj8sKxjzjfwTQIKkDw1Gkvsn7R08tqxW+YogKEIpBwQQGCkwxRpHoo88yiJb7V+5Z4gJC0eXTb3IMLdhg4IzO7KH1UgKBUYiWvfKEAhJYRhtjdDhODUwRr+WjPAAAgAElEQVShfSdfTaV+UYrV7qwByWc4XGOD5x9v7begp/t5yItySuoOnr75hJF0ksz+ThAkEww5dhytIEC7ikH9tnz0zlIVIBTlbHl+2ypAKLo5KihAwJ4xDQJngIBui5b4V+9T4gHC1c2j21oPLdyhIzluCV4FCG6JrURVKhyAEOYVu3vmUGZicD4vz1rx3Orj138VmLuwzEPT+RU6AALGKdcP0/c+MnPkt54m1cVxcdpR8zbl5ADRSUTnjErE9VjRr4miwVjK1VCWs135/JtxlXpKsY7sUTUInjbbD6Y/KkAoOjkXBkDA3gnECwKfWbzEv2rvkg8Q/n23jeXwVzsRICjYofMmSQUIRbdePaXlQgEILSK8YvdMvxUg4AD9X5+akqXRhOCBeDMJ1D0O0vymeZaYhgLlKFTUCYcuLRzb1NOyPP5v/Jz5mxItg25ma1RiSkH/TYHRljYOIAPi5oxenH9BFDdA6BE93/fo5RwCIQCQ6t5SbZBd2bh6dc880ONeK8VTa1zMttCsnOwqABoQiUXW3ilQnulotQgTdQLRZ9ozvxj8/EklI0CAcHb9lJO+NqeTorO2a/Wv86sSiA9UeO1PPxLmmVo3JfIozLKFARAkNkEDBHZDE0PJ1yAk/ftuG6MDILgjaxUguCO1klWnUABCfifF/MNvP+HLaduv5o5ljntsm3VqE1zctCWKBXbT1gsmaF8p8LGNHw7xKOIk79cnGI2aMl4S0xHzXpI181JudcxVIUCQYIaPur3gN7hn3Vt0fMUNEBoM/PjvE0ZtV2SysHMi8AIPmNzG1eOcNhRHi3Bdx+2z3o11VccTf283dsH7uxNzp6OiR7HzFuWB8iKE2XL2JX37QUsl48sDCPbLTBcl93Fia3RSpMQXyg/fqTop3iY8FSDcuZpUgCD3C3t4yxUpQEA1/OSvt1iTbHiGOt1gnNvZ/Q5UvGHbWOYxDICorKc/XVj4/sueMk29F/z46rf7Ln/PoqklhhoFSZWQxQ2jPwCahvnP2D9zwNjbx1XcAKH+0KlrjuVonuUIGnkwCkUj00qEQAnhIMGojM47P+y3xVPmTEk/2oyf9/7eRNN0AWk9Wfa7+zz5lzFTIlmBE3Tgz5n3ZyybpCgzaYEBAku25w3le23wJ6EqD0L+WVMBggoQlOwBallJAkUKEPAF9Yd+svpEFv8i8srfPEjvr46XUtxKWgbMiOgDduGVNrXrfP3O82eKe+Kit2zRzF8Wm5XC+Xih64HTu5kyNjIZWgRKGLWyt90Cj9eoUG3NpD53hHEWN0BoOHBazDET34NRyyJ5lahx7eXsGDpqD3gQoU250Ee3ffzm5uKeL3fe32bcwjF7E3NniMQOlGBGTRkAwWEFQCCMab6DwRSXuiK6uZL3uwsQbn2HDqLe+iuE+D+WpuTdpb2sChBUgFDa13hRjK/IAcL7MRsrLPxn36UcUQ8iSzyEVlrXNlUn67mUVpVCDT9x9qkvx44qCiEoabP/0r/qLI3977iNx9TWmFPdFe9B/talUxQTPdYOIMuPzxl1V7KVYgcIw2b9dCRL7AmMLlvKF6/Ii4lSaF+pzKPbot8ukQCh9dh5o/ck5c50zWlxr5VDIUQwxaWunKIQICyudWbDVOaDIO8bcaB8SkDgKGPkFAgPvq0nrApq/cErStZ1aS+rAgQVIJT2NV4U4ytygICdrjzg49hLZl17lgIZDaWMG8HVwZpHXQaEEAjR2LPmjxgb2rMusRaFIOS0GU0pt6r/9IQzNhIloh+BlGlJTlVHGQKYHpsXBGhRyb/ezo+GHL9b5WIHCMM//fFolvBy3gGpAgQFcywVDRWMcSlKAcKFZbVO/znlpJ87AIHHRGccCISCOfQxa7Vebb0IiVbiyqB4jCWpggoQVIBQktarp/T1gQCEfot+7bpq94m/jcTbYTqQEQ6YX0JInAQCNAnWvBv32XufF5fwus9cXvXPY9fP2jEhPGiU36wZYYII1b3h8GvzRzeNvgeXe3EDhKYjv/j+QIblVQbiFDhg5s3LQ69BAAgVjXEpKxRqEJJ+D4//bdJ179yjinAnM94x3I3mKwo5YhCt2OOrFroKL8YV17fiae9VAYIKEDxtTZaE/jwQgICCqNL/k6MXzbr6Inrnsd1MgXiYRUKECL3t1PXFE2srqFloRTG5ySOTFh3dcTW7noQMUIOgHOhoqR06VQhptuGjtw/cq3MqQCi0aXOroYKbGABCwBiXukwhQKCUXFrzmqi98KMiEwMO0hnmyFMCGHprjnrsun+jl2qE1uqnJm0CABUgqADBrc3gIa/0wADCE9OWDtl08vqXNl7juJTKRwjIq4jOXxpqhRebVOr+w/DXfn/Q89Zt+uIK/564fsmk0Tmc9hDkuAYIkmumlGER/1ZJL0CfbvV8op9+2ui5AGH29wcy7K+yY8dJ7KRE4KoGAUKo8UDq8inNlIgNyyZtGPCp5b+vRmkoBRETecls4Ca7CGFhtHYOwBbxxO/VWnR7g1TtnymzmVJbTAUIKkAotYu7CAf2wADCFko1vQd+diXBIoZLWmu5W5+D4xRDAylARb1524XFkzoUoUzu2vTjHyz65t8LWf2kLRujLLCYa2dLiTQaMzaiu4IIT1QN7bNu4psr7tf/4tcgIEAQXnWkB3T4jSiQ+EMNECT/GgkgTFYMEJJjR1e/cfi7M4H268zxUEp0psyVQFpz+I8GhMgOYAivMcqnUqPvfau8naRgFktVURUgqAChVC3oBzSYBwYQcDzNR82eeCDN+pHIvOOVP+is6ENtlj7t6lSZ1+/ZROUtuFej97xfg9cd+C81TfQCwiHRkcM2L7s53OB5CLBnw3NVK3ktj+5rVgGCbOE98IIFNzEQtwECpUAS/x2wC4580wr9btDpUAGUzpMVRziwAwURtW+iHqhvNeCCK+8S9UE7Nbz2lNYnRLDmppymVE9Bo2GxRQV5MD5Jo+Go3S4SLWhB46sRNYYQ0Ts4VLRrA1K9ogKuEdLJXpB3FKSuChBUgFCQ9fOw1n2gAGH+luO+0d//npwiaL2UClxS1YvAixTqBmlWHf38vQcWxtV+8oLBOy9lz8PNmnmPObUfTIEgY/smyEZIoFNZffSmT4Z/4GrsqgbBlYSK9vfiBAg4sqQ9U8NvHP/tul/mAaYJQLoqGassTyhsmbLIE6wpKYA4BBoUIQfSWAHYKA8SUEdnW2dkUUHlKmk6JGMaBxS0QEEPnMEP9D6hoAkom014nw3g67efE/ntYfU7pUBot7MEPSuL+FEBggoQiniJlcrmHyhAQAk2Gjl7/pEMyyDKnPyc256TRCmfjO/4XxgWKVH7B4KQ+lvvsZGdOpEiv5FEL9ti+HrProtXrV7hAHhPciZmcm6FrtaFxCPgJVrtK7pNMPTseTMp071qqgDBlUyL9vfiBgg4upzDC7tc3/HRP97Wa8xYwHJ+oHpBjmELicYYVbnku4PgQOLxQnCA3JjsR6DYHnEawQpDprfCGEYaxUCKdP5Lb+IY3BFFP7AYwsC3cjswW40v+gVVPRra/tELRaVlUAGCChAKY4U/bG08cIDQZ9HP1WN2/nfCxPloMBmTrBu48yzGCAiRZ86Kbcv5T4idOuSTop6wVu99/tj+5NyNIucFlJ3t8u9yuCEDtQMBHtpE6M/smDa0ppz+FjdAaDzys+8PZYiqD4JLro57zab7Job8LZoTvh2duGb8DK31KuE4AE5EoCAXmMpZacVXBrGDyBHQsABmHnJpIPhW6gSG4MgXgsMax5LabxQqE6QKEFSAUHyrveS++YEDBKZFGLPgz8Opxqe0oh1sSGXLPOXlHLyowpQIloJE0+UbKyZXLErRY2hj9WGzdp7L5lqzG5d08VLwYM4FEbQ8tW1ZMiagDSEmOZWLGyA0Hak6KRaMSbFwAAKuFVvSr6PPrh473c92niNUkHKayPlU5Cy0Yi7DtCFUA5SzM+CD+TBFUQ85PrUhqE6X2WHBFaaQuoNvSWTmbpdVgKACBHfXzsNcr1gAQrePl7Rbf+bKdhvnzVSQ8jY9ZzkBOCoCDwTe6dDgf/P7PrWxqCbwyemL2q8/cT1WRIInTgCgcpMW3ewRWmKr6CwXzi6eVEVuP4sbIDQcOnPVkRx4iZ1EeeyXcnsvRZ083FTLhQcQmL6AHted/u69i17JWyK1xAIiMw1I8+HMBaJgdjymKHI2UAcRFxG1QDkbMIZSrR1EUQO52qoQ1rz3xLl/26ZFRxeMFVIFCCpA8JiFX4I6UiwAAeVTdciMbRdyuUcwIQ7LmOcy7FFysqKcdCvHPyvwxguXvp4s++BVOi8N3v1i3fFU+5OYzBDttZJ5QZ4KAW27WFZLBRjzRItaH/fsfFru+4sbIDQe/umqQ1n0JSkHA2p3nOm6ZY5ABQhuRzHcS8KUxvA5x9PmJsbOHeRjPQuE2hg44Di0598EDFg/v2cPAxGyV63M+XW32G2fTx7husNJ0u7gT9OIHNMoME0J9QJjVHtz9c4D2pCwZw+5+2oVIKgAwd218zDXKzaA0H7igmd2XUn/XSAaR9iggmnAGxRHwEsw236eONHvyerEoqC2rKKDV/xaY9nmwyfM4MuL6EugxNHamdmPEyEM7BeTlk6oLOuljkLFDhCGfrbqUI7wUt5Ro8BVxHmtVTUI7vEguFonWXs/CTZasmdlnvijr954BrRgd5BwSZEIeKjyIoCUPdWhYsAg29twreTL4LmPs3vonCmIGrB4VbZGdXpvrm/td0a702sVIKgAwZ1187DXKTaAMPevv/Sz1hy4kGDzjSRgASmqQcGDDtKcAM1DvNftmzmsm4KasorWHDpr5tls+2gWCsZUoa6rMW0pFiMiEKoBHNczNSP7rhnXd7nr2jdLqABBibQKv6wnRDG4GtWNuOkB1pzUnsakE5PtV/eUM9Bs4IkNEMxyqGljAY00z0LEAAHLjFp8j3z9m+RpJFIOCCdKFwigYOGCxYDmg78IbvuB4qyuKkBQAULxrfyS++ZiAwgoss6TF7697XLOV3a87TAVvvxHMo0T8LVbrE+Yq3uvXt1TioEshGflkSM+o75cez3NpvNFT2vFDxEAbaohXE5S8pLJUeQeSZnu1a5HAIRcUTIx4KNqEBQugcL1Qbjfy2l0NJfWyV5ToNZXshIOtbVlXeysNV8DPbECIQJQ5q8jHbiSlQzZRIoHKDh9fOV86QwgOAbudINBsjErCRSDn/hgln+tIWOVTIoKEFSAoGS9qGUlCRQrQBi44M8yq/fH3UgDH5mW/fzTJiVM0lAbdK4SOHjD5AELCmtSm4/6dPKBNNsHIpLIMCnJbBnJaESebcy4G7cI1c3cM2vk+zJr5xUrdoAw/PNVh7JsLxF2B3WoReTKgAGKh9xJkQKEgulAihtUy0rXyu3lacrvUVePxdY2Xz5XVuevewFEUxdL6hW9aEkDjZgNnGhyMBHcfkwrmeC79RL9ICSCZyn7yJ0wgMUfOTK+uxqnBGgI2HgKenRT4pA/QQQgPOTqyouVX5vfUhf4lOxslSpAUAGCqzWn/n6nBIoVIGB3Wo2bP2bfNeMMTEyDqtG8bI+uZsvhvo1R1OHEDk+3DNV91b8/MhkV6ImmlPv6rRmnEgWuumRWkLlxOtS3lKl4bRCgJbnT+z8a1r9Zs3smZbpXR4sbIDQcPDPmiJH2QKdQtqfLFEHeeB5qgCAp0kNF04GUFcpzMRRo8d6lMobqwoGvNLYyPo2unj7IG3MSND46v1C9jouwWU1EFOzoIMx4FhQ9juu9iM5ARKRgF0Gw5GgMfkEd7TnXfGzm3HLEll2bGJNAJ2ZKZjcHcGDOiSwZlaI3OjJWSpVsVV+FSv5vaUknefTNKkBQAYKy1aaWZqdftcGfTj2bK453HUVwF4FhAiVRhGaRhth904Z1dEekPWavKPvnoUtXTBov6SRi6aBlHMx5am8ROFGAns2qd1o1tMdWd/qQv07nyYt77LiYHmPlkZ1eGTGSZOTF/RKgjq+44vi89/u40x/PAAjQQ3FabudgH2qAIAkhHIxxSQrTPbuzVjy5Dr2+PiztyoE2OQlH2pHMxD5C+oFgPTUBDxRsjghaJf1HU4OVJ6BBwijBF/yf+qR1QJ1he+S0oQIEFSDIWSdqmVslUOwAAbvTdMy81UeSjS/aHaGBUhflXC+kLImodqyssxzrvWhco2iF9v7bF0TF/tP3X7LyzW6GM8rph6MVDDsDAAMRLL1aVar7Vf+Xz7mz4IobIDQYPPPnoyZ4gYjynDPvGONDDxAohAqmuJSVU5q7M/+lsQ5N/y0wce+GkfYLmyZzpgvAgyCZr2Q8+AU6HRyRqplQEQQCoG0yaldEx8/aymgCVICgAgQ560Qt44EA4flPv6+47uiFi1beIHHEy5olCRxIaaNF0IkCPBIZWPXf6YPOy6p+l0K958a0+PnA+b0mTlKGygMp+dlqkG1egGpedFP8grGPu9uP4gYIDQfP/PWICZ5jOmAF+ChvvCpAUAHCPRZ/1qEPnk3a9/0an5x4lqPBJf1JHneqZOtCUyR+82jVyAnpCDV6b+HlOAGrAEEFCO7uxw9zPY/QIERHU25V6vTzp4zaivjhM3Y12SeTVBbZGBsG6b4+PHvEO+5OaM1BM7edNcIj6Octchje6KolZz+l+w2mpdGJdniyXvlHfxvde7Or2vf6vbgBQv3BM9ccM8KzEkGS6qSoeB4JQKjdqGoQ7iG4tB2Tet7YP/cnX5rpFokT82EgBDK0VaD2UxPLkMp9M1zNkQoQVIDgao2ov98pAY8ACNitib9t7zjt991bMCESo1uV6yDocFZEgGAQzdCtXvnI1WP6Xlc62e+tXB+2eMvBi9lE70VEweGY5wKoOB0T8/kelDPAjoTFox9R+v785YsbIHScsCB1a2JOsAoQlHruOWZRBQj3Xf7oOHnp1x6Zuks/+7nE4PdoCetlaStD7a6Twkj1N1NcfW8qQFABgqs1ov7uwQChR0wMv/XPk+kpvMHPmZBJ9oRJVwrQCHZoEuXz1r5pQ5fIruso2OLdz2MO3DD3EAgPhKXLZfYLec04btkaQYCmUb4v7p0+9Bd5Fe9eqrgBQr0hM9f+lwvdVCZFFSAUZB3fr27GxuHzc47OGSTHxHDXdghAtqYKlG0/Otyv4cBkV/1UAYIKEFytEfV3DwYI2LW+c1Y9u/Lw5TXovqQYJAAHHFghQgfwzsutvKI7dTLLnXAMbZzbb2ZWusj7IAMdMPOCnfEs3P+5qWHgqABRevFqwqJxFQkjQnD/KW6A0GnCfNuWxBwNmwNHMh1Fo3nYfRBUDYLL5ZIZO3Fe7sFPBks5TiSKaCVs5qhhzOKrQK0nJqoaBJfSvnuBpH/fbWM8/NVOHXEvYWYWX9lUe/gFbzmvP/Ft+96BqTtWIHEXPs6rlysNkvMkQANuTmCrtJpv7g6R8z61TOFIwGNMDM7h+Pf9IDsLfHzRno8ey3JSQTN3QkdctU4QoV6opuvBz95bL1dEnaK/+mDbhbTJAucgRmIVXflBSEscU/DiQcoRCzQN8Xt/36zhM+W+917lihsg1B864+9jOdD1ZjZHNVmTojlVAYJLcWVuHzcvZ//0wTIcfe7RFoFsbSWoqZoYXMr6XgVUgOC26B6aih4HEB6btGDWlss57wl4ncA8CCyboAxVPyJTHtMu2qFuAH/m+Ofv1ZQ7i2Xe+DA1nRiCZfs9OBpmrokcBV6wQxmeh8lvPx8wrFX1LLnv9VSA8Mj4ecL2a0aOKQ+QalopN6+qQVCdFF18BJnbx87P2T9jkAoQCrpbuF9fBQjuy+5hqelxACGGUv7NftNzcihnIJQHyoiTXAME1CCwhE+8HbQ2O7Qt799869ShLqlYey3+5anVu878aWHaA1daAycyQFY4jnHbI9sgUsy2jPSdv/uTAUMKY+EUtwah3fj5dMe1XEkcKkBQPqWqBsGlzEosQAADBD69aIlv9T5vuRzkbQUojdNCklYH4d52gCuuN7U7XlCOSvUqAcBJSsiTBcpiqwIEpTNYsspTGs1Beosu1/7b1zg37aJWBJEEhFW0h1dtcR7Cu/1I8OBy8XgcQMD+Nh4+66/DmcITgLkQCIuWdjWOvDs9M01QDuqX4WOOfT7yJVcVI/p+cC0FDBGCEt6DvEaRHpqAwW6El9vUrrV0UM/Trt4n5/fiBghtx82nO68bpew+KkCQM2W3llEBgkuZlViAQAzg323hEv/qfRUDhCs7PpuUfWThhz72dIffhYPo7a6ZK+4mQucFBn02tCCU7XykyvO1mhAS7cxr5VLu+QuoAEGRuEpM4czj81peP/z3D1zm6XJaa5JOI5qZwR7PUQ4I2IkeqMY7VwhonBzVttdMn6q9Ft1rcB4JEMb/sCn8i017L5pErQHdWWQoEPKNTwJFftRi7d6oZvVvR/S8fK/Bf7HpWPjYb9clmpGJnmWUlLEGbslZS4AQOzQND9wQN21AFxm1ZRUpboDQ+v0v6e5kk+SfqBQgoLOZSOGRcmUe3fbx225zQcgSVBEVKnC6ZxUguJyZBw0QEjcOqm0/tuQED25cup2pslmiKR34P7tkiX/V1xUDBEqB3Dg2Z1n6tk/f8LEmgp0IwGNqbnbuO0ijHFlt77UV4TeJsTUCwY3eADS07amKr02oT4i8nBS3AoT32xgPL9ipJTnOtGwu5y1/gWy+sqmWXCfFle1eL5O6ayVzUnTwr0nuqfd/pLwdKHcOsgNbptVWnRTvKTCavrHxuT9mriIZB2rohQyWtgAvy1TUsoh1zH/CZE4E0Ioi29tt1B8sIfWulG/8Shvv+oMTbm/cIwECdrLGoE8OxRt1jfDDcbWI7pAY+4hEqOXPjT8xd/S0u0uUkobDpp8+mq2rDjSfQ6SCTwQFrrFboVO10Kbro/sfVFD1vkWLGyC0en8u3ZNsZhsRptRW5IOgAgS2AapESff/GooHICw9wYPs4KY7txUGmHUQ0G2xWxoEZ4NpOyf3TT8es9Qr5ywA2KX9TUrjwp5b7iB3ESOaNZFMTiC4y/FgCWx4psarc54l+janlOxBSZtHtzUeWrhDS4xsv1S6zyoBCKdWdOzln7bt25tJvF2DA4dYpFTlIAGEWipAuOsUZx2fMy1l2/wxOuNZjuUzEn1A8K8J+qh6m70i6iTzflGsnpBzDUyJR8uYr8d3IVmHQQMicEQEI182q0yH0cuDGw4bnv8FHgsQXv9iZcvVh6/uMTNHRZm3+9tEF6axJ//11dhyzQi5I8vjm0t+9/sh9kimmfdWeALe+pKavvyRV+aObFLQHBD5Wy1ugND8vS/o/jSblHFP1SAo2XPzdngVILgACLHvz8s5MPOBRTEwDcJ/S0/wVBlAyB+OhweoHQwQ8tT8Jb41+ynWIOSXSObBma+k7Vs2X2eML4NJ4e6WHvteEnT2CbUJCOAF0ICtTFNjlS7vNSVRL8oGCQwgHFy4Q8sZGQus0kdJmOOp7zr28kuO/VYeLLjZE5a/j5G5cpAT2CKt5pt71DDH2yYq8+j8D1M2fzDJS0TTFQFrYEPQV2g9Pqh+pxhD+HN3zQdEj8f4Xrv4bz9T8v4vdOlHgeMEMJFg8G/49oSwjtM+cb7CYwECdjCiX3RcsuDTVEoBjZwESjAuBY1ohbblygyOnTp4we2L/+lPlu9fdya5mZRyVl44ZV4bkk4QNNQG7cqX6bT144EFziLpSQCh2Xuf07g0Wz4Tg4IgdVWDoGoQZJw06bGj5+XGzRrsNlESKAtzTIwdUdt6YOEJrUITg3PHcR7KAtVAQNsJywNafdBXxjDvWyRp2/gGprObN2vSDwajqRIp3u/mbXV7H/C/cd/iHeYGXHB2ogOjXw1raL3ezYNajT4qp29Jm0e0tRz6agfPmSR/I4VPlqayqfYweTwIp1d2eN03ddtK5L1QOudOIvtsv8bptd4+GKSwm6W6ePaBWZ2Tt3/5rxckgI3qAcp3vhJU+8UuvuEVfUGwlgE9T0HA1GZ4ZGmvQZnIUwB1BCdXD730S5XL+7/dKF7aWEVLTGDWRYGu9rMdKjw6fxurUtzpnu83e12nfv3O5tM3FlsZX5FCVjuHP095vbjv8sIxrfJ7bD4zZobftuvGrAzeH9C8AIQp02UvJOb7yQGU4803+j3TqHz0008bZVeWUbA4NQhIg9tk1GzxULoIHMWcFBg6Kl82Tn1p+0p+j26LHlgifRBavT9/zN7knBmMh8Odh1AItavZHO8nuhvbR88zxX06GA8muaQ52F7eYUkJo1ou10EekyICBEvcohM6ImkQ5L7z9sOZEAJixZ5Hyz63qpEcL3BXyyf7yJx6acfXbuWubw/mwAY8M3dKHZTejboFidPd6XPO+o5sr6xMPhduyoHRqxIENx88IKj5qMWu3n1t44Ce9mNLfiJgk+0Gnr/NHF0NU80hZ2QRJSWs7TWEO7PqS+SQcxozZLues7FSuKGraaw/5LSPq3E9LL/TC8sCz+387qR30tYIXAmWyi9BmabdggIqvJp1cnHLXJ01SY/aKYzuY8chamM4DegM/haLNuTfMjU6LQtuNf5nSmP4i6u+Pqm7trm6SEWwB7dNCXjk9epBVftnejRAoJRyFYZ8lnw1VwhmtnBMyiRbjyCV1YsmeK5h1Y4/vvtqrHPhdI5e/Na2ixlf2wmGNso9/BzLmTpRvghdq4X2+ntiv+8Le0EWN0Bo/O7n4uEMBAh2EPNkJPNzdtxE2lYI6Lzzw/5bCls2D6K9VuPmj9l7PXeG/OiZ23qlAgSX05S2efjPpiNzX0DloOTm4voGK6nUpcOdoxxkaitCzSfHhJNqrqmWk3eNrZa7a2G8jst02bd7F0BFPAGzdxUo//iEGoaqfeML0FheVUviqtrX9/yyg1z4I0hDLOjoAAIjMXXuNa53PVTDWzkCesxyqSkHfg1eGBDW8Z1lhNS13q2PeBFIXB+KQJsAACAASURBVPvaLnp2VStKRKaNcD0Dt7aU49XAVHPgUVkA4dLvr/eAcz/FaKmNZeTESZQZwS7t+ZSAURsuVBv6o8Edh8zCmCdPa+PKv+8OtBxZssALsiBLW1Ws3GNOI33EU8co3WK4tOA1E2+9DgLvByIXgDomliKdWI2ggRzQCjzk6EIgqOWI50Najv4NQ3DjF76a5mU+7yeAHqBOjwmVui7/xKMBAk5Ii9FfzjiQmjsGEzgpi2bADI/S4V/Ri665uPD95/Dvr69c7/PP1j05adQXczYqmHOE65SxLyN3U6CYC882qlhm+UjXmeQUvIQVLU6AgF9is/c+E+NuoPxsQNEHRC4/hGOg+EF3rBjy2pbovj8oHbsnlJcAQgE0CCBCqGiOS1kxpbknjMfT+kCvLQ09u25xsnfWPsm+nOcFdP8jCtcVAgSsg0syw1ATanceH0Jqv5HmaowJuyaUNe9eeMWLk0IMXUeA39kii/oFDuygA65u35Hlui78wtV75f6eFv+df+6xtVvoxT+bAJ/LNnBG+84CHKQb9P0eZwAkgxSEgIX4g0+LQUsjQtsNItXv5EvIPjCj9tU9C04EmhPAxuFlQG5PpXKM+jigTWatfjsD5dS8smlYJ9PxpZt9BInWmQE9Ge/EOceDjRc5sPNaCOo8c5Rvg+Gz5byzNJfBy/O5Hztf9kvaWtYsmb0WBbaMHsjmhv6lT1gw0EytCeD3yHuJZSp3Gw5gJqhNEJIvaS4f+q0rn7y9Ny+aINunlbnWO7u8URuWtO39D2wH5kwm1AqmkFZJVbtOrebxACFmV4LXgKUrktIFvZ+0MOU9Uv4kkX3Q/loBBj/evNzUno9e7fzBoqdjL6T+IYJGonJmX6C827EU9icCLwA8Xjng43+iB0yS1xtlpYoVIABA6/dm7t+TyjXDcBjpviZDPvkuOfjXVmV9z+36aED1wlDDKpNewUsXDCBIp1eoaN6fsmJKi4L3pnS1QOMWa6+nH/7MdmzpUA2xOkzf8r5q5xKTDg0Ocv3aQM1+23lCELLf/6Hxc/2P//1ZZqD9smM1y3vn7a1iuJjGDpBdpgFEtnm7gW/tocdcvVvu7zRxrff1Exv2WY8uq6sVc1nktZ2gJtTl8KRPVJSABM/+JGABX9DVf21ZVOWnB+YHCTR5i29i3I/HhNNLKmlFgR3AbBuU21F2CHFgr/J6WqXnVshyGjQd/6LC2X9nXypjT2C0+Cz3hoz35YFCHBMHkOXThNbq/mEUCXtKccZeGa8rMUUyd37YPHnPnH1eJANytRHmGkOusENeAgjHdRcWdrXoLEnANx6+NrLjrGfyDwwJlC7HHBD4a+sgRwyxC+UG+dTtGW1FU8Olrz7M0ZhOGExiGIQ/OvpZjwcIOLBqA6d/dt7MvctiOtleIAW+3PHcoYnjWEw+hnHUD6ALundvMXzlz3vOXzTqyjtjj6no9PRxtnufNYKaMU4Eg80OXZrUKbNm5HMu89C7s+KKGyC8sfDXj7/de3aCZNZxbh0uNtTbZG8QsqFTtZAmf08edsgdGRRnHQQI+67lzMDYa/ceCiGCcV/qyuiW7tUvnbUQHCSbL8ww7lk40kAywY7agHwQVMYxyG7TIkdBoDx41X4zJbTr1+FERggAqtTPf/9UjiHpb288nHiHKUxyUnb9OLLKOyz+eMDpwR7ZISGs0dOtfGoNTXTdgrwS2M/Ure+uzDi6spe3mAaU8sBTgd247/fgjR7PB7Y9okAIBU7kwEz0oKnzxvZytR95llR8LZ0ej9FdvfjPYuHM9300VOKEQAgiN5jc+ZlT0ICm7tsfR3RZKOuShDfey6u75Wiu/O2FBiV2lMkMTnMOHb9HKvJAavb6r2z9x9rjeORJtfSVuvLHm30g/sdlQGxgj+qaWunlP0Odo0SAcJEBhGvANx61NqLjjNsAQpz2yq8fWbkL6yCH+Is1ar/mTZ78ki2GM98/vt0raXM7XHfWas9PLhEA4d1Vm2os/GvnCTPny1NOACI6gcL9vpqbJxb+LUJnS+/SuO5b3+8+/IsdfCQKZ1kYNt/iQixBKbSI0O3YM2PEI0W17IobIMQlUu82E6bl2ESeUDwknV+z3AEzxzMCFQ0ctGtQvtZ3hcQwKff1BS3Xduzc0Xuum2biLVX5I+lOw+zGfckrp6gAwSHAlLjPI81JJ5aLJ777n0aDXvPKJSsd7Jx0qxYJBLQZ95Jf649i5LaUGjtymvXA/LF2YgOtSF0eundrl5k48LIuckA4HnLDOkNU7cc7+DbuuJuQZneEU8vt2+3ljMcW/nht85SXdGIKkTQCToHJFRzqHTgW524ietBX7XnJ4BfRzmZK3WE+FVNRC7mOV8ptTyqOpgg7JrulgVD+hYXtSYVXtssdY9rucXOMu2YNI5wdeFEyHcjEZ3nuwrizoObXUv5J8C3bqElo6/pHCelZoOy5cvvvSeWS1g+IEf/7qgd+C4GPfpbo13BE2fwA4fL8rhaNNRG0jUf+o6vS+NUAdL3x86aZ2XuJaPMalRY7Z4IvZEKGpq4tt81gn2bN+rO1m7In+s+c3dOf0lILZAe2+rREAATseJUB0364YNa8giQhLOzR5YPwFMvhqY7cESIEe2kh1SQwuklBCq5V8GB7AugoFaa+2jhgdJcuzi9MQRvyihY3QMBeRr45JfU69Q+W3MecFk4Z/UdwwKHmxgp4ywgSc6Bdrao9Glfz+iO6Z8+7OkzJaPWBFmk9Zt7ovSm5M6VVphQkqAABpYZOTxe3/smHVYiol3Z278ScM1uf9bcmMPZ0KuA3qOjjYzMhpYTWAifaIFsTCeEt+gcHtIm+IXdxpB/6PDBt64fp3jQdEPiysEKF3cC9A78IngDYKAGdQMDIBwJfqdN/IXUeG+DF2+JI9WFu0DXeOQrr1d9+uPTriJe9bZfznaPyOozjwoOct2uABw5MaBel3qCjRrBzFDSOyw5zGJTrZeTwG0CQZNRUM9UYelaWg6JzZFlHv6x19d+pJwMgiTkd4iXNtXFIqu00dGKYqZ0XQW/nwMQZgC/XAfzKtRpCLML3GQDmSpUqAlTqa5GjVZK7bjyx3JWfu//CX/r9eQuvhXIv/JyoKf/MLQDh0sIuFq31Kpi4SLByUmQoD1agtlTwt+eCqLOCTfSG4Een/+HfYOizeXP03+dv3dgw/msMB7aXfWxziQEI3T9Y9Oj6c0mbLLyP5PEs58xiSgRJU4CqSXSblbQPjsROcmx7ectTwq51vMXs4/PH+hflovEEgDBt0/Yqk7/bec7GESCCxqFxUTJqdG4UAcPCeLsNAohZrFsu4u+urRq8N65b69Oe7JuAYY5xSRkz7JxOIYh0bGVuahDO7lwYRtJOjNPkzzrORC4HECuZm8IpS/J5zhFe5KjNotPq9D1zsq4F2m8kEU3uWaIjWUQr2pnmDQ8mZOxjvjwy1cu39pQHXhQwGBB07aZAeKvJci+gec2c/amHVZ/4i1aLdnAWFSHvwHU2gKXR9KYVAKwah73foaYXwBuMfISoL98q1yeg/OKgCnWNmuDIPVAmYjukJEtNhAZRhBb3nYEkLYFwDQHwttMbcfEXfxpQTmdKY9+S3AXJtC1IH8MBi4jgBUwqB2CnFPQCBatG4lFQsrKw03ivQmImWqPP2QpPf1Nd6UpK3TriQPbBBU301M6glivTye3tOyccISb2nWfrSQdWqgMTH0BF3wqg9w0X/YLKgSkn+yvOYLBKMaJOkmqlPS768gz8cAIRGQs1nlSEGPxrzwxtd2/TVcJP3X/mrvzxgsBpodzLvyVykU/eAhAuLnzCorFcYUybLEIFwaJNAJHTglX0BbuhAkS27zvFr8GwD/OP0Hp68VuJ60Z+rQUzWEPabykxAAFlWHHIp7su59pb4c3UFf+vpBV3GCcZTGUehlIWRoJmCjk5HpwoRNJGaIkIk595pNqk59relZ2qsJaSJwAEHEu9AdM2HrdqHgPk7WbRDPkfFx7nDjIpdJZiBwIvACdINxeCjuCCaCdUFHnBiupBQYr1JoBEKhyq9inlEEQwKKjwGGBkLCJ+Z3fSv0gz6ryPMFMIJx0V0kM5wlOtzstC9Tz+b9xglT3uaxBSD815Nn3jx2t02jRJb5HXK4UCUNZh90rfdvVjiWCcJDiSqxRTBbP7NlMlO+cWAKdGybTmvwvgIZnJVRNqvTI1kIT1lFziFTz0+DdB5ze9m6YTjaDBMF4Z1Mb5m8d9Q+SlKAiWE8F5u8WDEzWVuFyxDB7MzESlZX4EimaQcuzgs3MoUwE4akWdp3OFyhqtlL9AkjJ+c3YnEEJOfuGmyeLml+ACejhAHWPq00ZBaNfPw/yq90yR1Zl8hXIPfhmVsG3OVT/xLFvebFdxrHM5oBGT4zmjUKRQUOIAeZLspRS7UiQHA4Ds3c7kD/IBltJxFbx8vrMGCAS3Hjvbu/VHo+7V7pU1r/xML/74AifqocwzKxK9q718B0DQm66BodXg89YczWN6H9I9OW7pbC8xA3xaDT0ZVL5NU1K+p+n29lO3jxmUu3/efB2YQCj/1L8lCSBA+wnzX9p9NXOVjdPetnkquwUomkwWfI1JDSmEElNK0tLoMEX13SjsKQAheu1a7/m/HTyVJnqXZ1oXKYxDrkLSjZGXhiruA4Qr60Y0Mp9cecjA3chz3lNywysN0rvlMHbs9WhnxUMO15+V+kHYswvmeFd9fYS7473y79AUcnhRCJoqEcBoRMxr4G5rpbOek+IYz1w8iFkYJKO814FQ+7UjFZ5Y2sjdkWcc/ax/xsaJi/SclZltkb8B50DK/eLIS+EAXg/j+kc5+LWZMNe31dRb8iLkl/f51c+/pU1Y+zXOj7beoGsRXeZIyRYc5r3zi563GkyJYAx5dGT13uu/QOfXy3+8vJU/u7q93VBBrPjszKakXM/Dt89hwvp3YuH48vYISHPCunxcogBC9LIthm/27j5/1cpFIiov+sehdSCI4jl4tWF4329H9l5e1O/1FICA43zl08UhO+JTzyVaeH/mRczgvuJrdVGLzIPadx8gJKwbUt9y8oejKkBwbHTsrEAVqQhWDjV/evBtPurf0LYfPVaQCadpf/mf+2NqkiF9rwFvoBzGh2P4MmoVma9DEV44CtLxB1jX6ZcsHdgc8CIPAidAjqHB6ZqdhzYntfplu9sdPKySto9eaYlb0AuViVrmr8SDwAuKfULc7YMn15MDEK5uGvW49fA3G3R8JuTqGmXWGHw4j48CiZIuLuxj0puvgCn4sRFV31g/B8ebevTTWhk7vz6pM58Dc5kOiTX6/JundXDK4+RXTeIDcw5VM1Ef0Dcc9FaJAgg4iCbvfdbrSIrlW7SlSJrMfGnQCn3WHaGPxA7BojUxddnkcg/Cdu5JAAFF2mfhj5W2HIn/K8Giq82cRNEGyTgS1OdOCagAobBWxU0VNAEzFwA+jd/4O7TDF08VxjeYe2Jxk2s7v9yuyznhrcGkZOwglKxZctybCmuMntyO5BSKrlscM3eY/RtlBDXr0S640djjBe03jY7mUjtn7c4+sKSFN80GG7I5os+Eqslh1y9XGgRj/Hflrmz+JMHHeAZsnD9UfG5uC1Kh137pSIzXX1r4qFlrugrm8P+NrNrr7zxCrwtrXh1JLvwym6Ma0NZ/+4PIx7+Ids4lvfTD0xf+GPGHlzUVcnxqQLXHxoeXOIDwzuK13n8fOHYuwaaJYAPLU3sXdMnevT5TQVIRHq8WNvCvif0WFc1bbm3V0wAC9m7g93+W2XfkzKKjSaaedg5JplDdqCBO6UEIziPeoQIExdPgwPhOf4A8SzEjL9WAyVAeAmp2Hxf26OfTFbd9nwqZBz5rlXbk141c5n5fHdr5kWfF4TNRmO8pCW05HRDzDmicBHSkQLMO0QMNaZMRVvepjr5NRh0pzPFc/mfIh+b4Xyf52K47OG7uzrDoyd4DhSkPbEsOQMByib+/vlg4/9M7PNjBGNndVjW8gTfpFG2ndJfXxUUvGREgmMIeH1m91/o8gID5Gy7v+z1dk/gHGHXlxWq9v61P/NqfwPbiv38q3jv572pE5MFS8alfK7+45oU8gIDOP4oVa4Sw8MFmkYbYfdOGdSxsQd2rvfYT5rXfdTUrFuN8RaJlPNOoopLr4Xv/fjooldG5DlnJBICyevvJi4vH1i2Mm4scGRUcIADoqdViWTHeq5CEktftjtGLu59NSp993UQrC5inAZPLEI4Rz6DHLFtDd8QuPUyftwQQQuy5iomS8kwM/A2Ge0uy1JzOb/ezIbMzyEGdnAcO0MeFoHc7phDyAhLe7qpv9Uf6hDSftEnOt6O0jO3qn22u71uyVDi/qaYOjOjBxzolxejTPCpope2WtPI4DxoB6YwxCy4PApIuEQomLgp0ZZvHlK/bfZAcSmt3xn1j18RuWee2Laep+4L1aG4g6BvidDCXjJpKIy7c6Yen1JELEHIOzGqQsHv+ET/bJaCCF3h1nrw2pMnYZ1CDcGHh/8wYxWAMeXxErdf/YiYG55N+8PM3k7dNXeIjZEFu5BOXarwyolrKnh3fmPbOfIOjOWDWloPg5gPbB7Ucv73EaRBwkCzj4Ogvlx9Jy+nNnOYoDyJ+2JJPrPsPuxFjrAmGQ+ISJRBARONjzco2XD349bPuN6ysZoEBAlDQi7YiAQg4krl/xetXbFzbL8lq+zAxRwgGopUuG6LgYHG7NQNkST7olM0cQ0cOoqTcfckKmRRv90Fga115B0pODRZVhDAfwMYohdG7XgQq6sHqXyfTu3yr+ZFtX/mC+LVX7C2vRAhIMZu0YcdH2Rc3DdblnvPXAEYNOOMw8bCSfG9Ks28CA2tspNIN3sSFAIlsesarYtvR4a0mrXXn/qhoDnK3RV7fHTPdfGlPbz7zP6DEAlqG0hCs4fVPTjovJW/03LJyAQKOICV2zOKcA1++owMz5EIQBDTpOyqsQ+f5J1d9N0YvZHubfWuuqdv90735R4vn56k1fYdoLdnlfWp0GO0X4JeQ/OeE8np7ClgJD3ytVxdVeHIpy+tQMIDAkB2FphGG2H3TH5wGATs+cnaM168nzv2bIEJrSjGqQeL3LtgjhRUxbQQB8OVtUDfQ+6U9nw6XzdZWsPdLtQsHIKAGYUKhaxDyjy865rhu24lNvS+nWgcl5wiNc1mSeg2AaAWBQxk6JqRUn3K3z7gEEEIFo+JcDA+bk6KUpEnSPiGNug21gX7108Xg2ksq1+06g9R8NbUwvie5bZjPrapx7dDqUTTj3Dt8xmkgvAU4JGUTcJ+TwulKrX8Ci76XkkdbdSEQ9uTsX7wr9+rxoLSmzjmiN9bXu7T121fgxqneQu65cjohGzTEDqLc7E5yJ9uDyykBCDR+rv5y/KGLmpPfRWBKASMEgLZ6t5/CGj0zyVD+xftmG6VJf1ZJOX9gQ87uOVX1JAOoqAFzRMfdVf83uAsJfZY5oUoAwUjH3+rs5+qkvbnjcxRNDF4P1MTgnNs+0csM268mbrlssbeyc943+cRvySFwv5Vw28nFPhLJU8aPms31y/mM3Dn13Qfid5C/l73mx1T7ec/peLNGLyNZ0u2nr3QXMIg2i7mIAUL+Ps/9a1voz1sPjIq/kd3ORHT1jFYxwM44JxyceXlgIV9/WdhUUTqZurkLFKhP7msQEjePamo6uCxOT24wpj58StqBlMcokY8IyTnjTv2eRJEhJRSyiTzYDeHA+VU95RvVaGFok24rSNDjBcnJ7Oak36xGE2KCrpyInWJJ2PcMn3u1EhFvAOYtcGYscLU7Ko3xYZETbvb6bkvV3TUjaUpERoREIh+/Eliv2//86g8+6WbXClQNtTrZhxPeTDm9rTvJvdwGcq8GcrZ0BhbuZwx3mrYK9PJiqJzfFKcEILA9Iv47/4v//XWWnP8jVEdywUa1IJRpAl7lmn6r9Q1eERzV8ARUDEoB6CjC9X8qJJ3aEWHPSXzZknpquCb9IKD/jYXowB752LmyHd581CvqhUtOETCAcM5Ix0sLVPq3qw8g/2JG21CTKJ9t+z8Z3KEY5ArRlHK7P/jqz92X0v+XQzkE+hJJC7NlOpXbEufWze1WYkVkmgJk9CKo6pRYFzH+M0RDL7SqEPXG75P7yuYZL8yx39Qg6PJofe4Pc6QtwWm3w7AtnSg8UICQv3+YmGXo8j+fOXzq7CNXMi1NcuwQZROpP8dxEWa7CDYqRUBgNIRTk6skYUxhyvpmWxKhEyYCQsIfEXQAedkslbzR6YNg3Ju6ckorJTWTYt9vkxH39U5fcuOWb7CkxILfvm9wCAIwGRoDgngDR/IgPRDOG6zeZe02YtgeWrPT0eDKLT8i5Z53mbJZiSwLq6zt5IrW18/ujbZc3VFNJ6RXsVvTQQNmwIuRRLglkbAxplYWIin5Lrh74Ev9ltCVU56M7dEBpm9GWdyUtjMrLariNXYMF8TQQQ4wb43S3jjBhQhaEKI6Q3CDpzv41RmyrbDk6U47uJ/YLv/UK+XknhamlCMtxeyrIXpqqgT2XKD2XEAnPen+gXLCuZAkkhdnVQJsnHkRIw52t4C2E+f6tvronjwIt8sRo0IS22TE2k+vaqOxpmBQMIhEA7ngDcQ7CjT6QMZQJ5pugGi8CnrOyFhJ8SQUdCFgj2i7rEqrlwffTp5E6gz6ZOxlM/feLRu8C4SQP28I/r1RhNeO7dOHd3dn8gurzuK4cwELlvy0+KIROucCHyo4bqws2RDFuyx+vA4nOinamXkts4+ZUjBoRPAWrZeaVIycu2HK21/ISSFbWH2/vZ3Xv4ypvO7giX0WTu9IDXOf7SbfRpLHWE5E0AtWS9ryyeUKcDkp9OHFHKc6U+aR0P/OXQ9PzsxomWOyeFlsdp1gFznMlwFUKfFqAbvICBtvGqaIQChSl6ZbxOEHrqSFspwfiqkU3QcICdsntcz8L2aPn5iTj+0RfeY8HyJINzcJCEiOqjwIGj1YLPbrVOMrar2DbnB+lZN8giL/CK/Z7DpE2H4paUl20Ds85+DOfjcuH+9tTTsVRoxXDTqNPZzazABUIv1xXxfgWMt537MUekmJDgjBbAo8AKcH4HUgCGK6HTiLyOkop/UXic5XpKBJ5vW+VOcfRs2Xd9bUmk77a9juhkBGmY6CzaPIM/NKblBTCK3/XHv/puOL5bJ0ry+cXthisGqvd8u+dCrKlJHWwZx5pQJnT/ezmTP9REsu0VMLp9HpwkG0gYhgzpF7x5lquoA7RyFXly53+S8rAc3fnhjYfNJUpS+il1c2i9/2w3eajP9qai0pTOPC/HocDTkJr2yiDmx6P2oPaHK1Qsver3nVeO2uINCVskBp/zyi/Ps/bGy388iJFzOyjE9fzbFobRzvQ3meFxyER5woUo4KohcH2aF+XherlA/b0rVV07mDHmnw0KYP9YiJ85BOVB84/aNzZs1E6VhWehd0HyCwtzHV1wEeIFvpi4tZen6OvaQpBdjq6EtH4UHbsB+0EFAVDqlR3pacS29Zs67zogUPJCfoVArsGJcgC3RjsUE6Qr29gwV9QIQI4X7fAIRZAeqgTO9LQoKJss4sHZbom7U3hDKq5pv8AnLMD0yT5ohgRk2CxasahDR/tUtgs0kbHrR8C/I+Cfyv5gBCCYBzfWKLnvht3do/QjrZCzT2GxvrJ8St625KOdNPyEzwJ/ZMiQJcF0AhsFxuUMUG28KrdJhDIp9g3An3ekolQCiIYNW6qgSqDpjx4TkrmcQ2a8WMnQUDCKr0VQkUhgQQuJz5Ydl1ffLmEI1oy5cTw3XrkobYYUBx6DCzdVEQ0X70dP8GI8a5bkEtUVokoAKE0jKT6jgKTQJVB8786JyZTHSrQWZMFCBEMO1NXRmtyAfBrfeplVQJ3EMCeIO+9EfvFHLup2Ce2h0h3Mh3oAGBk3dBvalx4MBIAiCo7bufBbeYdItJWp2A0isBFSCU3rlVR+amBPIAgjMvsZJ2HGnFQ+w5e1NXfqgCBCWyU8sWugRQk3B57brNQvxP7XUsAgDzTlDGB5UX7CXrrRxz4rUTb6qp12dl1P/m9ZFVTS1UoiWgAoQSPX1q54tCApUGzJhy0UyiJb8hhZ9IngYhVwUIRTE5apuKJUBpjO7Khs0LLSd+fNOLZjtCuZV516AmgbFeihqwarxBW/3VQ+WfXNREcWfUCiVKAgp3vxI1NrWzqgTckkClt6dPvmjjPmCVlV2zHHFuAgTbc/emfatqENyaALVSoUsAzQ3X/hkyIftMzEc+YqrEP6KAgsR5UAhAQC8AWDR6EMt2O1ahx+qGpd0RtdAnowQ1qAKEEjRZalcfjASajpm7+kCK5UXkxcDYYcUPoRBBjbuvL4tuo7iuWkGVQBFKIHXH++NTD/0w1deWBJRYQSMgYRVqB6RMlnIeJ+uKSL3AXrZzum+j5yqGFiD9s5x3qmWKRwJy10Tx9E59qyqBBywBSilfdegX1y7kWkOdBDRKu4Bx543KaHcemj2yndK6anlVAkUtgRtx0walHVg+3ys3noVAIt8Ho9pQcBqw/BksKlMH9uCWaaH1n6jt12R8kebMKGq5qO3fKQEFS0IVnyqB0i+BtpMX9t9/8cYiK48slu496DHeLkL3Uez0UZPda0GtpUqgaCWQHjuhfdq59bHe6YeY4yImW1NC+cH0asxpkQeeiJDt3yClbOshr/nWeXtj0fZcbf1BSkAFCA9S2uq7PFoCXT9Y9OjeyzfWZFLel4paoARDwRR8Ig6brk6wwognmrWd8UqXXR49YLVzD7UEsk7Pb5e8fdlP2uxDUUi7q8TdhicEkEWbkdiLqIXQgCWgIQTWefrJoNZT/n6oBVuKBq9g9ytFo1aHokognwQWr43z/uXw4S/2X0p5O8OuAcoR4ASKbLPyblVOInUkl6EihHqRjEEL3guOZpm/1EeVgOdKIPP47KC0g+uO65O3RrA09zLVCFJ60j4fdgAAA+dJREFUA0f+CbbuKdg5AoKhGhjqvfRG5CMfrfTcUas9kysBFSDIlZRartRIABN8+W3YXzZm3baKukCvAScTMp/PoMQLw7hEigmkFGZ3YZoDyuy4+Gd1H7rq1Pyxr5QagakDKdUSoMdjfOMPrdhBs85pCPLxMibFvLyc9x47oYzzGc0NLJ8UJVRDgGToqtAyjZ7vXalZ/4OlWnAPweBUgPAQTLLSIc7962DomrgDC6jIS6ce8Jjwo8SuFdy4UAbIkX8tJd3g7ePV7UxiCtg4L7DzbHtzJBnCISKDjDKJoQ0XkzphSh0v3mId1aVN3eienc4qa0UtrUpAlYAqAc+SgMKt0LM6r/amaCQwfe3BhhN++euwCHoAzg4E7fEyVY9F06NCapVl0UWOebzqU6DomcW+ADvLuUCAAweWkC5QMoyyEtki4g8eNKIFagVqFv43Z8ygQuqx2owqAVUCqgSKTQIqQCg20Xvui2et31/v/R83HJMAggAg8BKPewl+CHFaV50Z81j+b4YPWO49dtLfluvufpYGZ1FCgIgYEEkhyssa/9mCCbV7usi2V4LFqHZdlYAqgYdIAipAeIgmW+5Qp6/bVX/c6u1HKctB73BVVleKJD4EBvm4kwi1AyE6CAKLqW/7RvVn9XnynFw5q+VUCagSUCXgyRJQt31Pnp1i6psKEO4neNQ0oCOjDbQCD3YNB2EkV+jasHzNFcP6qOCgmNas+lpVAqoECl8CKkAofJmW+BZVgHC/KRSBUI6FQvLECuV58VL31nUbfdH3uYwSP/HqAFQJqBJQJZBPAipAUJfDHRJQAcJdFgWlQDjOkZ7BCt4WEbo1rrzGK9j6yvK+fc3qMlIloEpAlUBpk4AKEErbjBbCeG4FCKLDi68QGi4RTYiOdLi85G9ACVD0wyAEkG0Owx4ahWhPl/X17/ZH9FtqKGOJmFO1k6oEVAm4IwEVILgjtVJe5+EFCBITIiNNQAdNpIHBSEgRwMtugSrBXuv0xD7u6dnvH1dZEkv5R6AOT5WAKgGllDCqxB4GCcxeF1d/1OpNRyloALhSqkG4hecAHQ8dlAgchigIwAkCaKgNovy8zwQYyKyoMoaNf00cculhmH91jKoEVAmoEkAJqBoEdR3cIYFZf+9p8H5M7BGRYpijEyCUhqUi6QacC59hBPYfAjMf6KgIwd66RG8N7DTw3B91Klc++uOIF4+qS0SVgCoBVQIPowRKw67/MM5bkY552m+7K836+Y+vBWLArEXIUcy89kv6w0ZAKSEEnQ1F6u/rRQ0a7WGtIFwu46051aBurXML+j51gWBCBfVRJaBKQJXAQy6B/wOY4BF34HvrxwAAAABJRU5ErkJggg==;" vertex="1" parent="1"><mxGeometry x="556" y="585.37" width="85" height="51.33" as="geometry"/></mxCell><mxCell id="56" style="rounded=0;orthogonalLoop=1;jettySize=auto;html=1;startArrow=classic;startFill=1;" edge="1" parent="1" source="35" target="30"><mxGeometry relative="1" as="geometry"/></mxCell><mxCell id="70" style="edgeStyle=none;rounded=0;orthogonalLoop=1;jettySize=auto;html=1;startArrow=none;startFill=0;" edge="1" parent="1" source="35" target="15"><mxGeometry relative="1" as="geometry"/></mxCell><mxCell id="78" style="edgeStyle=none;rounded=0;orthogonalLoop=1;jettySize=auto;html=1;exitX=1;exitY=0.5;exitDx=0;exitDy=0;entryX=0;entryY=0.5;entryDx=0;entryDy=0;startArrow=none;startFill=0;" edge="1" parent="1" source="35" target="72"><mxGeometry relative="1" as="geometry"/></mxCell><mxCell id="35" value="" style="shape=image;verticalLabelPosition=bottom;labelBackgroundColor=#ffffff;verticalAlign=top;aspect=fixed;imageAspect=0;image=data:image/png,iVBORw0KGgoAAAANSUhEUgAAAXEAAAJZCAYAAABfkAViAACAAElEQVR42uy9BXhbyZYt3BeG3ps3M2/m3bn/dGLpCMzMdpiZmZmpw9CdDjMzMzOTwxwncZgcpu5OQzrdcaDp9t1/rZKOIsuCc2RJlu2q76tPjmNLxwdW7Vp77bU/+kgMMcQQQwwxxBDDX0d8fPw/aDSa/6vT6bSBGo2evQYbtdpUo0ZX0yBJrfWS1Nug1Y5iX89gr4uMWt0a9vUmu1MrrTNqpWXs52axOdqg1Q1gP9/BKEm19Rp9CUOAIcIYEGAI1mp1BoPhvyVJ+md2CH8QV0EMMcQQw/n4IwPM/zBqNGF6rba6QaPrqNdIn+i10jQGslsY+J5joHufvT42aKRn7PUlm+/Y/IXN39kkN+ff2fv+xl7fs/mKzS/4Z2ilh+yzr7DXfezz5gPs2SLQmS0cDdgCEguAL/NRmT+LyyaGGGIUtvEHvV7/74iqWfSbwqLoLgwcZ7LoeC17vcBA82szMJN/Tu1v7Fi/Z683sLjotbq5AHi9RlMeEXzRokX/EwuSuMxiiCFGgRiIVgFsugBdSVMkK003RdXSUzZfmyJhfwVsVfOdOYrPYJH7AgbsPdgiVZktVn8NCwv7R3EniCGGGPlmmGmRcETZZirkshmwqZBNUDQ3GaDvMXHv2rigj4P+n4jUxRBDDH8bfwJHbAzQ1TIlC3mk/Q2bfyuEwO2QewcNw+ZV8PxsV9JEr9drkLQVt48YYoiRF+MPiCr1Gn0FBtyLGShdZ0D1kwBr5dw6O2f39FrtZqNG1zA4IOBjLIbithJDDDG8OqL++tf/zfltSPo4TaJ9IwA51xOL3129VjcHyhzQUR8JWaMYYojhqYHEnL6oPtAoSX0Y2Bxj8wcBvF7l0c8ZtLr+0KoLGaMYYojh7vgTtvgsMmzGi2dMygvBcftu/o3r1VHApNEUNxqN/yRuSTHEEMPlgIbboNWWM2qleQxEbpkLYfwW7PQaTC3pAjQkFQ3gU4tZxME0/7/pZzX89/D7mP76N3JduiRtNOp0lUBnibtUDDHEsB1/RDm7XpK6MtA+ZNY8+xlYZwdqo6Sj0MBAigwJodT4OKpSrhQ1qVOdOrVsTP27taNPe3e2O4d80on6dG5N7Zs3pIa1qlKVsqUoNSGOokJDKSwoiEIMRv5ZkjXQ+wnA67XSW5N1gLac0J6LIYYYPElplKTSpqibl7T/7k/ArQvQ8qgZ4B0VFkrVKpShVg3r0PD+3Wndwsl0bMcKOrd/HWWe20Nf3TxGPzw4S2+eXqCfvrhEP3952eF8/zyD3jy5QK/un+G/dzd9D51PW0+ndq+iA5sW0ZLpo2lwr47UsmFtqle9MhVPSqAQo5Efh9YM7Hkcub9i12uVTqdL+kgoWsQQo/ANUzGOroFBI+1ggJDlX8Ct4SAZbDBQqdQk6tG+Bc0cO4TO7F1DL24dp9eP0zkQ//riqnleoV++usK/B/BWM3/+0gT2+H28z4f3vMr/H5/1/b0zDOT30oGNC2naqEE0sEcHasQi+MSYaDOwm6J2HHcenK+v9BppmLGIsai4q8UQoxAMrVb7P9yrRKs7zQDgZ38CbwA3KJLyJYrRgO7tae/6+XTv/D569+yiGWDdA+rczg8gz8CdveJ7L++dpusnttOhLUto2ujB1LpxXapYugSFGgMtFIwPI/W/c6mnJDUuWrTov4i7XAwxCuAwGo1/MYG3lOFPiUoT96yhsMBAalK3Bi2dMZoeX07jdAdA85evfA/aaoEdr1mPz9Oza4dpz7p5NHJQT2rRoBbFRUZSoE7nyyj9PWx4IUsUd7wYYhQg2kSv1bYzaqTz/qYyAXgjKdm+eQPat2EBfXf3lIka+dI/gVsJsMvUzqsHZ+ny0S20YfEU6ta2GZUrkUpBeoNZDeP1CB0FWHVFOb8YYuTjwYtztNpqBq3usL/ZugLIQDt0bNGIDm1dQj88PJdnVIn3AP0Sp14Qqb99eoHvLravnE2fftKZSiYnsghdb4rQvUe5vGbXfizkouJpEEOM/DX+GChJMUattJQ9yD/6W8ISicCWDetw2gEJQ4AcAK+ggLejid3Fb+xvBU2EJOmmpdOoS+smVDwx3kQpeYdu+RW+LGw3FiIeCzHEyAcDSUuzn8kXnuGqPcPl4j2QsISiY9vKWTwpWNAib1WAblbCIEK/eWoHLZo2kuvVoXn3kib9GrsvyoonRAwx/HSg96RRq21v7orze26BG18nxcVR7eo1qGK5cnzr747SwlQFKVG18mVo2awx9OXNY+bIu3CCt2NAv0pf3z5OaZsXU98ubamYOTr3cDL0qVGjayl8WMQQw48GvDSQwGIP6FFsnXMD3IiUE2PjqFO7djR7xgw6dOAA3bp+jTLOp9OIoUMpIiREMZDLAIQqyOmjB9OTywfd1nEXlinr3iGnvMGi89njh3LJIq4LonPP8eTaz0TZvhhi5PFANBUoScm8J6Ub3XJkkNWzr5PjE6hl02Y0f85sOnIwje7evkWPH9ynR/fv0YO7mfz11vXrVKdGTUuU7jRpyd43JjycF8RcObbVwgcLoFYXnWM+zDhAy2eNpXrVKvHCJ649zz2Q/4Kmz5CciidJDDF8P/6kL6qPhOc0exi/dYebxowOj6CGdevStMmT6Oihg5R562Y24Lae+N6ZkyeobMlSTrf3+L9gg5HaN2tAJ3at5KXvv5gLY/L/zKCfnmfQ++cX6f2zC+5N/C6beB/lYG7Son99+wRPhDarV9NcTJTryPx3JDzRqFo8UmKI4aMRVLRoEYNW9znbDj93B7zxWjK1GPXq1o1279hON69ddQjcD+/d5d/HPHf6FHVo29YF762lCqWK06q5EyxJy3wD0ADnZwxgn56nd0/T6d2Tc/Tu8Vl6++gUvXlwgrLuH6Ose0fo9d3D9DrzEJsH7cw0O9POz909RFnsfbLuH2XvfZx/Bj6Lfyb7bIC9PZCXqRbo6Dcvm04NalShIL0+t5w5qjyPMiAPFk+XGGJ4caBLPDrEmxsN/66W6w4NDKLa1avTlIkT6fTx43Q/8w4HZwC1LXjLAH71Ugbt2LqFPh00iCqWLeuUOomLjKCRA3vS/Qv7eOToj7y3JYIGUAOgH57kIPoGAM3B+SD9eCeNfrx9wDz3+3iyz7xzgB8HFgwc15uHJ9ixnmHHfd4UwVtViSIyXz1vAtWqXJ5z5rksHjqL5s3iSRNDDA8PJC3hHc0esiNqinVk8I4ICaXGDRrQyqVLOSgj6nYE3NbUyeYN66lGlSoUGRpmoV9yRPbsM0ySwWp0fOcKnozzF+oEgCdH1DyaZoCICJhHwhyo9+eriWPm4M6i97ePTvO/DfQOdjtfXD/CDblS4mItOQ43gfwm2+EVE0+dGGJ4iPc2aDTxsBlV4y4oJytjI6OoY7t2tHHdOq4ucRZ129In2zZv4pQLFgFHShRE38US4mnuxM+5hWtegjePsFl0/ZZFrCbq46g5qs6riNoHExE7W5Swk3j/5CzfYWQc3sSdHuGDnguKJRMe5eLxE0OMXAzuMKiRhsNeVG3kHRUWTm1btaJd27dZFCbOgFsGb7xeTE+nubNmUbGkZIcggC079OJtGtelCwc3WHy5fc5fs0iUgzYibHDU+TC69mikzhatdw9P0MvMY7R85mgqkZTgNpCzSP6RQZKqiCdRDDFUDuh29Vptc7XFOgBv0B7tWrWmrRs30p2bN+wmKu1F3bdvXKcjhw7R/LnzqGWzFhQWHOLw4YcaolhCHM2fNIy+yzzl0+ib0yMs4uSR9t3D5ih7v5g5aJcD9ObeYTq7awk1rlnZUmjlZlFQTfFUiiGGsvEH+JwYNNIGc4dzxWoTOOI1b9yYNq5by8HbVeQN8Ma8fuUy7di6lSaOn0Ddu3SjsqVKO6zIlL/Xpkk9Op/mu+ibAzePto+b6JHbAriVzqzMNHpwegMN6dHa0mZOPZBrnxsDdLXE4ymGGE4G3OX0ktSbPTRP1FAneK1coQLNmz2Lbly9ohi8kdzczKL1saPHUK8evagFi75R6ONsoYiNCKfJwwdwNcSv3o6+n2fwpB1UGeB8BSDnBsgP0LfXdtPMkX0oOizUPfWKRnrGdofVxZMqhhh2BpQA7EHZq0Z1oiuqoZSERBo5bBidP3PGZcLSRJvcpSsZGbR+7Voa8flwDt7dWPRdu0ZNCg8JdRilAcDRyxJeHu8YuHoz+kbUDY4b0jpBlXiWXvnh1j7atGAMpcRFu8uTP4FCSjyxYohhHmF/CftXc3edp2qoE1RCtm7enPbt3mWJrF1F39evXKFtmzfTqBEjqUe3HtSze0/q0rEzVSpfgVMxjugTFJF0ad2U7pzb7dWiHagqIAEUUbeXo3IG5juWTqBiCbFuArn2fqBOV0o8vWII+qSoPpA9FOuU9rWUJYPlSpWmBXPn8ApLJUlL8OO7duygsaNMtAkAHK/t27anYkkpTheL6PAwmjn2U1516a3kJcD7zcOTZq5bgKyvgPzguulUtliSuxH5TX2APlE8xWIU1vEnyLbYg3BJTfQdFhRE3Tp1omOHD7ks1MH/oRLz5PFjNGPqNPqk5yeW6BsA3rZVG0qMi3eq/S5fshjtXD2HNy3wBn3CI28B3nk232Sm0eENM6l0SqK7EflFo0YTLh5nMQrVkCTpnw0aqRd7AL5TA+ClihXnroJKJYOXL16kZUuW0sD+A6l7VxN4ywDerk1bio+JdcJ/a6lx7Wp0+ehmryQvOecN2iRT0Cb+kPA8tH4GlUl1F8ilY4EajV482WIUioFGDQatbopS6aDeXMreunkLOnrokKLE5b07t2nf7t00criJ95ajb9PsRV06daHUpGSH/Hcg+7xeHVvy/o+eB/AMru/m2m4BoH4lQTywZhqlxEa7q1rZYTAY/ls84WIU6MFu8gCz9vtvSqNvlMuPGjaMrl26pDD6vkCLFiykvr372oC3aeJ7lcpXdLhgoBXYuM/60Mu7nue/Oe/94LhQm/ixcmXj/NEUFxHujo78d3ZvrxANmMUo0AlMoyQdVEOflC5enNavWZOtFN5ZmfzB/ftZ9D3CLnjLNErjBo24qsWeeVVUaCgtnDqCsp6c9zD/ncFNmgTvnT/myumfU2RIsDtA/jd2j08ICwv7R/HEi1GgBryZ2Q1+XM0DgeYMB/buURR9Q6GyZuUq6t+3v1MA79ShEyXExuV4OLF9jo2IoFVzx3PnQU8COCxT4WciqivzSzS+n17d3EtTh/WiYC45Ve2z8tao1XZjt/0fxJMvRkFJYkrmXpeK+G+Uunfv0oX3sFQC4DCpmjZlqoUqsQfg8qxaqbLdiD8+KpI2LZlm9qb2HH0Cj26RuMyftMo3V3fxEn03nQ+/0Wu11cTTL0bB4MC10j6lAB4eHEKfDxnCy+ZdATjm4YMHndIn1lF4q+YtKSwo+xYZAJ4YE03bVszyeKk8yuQF952/NeRP0jdTm4Y13ZUe3mA70GiBAmLkXw5cr/93o1a3Rin/HRUeTtOnTOF2sUrUJ9s2b6GB/Qe4BHBMlNSXTC2eA8DRNGDHqtkep0+y7h0VQFhAFCvXDq6g6uVK8poBN4D8UHBAwMcCDcTIdyM+Pv4f9BppHLuJf1MC4DERkTR7xgxFCUw0L167ajX1+aSPIgBHFN6wXgMK1BmyJTHBgW9dPpO3TvMYffLknCiXL4DFQKjqTImLcbPdm3YWulEJVBAjf0XhWm07dvO+UQLgcVHRtHjBfEWNGtCRZ/GChfRJz16KAByTJzOtinrwGhkSQivnjPcohQKzqsLeiKEgUyurZgyjsKBAdxQr7wwaqZNABTHyzUBzWd4JRQEHjggc/idKjavmzZmrCLitZ5WKlbN9ZojRSDPGDKG3XIXiKfngKcF/F/D58voeGtqrnZuJTu1zg0ZTXKCDGH4/TNWY0jYlAI62afD+VhKBX7t8iWZMm644+pZpFN6ZJyiEDFbR04gBPej143TP8OBIYD44IeSDBXWyhRmVtZCIohnHl9cPU6eWjd0tzT8iSdL/J1BCDL8eBq2uv6tqTAA4im3GjR7NzamUROCzZsxUBeByMrN4cqpl+4sHD514Xtw6Tr94DMCPC6AriBJDNFx+eJI348B1lq85LIhvnd5JFUoVdwfI/84i8tHsMfmjQAox/BPAAwwR7EZ96Opmhg58YN++3MTKVRITRTyzZ85SDeCY1atU454rMoBXLVeabp3Z5ZFSephXmQp4BOAVKO6bRd2IuHF9HV173D9wtYwOC3OHH/9Wp9FVFGghhj+OPxm10jwlicwObdrwfpZKVCjwQFEL3qBRmjdtbtGE681KlIObF3vEzAoPeJYA8AJW3JPG8xo/OQHvbCqkZxk0fcxgCmIBiRu0yllBq4jhhzSKthwD8e9dAXjFsuXo5LGjLgt5oANfs2oV9/9WC+Ad2nXIVlqP1/FD+3I/cI9QKALACxx1AmmomvsA+RQ0CEGnJzdold+NkjTkI1GWL4a/DO4NrpXWu+LB46NjeAd6JaX027dsUawDt/VGAQ9u3dShef2a9OWNo7lPZAoOvEDSJ3CWdOd+AK1y+8wuqlympHog10jPRDWnGP4UhaO58UtXNy4aGSuREh47fJgGDxxsaZ9mPV1F4MVTUrMvHFGRdGLXSvr1xdVcR+FIdAngK0AReOYhev/0fK7uCQB52qZFlBAdpZ4f10grhNuhGP4C4rNc0Sj1a9fmPt/OQByt1tCJB40cunbuSp07dubt01o0a0GtWrTiII3vd+/Sjbp37c5BHq9o8FC/bj0e6ds6E44e3MsjNApsZPNcRnjnAOduX2emmYqKhC49Vxy4WgpFplGyTfP3Z48fSoE6nVpa5Qe9Rl9BIIgYeTqMAQEGdP12RqNEhobRutWrOUjbAjeoFXwfScyjhw7SZ4OHUNlSpSkpLp5iIqN4chJyxBBjIEWw94mPjuX/l5qYxKPuFPYax8Dbtks9Fg7IwO6m78m1GgVOhHkCmLJG+cEJ3gkIcjf4smD7j1f8++3j0yafFlEpqq6Unp1TJYANSaGcDH/9KJ2+vn2Cvrh+hL68eZRz4m+fXuD316sHZ6lH+xaqo3GjVlorSvLFyNNhKq93rAvHTd27R09uamVNmcjAfeLoEZoxZQq1bt6cgzMkgbKixPaBsP6+7cwpY9TRspljcg/gDCh93cgBUSK4dx4pKtpFZPDjFKZbSmmUg055cIA37psXt4/Tmb1raNroQTSge3tq1agO1ahYliqWLkGVy5aietUrUZfWTejT3p1p/uThtHHJVCqdmqwWyF+xe7WUQBIx8mSE/SXsX5116sHNnJqYSEcPHqQnDx9w4EZxz5mTJ2jlsmXUvnUbC3BLRQPc0dw67FBfu0oFFi0dy1UyEw/6ax/2wZTBG1G2+/a3J0X1qMso/LjDc4ioG5E2moPgHkKnJ+zqtOz+xD2Ke0tnnlJRDf+etkgAN1SLCQ+niJAQd0ryF30kCoDEyBMu3FTc87UzEB/Qty9v7nDkYBrNnDqVunToyDvWg/7Ag+Ap4PZ4FM4AMeu+ryLbAzyK5tWBnjDiEj4uTikqe1w4FnvkTg5sXEj1qlUyBRYq70/TrtCte/aFTqdLEogihu9BXKPr6ezmBFBXq1SZypcuzZOOcsTtpu+E4olGx8d2LM+VIuWtj5Qo2NojafqTwuTrL2aeFguUDDzgZd+xV5kGQDT5VihpHGjCD+c41zhvb55coAVTRvBoGhG2N+9P+1M3ViCKGL4efzRI0kolFZreiLgdceHyZ44c2DMXnuBnfZIozLp3RJHEzZRgu8rA+iI9vnyQjmxbSpOHD6Ahn3SiTzq1os6tGlOvjq34v6eOHEgnd6+iFzeP0lu2k3gtIvLs55ydE3vneOmM0RQWFMRpEd8DOE9w3jEWMRYVsCKGbxQp7GbTS1JvZ1SKJ8HaxD8GWBYDqFVgYZscn8CjfXucePUKZekrNzhxzoN7vSfmARP37aLEW1ZHfHf3FAPuZTSwRweeOAsPDubRIrhYmavVytws+9vhlV6nakVaN38cPb+4jXenEQBumm8fnsqh8z61ZxUlxbrb8MFTU/ubUattL9BFDO+Ct9H4b7jR9FrpCkqHvQXaMmCDFkmOj6fKFSpQlw4daPyYMTRr+jRas3IFpe3bS0fS0qhKhYp26Rn87r4NC1RSKj4oqWeRMffo+MI5fQLw/jbzJG1eOp2a1avJo0TJsqtRcA7Zz2GBa1GvGp3duYABuYjIMSEXtV4kX90/Q+2aNeD3XN4BuHlK0k5UPwukEcMrQ6fTRRk00g52s/3sLeDGKzrwNG/chD4bPJjWrlpFp44doysZF7mqBeoWeUJfjvnZoEF2QRyR6qTh/VUlN9GZx5vKDl5gwj7DeQXgZXr37CLt37iQmtatQSFs18HPjbtKHXYeyhVL5u3FBJBnT2pioTy9ZzXfueg12rwHca30Gh5EAm3E8Ogo81GZP+u12nrg7Dx90+rMCaTEuDhq3bwFzZg6hQ7u38f143IREF4dVXni/3bv2M6bS9g+hACvBjWr0HeZpxRRKpD1eVUPjgjcBYAjIfko4wCNGNiD25x6KsGG96lcuhjdOLyykAN5dhDHAj9z7BC7NIq8m7FQVUUDsskMvQf6IsEphocB3KjVdnPlTugOxw1eu07NmjRx7Fg6dugQ9xaXQdtVpx/roiHIF8uWLJUjGsfnxEVG0OUjmxXYz2Z42VpWplCcl3If27GCa5O9kQjGe47o20Fw4lACmc971pPz2agUGbhN1sXhVKdyWerZthEN6tbKMru1bki1K5WheHZvyfkXT3Lp7Fm7ajQa/yLQRwyPADiau7Ib60dP3aB4WCJCQqlFkya0dNFCunopQzVwWwO4/HudO3Swy2milyb3EHfBi7/zMo1iKi7JcAjgWY/Pc117Umw0BwVvRHh435oVSvNEZ2FWrCDnwc89O+8/PDhLjWtXtUTXUSEh1LJeNVo0aTCd3bGAvmDn6odb+/j5kuerm/v498/vXkSrZg6jIT1aU7niyfxew47HTZ24dYLzjWgaIYZnkphabXtPATiiQHiftG7RgjauXcs71gO8XTka2gNtvIIfR1OJk8eP0Z5du+iTHj3tRq743rxJwzj36bwq03tqFG516kCFAv4bypMxQz7hiVhvqiNwLoolxNKto6sLNaVi0Ymza/LdzTRqWN2UGAd47189lV5c3klv7qZxRY+jxQ7fx/+/vXuQgfx+un96A22aP5o6NK1DEVAOBeQOzI0aabpAIDFyNZBcYTfTF54ADhT4oOBn8YL5qsDbGrTxexfT02nfnj20fOky3m9z+OfDqV+fftyCtl7tunY/Hxxmv65tnboYmpoc+94pDwD+7Z2TNLhXJ4tfjDeTZlggyqQm0r2T6wu3dtycm0BE/u3VXdS5RT0aN6grPTu/lYP36zvuXOcD/HfxfntXTqZ2jWtRGF+U3dtV6bVSetDHQf9PIJEY7gF4UYOR3UgZnoi+oTQZNXw4A+BzThOU2YHbFGmDajmwdy+tXL6cxo4eQ4MHDuJdfmA9K9vQyj7iLZo15xy7PfoGDSHgPufQ3MqLRT3wMXFEoXzDABymSkZJUq08+ZB001hoI4CG9Qw2GMyqH9PPaYoEUNM6VegbBjSi9N60iIEauXlkNb28sccjC9trXHMG5l9f2UkbWWRevXxJp0VpTkD8LbsvSgs0EkM9hWI0/pNRKy3NbfSN1wZ16tDu7dst4OwKvHlX+6tXKG3/fpozazYNGzqMgzbAWp4Om0G0bc+59pwKlQBqXKc6/fjwnINk5lGvltPbc8qT23oBwE3nS40MU8ObTKfERlO9quXo055taPm0z2jf6ql0ZOOsbHP38km0aOJgztmCMiiZHE8rpw+lLFHBmZ3u8sL54JF5ZhrdPbmOBnRpwRdZ9ZWgus8FIonhDo1Sl91AWbkB8PDgEBrQpw9XjShpw4ZemmdOnaTVK1byZhC9e/XOFmkrmV06dabYyGiHMkMUdPz8pb3S+gM+jcJ5EvPJeRo/tA8HYyURmhzJJUZHUvfWDWn1zGF0/dBK+iJjm2Ub72ziZ766tIMDyrfXdgvg9uUCkXmAUyxLp3xKyTFRaumVc5Ik/YdAJTHUROF/Yav/6dzQJ7CVXThvLvcOdxZ9gzLBz5w4epRmz5xFgwYMdBptu5rdunSjxNj4nCDOjqlGxXLcyN9aK8671XvRYhYUjT1PFBzDitnjeBLTFYAjQsfxJ7GHf2S/jlwN8f2Nveak2wFV23/wvMJDJa86CJmuVdraaVzFogLIv9EX1UcKZBJDeRSukXrBv8FdAK9QtixtWr/eQo04irzBdwO8586eQ/379mdRt/vgnQ3E43KCOI6rarnSOTxU0A3Hu8ZWR+32Yjy1ZzWlxMW6VKFg6w1eG5pkSN0gc3sj/E/yeVSeRie2zKWKJVOVAvnfUaMhkEkMRSOoaNEiKDJwF8ChPjl0YL9T+sRUmHOeFi9cRAP6DTCDd89cgbc7II4o3NuNHmwrM/HZaDTQsGZVl1WYOObU+BhaOeNzTn8I86oCpFFn1/LYptlUMileoZxUu1igkxiKhl6SurhjaAXAqVm1Gh1OO+AQwAHeKKPftX07DR86LFe0iVoQ5wUulcrRN3c+0CkmfxTvduexl9CcNmqQIhlg7cplWcQ2x7INF+BX8BKpSDqj4lNBTuSSqN4UwzWA6/X/rtdIJ9wB8NrVq9PxI4edAjiib6hNkLD0NHi7BHEkNmtUoe95YvOyOQr3rs1slk3TARQand2/lludOnto8X9tGtbkxTiCOin4c9aovhSk17t6zrKMWm2qQCkxXClSypnc09QBeLlSpblZlTMK5ejhwzRqxCivgbdrEP8gMQSIe5sLt9e/ESX1aNzgzOoUHHjbxrV45Z+gTwpHsvPLjO28KMgFP/67QaNrJVBKDGfjj0attEwtgBdLTqadW7c6BHAkL3du22ZRnXgTwGUQT4iNswviTerWMOnE0TPTB02PrY2ukMxEFA4zJWddiBrXrESZJ9YKAC9k/Pjp7fO5+sgpraKRVnwkmiiL4SyhyW6UW2p04PBAmTtzplMA37Z5Cy+J9wWAc514R+jEo+yCeOdWTXhbM64L90EXeGuXPET/Iwf2cJjMBIBDrXBx7xIB4IV0ftazrYtoXHvDYDD8t0ArMewOo0bXSI2sEDdb+zZt6Pb163ZlhCjc2bBuHfXt3ddnAM4rNtt1oIjQMLsgPmpwL1ORjY8618sgjs98cuUgVSlbyu5DyhtgREXQvlVTBIAXYtkhui7hPnASjb+QJClEoJUYjvjwSWqicHih7Nu922EUvmPrVgbgfXwG4DKIt27ZmkICg+we96q5E+iXLy561SPFHoj/9uIqbVsxk1dm2nWqk3Q0dVgvAWaFfH53bTc34XIsPdX+xoKthgKtxMgxQooU+S9ImNRE4WiF5kiFsnfXLhrQr79PAVwG8SYNG9sFy1BjIG8w/P7xKR82HThlRaX0tPtwQkoIJcqzC1uFjLCwc+N3D9K6OSMdLvbm3psTBWKJkVNaWFQfyW6Qb5VG4SkJCbwxsW0UDgA/feIEfTp4iM8BXAbxOrVq2z3mqNBQOrdvDb29f9h3D+X94xzAUepfq3L5HE0eoERJjYuh9F2LBI0iJl/EoUqqUqa4Q25cr9WuFslNMXKCuFbbTmmBD3phdm7fnnPetgB+89pVmjxxUp4AuAzitarXtFutWaZYCj1I3+HTJgjQocNs62HGASqelGDXvW7ip90FgImZDcjR+s2JDDWjaNGi/ylQS4zsfLgkzVRKpcCre/WKFbyhg60SBe6DeQHe1iBeuUIlu0nNdk3r0/e3fBztsgfyp2fn6dqJbZQQnV0xg4WlevlS9IBFXoJGEfMDpZJGG+eNpmC9wVHfze+NWm2sQC0xLCMsLOwfDRpph1IuvEyJknTu9KlsihR8ffzIEe6DkldROCY+u0RqMbsl95OH9WEPyCGfP5TvHhyj9ANrKSosu8c5fKXXzx0paBQxc1jW3ji8klLiHFb1/qTXaMoL5BLjQxRuMAQYtNr7SkEc/uC2yUx0p586eQr3/s7LSLxLpy4UFxVt9+ZfOWMY74OYF9Kxy2mrKCEq0nJcSHA2r1uVV+qJKFxMWzoF/vB1q5Rz1CgbjobtBXKJYRlGSSqDFlBK6ZT5s2dno1IQhaN1GvxQ8ppK4Rpxm64+pqRmCB3fPCdPfEjwUIIysfaPRhSOZrrYOgvgEtPePTO8TwfHUkNJmimQS4wPIG7qZK9IlRIfHZPNI0VOZo4bMzZPaRQZxNu0akOhNhpxACey/Y/Pbc7TqHfK5724HlxbJIAa1qhIX1zcJqJwMe1LU9mOER2AHBb9aKQDaJ8o0EsMkzJFI32ilEqpXrkKXb9y2cKHA8z37t7N+1/mJYDLIN6ofkMy2mhsEc20qFeNF1LkqcnRpZ00ZkgvSo2Po5XTPxdReKGIqN3rooR7Y+/KyRRqNDrquXk66q9//d8CvcQwReIaaboSEIfCo1mjRtwPXKZS0FZtxtRpec6FyyBetVIVu/LCMQM653nUyz3BH5yiW6e25psoXDRSzt386tJ2+iJju1vJzZtHVlPxxDgHTZW195HLEuglxkfx8fH/oFSZAhAf1K+fJQrH65mTJ2lA3/55DuDOlCmQau1cNsEvIt+su4fozb0jPELz+xLw63soY99S+v7mXgHIbkoFl08bSp/2bEOvbu5Tt+Cz+eLyTk67OeDFXxslKUUgmBgfoYM2W9UvKgFx8LlzZ82yJDUB4uvXrPULAHfkI46vY8LD6NzOhaK5gsoI/M6xNVxBczVtuU8LpAoSiE8f3psSoyP5/eeOlLR3h6aktV/087teq20mEEyMj4xFjEXZDfFQCYjDdnbz+vUWEAetMnHcBL+gUjA7d+xMMZE5C2pqVixNz85vEUlElQCERr7hQUE0fnA3AeJunsOZI/uQpkhRGty9Ff3gxkI6pEdrRyDO7nNpmEAwMdCOTcNuiKdKQDwsKJi2b97MQRxR+LnTp33W6EGZe2GrHO6FeAD6sGhGgIp6ADqyYSaFGIxcGnnzyCoB5G6cw/njBnA6BM2uL+1bqioax85xytCeTjxUdHMFgonxUbBWqzNotc+VyAujwsJo786dXJECEN/IonJ/AHAZxBvUrc8pH9uk5pTPewoqxQ03vaObZlNYYCB3WUREKSpLVTbIfnSClk4fzp8dzHGDuqrKheAaoKI30OaetgLxJQLBxPjIEGCIUOJeiJswMTaOjh3+0Ah5/tx5fkOlODK+Ah2QtmaakPO5nAfodeZBenP/GPdA//n5BTqzdzVFhATzSLJmhdL0JH2zoKRcgTfO4YMT9O5pOveQXzlnPL8nEUxUKJFCmSfWKT6HuGcPs90Q7mEHMsM9sMwQKFbYOXFJSkEXbSUa8RIpKZR++jQH8VvXr9GYUaP9KhK3Nb6SHxxhMOUMdNK4XS7a1b1/fjFbP9DMc7u5ph2ROCpMtywc63eLIXYHoHnwmqfXmH02mmK/f3becg5/ZSC+Z928bEZWCyYMVHwOuV3D/mU8Meqg6OeycDMU4yO9Rl8BhjpKO9pnnE/nIA4+3GR21dN/5IUp2eWFiCAb16pE31zdJQDbznYfEeP7px9Ax3rCA/3lvdPUoGYVfh4xu7VqQN/f8C+5IZoLozx99uh+eaa9R/T99vGZHOcQCyHcKxPN7pV4hmpVLE2Pzm5UdJxcIXR8LRVPcKQVl56CDhUoVpipFIPhvw2StFJptWbl8hXoSsZFDuJwLOzzSW+/kRfaM74C8PTv3EK1KqDAywfvH3MI3rZzQPf2PDmM8xoXGU4ntszxi/wCuOUXl3dQk1qVKeDjovx6jxnYhX64tc+3x3H3EKdOHC2E39w5QTUrfTCyCtLpafXMYYrOIUA8EyDusOBH+kEfoE8QSFaoE5rSdjiiKQXxapUq07XLl0yl9rt2cQrDX6iUjnaaIyPJuWL6UMGHW2353z48ST89z1AE4L++uEILJg//4LzI7oGR/Tr5TTk7qiHrVC7Ljwv3Z6nkBLpxeJXPqkwRgTsCcHlmPTlPbZvWtzR4QGDRtHYVduw7XCY55S4/ZYslcUrLznP53ihJpQWaFcKh0+mi9BrphFLXQotvShWTbwpAfO2q1X7Fh7dv247Cg0OygTiUFYfXzxQgLgO4uWmz0gk64PLRLSwCjzTTAVoOKHdPrPOLcvxvruyixjUrWSoasWivmTXcN3bD7O9/Z4dCsXcO50wYarkv9VyqG0i7lk10eV8CxJ9f2Eo1KpR2ZEkrQLyQJjLLGCTpuhoAt0TilRGJm8yvFszzL2VKy+YteMehbI6LkRF0ce8SIY2D0uHBcVUA/oEOOEl1q1WygAga+MJdzx8Wxpc39lC7JrUtII5jHD2gs0/07FDxKNvNXKUTO1cy4A7K1qCkU/O69PWVnS6jceRzQBk5KL3/Ra/VVheoVnjGH40aXQOlhT32QLxKhYp09VIG7605bcpUvwLxhvUbZNOIm1qflaSnolKTbfsP0ftnF1SDuBxJTh8z2FJwAgBqWL0iPWMRoj+c136dmlsqGgF08BpRQlXkWgPugkaxXgifXztC1cqXsZxDtgvmssG9q6a4XAyRSO7YrK4jEP87C8jaCGgrHONPZs/wl+4AuAyKlcqVo8sXL3LnwonjJ/idRtzWfrZLy/r0Spg30dtHp9wCcB5JMhA/n7aB4q26EoUYDCa5YR7vcLCIDO7+oSwdyb/iCbF0+9gar0bjWfeOsnOToWIhvEwTh/XLBsRyNK7EHrlvx2YOS+/Zc91XwFsBH3ApZBe6O7vgr9wFcBnEy5YsSRfTz3EQnzBuvF+BuK1GHDc9OoYXen04uFuFUaOj+ebJBerWtpklOYd7oX618vQ0PW93Obws/fPsZelBej0tmjjYqyCudlEEpXJk61KKCA7mUbjFmC0s1GXOBn/HsN7tHXf40erGCJQrwAPVXHpJGmzQat/kBsDlB7d4cgpvkAw6xZ9AHLNsqTI55IWj+3cq9Hw43/q7SaVYq1R2rJrNC37k8wtuHIUreXl+AX5IEGJnYB3h1q5Uxqs0Ggqj1OYWvss8QfWqVcgejbOve7Vr7FR7j4Vq0mc9HCU2Sa/Vbv7444//l0C7AjgkSfpnFoF/qqZ3pquy+6S4eDp59KjfgThUMiWLFbexoJVo8aQhhV6ZAhlcbkEcIPTVrWNUu0oFS9SL1/IlUnhX9rwCct4V/siqHDpqRONQqXjl2rOFQanGPvs5vESzRg8gg41NcrxZe+/oHOJvmDOmvyOJIebPBkmaYTQa/02gXgEDcLbNGqukElMNiMdGRlHavn1+CeLF2C7BGsR5I4ilEwSI80j8fK5AXI7GF08fZaEDZA4akaRJZZEHlZJs4rMbVM8e4WKBqVe1vFeicXfP589fXKSM/StylNCbuPF69K0DbhxySQQjDnttmubf2G57dnBw8P8R6FcARtGiRf/FKEkjPQngMohDh71z2za6n3nHrxKbOI6UxKQPWlwGNJEhwabqQqERV739dxSNP758kGpULJtNZRFsMNCC8QM5oObF34Zq3EHdWubgjIPYIr7SG4VeKnMMiNphb4AdESSRXVs2sOQWLO6gISG0f/VUu8cKEF8y2SWIc7khInI0eREomI8HGqeyFXm0pwFcnugiv23zZu5gOG3yFP8C8YREKxDXUkJUBGXsExpxk5riiOIqTVfR+NIZoylQp8uhx9+6aGye+I0D+LYtHscplBx1DeVKUuaJtR4vTOJVr87OFTvX756c41pyRO7W/DaOFcU+emslFTvW1g1rchsB252DChA3ReSStFAAeT4dRqPxn1gEPoKvyF4AcGsQR8XmvDlz/TgS11JKXIypBFs0Msi1zNBW81y9QtlsihDwtcUSYmnH0gk+j8ixSF9JW86vty3Q4d8ThnT3PKXCPvPd47PmhdE8AdwsQsd5xqL5o53PxHF8kbGN6lYply1RiR1NaGAg9w63DToA4iiuUgjiMpALjjx/cuDaz1CGq5omUfGzaM+2Ye1aevLwAa1asYKBZw+/4cSLJ6dmA/HU+Fi6dXS1AHFrq1QWQVrbzbpX/HOZls8clS0al4E8ISqSmzvBhMqXjaCh7kBNgGSjpTbdBzGUvmuh53dk7Hxm3T1smTDC+lGhM+GsUX3tV0SXLZHD0gCNIdbNGZGj2YlLINdqZ4X9JexfBTrmg1HmozJ/ZhesnzsArmOzlMFA/cPDKETBTYIbafH8+fT00UPasXWbXb22POUIGc2Lraccvdv+bG5n6eIls4F4ckwUXT24QoC4LYgwwIFtqjowz6D3zy5yr5C3D47Rk/QtFuMpWyCPCg2h+eMH0Pc39/oMyEGpgHKwB3Q4xu6tG9K3V3f5dGFxpKZ5f/8Qndo2j6LDQh3sHLrl+Nuww7H2JFc4f2W4MAo7dIGS/j3+qJekLuyCvXYHwMsbjXQ4MZ5upSZTCQbmOgXJzckTJnAQP3LwIPXu1dsCyHjt2L4jNW/ajOrWqkPly5Sj1KRk3n3eeqYkJFHZkqWpVvUa1LRxU2rXui2PpHMD6Pi9CmXLZwNxFFKc3blAtGVzIj1E5eHbh6d44hNUQLb55BwHbSTlQA/g560pjK2LxvHScXtAhO8vnDjIp+CIXVeJpPgcUjzsNEPZfY4dgrfyI1gcQJXIzSkAvJigQjBxDyKpiT6lmxeOoVYNatgFZR58xEZzkJfvW7zPwXXTOd3iBgX6HjJjFPwJqPTP8QeDJDVhq+137gB4RXZjn0hKoKySxejbEqnUKiSEJBe/h+3qZ4MGczrl9IkT1K9PP95hHr4l5cuUpejwCK4KkG9IZ1MuGIHiBRrvurVqU/u27bMtCmpAvEbV6tkABQ1+96ycLNQpKtqz5ZyOQQvGTFxpYacIRWdOdqatne6zRfTVzX28M7y9psLcMqJUMY+U4wOscU9lmYEZ5wGWuA/PbGQgvZobrh3fPId2L59Eq2YM4zuEqZ/34v4nJRLjeALWUeNjeefQtnEtizcNzt/JrXMpMiQkm7xTBV36lgF5NwR8AjL9LZEZoKvFLtLX7gB4FWMgnU5OpNcMwH9g80c2B4aHk1bjGsS7d+nCE5sH9++jBnXrUVx0DAdja3BWK12Ufy8yNIzKlS5LLZu1sETnyg2wGmbbTuM9F7FoUIC490rez+yYT0kxUXavO8CoftXyHNx8oSHHdYakNMYOTSHfD5/2aJOrzkQ/3NrPOet9q6bQ5KE9qX2T2tSoRkWeqEQbwGLxsXzxQnl9sOFDMAPQhgRSp+D5wM9DHnto3Qx+jrFYXNizmBcFufN8mfxVpO+NGl0LBH4COf1kGDSa4uziPFB7MRFpV2PbsnNWAI6Jr8dFRbqMxLlnRu06NGHMGN6qTb7pPKlFx4QKpix7/7at2yoCcvxM65at+e9ZlzTDc0Jw4t6dk4f2yJHktJTms0UVSTlfLaQwk4KplD2fERM4hnB+2R1aBQvR43ObOWgDoEHbyG3r5KYUH3aa7j8DvA1e64b09WWTTS3u32uHVnCaJZfP2tcMyGsK9PSHCFyjCWMX5JK7EfhZBuBZVgCOmcW2mgtjohUpVeDZjcjb2ZbQU4AeFR7B+XUkQ52BOf6vAzr7hHyIwmCA1btDUwG0lihynyXZmGWmBDgtwL52VxYIvvdq2nIegdqNxuW+nD5ykkTkCpBGMxB7QMrtlMsUd0t6ChB/dHYTVSiZ6tDHJLcT71u9XEkumZSPT27RViIxXlEk72JmBkpSskDRPBxBRYsWMWh1h93lwM/YRODyfMNAfGlstCq5oS8mgAELBqLyTh06OQXyrp27UkJMbLZWYrUqleGdUQq7kyEAYdvi8TxKRc/Rz3q2pblj+9PBtdN5McwLFvUBaN9YJeXwO69tAF5O3smRNaR77RrXylFoYw3i8Pf2VaNqHB+8xFvVr+4QaAHk/To3p5fX96hWqyDSb9OwphNHwdwBeOXSxTlFZb1TwN/04MxGKl882Zl/ioqpvcgCwXCBpnkwNBrN/zVqpWVKe2JaA3hpFj0fTUqwC+A8EmdzUlSkS3VKXs7UxCRq36adUyCvULZcNoUKGvuCTyzMVZsAgWfnt3DeFg2FsUORzI2PoSIpnZJI9atVoM4t6tH0Eb1pz4rJdHzzbB5hgz6ANwnACxI9LIj4PpoZDO7eihf4OE3SMbBr5EMQl6Pxfauncl7ZETeOv3vt7BGqF3fcR1j8PE0h4rV53arme/VAjuv3hF2HymwH4andL9ulpAUHBHwsUNXH1ZgsSp7GLsDvagE8VW+gfWwr5gjAMb9ns0dYqEtOPK+j8oSYOGrXxj5Pju/VrV3Hhvox0O4Vkwp1chN/+4E108xyQHuR6QduF1/D1hU/mxwbRZVKF+NdfFrUq0bN6lShGhVKcW4WlrQAFFfbe7xn41qVfQrimDCT6sqLfxxF42geEUfndi5UpZ4BiF/ev4xXh+Y2Ksb9jONDwhJJ0ifpm+0GG3wRZotn9fKl7IK4XmXB3off0y0RxUA+HGYt+Du1AJ6g09PW+DinAI4o/BiL0hPZlljvQcDl4MCz8gE8+pMn/i0ngdx53+SERLvUCv7dtnWbbM2S8TljB3Yp1HQKgGH8kG6qeFy9jarCOoGn5rrhd9B5Jy/+5mObZjtVdHApX6Naquk25Bbg7w0llLv3MM4LdgodmtahoxtnmStcDzjcSX2ZsZ1qV8pZXIXrFKPT8efcjWf3V7aoDxcacl8oUSSpDjvh36gtpY9hF3Y1ixh+dALg+L9nxVO4RlyX+y2aOZrTUFRoKJVISqQaFctRhxYNqX+3djS4Vyfq17UttW/WgKpXLMu24vE8SSpv7dU8BODIUf1pz0Ml2coIC8fTlEWQ3/o4EvQrEGcg8GnPNg7be3lzIqrftXxinuyEoBuHOslZxAwgHjuoi6oWfhxUL22noZ+04wlU3GOu7l95t4PPgw0AEu5pa6fxHYqrnQB4e/D89aqWy7GzwM65NjuGxTGRPAhT/wxr36Bto0BZL45ASYoxaqU7agE8jN0si2Ki6ZUTAJfnlOhI6EhzvS0MDwrmXdHHfdaHTu1eRY8yDtDXt0/w1l6yeRJes56c59+/f2EfbVk2gzo0b0gx4eGqkkV4GNBT0140Xr1KtWwPT6nkBFORRyGNxgGgMFDyNYDjerZtVDPPEstyFWfl0sUccsmyDewW7sCYpgrIQdlsmDuKt6kzFeJk37ng3sP3QD2VTU3iyVZY9l4/tJK+v7GHXxclqiD8DNwNobl3BOKXk+NodnQERWB3oP5afWGUpNICbb0wdDrdX5GAUAvgQWxOjIqk70oUcxqFg2LZnhBHsTr3aRRs72IjwqlPlzaUtnkxfZt5ioM1LEthlCQDtz03PHRRx89lPT5PR7cvozZN6lmKhhQVRISG59CR4+s2NnrxIPae6+eMLLS8OBYvLGLowuNtWai1AgTeKnntXQNgXjt7OC+7d6TdxrGWK5ZM51UmwGUNN6iOIxtm8oUSieFR/TvRmIGdafbofvx7yMmgQAjJ4azMNPXSRg7iO3ny2RGIX2Igfj0lnkZHmjyQ9G4oVvR6fZBAXQ8OsyvhLLVKFFy8vuFh9KJEqksaJZPduFWxHXTnIWUgCnBs0aA2Hd+5gkfbaAbrCLSVNJLFAjB6cC8euSgFcpT655AadupC8VZSQ9AIqNQrzLw4/nZEjTBdkrwI5ABKuavOpf3L8lwVxO0BruziyhtnOz2ck5YsUnan8bNcGs89Uszl+LJ/ivy93Nx7SkH8JgPxK8nx1DcsxL3rJ0kbGZD/u0Bfz4w/mLvTv1ebyGzDtnWPiqU4TWTKyczZMVFuR1lJsdE0b9IwDry/sog6tz7VcnSe9TidZowdYi7WcA3kYUHB1Kp5yxzReOUKFbPpxRvVrMT9LfLaxS4v56tb+2jT/NFUsVSqZevv6egbfjXge+94wKPEk9E4pHtlUpNcKko+/6QdfXd9t1/dJ0o4cYD4DQbiAPL0pDiGA8HuROO/oSOYSHR6Qk4oSaXZSf1KbTk9oupr7EZ1BeCIwr8snkqNg4NVR+HcSKh0CTq6fXk2nttTE++HqH7UoF6K+XgAti0vXq9O3Ww/ExcRTud3Lyr0XX5Ardw5voZGD+jMvT5QLi8no3m5uFoFkjkfAnCE3hzOhUjW+ZvVAa77iulD+SLjiFYx2T0E0vJpQ/1q12ZRp9ix/rUFccxbbJ5IjKV6QYHuiBVeGzW6hgKFc5PI1Gj07EFKd6eY55iTYh7bKPw4+9konTrujPOcVSvQlaNbOJ/tSfDO1nSAAfmLW8epdaO6Lrf+3HI2Moo6d+zk1EcFFYVoHybMsPZbErz3Tq6jdXNGcuc/tDFLjYuhiOAgy+5FayMNtZaHIrEMagZd5huzXc6MEb3p2sEVpgpPP6StcExYXPp0bOY0GteZO0IdWj/DbxZ8HDuSwzUrlLYL4o0YWINGkUFcBvI9CTFURoG9tB2zrDs6nS5aoLEbw9wfc5U7UsJt8XE5/FCcJTRRnakWwGtWKk83Tm7nyUhvAbiFI2eLxIVDG7kM0dUWGDLF5k2aZaNUunTqQnFR0dmkhnmhV/Z3nhxdY/A1uGB4XSNBh0h0/OCuHNwHdWuVbSK3AI00qh3heX3n+Fq+1XcnYZdXapUqLiof8X9Vy5Yw+5ek+cV1QiGQveOWOIUaTNdSsoO4DOQrYiO5jlw9taLbE1KkyH8JVFZf0NNVbX/MQDanMEB+pRDAZV14bRalSioAvDiL3M/uW6sIwE3qlKt8ygoVRO6/8e9dUUzB/PzlJZo0zHWJM/6/aqXK2UAcGnI0oLAGcfDi3xRivbgroJA9UeTknBxVW88scxLvjbnRATfPykd5Bvxd8JiHXayz+woRb7smtenp+S15Lk3FeYedb/kSOb1T8Ax3DQ3JAeDWc1JUOIWqV6z8zoB8TJmPPvqzQGalAK7Rl2An7onaKLx3WBjnt39UEYVfTklSXJ3JdbShobRxyTQOyK7AG2D9/PoR2rFqNk98Dh/QnT7t3ZkmDx9AK2aPoxO7VtLLe6dNEkQXYI73upu+l8qyv89Z5IRjLFOyVDZenIN4bLxV5aaJs0XkmHVHWNMW9jlrVB8uZ3V1/6NICt4xeUkR4bMhUUS9gz0Q7xcWyqNuewCOROfVFChWQt1JVv+o12rrC3RWqAdnJ+yYWh68flAQ3S2WrIgHt+bDUcUZqDgK19Ln/brRu2cXXQIueOz5k4fzakx099FZldzLVW0oimhWryYtmjKMHl3cQz9/cdHlwjD2094uQRxt4Kx7d6JDEBpMWEdbSFrBzF/w4mLXAaVS11YNnEbjSIDiPp45sg8vi89LGujG4ZWcq7c9XuDA8IgwhyAuA/mZpFhq4Eai06iVruqL6gMFSjsff2LblrFq9OCyqZXcWu0HFROAPzQinCSNQiVKmZJ07/xep4lM/N+VY1upef1aPOEluQBcWSYF282VM4bTy5tp9P7JWXr/7ILd9750ZBPFg8N38MBx9Ul0DLeilSmVKhUr2f05FF+8vXtQgFlhT+5mHuC7sjpVyrq8X5HA3bJwbJ7x4x86++SkgPScTg2n205AXObH97qZ6GRznTDKciYnNLVYe6mGQglnQLkyNkYxhWI9X7LZOVSZWyHvbD99lFMdOED29tld7GGowKNud3TFfTo25Z7Wb+4d5k153z9N593V5Uj8hwdnqV1Tx450nPIJC6fWLVpxVUrFcuUp2Bho9/OQlMsSjZPFNFvWwnzKlSMh7pvSKQm8z2Ve3DvOemxiR70wJtIliMtAjp+NVM+P/2LQSJ0EWtsZwVqtTm2HHpz8YRERLkvqHSU1HxVP4d19dAoAtlr5MvT82mGnpfPf3T1FHVs2ctskX67wQ+MANJg1NSJIo6z7R3kH9p+eZ/AE6dblM3mFqLMFB+6F1rJCe14eXVrW91mXGTHzB7WybOpnLovLZMXKpf1LfQ7koP/2r57KrQNyGIyx+35tbJQiEMdEaf7g8FA3vJK09+HjJFDbaqAqip3IeWoLesCDP1BQkemISrmQkkjxCr1SlrAo3BWNsmjqSEUJIiUeLPCqzu61cYCy7h2hn56lU+a53Vwh45zD1Lr8DPh5oHDitUhuimmuhkTHekgqrZtsO7p/4Kn+4PQGn8opoQTaOG+03T6mUJ2sj1MO4nJFZ/PgIDf4cd0Wo9H4bwK9s9Mor9Xw4MX0BjqisKDHEYjvT4zjDoeuFCnFEtn26/ROhyCOKPzplUM8Wjc1iTUBKCKaYHac7vgsI9pp1aA618Ragyy+/uHOIerSqqFqysY2SYsMPzL9AsTFtL6/vri4jTcndlWTgOCne5uG9Jz9vK/uIeRwlk351O4zhWd5owoQty4EKqGeH//VoJF6CfR2k0YJliRaHBvtNoBjviiewlftEBcgDjVJrw4tnSpSQHFsXzmLV0Lixi9XPJnmjRtARzbO4o1qm9au7HYLK0RF8IK25QXhEJebbio4HiSHMvYtFby4mDkSnWhGzP1JXFQJG9mzOKJvR/qO9+g84BMQXzJ5iN2kJgp5dsfHOFWnOALymdER7ujHnxR6WgXieaNGmq5WTtgtNJS+KpHqVjIT8ysG4JmpCTyxoUReuGjaSKeFPQB4AL22SAC1b1Kbl1zLzm14HdClhVs8uawGQI9Ea6DlyZ0tc/n/ubs44HhA2YhIXExHKpAz2+dTmdREp8EC91gxGmnumP45gg1v0SkLJgzM0QpPz3fnejqWGMtpkhsqJ/TjvcNC3LGhXhccHPx/Ci2IG7TaquwkvFLbpf5qSpLbUfjXJVLoNgNwbLmmRkW4BNE4Fq1eOrLZoSoFVAqaOlSvUJY6Na9Hj85usnQnkTWtJZLi7fZf5BJDs3G+o/6M+L/WDWqYiyw+bHnvn1rPC3bURuN683uWYb8LNYIo9hHTGZBvXzKeYsLDXOZf0F7NF2ZZOKYJdtrrARsqMWw4lxTnFogjGscCgPdQS6sYtboOhRLAtVrt/7ATcFwN+KBTx4b4WLcB/FsWvSMCx0UDiI+NDHd6wXhlY2oyPbl80GFFJdeFH91CQ/t2pcfnt2dL8iAS37Z4HKdZ7L03Iml0QkGXE/DT9hKSUKygUS+6rlsX5sBUv13jWoojfLklFop88HmnWZQlInAxlfTQREd714oVLSVGR9LOpRO8Ts/179w8Rz7IkfmVWiBfxnbnUer9VW4WyiYSDJyGqS3qGRQezuWE7gD4dwzA77GtofUFGxER5hTEAXoNalThpfHOpIXf3DnJ5nGu7ba94QZ2bZkDaPEwoGP60U2zeLUcPJtvHVnNu6CYurBrcxzHJ+2bcOWA9QIxZ0w/SyJVZ7ZC/dCQWWOpDkVytWyxJN7xfOeyiVyRInhwMZUmOnHf4d40KvEVSoyjvSuneE2xguAFQYg9L/HOocFuA7i17HCgG7JDvVY3t1B5jxs0mniDRnqmBsArsG3OjVT3aJTvS6bSfSsAVwriAMEe7Vu4LLMHkL9/dp5+tFGRwDAItqbWZfKyxhYOckjSyNEwQBWabWwVbeVTAPWkmKhsulxQNie2zKFKpYpRCfbgFE+Io5JJ8bztWK1KZahNo5osYmnBHz5U2IH7/v7GXv57IgIX0x37147N6rqk73B/4z5MWzvd40CO43jGnqnqNs+UDOI9QkPcolJsZYenk2KpZqBqWuWVUZIqFwoAR6s1tsqtVUujbHKTRoGj4SMWhdpeLNApoyJdgzhoEiVOg28fn8nZcODYGgausdn4bujIwR3a8yyR5V1ojWV7k+L3Nswble33Xl7fw3W6qPBE2TSAGg5veI+XXC2w35JgFcAtZm4VK3dPruM7SFddkPD/CCy2Lh5n0Z97yvsd9zgWCXvmV/3DQ1UrUxzRKqtio1TTKnqNdMJoNP6l4NMoWm19g1b7Rk0Ujj6Z37qpRnlWPNnuhQKIT4wKd3qRwLuNHvyJoqYPbx4ct+vxEBcZbuUeqOGROYDWEagCcA+yKCYqNCQbrYLtI6gZu7apVtNfGxGIWTBK8+ErXr18SQVAbuogtXL657wVnifuSbnJdTGbwEgO9iYp8E1ROuFJ3ke9WuV3o1bbt2BrwgMCPlbTqQcAXtZgpCtuqlEgJXS0MuNiz46OcMp9AcRHDuzpGsSfZ1DW3cM5wBgugSFW5cF4PzQTcHVDI4pG1xVr3g9fN6lVmb4VHuBi5rFiBUnxCiVTXAK5rFqZPvwT7l2fWyDHZ6fvWkixETnVMqj3WBEb5TEQB61yPDGWKqtXq9zV6XTBBTcKl6TBSpOZevOFWRob4xaAI3K/Y1aiOALx5bGRvHDIGZ0yqGdHl1E4HAdfZx7MoWddN2dEjvJlOAe6sn/F/6OrTIyVDlyUyYvpT0AOeWqJRNedpnD/IrE+bnBXnpTMDbWC52LnsgkUbDDkwIpYnZ5XXt7yEIhbm2SpLQJCkrPMR2X+XBC58BD2Bz5Q443SITSEXrhBo7y0UaI4AnFUbIY6qdhE5AxDKzQrdgbi72z4cLmybKlVebBcuIM2Xm8UKENww3dq9qGvJq8ELZbEOXAB4mL6A0e+ddE4lxpy+d7HjnTxpCH0OpfmV7NH98tBpSBShq3sqaTYXCc2befl5Dhqx3YTKqPxlwattmyBq8xkf9QiNcnMJL2eTrrhjeIokWkPxOGz4Mw7BQBau0oF+jbzpNPkJixj7YH4oomDP/Dh8GBJiOWcnpKsPW5YaMO5Ptf8+8Xl3xcgXkjnAfP0Hw35nDH9eaStpEK4evlSXF3ibhCC+/6znm3tasShJsmw6nLvyWgcEX6Kwu5flqmRdhQo3/FAna4UA/Hv1ID4qMgIt/TgXxRPVrQa4+LsZxfHmYuhqdgnyWmxDyasYu0a9Uz9LBuIY/sJJYkSEDZ1XNlh0cRyEE+MEy3VCmtS8cFxevfkHJ8IGl77SdPiF5d3UKfmdRXx4wlRuffq6dupGac5czqaBvKo2dMgLvPjYyLD1GrH3xWYdm4ff/zx/zJI0kY1yUx4fN9OTVYdhX9jLqlXemHOJsXxMn6dkxsvKSaabjpxMHz//GIOPtximTn/g2UmFgRouJ0pU+ypAdDIFkoVALna3xez4AA4kufZ7run57k1cZ4f211TvUJsRLjL0nzQifBjeeMmiMN6okntynYLfVw1SM4tiJ9hWFFdvXb8aEiRIv9VECSF1dkfk6X0D0cyc1VcjOpWa0p4cHsyopbBzjvdo68gGh3DqdAuH/40PVuRj61UEHSITM3UrFCaF02oAWEU6EBaqCkSQHWrlOMVnvmpo7qYuYx2Mw/ZbdUnJ9T9Aci/vbabFwK5au2WEhttNoc74BaVgl2ovQbJ2EnDQuO2l0Bc3rkvUp/k/JtekrrmawAHJ2TQ6vaoSWa2DA6mL91IZj5WwIPbW2FR5SW5kBmOGeJYK47trT2eElvGS/uXcT8JuZcmfFJeXN6pKrmDmzfzxDoO4I1qVBQSw0I23z486TypzoIIdH/K02Nku86FEwY5jcQtQYyb3uOyYiuCBV16O9bUUJp5E8RvmpOcHdQnOS/DJyo/R+HN2B/xs1IePFKno72J8aqjcOjB3XUuA9flquCnU8tGlPXkvP1KzUennYDvWl65pjODOHTe37gBwohcLu1bSmtmDadXop1aISp3T+O0ictCs/vH8pxS2bZ4vF2jN+vEJqL17638f9QuFKtmfG73vd1pBuFuNL4tPlpxNzBLNK6RPsmXAA4uCGWo6g2uUlUbW91RyIPbuyi4+BFOtkiILlIT4uj2mV12o3F7yhTrEnpou2VDqqZ1qrCt5y63k0gC2AqZjA/t+Gy4cPu7wbN5DuLwSrHX99K676sjuwmlnzFzZJ8cCVQ8twkMVA94WCPuzCCrL+o31ETjknQ9UKPR58covDnvDK0wCk/RG3jPy9dekBM62yIdTYx1KR9CccGedfPs8uL2lCnWwPt57/bZQVzQIWIqjT4fnXIJ4HKS88c8XOSRxN+8YIzD/rJcmRIdSRf3LnZbmQI5Y692jXMkNRH8VWWLx/nkOI9rxJ2p2oqplBwatdpP8xWAFy1a9D+RmVUThY90Q1L4pUI5oTMQv8gufp3AQJeWtH26tKG3T20TTBlOE0umCrOJfBHAezSuWcktOkXMQjgZKCPf4hrEM0yUXh6COKiO+eMGOG1sAhkiWri5uwt96sS9sH1IMI+Qb/hoAjeGRYSpbKws3ZHYyE9ReDuDVvubUgAvyUDuskp/lNzQKLYrKy6I3oWZT4nkRHpwcT/98tXl7CB+97BTLvvmkdU8ow51SYPqFbhMSoCUmC6B6+4hLl91Zfdg4sPzlmqDH37n5vUcNiiBzHb51M/cplLwHMnGVzm89tn8JCzEJ1G4NYifTIp1Kk+2M/+u10iD8k0UroYLB3hOiIpUpUbJLY1iW7m5JtZ5+b1sBbtm/kSbXpvOQVzeBvbv0oICPi5K9aqW5wU8QiIopqvIk2vDnVo9nOXyQ3/wUbm8fxklx0bbVaeYKo3jeDDjrr/4B2VKMO90ZfsZnnQvVBP84XMD1SlVrhkMhgC/B3GjRteIHexPanpm3klNVgXi7qpRHK2q6K2H3YDOhUqlQ4uG9PpRuioQR2HDYbM0qnalMsLASkyXAJ6+axE9vrjbrtUDonOeTPeTe0jueal3QqWgo9RLN6kUa88Uex3uea+BuGifJDVtcQNeLSp7cv7u97pxtbpwzJnRUaoAHEU9dz1Ao9hmnKH/lFyUDceEh9PZ/WutovEMRcUW2G727diM+zC7q5MVs3AA+L2T63lNwMIpw212ff5TpSmDN8D1/O5FVCbVccNuUClrZ49wm0qRzwsK3mzL7QHiyXo9HU6M9SmdYhuNB6njxq/6tW7cIElV2Il9qzQKxyp2p5i68vonHqJRbCmVGVERLrdGSKoM+aQzi4YyFKlTsnPjq7h5z5P0LQLExXR4n8wY0Zs0RYpS51ZNsrlnwinTnr2DTxcZM3iDIgR4T/qsB1UokWKX4pAnZIfYiboL4qAe4c/SuFYlu8qU8uz9zyTF5QmI4zPPsc+uoaocX/sbw8nOftt2TY1HCuY0FoWrAfCvS6DJQ4JXVtSDCTHcOdFpgpM7EcbTlWNbLJrxNw9PKI4mHp3dxEuUBWCJae/+eJK+mSswtEUCqGRyIt1N38uN1yA1zGv6BCAMeezxzXN4VJwSF82DGmd+4pDWIqmPDlfuSgvxezDNSmRYYS+p6Wtlij3smK4gALT1VGF4+R/+2Py4ONsqfK+GC88sppwLRzLzQbFEr12MK8nx1EZBSS1vk9ajg7l58mW7XuKiYEdMd1qfHdk4i3fCAVih+nHHqln00+PTeZtgzTSB954Vk7hMEP7heAacldgD2EMMBurWqgGd27WQR+65kS+unzMyR3MVeU7Mg6SmvcbKVdRx4z8ZJam2v2H4H9g2YZYaRcpklYqULz2YzHS3XduHwoUoOndgHecsHRlgiSmmWhCf8nkviw4aQDhn7EBeSJMn4M0ibyipdi6dQO2b1OaJeVfgjf/DcZctlkQrpg3lctqsXFrm4vdB29izuoVZ3prYqDwFcTkaHxcZrs6qVpJ2wuHVbxAcPeXYgT1Wowu/qkIXjmRmZmqC11fUE4nKtJ/YJnZr28ykVOFWtIcEEImZa+BE/1U5eQfA7NyiXq5UHe6CN+wikIxsVqcqhQUFmsHb9TMRGRJCn/ZsY3EqzO3O87XZfrZZnSo5+HBvtWTLjcKttAuFm818hT4L/iMr1Gr7Ku2diT9yaES4qsrMpw461ntjRR0cHuryQiDiCAsKovULp3Bu/M394wKIxMz1RHNsGcQR0UL1ce/Ueq/TcABcRLyPz26iVTOGcdBEtx4l4I3jBNXRsHpFXp0M6+QsDzWskO1nZRM5WxxBQvFCct4kNe0B+XCVVZwGrXY2WAx/iML/CtmMUhoFDmBnk5V7pHiqMlMpiO+Kj6Y4BS5l2N5VKFWc7pzbTT89PedXbbPEzH8TvHGPNo2ytR4LDQyk7UvG50qe54rvxudeZZHzrFF9efs0cPGOKi/tUSdIXELD/eTcZo8fJ95v36opFk9+26Rml9BgvwBwGTvSVHqqsJ97BBYjXxld6XiJbJgqp8LHXpAUOptX2ezoQjNuDeS9O7WmHx6coax7hwUYiZmr2a9z82xaaLlQBp4jnqryRdQNcIRsD0qTfp2a80jXBMpKwNt0XNGhoZz+uZK2nEfM3tgtIKIfPaCz3UUFWDKCRb63/ATE5QkLAJWl+HlrU2s0Gv+JgfhmxX7hbNt1WIVfuLckha5W1NWxUfxY9QpuaN7Fe9oobt4vgEjM3ETGg7u3zgbiuL9Qag51BgDttZvvi9/F/O7abl4iv2D8QM53x4SFci5b56JbvTXvHR4UxFUqh9bP4Hx9lhd7feJ42zWuZZcPD2fP5/q4KL8CcRzLVraTj9ap6P4jSScZjv5bXlIpSUplhYhsW4WE0AuFXXsgKXzo4yjcOhpvrzAaRwQTHxVJ+9bNpbciGhczF+oU7pdty/2a25ptmj+aN1SA5I4Dup3I1wTYpkgbP4d/ox0gouXFkwZTqwY1KDU+xtRpKsC50sRWVgvJYKOalbhaBU6cbzwA3q/Nf7ejKBzHbc+TxWRdrec20jf9LBJH959WwUGKo3EURxoDdLXyLhKXpJFKSXyUpq6MjVEZhefdirqBrfJKV1RsQ8uXKEZndi3xamRiLxmFaAgPlej4k/9BHA2H0RRbbwfI8X34aa+fO5IXv6AwCMoNXHtMfP00fQtXhuxdNYWWTB5Cw3q3p1qVylBSTBRPPrqSCNoGJwB68PJIdGI3ANXKG76AeKbyE8d8YM00bo5luyhZ2zjbCwjrBgVShpe62+dWqrwiNtKloV62qZFWMDj9U5507mFbgQtKufByRiPdVVjc4+3CHqXRODpoK11RAeSVy5SgMzsWeCRKcQber27u41HKnDH9+XYTFrdblkyidw+PC816PqZTHp/bTFXKFLfLTcugGsjAAQ0W8HO47ui7itmQfV21bAkeuaLUXe7rqibitnxOUQ0vOmpetyrtYJE3TNsAqp7gveXKz4PrpvOdQdPaVej+6Q053hsJV3Du9pov45n83A/5cFmlkp4URzVd9CiwUak8N2o0Yb5PaEpSUzX9MydGRSpOZr7IwyjcOhrfGR/NDXbUAHkVBuQnt871CpADwK8fXknD+3Sg1LgYy1YXNrctG9ah7++f4a268tpjQ0z3gXz84K5Ou8Z/UIaYukVZT51KwLYFbnwN21gkOxEhf3XJg+CNys9ru+ng2uncexw7C9g7Y2dhq2rB5z08s5Eqlky1u6ChMfIqPyjycYYdoyNVyQ3/btRqu/kUwMt8VObPRq20VimAJzIgPK9QVogo/H5qot+sqqPYiq/GFwE3HfS92xaP49GEJx4AvAfeayt7TxgO2T6skHrBa+PRpTSuW4fXtIjI86MBVhpd2r+Uy/aceZJ4YlpH6nGR4dSkdmXesR5yQ9xrbzI9A974m0D1Hds0m7q0rM/BG5+LBG7rhjXM/voH7No3mywIcuIJPI7S/KDIx5UXU7KqFm66wz6t4GShfzj74C+VJjQ7h4bSdyWUR+E3/WxrVD9IzdbIBKrRYaE0eWhPenZhqymaycVDADnY9OG9uZrAXmTCjfeTEuhhxgFL56GsPO6ALqb7BS4zRvYho+QF0DZH7+DHcS81qVWZxg7swneOcom8xwp1zA0gLu5dwqs4YyPCLdSO3szxp62dZnfHimMYO6iL3R0J8KRJcBD3OrqR4r/zGpudQ4MV4wYEInqNvoQvqZSuSis0Q7gUKFZRQtMfuHB7q+qWuGjeUVun8qEBf4kHZffySVwupWZr+trMHyLp07NtY771dLRVBrCXTk2mJ1cOWhoJmDqgi2g8P1Iq6CcJvlhJ0Y29ne8HwA6wFA8h2q5ZsTR1bdmAVs74nM7uWMDpEhm4X3vw+Dntd2gljerfibdUk3LsHDXcCfHljT12fx8cPPrROgLx/mwBupXi3yAOqmdJTCTHPxXXbprvLGe10n6lCU34/d5XmND82g+4cEdzInsIQiWdqg7XsrYW5kFQFqD6TO7sA4B+wx8gU6GEtTwME4oDUDLV0BzWBc+JB7VnhxaU9fh8tv6Lr32klClMAOuzlmcHlvHmEEhSQt6H6FmukjRZwJpsYPE9/B/qFVDZiHsNyU0AdrfWDemzXm25UgVuglCXfH9zr+Xe8+TfY1JLHaC7J9fRnDH9qExqEr9vc0gmzQZZsr+KPe789Pb5fCdrL2gBKC5j4Hjbz0HcvQSndAkV8L6wnI1nH/a1UiplWESEYqvZvNKFK7kg2L71YzeW0a2t7Acwx4M5sl9H2rNiMr9Zbx1dTY/ObuSJnFss6j61bR6PlFrVr84LPXQKklxwVTyxa2W2TjDvn10UCU4PT4Ag+GJfyEgBcJnH13JuGPfKujkjudYbAInGEZj4GgCN5CAChCMbZ/IqTAAk9OFQMWWZA4YsD4O2Nf2D94bHydwx/aly6eIWsLZ3v0IyiKbJjvpt4vuwAHC0y/BXfbi7TdhtLWrRWMcX2vARSrd1qKram6CsQvObEqk+r850Z2VtqULI7wjMAcyIrsALQg1QoWQKT1hi6wknuECLptc1ZROkN9CcCUNzNtN9nsE7pgvw9Vx0DKAcN7grb3IAoycTOB7wKj8u78xgSWuaadnmWzvf94SDoBK1CV7vHFtDc8f2p0qlUi1UibNdKSSx9pKZ8k4Hiw960TqiUhoHBdElP9SHO/NiitWp8VPRzfGqKRbKQ9GVQmkU3pRFkl8qrNB87KdRuO1FOc6iANxIOg8lm3SaD9tjU9JH+e9iGz28f3f64eE5u011s+4dFQDsQSrl/qn1XIudGB3JlRabFozhOymu5vAyoPvLOZCpPuwYR/TtQOWKJzuNvK158HLFknmi09FOBgsDdhKOqBQ8c5Du3c4HAC5PFCSpwQsG9lcYzv7Fm5azqeyDXiuNxKezbX6WnzkVegLIj3kQyN0Ff0TrQ/t0oZf3TtsFcN467sEJAcAejsZXTh9KQTo9z0PA8Q9y0t4dmtLyaZ/RjcMrOcBZ5zzyezcnuSEyFioU5axgf3/bRrV4hx+Znzcosm4O5JSQMyoKiyA3vHLwnmF+0gRCbYITzZRVUCo/e7XrD4sSB6mxnFWqDX/mI79wTwI5Gki0CwnmHLnelwBu7iD+eb9u9P29Mw4BHJP3ZhTga4oiMw9y2SXOCXT0UO+8fXyG90jFjkVJYw8AMhQd6HQjK0cAZNA8Y1cEN8DGtSrzYixUOiLngb6q0ElbUyO+oDvcV5Z8OEYoqq4cWE5bFo7lXueg/QJ1elXl+/Ic+kk7p26McsVqrYql7cto2aweaOSU5s18hhX7EmI4l68UJxiIT/AKgBctWvRfIEhXSqU0Cw6mrxRQKb7o2uOtiwND+gHhobyCzJdROXp8ugJwE4ifFgCObTrbkUCt4+xcvX9+kQP7mwfOrQvkghwk8GwjRp1VAQ2aKiDngZ+DnexnPdvSvLEDaP/qqTzxiPoBRO3fmRtnv8lMs8t5Z9komPj0MHC/YlE2SuG/yNjGVTEb5o7iC1HbRjW50kX2GFcSddujUdqw94HXi7OFS/YOhxrHEab0CgvJVwAuz+sqDPXMZfg3ggMCPvaGY2E0+4AXSqPFOTHKqJQv81kUbpvsvJwcz5u1qinPd3figWjRoDZ9eeMor8x0BkpcK47KzcJOgdw9zJO8rs6VDORvH55iYJPmMqkH7w8kop0B24fyeJNeG/+GoRRcCdGAoWGNitSiXjXuI44+klBt7Fo+iY5smMmbJh/fModzyDcOr6J7J9fzSPX5xW28+Aug+9313dwADUlWSAezTXzvxh7+/1gosGDYtnrD4gBuG80oULEpm2XJ0bY7EbdtIhMS2atcTpjmsinGgC4tHFIpCJQWxkT6vT7cUcA3MzpCTeX3e71GX8EbBT5d1FAppxVQKf5UYp8bIMfcER9NjYICOb2i8xIPDsvb03tX068vrioDpafnC335PSJrJeeKe86oUPOAHtm9YhJXF6mNUO16n5jfAxI86L1Nmu9gio+M4D45pVMSeVQP/Xf9auW5cRQKgqD26NisDu/H2aVFfcvs1LwedWhah/9/y/rVuUkWpHuvbf4GRNwB/1PELbMsVwEHjhnOjK4AHMdx++ganl+wlyCVpYVH8om00B6IH05UWYYvSRM9CuDx8fH/wN54nVIqpU1ICJcM5ufiHncu1NmkOBobGU7F9aaGqZ7kyhHJtWlSj14/TlcESnJkWdi14kpA/N3jMy6jb0fgc2jdDKpYKtWlaZW7klS5TF1OIkp2jK+UzICPi3C+HuX1MpAjWu/YrK5blaGuABz+LzC7UqLYAZUCjbmzosFmwUHcqzu/4gN27Grkyezanwj7S9i/etIrJUypV4oaVcqTfCArdCcqP5AQQwPDQy0rr84jIK6h8UP7KKJRrLXioBMKNYjfP+YcwJ+muwXg1hx5xr4lPCoONFdVGvJIteQUWNlxlUiKp9vH1vDFB8cOSgYRvSdBHIsMKjJBNykBcPDkyA/AVtfRQohnaAILjm7nY2zAsU+JClfTRPk7NN3xZB/NeuyNf1UC4BC2n1NApUBWeDsfJjSVRuV43c/AHD4PpVA2bQZzvS9B/AsG4veOFG5OnP39OA/2dyrOzw9XayigowDkKFKB4VlCVKSZlvAvEMfxoJDM2iYZPDloFk+BuM7MgZ/YMldxVauzZsgypsTodLQtPjpf79px7LsZHiSoKPzxpD3tHwyStFCpV0otdjGeFk9xqUr5Ih8nNNWCOcqEp0dF8O0UbDSDzLSTGlCHjK1P59YceJSDuNCKQzoIWsmueufxGYcyOwDcg9MbKPPEWpP2W6FdMAAM/DR00Z6mKXI7oTLZtni8xb/bUyDO6xYY0IKbh/GVGlsCUDoweHMUhcuuhfmZSpEnKk3rMHyUlDsbroXtt6eqNM8p5cPHREYoSmjey+cJTbU0y20zL3YoMYbmRUdQh5BgqhFo5AmbIIWcePP6tej1o3RVIG4PqArVZOD6/mm6g13KUbtaZXiUQDUCWqB4QiwtnDhIUUQuK1e+ubKLti4ax3tSQjKXW5WHJ+eKaUN5qb4M4twtMBcgDvCFre2ET7tziaIaAMfPpu9eRMmxUQ7PD4Kc4X7axccdHPhMjZeKRnqmL6oP9IRXSgp7w1dKPhQyoK3xcS758G8KUELTnej8tlk7epGtzKBcqrAHXaeATqlTtSJ9d/eUS324rUIlN5xvQZhYyHKcFzsuj+BwJwzpZmmYwAt5igRQjfKleNGOYhvhOyaAgmMlnCjRySae7cSUVjh6s9IXhlkyiEN6COWKOyCOvwNSRMgk96+Zys223ClgQh9QZ1x4LIvwd+ZzKsX62QctpLR3L6o39VptNU95hyuiUsoajJSpwHb2aSGgUpSuzABzdMeWFDyAKXGxdOvMTlW8uAmsCrdCBdpve4oUe2XfvBmBDaiBKlg65VPVLffk8nu0JUvftYgDFrxXQszRuS7AtxG6LYijkhQeMLLnuJKcl7wIlWeBGIyv4H3uTitCnGvo33kXI0c++WzWDgzkRXU3C8jzfjoplsoZDMqbRWik8bnF8D/qtbolaqSF37mQFn5fMn9WaHrzwvYNC1HEk4HT3Ll6jmKduFCoyMnNo4osCQC6MLSCFts6OpQTdvDKznJTdy/TDKBrUJIPO2K8Z1xEOAdX5Dx0Xk6I2oI4/l7ejNgFiMsFS0g+YlcCC9w7x9dYKkjd7mA0orfLRQOGVwVt147KUxWKtSOolnc/CtfrNQZJuqf0JpkXE+2SD/en9mv+Ij2arFB6hIdp/uRh6kDch8nNH27tz1EV6C++KbbJTV5e7wBskZxE4Yk1kANQ0GAB1ZCecALE65P0LTxCByjCmwRVnHJfSVkPLjd+8ETEbgviiKBRKSrbHlu7aso7BVgmo8gInXh2LZ9IT9gixK0AclFEJjtC4n11TqgUKDl2FRAqxfp5R/Wmiuv2xFDUYMwNH16avck7JdusOIWGVw8LmDbcExd1XVwUd2hTktzs1rYZvXlyQV1y00ceKlBnoBUdok2/Mni6k8ZzA0pterHVR/9HWKfKIAOAg0Rv84IxHmsKYTGcMr8f/EWObpzFHRHBzcNzpLzZZx72rKB1cDyI2rXmUn650pLz7ZoPgG9v4ucWT7IC8btwZfycAbWRV4fCYhcVqJVKF6OurRrQzJF9+K4BKh355z1xXfH3Lpo0mJuGOdvZwynU33tpusOL71ElNdT+ZtToGuWii4+up1I+vLIxkB65kBa+zEeWs768qFCsJCooycUDXJad46dXD6lKbr57cs4n5fcApKnDetHET7vzqNyveHG2kKnRz5si8jncuU8GcgAlOFz4jcgyPY/7dWeaGj3g8+GNgo5PKNCBI+KGeaNoyuc9aUiP1jwyRvu1pnWqUM0KpbmvN5Q08D5BqT6sYqEaAfjja/TYTGAgvWbWcMuxyxExdNrw8Yb5FTr0PD636UMbt7sebuN2x9SxyBSFa52KJKDiKogCCHiMQ5mm3BBLN9QtAIc+0ajVbVHKhw9gN8qrAmx25e1kR1kFyQ7eJZw9lGf2rcnWik1Z+b33u/wAfCDHi2X3Atz63vhRj883949nB3EFeQIc/6H1M8z+KFrLQorOMxn7lvrk77P0XpVdDs0e5dx98OY+LhNEoRGiZYD9lbTldGHvYjq3cyFvhnyGgT++Rjci2MqixdxrO/SOxTHxjndtcvG3ICHqKihE8u9UUmyBpV67h4aoAHFpn1u8uCRJ/2GQpAtKs9ZLYqPpTSlBpbgzr7HZUaFVJUBk0vD+9IuKSNxXlZsAGXS7wXFWL1eSJwn9pdsNeHF4hyMix85EabIXx79p/mgzV/0ByGtUKMX5bG9E5O4AvVxdKnevf2MzLV3t85DmwvEh0q/EcMKZ1BIgDj31zQJMoS6OieS7DYUg/tBgMAS42xD5pRIAj9Lp6GhSglN9uKBSnF/U8ZHKun/IRT8/PjqnLrn58KTPurQnsy09uNq+nZpZOt34WwHQj7cVar7NVYVDe7XNllwEv1y5THG+45CBVHi3u15spg/v7VSBU1ATmrYU6sEEZRSqef5o0GqLqQdxSWrDfvnvSvjwaoGB9MQFH/5lcaFKcXZR18dFUYTkuggAQFIsgf3OaXV6cc6L3z7g5Yd0P/e6rle1PE+8QQ+NRFq+b1HGjh90RcPqFbNFkPgaPPPs0f04TZGVmSbA2kUzDZhw6ZwobYAnXUND+O60IFOo6FBUTUGR3//P3nWAR1mlXey76++u664NSaZmJlMyNT0hlST03nvvvfcuKkVUkCoCShUFVESKIkVA7AVQUVHEXimudd33v+fOfMPMZMr3TclMwszz3CcKJJnyfee+97znPceNFx8dijJlhlg+vIcIffiHuRkJwA7yoVZI+FA3LJ9Hf0iQGvKhnyqa3Jw4pLtDMcFuViTD7N+yKK748VAVFXgdaBy6gxA2VWRudmrRgPY99gDnqS8mwLzSwmARmrEBQzScVfjTdkuNn+h2zIfopOjFt0ryUeFRbMnyXWKVKQvMpoDSwgSVIi7CCc0OhUhHwzGDetF/Pn1FEqVy4YN9VcCL76Yda+fxKlyoVmGyBJVFTaAcFs0ayYeufPUqoAqBcuTw9qUOdUcNCEqO1AYI6aQw2BQIS0boU/m9cDlQqAukBSgfhY+VaBDX1KlzB/umD8Xw4aAAng/Ch4NKSQB18A91jdUkqtnhkBrm0Jk3pEkNqyI4+byTeqhflO+hscaEIrIcqzun+8Vr23liji+/EUGLDb01nPmgbAHNIjQXL0dAx2tGEAUPlw7SzKyrUtHudMtl4auE17hJJIXqXF8g10FinqbsWzFVOFJsTuZkBazEP06oUkQdrw5kWKlULc5XQZ+ioZ2blkmSGiIAoUr04ux3zBrTzwPEERoMnXO158cZGCP3sl7dHP/Thk4DLQwHtWpQSvdOHcYzMwHoGIgS5HyXA6hD3QNtOrJFAzU01dwBVX/Z9M2kSIud67+Shn5UyYqu7Jv+FMOHN9do6GyApmbCK0Xa7jzFqBdJqSTRsL5dpVEqZ1+l81Xgo4IbF0CHbEiFmyyvbqadjj29sto3AFFVY5LRrNMFpAeEyhyvHZsYPFmG9WrPQQ1NPpxY4CR4wTngI6TdC+n2NQHAoV1HfF0wSSFyCA5n2i4r8QM80ltqxPuLs01wmHgQl8kWiW1qTjAaLpsczaoA8SfsZm6/KWZ6s15BHn3y+h5JlIo/z5DIN7J20hivRhb+u0fbpjyOq7qDFF4fRuNTRNqKCoCOCh3fA1ULxvoxWg/nRHiYb1g8nTdP4e6HEXzQEJBoCkn1qOKF4Z9genDH2uUxvIPnDLkkJkG/cf5c13rjKf53kW5mwrkx4EbnpGRXW9OqdfxaOGZYcvH+4svEhkBcp5bL94htai6zBB7yOZOgUiQteEV0EhmoCj/nLasWSlKpVIXUUKAdDm9fxvlh95sYfhm4sQFK52sAPz6mf+eQnAeF8GP3lHm8NxgqwgkGPQXkTqIpjIBjpNYP6dGW/b4uNIW9f6CrsInMmzSYFkwZSvPZgpkVLA/uYn8+e2w/nmQPpRA20xG9O9Cgbm14+g7yQNs3q+A/Gwue4PAVx1RnpE5J+DlPr5nLx/6DNTP7stf8Ztbl2Qd70GykFLHXjEz+EoYwxU1qymSviIp7kgUOgcAY/oc5CWmh1A92uSVNZNpPMo0c0IN+OvNKXPqLo3KcPKynRzWOG9qg0bCqc0a1p1VQ6Z4+spmBYqOIhT243AR9ptoLxlfJbsZXnksuLK/v8TDM8lpJtetQ64b16NNjj0fkhITq/9TBjXyqNZikEHGFT9bgwZ5g9zqamzoR5neCoyGcZYNTKUkqI/vHX4tRpmQpVfRGdqbfpuY3CEPOTvDhUhseRzJtnCNUBKVUkGCeTqeOPSNp8KeqrGlxM4Ma8G4C4nkXsusCnh4XawCQH3/+UWrPquVAhk7xurBhoFre+eiCiG2qoFGmjewtyj53ulF/WdOnu6RNbn6XIpdbRCbby/4Qw4c3TdHQZ3k5fpuanyUMr0LeoRezY5aYahxH8DWL5khTqXxypEooFeFYjalNb201qsWOzRvQhy9uDsubOl4UKycYkGPgh/t/VzMQB+D+cPyZiDV9YUcshkaBMmN/hvWyneQ+7oxobCKiYBMUKiq5vH3E4tgA4p20Wvo6wKRmQloY+od7jH24bTQpIrI3k6hnh1Z07qOj9KsUV8P391YZd/z5a9sc2mqvozVucnDK38Sjv0oIQP7+gQ00uHtbPsEZL8HIwWibvp1acOvZiNAo/FTyCE8sCkYvQVIIv6CE6MFOgyU5GiruFDNuP10siI8PoExJSAvDP2ohLCJYqKpDg62j/U+ukVSNVxWlIlRnL25bQtlWs9fIupwHEqy4Z1y1bnK6gxianfBURzByPKXcu7/neF5apYo3SjFJGwmnSXx+UL1gUw4G4ILV7OVchbufuuewzUzC+P02u91+TUAPcaVMtkXsBbHKavHb1AQffiLBh4dtUTuKHUvFNDhnjB0saQS/qgZ/3BcSa3RqtYeaAyBnZxfx48vvjBvb2nBPHgjEwJh5v84tuZY81mDukjcmJXP1C4y81iyczM3KIkVlQd8OG2I0rYO9VhQlk436RBUeQlwbu3cOBPQWZ395E/uHr4v5Yeio7sqw+wXxswk+PCK0ysFMKzUIYowljOF//Npu8T7jZ6vGY9wd3JD6Dnta70oN/4/EHIQY1BTzKJ7Mw14vRu8nDenBU3cgCRUUIdECdXc9OhZ6EUj4gVwRcsTd6xey08K2iA4U4bW+tWcNVRTmBq3CAeC57DntuUzG68WcuDfbzOLH7+Xyt9Vq9c2Bg5ERzClCmZLGfumBAJ4ppxN8eMQ+ZBjIG4J8yACIRx68SxKlUlXZm94TfM0rin0COfTKPFH+vZozjo4KFVLLt/au4eES2MRaNiihHLuFAazKTU4YPC9TIWjLky7JB3mgsfPvEWoMl0VI+9BkhU78iZVz6MiTy1xWuY64tQhuzqBR2GaFoGe5CJmlo5emoTcT97arUNuXYWUbm0psQ/wbZR1lWiDPFC2MVkR5prAL5rgfzxTw4e8n+PCIDgD1YsdgRZAGZ+fWTem7Uy+KnuD8+dOqiW2rPAS0lI/ge0vyHI22lnTm2OPVXrHiawMTAB28OSrXrQxgkT6P3EyAYOeWDXleZinyMjNslM0qNIByltXE/ttC+ezPEJyM8X2A9NCe7Wjm6L609K6x9PCCiTyNHhFsiGvDqccVvRZFnxZ8ntD867k3ikxUChg44JOJ+9pDodIoRbQN9W/KZGXjQOP2xWLS7bGbttD4lxdi1D4RABHZahwDEVlB9KQwGXpmw1JWjb8Zlw1Od0Bbv2g6T1j3deODfvi6BihWAoVnCKD+kzM3E38O4D3LKmbILhFj9s5za+lNBvZY0NsjYBiNSPybb956im8IQnX9k8t3peqMtQSNfLkIGsV9QHCVJS0B4l4eKi0keKiokhV9AskLe4hJ88EvG6zX+Q1GTvDh0VljDbqAII6j9aCenejCx8fET3CeeanKwiLcF/y2754wqJL3CEAdygmMj3/3zo7Lzr7VMy/Tazn/Lh7eE8FiFqcBqfx+ohKvnCXQS2TGrlNmODhQJT5LrLzwblOa30nNBB8enWr86XQLTz5RBmhq2dnn8vKeTZImOC988EJMvUd8vQ4cz5fMGcOrzUQyTnxG1oEK0qpUkrxjHHGO6hqdZB/KvT1JpHupU6Eyx79GXCZfIjbdfoUf46uEPjy6ksNgOzaaS1NGDaSfpcgNYYoVg+oOQAC3PgwC+eLHYd+69r4pCdCMQ+XNoSeWcMVNqFYDI/WpvLmZAHKHzHCR2cgHoES+fxsZXF/lrxJfIRbEH7ZafIL4twm/lKh/2ClBJGZ5GezmOLRdQjUOueG+mAECFCutGpZWUjconBpyqDoSMWfx06B978B6alG/JGTTL+CHXq6ge03GBIg77+v1VhOlijXCkssPmm699fpKAI4pIPaXT4r5IVr2y55K9+1e+EUi1T7qhjmBKBUByO+aPIJ+Pvtq3FfjApAf27GSygtyfUgPZdzO9okVdyaAPA548C9ff5IHWyjC1Lnj+rWz6xjy2cTUpmQ3w/fkcvltvjTi/1Any4+JefMt7M0/kpXhE8Q/SfDhUdeUZgdRqQD4clk1fuLFJ6tFNS6M5u/dcB+X1fkCckjtMNWZAPLYKWoQKgHvcnjDRGIwSeFMt191mQM5irPtdnNQiw23dcanJa3YcGRBI37Cj0b8o9yEf3g0QfwFESAuUBFzJo2QNoofw2pcqPS2rryLshhge3Ot+P90UxrXJAugkgDXqgTwZ3ij2Z8sNBwgh6f4QwzIL+f7+nl2X+eItaRNln/KKnF55aZmcrJBjI+4o7ucQp/4yNX8LtHUjPqO/Uy6hWwKcSAOr/HjEqvxizFQqngDOTIoETLsDRYAcotBT2vuncyrwkRVXnVeMA8vmMR9V6JhFwBMwTW9xGy8bEH8aKaNytRiB35k3yoUClPlac0kRV0GDD+JkRe21mjoSx8WtF8nhnyi/mHDOEiSV/ToQZLClH8+cywmunHvUIHld4/zCRr4f/w5EuQx8JIA8uiqhzCA9MDMkUH9wSMB5MiWXWgyct305YYjGPhpJX7g5z9qubyosjJFLm8uNgyiDQPxr3yAOJqaCbCNDngLHip2hegUEJdu/PDOdfS7lOSfjw7G/vh+YictmjXS6XpYGcjhE4Lot0+PPVHtY97i0vOFvaefHN3Cp2dTfXwGUTHvcoYmT2WFymtZl1fyPTaunqIHfmR/KGWyVv6mNUUN+nTwEwaRCEWODoUC75QFJgNvAikk3hjCFOf50y/Rr59LyeHcG/Nj/Ldv76A7x/bnTnyVgdzxdWC31vTegQ01xv0wXiZGD29bysOThU1TyjWXotZgqjBkIMdoPlLgQTGcuIwKtWF6CeEQyfK+vkC8v1gQ76fT0Xc+QpE/SIQiR/RDhfRob4aFBuhSufxIGaI1qYFtujvWL5EW4fbx4SqLcAsEKPBQgclTip+0HPwZNMv7tyyuUe6Hsaq+P391Gy2ePZpy062iXAk9gYWdkAxmKugwiGxFDUnFJXOykIBcxYtFDT2XYb0sgByvcYqUqU25fHzIIC5jFdAYg95nU/PdRFMzYh8oOLJlljSq52x2hJPbiGq8XbNG9OWJ/aIdDrnkMMZNTnePDlAn3GfFB5ADbODwt/HBGfT9O8/UOAfEqqq+jz61nLtI4n2WrANn/16Tkkr5bftRw1ELqGLoHMps0JZSVCn870LlyZvD1O0y8B5HwXZ3mkH8fS6X3+Nj5F42SGwlPjPNWElemJjUjEz1fdypGcV4PapvRYT4RgQq3ztrvAQQB61yjM6/tydOhky209ThvfxW5FCuQP42hYE9nP7g6JcAaHF+52deepzunzGCcu0hVN9uAJ7Xqhc1GDnPueZTgxFzKa9lT9JoUsMCcgQqr7WaajRHDhCfZxIP4kqZ4sHKjc1k+Vixb+q9ZlOlQZ/EpGb4jUtowKexIxUsZ8Otvn1JDrPtNjq2e5OkJmdVB0cEq8inj+ztkyMXqBWsDs0q6MDji13flwBrP8lDbz9NOx+ZTx2bN3BdI6EAuFZroPw2fdwA3HPlt+tPqbq0sIAcDX0oV2qq34pUEIfPVcgOhvglyyxmulCQaGpGijp5KdPGfSRK1SoPTjDSC1VWt7Yt6KuTByTRKhc/2B83QA6O/K4JAwOGEGDiM4MVGvMmD6FPWJWZaHp6ygbx9eUdK3nKEOSa8hA9UADK+jQ7FXYa6hfA+Ro1nwo7DyOdwRIykAt+K7Bjfjmr5jU8AeLzwwVx9s33in1DH7FVNr9K2M+GpjpZbU3jvJ/GWXFEW8YFWgW+KtCO//qZBLXK+3vjBsjBe6P5BvrEn4seAF4tl1O7JuW0Z8N9zgCFXZc1743qG/F3d47rz6kTbHahSQcd32POKaHSPpM4SAcEcSeQF3UbSbo0W1hADqe/3mzjgZXtiRoG4vdLcDL0XYkny5eKkg+xtZldABcSypSQwfstHo5qou7sYjRGkPcWq1Yx6XS0acV8Sfw4RvJjPQTkAeTHn6HVCyZxT5VAbnqoMm1GA+fTjz//iCtY4fIC71106tBGWjRrFE/hCZk6cVbfaFZmlLek8sGzxAG4G5AX9xhDenNGyEAugDkGY3bWoIYnQBxChhTxG+lKbwy/goH4anEOhnLa5uVg+F1+Qpkitmm5m1140MBaFAreJFZWIYB7GEpZLbT7sRWSwiMc/Hh8AOB5J0A98wir8FgBEYgSEEKGkV2JSVAMCF2swhizWFnGovJGkxevuX5RnotqCvnagYRQZ6S81n1401ISgLsBeUmvcWSwZIYF5Ch8MKaO2MITNQTEYQQGfBUJ4o8At91B/Eq1TLFOzDfD83ZHut0DxDH4cyIB1AGr78Ps+IdYqnxnqnXEwBs3Qgg3A25meKtAP46KXNwg0Kt08cP9cQdWR7Yvo/ZNKzyGgPy9ZjRFWzUo5XJEaKIv1DAwF6ZXkX25ePYoalhSlyt6wgJvJ4Wi0aVRTqvel9QnUgHcA8jHk8GaFTaQQ7my0Vb9lSsA8bXcU1z0sM8mj2CIolpFV6vk8s1ivhmyt10ZniCeCEb2D97opoP3Rpq1OpK8txO8oQwwWLMpRa2VfEMIDcBNKxc4OHIR9MrPZ1+JqWWtP+A6feQxGjugC8/nDJY2g6odY/vgy7csm83BHFK76grmQqr9d2/voFd3ruLDUUU5mY4TSNjg7VSgGCxkbdCeMlr1obrdx1DF8Lu5HhwrVCAv7T0hIhU53P/WMAA8Uc1BXFIwhEz+BHDbIxCCVeKPi/lmdIj3eoH4Z4lgZJ/UydN2x7RlWgR5b96wY5UVLn4MU5SwGwGDFQUdB5POaJUO5E6O/J4po+iLE/tFTXWi0Xnh/efiTnUBCeLD8ydSQVY6B+pg2Y8YgoLKBVU8YuCQMs8BsRqoWQTgxlfovLeunMNDi9EjcIB35LxONKlpZCpuQmmFDcmQXUx6ex6Z88soq1EHqtt+IJUPnh0GtRKZijyDAfl9JiPvNx2vpiC+UUowRLJ8O3DbM9VHJt8qFsSf8wLxRBCEZ/UNvTdGaLMjpveG/jmZV9tQBNRt15/KB8103DjOm6ehs2lkCKFpJCgUOrRoTPufXMOq8leDcuV8EChOFCveTbxjT6/gk4cwbgpWiSqdlTmmFMEb3zNxEL301HL6/p0dcVedn3eeOvC8EDINqwHILZvUK2QnCzXflKJhVKVhp70Ujc7jBIjrUcULChUZbTn8mqw//B7pNAuAHBV5BIDcwLAJLp+vVEPzLCHdRy8SxJVy+VO+QHybaBDPTHeBOFemJIIgOHjDeW2pOY0q4PoWCfB23jAadgNZCyq41ra+8xjr62YBkJf0HEt6kz1kntxqNNKdE4fTe0d3cLAOBOY/n3kppkZZAmhfdAKbsP5zai+3UF197ySqVzeHV+RiKlNBcmdPM9Lw3h14JNzHR7e4JhtjAej89Tl/N6LRDm9fRg/eOZo6tmjAPddxkpJHgjIRKSv0VwRAsZJZvzXVH3ZXiEDOKnJLVtiqFag7cPo9XM0kiCedirVwQfyJUCrxyz3d/oTTRhK7aCetJjKj8k7wxpRber3mvMIWrQZARd5tFDciCuWGEKYeC3Oy6J6po+jtg9t4VufvX77pkzP/TxUCuUAhYEFi+MlLW+jNPWvo0NYl9PzmB/jaxxYane889widOfY4vcX+HpFi9epmc4282PcAVS14czQG4duya9299NERB93y0/t7OLhGOl3ItSk5XyM47rf3ruVTleC5WzeqxzcYAbirwh5WCsir5UrKKG/FC42QqZUwOXJh4V58vhqZZ0nO2ZTLn/QAcRDkSplsi9jG5h43EIe88ORlCOLCqDxcBkfpdVwyGDZ14g7eZc1540e4wKXeEAWdhvCmZ8ijzk6QyEm30dTRg2jfttX07fuHOJB7A3q0gVwANzQgd69fSA/MGkkDu7WhBsX5lGU1k4lVpOC2sQwaDVnY55Fts1BFYS51b9OEpo3oTZOH9qAyVnBgQEjq+4CFn43fN4uB6aYlM+mN3au5nws33PI6CeD/HSDvuQTZn/u/Farsb9nJAa8PP3fL8jt5EEOfji34UI5AC0WLLonoMJlCRTnNu8WUIxfolWbVyDwLIL5BWljyNg8Qh1SF/eFGsSC+0w3Ev+HywssLxPGGH8m00T0mAxWqIiEZvATeGKIo7TMxNPD2uiHy2/QNSbXiqyrF0b1lw3KaN30MHXhqLZ1963kO5H8wQOfN0Cg1OwF6n778BD00bwK1bFDqnNJ0AJqw0Xg3MIXThPDvsLg8loEhquvQ9fXJDv6c3QMIdG7ZoIR6d2hOd08YyEOcn9t0P73w2CLOyUPid+rgRvrw8Gb68MVN9MGhjXRi36P02s5V3NcFp4Zn1s6nVfMn0iS2wcC7u1lFMd+UNE5JYHUAbd9a8jRO6zUMEchx/RvtuREBcriAbrHFv5YcmPKoBHUKim4PiSF04hCPixv2UdBTbsM+X15G8kIuGcxyvNktNSkRkAxe4rztJU1Cr7wDrOymnUmtVIfk6+wLzHGUR7Vbv7iApo0ZROuXzaWX92yir989SOc/OkwXP9jHqibSAwkAAIAASURBVMs9roo0HB4Z3//GroepZ7tmHDgdoBYfYCW8H8JmAuAVTgKYEM2xW6iQFTcYMMLCQBI8uhH2jI0I/xbNSEElw1dSNQRtP0BuyimhegNnhC4/7DuJ0tLzIgLk+WzjXhfnEkSA+BqrlGEf+QbgtrcB1kpRnWq2HrdfAvHLQV4oSAZ3sKNZX502MpJBbt+pJVthAyruMTr0Cbggq/6IeyizfhunQX8kpz4vVbhohjYpL6Hu7VvS7PFDacvyOazSvJ9XpKdZJQqqgNMJ7wpNyEsgL4zBn/fR0HudATiUF8LvqS7r0knAcwl/Hi8bUbRpFWtFGyrqM4ldg3NDAvKy/lPJnFMckfxOKMUeiWMgP+mMX9SIT/ZZ7T2xCRBfJNJ4hTbYrC4Xw5ouL8SH/mJmBCWDTlmWJa8eFXUdyUE2GuDt7utcMewuvlmoolTlKZ2NNnmdJA64QlWKihQ8dLfWjWl0/840YXA37iz4yH1TebMOIP/u/vVc5wyNNxwKsdC0BD/cs13TagfgNW0pnSAody6FFFrFnEH2Zt0pr8sIKh86JyTVSvmgGWTJL4sIkGMoCFrsE3EK4g9KMMBiIL7MlxXtXLEf6sPWSy6GH9dQEHek69jpYbY7Nk5Rh28RCwBl1TA0teCqMaAT8rRbKFXNwOlkyiwI3UEuhOk/d15axgAeS/gZCEAGyOdn2HnDEMqLto3L+OANGnrgmnWwm00AqeT3Gl/VYQK33FmwpTPga8Q+B4SjY5Wyzw19MTG+P2pVClnKW5O9eQ/Kbj8oNHoFQD54FqWXNuPFT7ha8iKVip6KQ78VgDjsqEWfdHz7iSumiH0jFlsuhUJ8VMNAXKBO0NVGuo4hbOrE2bTUmym7SWfpzm8RBHLYhsJBThnCMFCaTk/FdQvCN1HyYUzl3oB0Xwlw9ve+yT0AG81ai05H5fnZ1K9jc5o1rCe1q1coGfAE4M5jP28822DX2Sz0cnYGncnLpq/yc/g6lZtFT6bbaKheHzz3Ff2TrCKyt+jJgLw7H9kv7DVBOr3Crl3IFnPZz9CmGsIG8qZsUzqQYY2rXl5EQiGUcvlwsR/0PaY0DuI1zYJWCGi4K81AefDgiED1DXWIvbixo2nJwTsGAO5uzt9luOSUFQDF5ImT6MyZM7To/vupol4Zadj7I3dW1rFsxim9Vk0HbW4lzIqLhkV51L11Y5o3YSDtWD2XjmxfSp8ceYze27OGZg7oQjb2b5QSgE0jl1NzVmkvt5jpzexMfm/jtI0YRvc83XPOP4cqbZHZMZyiDOi5YiZbky68GueLAXq+i16Rfv2CgoRXULhDQf10Wj6cd7yGgbjotPvJbJc+X4MGfYQPEjpNqE5SwlWdOC+wtIy6jtSTKDUtQwVypJFDESP2RkhVp9AL+/YRHv/73//oq6++oie3b2fAPpHKS0t5lS6AuuyOOk5uPMkD5CMN9Apnk92iUFIu+91ZbMGbXRMKfxshe19HZSwLn4NOuqR8gR0AQLtBYS5NYOC8au542r/5ATrz0hY+DIQG8E+n9tBP7++mg+vupVYldUW/3wpn5Q3wfpRV3Z+wihv3tXd+rq91joej59K0tMAUgJp9LuayVs5qvIdrZbUbQKUDpofc8LQWNuAeQiENtDndWMFBn6imIK6Sy+8PHcRZVTCMHaVqSjiy0LicZNCRjV0U8kjoZA2gTjpx6qTKeG8pjc6hd5G9vBW7EJTivDPYjbh92zbyfvz5558c0F999VXa9eyzdP/ChTRs8BDq1L4DtW/Tlho3aEh1c/Mo3WIlgzaVNE5JnTBAoxBA3wn8YmgaYbS6nVZLG21WOpKVQSdysnj1uD8znZ6w2ziwdGB/X8x+n9ZJh0Xbu71BYR4N7tSSSrLSWVWrcJMfOimj5EvqFIXbkntp3g3sqF/M7ql2jctobN9OtPnBGXToiQfp48ObuWoH06LuXujnGYh/+8aTtGb2KMo3p4kawVe6+GE1PWgx0Ye52fxkfU4EeLsvgD3ee2ixA22YxryySiAu0CtFnF65Rzq9Muwuym7ciSu8QrKYYKs+e96494/HCYjPTtNLKDxkMytz4nJ5P7GVePfUVAbg8BGvvhrx486EHdjENolQ4xL+EdaC+vFBnXgBN76WDZlNBT3G8ioIN5Ihq1CU9BAA26dXL7pw4QIFe/z3v/+lX3/9lX7++Wf68Ycf6OzZs3Ty5El66ehRDvSbN26idY8+So8+8gg9uGgRTZk0mXr36OkA/Jxc0mm0QSuoWQykwdMCeC44weS8878FMILH/Xu5WbQ13cYqnDRqy0A9U6nklWc0AH1E7w5cTvnBC+toy+LpdNeovtS1aQWVZGdQXoaN8tKtlM0AM9tq4v+NPyvItFOz0gIayMAftAgcGPc8Mp9O7V9PXzNgPndip8dUp89BKPY7p/frRHrQfyKrb5MCWZUGvvGdDwG8vYEc9GogSiU1zUa2pt28QPwSvZLXeTiVD7kzpGsbLoqhZneiGED48ok4KSbHsUJSLIiD/vaRsSnryP7yTzEgjhvia97oqJ4gjjfsINuBEbqaFqHGpd6UfsnJbVQcgfeIuVRv0EzK7zqKMlr38biBcGPp0/NFV+Pz7rmHLl68wCmVSD5+//13+vHHH+mTTz6hDm3b8k3DH4iPMuj5tXdO5JFfAPbP2fe8wUBrhdVMXVK1nIJRRhDQ4csCKeXLz6yk/5xyVMvfMCD+8NBGeo+B8rsM3N/ZvZre2bOG/zf+7NSBDfTZsSfoh3ee4f/+J6d+XsyAFAD8ONwam1WQWoT2XOgZNGaVPob1UISdDwO83UH8GDsNpbNTrNLP/ZGSkkrWhh19g7hAr7QFvTItJHqluPsofv+F0sjtwa6Ft+IElwbotGKZgP+pkxVdKoG4Wi6vYH/5qygQ12ic3erqBeLCc11vM0VMNojjHHxO6vWfGlfgjW5+CXtOqHIyWvX2e/Og6QQFAeRggW4CHPX1rEqeOXUqfXTqFJ378Qf6jVXc//vzz4iBOSr4rp06+QRxbLQl7Pj7dk5mSOBzzq1iR1PudQboKxmg92CnSnhRC4Ae7gBUHgPIJXPG0NlXtjoHmhxDTg7flF2X/t/NU0XSJCu+h1Xoz6+eS43zskRRUHhdVgayM9gJBqeTUMGbv4cFeXSBrYtu60v2fnbU+gcgTAyby1r6oFQ8F67Twl7jnZa2Ej1Xeo6TnN2Jawq2GQfjgFJBeAxMu0Reg7+xorth5Uo8SZnB/vKcmAuiBQPxL9gH9wU70lan6vtYlo2mGvX8gg67+oZ/sSWThzHET+PSMdhT3Hcy1+Wmt+jFhy0C3TjCMpc24/FbwSSBqMh7detO+/bupTOnT9OXn39GF86fp99++y3sCv2nn36iNi1b+gXxOezYHonq8Uc3+gXFyCvZGZwSQJWaKg8v+xQcOIadOrdoyM26MK0aKRtb/Iwf395BG+4eR9lGgyivdCzovHewzeUHCU3L806ABmBzeiovhz5g79Or6VZ63mKiZ0xG2sHWLnManWEb6/1mUxBevDwoiAsrr/MwJ70i/p7ifvrdR3Mpr1ggx3tjVijiIqcTHugoLEXi0vkUuTyrMideR6Vmf/mZmN0Lgn80Q6rDyL2g+97OPqiObKdTR0g2CMvNMnTXYw7ejt+Pi76QVSPZ7Qa6dLlibphLqyc/8uozCxxeKwFuBIBHYX4+LZw/n157+Rh9/OEH9Mnpj+irLz5nFfqP9DsD9D9DqNDfe/ddyk6vrGNX8mk7Fb2anRkxEPeu0PEV6gxYSgzW61zVuSKMqtykS6UBXVrR06xqPvvyEw4HwxD9ZPC9nx15jOYO7UEmBsrB+G88b6h1JjGwF1t9C4B9moHyywysH2HH+5FJdaj7bbdS+U3/JN31f6Pbrr2W/n71VfTXK6+kv7B1/VVX0b0pStrM7i+/Xtg4xaXn82tM7PWIvk1J/2nSTd/a9qMUlUb05wStO6Y4T8YYow6x0wBOBSKvty+USqWmMoirVLewvzwuZvdCgwj84qdxDuKOqUsbqxKMrpH5cLlvaFRh8xr76hu/ey6VDZpFdbuNpszWfSWCtm8gF6pyZCoGCgNQ8DQcJTVv3JgeXbOG3nnzDTr9wSn66NT79PFHH9LnZ89yQP/ll595s1PMY8vmx/ye/jo5+zA/RhjEfXHoUF1hyAUql0KVOmQwF0yyYIrVvKKYls4ZQy9uXUKfHnvcBcwePjJuVMsFd+tatk48u4r6t2zoKEIC0V7O51qhTmEbklUU933OaSmNChugbf6/6+nWa6+ha664ghg0BF09a9/KXT39qlTY89Wx+0bq9ZjesjcvTCSpV9h9CXpTtHyWgfj6GIM4cGpXuiVAX6HSOsNAPLkSiNeuXftv7C9fEAPi2OGfz0ynM3E6rSkENWxl1UH3VG3wyTJR1beGj/6i+m44KrYDO+AMS1mVktdlOJdphQ/elRUDtsadyZhbyptSwapycOWgQZYveZBePfYSB3IA+ofvv8e/nj3zCX3z1Vcc1H/99Rf6448/6H//q1ypT5sy1S+VMjeCVIpYugVf32FV6QNmE9VPCX1+AE1HQfqH6rxpWSGN7NOR5oztR+vum0rPbbiPXnlqOR1/7hHe8BTWyecfoTeeWUlb75tCTfKzggdAO5UnYwx6/rzPi3yd72dlUP/at9NN11wtCrS9l/mG6+lIhoX6pPrhxTH0o8fQT9eQrsXczsOoDDmeEhwQU/WmoECudEa6xdqqFr8bz8EgEqfYvznNiu6kWj4eV7Jdfr1YaQ40uvHmm3LCzW1whD6V72yRmLqMD+7byXf3mUQ5HQazKkU83x3OstRvy4Nxg1EsAF8tq1rLikt483PXMzvo1Lsn6eMPHdU5AJ2D+ocf0JnTH7FK/VP69puveYP0wrlz9MnHH1P9snKfPC+qpWfSPXNdqxLMz/MIwizeCG3i9HNRhDx96bAZkDnNwlBZQxtuZ8CbY7M45IjOlWu3UEaawSEfDADgwnNpySp+KcoTVOBn2etqffO/QwJvYYFi2WNN4/mWioAKlQ6SKBV3TXlmm/5U0m+q6PvFVtQw6MATPkc7w4hnYxwcITkkWSZ/rU6dOjf5AvFaGOUU2xDABX06TrI1hcobR5LxBh13K4uI2yADLltRI6rXb0qMqm8n3z10Du/ac77beVFHG7zdKyFsFuaSZpSaZncMCAWpzLEw4NO7e3daungxvXhgP7134jjnzoUK/YP33uVLqNb37dlDdrPFJx+exqrLg265rr7ASGjC/eDUiH+Zl83XV2x9zRYoku/Z+sFLqXLeTWUhcMKBqBZ4h9zLKvOSSOWoetvXJlceDgrs7y+nMvZc0FgUhnZEb1Ds9S7VqOm6K68MC8TBj6/Ra2i11eTXDxv3EjfDatEz5GsR9ArmHILFv2HADty4OsgwGzCiWKWK+cDPSee8ingvccUOvV5/rU8QxyinFBOsj2IM4sLuCVeykYjkcjajlBG4oXAcy2vVK0a6b8fvg76b891t+lU9ePuiWNhxOK2gAWl0JlHhuajOoWbJycjkipb7772Xnt3xNJ18520O3AKof/LRh7Ru7Rpeyfsz9cdk4Hk/QPRhdgatZkf5SbJk6nDrLVR20z+p7o3/oLx//J0K2NfSf95Ijf51E7VkFSf+vtttt1Kv22+jvrVvp+FJd9BdKgUt1abQflaYfMpAWmjy+QJ1YQMAXQH7CUskpnzDsB7AZvIqe/2hDO1AcYKGZTgALqxxsjq0J8PKK1ulT39xJZnrtQgLxIWV22mok16Z7xfEi7qOcIahBKafOmg19EZW7Kc170mTMHKfLF9ay9+DIfxosSJ5dL1jZX4lKE72sMp7DKu8MyNRebvZxZqzi3m8VJWDN/juEfdwTwl4MDv47hgCtz8wb9SJ8+UarT4omLsDOr7aTGZq16o1jR4+nJY9uJj2PLuTjh05TLNnzPBZdcqdrnNnWTV9zgfVAZlbLgPrq0U24fytK9kCJ5z19xuoKwN5APsLrLLEBvGjs9I/5/W7UdVDutdKowl/5iBEnxXwqM9mSKea8Fo+ZhsRmpiRAPFOt91CB1hFm6uMPog7hoNAr0zxD+JdxIH4IF1qzDXi+P2gf+Xieyzj/IK4UiZrxW7IP8SAeFdW+cQiWxPV99FMG80w6nmFFrEjrTMmLatRe6oYMruKAXw+VbAjIue7Ow6pMr473AWO05BTQikuMy2ZSMWGwxwL5k7WNBPlZGbyr/6utW6pqXxAx7sC32tJI9Vf/xIREPJeV7B149VXk/H662nAHbfTo+wm+yg7s1J1DvA8nZvNG68w4QpHY+4dwCDGxAv/BpLI70Lg+t/OtFPSdddF5P1q/O+buANoI39aZ7bZmEqaRgzEHfRKLyroPobfO6FU4ni/Z6XpY64Rx6BPB/GDPhi5H+AfxJOU6ewf/SjmGAce7qUqtnLE79pmN1PbiORbeulYzRmO5qUbnVEVC3w3TIAwnONo+sQ/eHtKEns6mp+ZBQ4li0wcmHtzwf64XxiuDWEg9YMXCIHjbnvLzVEBcF/rWlbpp99wA81RyjmYe9uzYh3ITKcBOp2LYlFIAG85HzxRUn11Cg1irxcn3X6sSixVq3hjVxHge0PR0EcaxC03/B8dzXB48PsGIwWlFTaKKIi76JWOQz3UKwBxyIB5iEQQld1jcRCiDEtcnDZFgvifrNju5BfE5eyhSpZ/Kuaig+Pfjirs6gLAkbKD45o8guANq0x0stG8rJrq2+FnwvXdrIqIC747QvpyS/12ZMgsdIK5nMINZ8aSMRCHWdM5ryr8JbuFqyKqCsTdK/Set9/GNxFfwIgTwz4G5uPZcxZScAJ5tACcUcHj3+P7Ps7Lpu+dNs+vs8r2YIaVlrLrHmCuDHA/ruJpW3meTVu3DcYXnYKhnrQI0Sm1r7uW9lrTeIyhvw0nrW79qIA4FtQrxX2n8Hur4egFlNO8W9BCFJkB+2McDoHfHVBjX3ldUCUn5/kFcW1SUm12430gdtJpUxWJ5PFCkTCfEfbAjpd2VWug3BbdHd3uaAM457vn8ogqh59Jn2oM2sHBnFfmaq3kytwXiI/zAnGA1TZ2DA5XVRHq+tc113AqB9RKII05JiV3Z9i5zrw/q9AF+s8dfGHGdTQrg580LriB7mfse9vfejO1ueXftNtqpJ2sYAKQK/xQKlONRq7KeZ9937s5lxaew2d5Oc737dJzw++AbQb6CZF4T/7vqqtokzGVFpiMfjcbY3551EBcoFfqdh/N6RUEsSiTkwPSUJ3joKmJIhifrV3koA804gqFQuYXxE233nq9mIEfIfX+IXYhn6yCFwkdZ5H4kVRRKy09j4q6jaoSyoTz3axKQFcdMqnqXXWLlCUKGnMXzRJaZe4PxBdr1DEBcGHdq1by5yHWRREgDaCVe+nfn0630U9ePwffB58S/fV/478LX7eb9LyQMfkYCFE6vcFhQoUJU8SrCasuWwh9wHv4kNXMN4wvnacIyC9L/nljRN4PNJYXaVV0nzkAiOdFF8SFld1+IBlsgdN/gCV3phliOqkpKFPAMIiXF8qPaLXaG2oFeiBFWay8aZox+k0B6L+H6FMjA+DOpHns0mWsIo629hvhC0W9J4ThZ1IzKnNrAyfNotZKBnNfII4KeKo8OaYgPl0h81uJ+1qogicYDfz1CK/N4Jx8vuDDw+Q5i4n+cfXVHo3DlzOt1JNV7ooAvLrQGE1m13qyE8Twe6DgAn3QmgE6TganGYDjd21J01G9m26kG66+Kuz3ZKZSxjYKEx8GjEUl7nLmbNzZYebmB8QFPhxMwok4APH5UhJ9ZIrn5HL5XwKDuEw2Snw4RHS9eE84A4szlMqIyAcRsprbokcU6RNn+MLgWY7whbb9awDfHcnK3AnmULOIBHN/ID46qU5MQXyeSnwlDo4bXiywcHYHYBhG7fUhD8TPvUel8Ph9MJ3abEylB1nVpg7iWoijOSx2p6cZedgxGq7QtYNewbDSpwzAv3M+r1fZxrCJAXmfO27z2DRCWdMUyfRYACOsaHLi7tcahoq4tXKQVB+oaY7HwaBioD6Cj+nXley9viIgiKtlsl5iQRwdVXRWo7lL3Wcy+r1opZhXGdnxCiGrUQFvF989k4fAeocvJJZ3Zd6eDNnFomgWfyA+KoYgfsd119EBq7lSJe6eLvStMxkedgGIM8xRVm5MgpLcard5gDh3U2SAm+eDq57KQBLUos0Hf6p0bgpQtYAyQYPV/fl4Nzrx3F9kAG/5v//jHP/frrqKrgpTaz+FPT+IHWDv6qvoSitoWCUgjoG0YCzCUHa6j4dpcxTBXSXIC1XJ8qG1gj3YDVXMPoCfxNAp4KkPRXFkFVSKX1Md0fSJkmyFDaNmG8vDF/qB7x52efDdkVazZBUFrMz9gTimM2MB4FCnTJAleVTa55y+5Jgq3Z5uo0UWE/XV6ThPbQjgT457CNTGBa/Xtkijpmt9NG073nYLHWbVo6/+kNyZOwqf/wsiBn1QhQ+6o3ZE35uRyXewk4XVtxsfdOLFTaoExA3ZJUGplI1xQKUcd+b7lojv9/1HmZxcGhzEVaokMQqVaOssj0s3SvehPtFTdtPOPFQ10gDO9d29JzrDF3omwDvcylwYGvIB4qMN+kqNzbledEOVaMWvvIKK/3kjnchM588Hyg80JkFbAEDRRHQPZg42RYx/M5CB/fduAL4HYcd/8T3A1PbWm7kczddNDz09ouv80jpOfxg0UVGl36tW0Q1XXRXR96f/HbfTfgZK2T7oT8fEZvPog3izbpRqsvsFcUcegopthta4oFIw92JSiHZZ/UydlKQKCuIOhYrskFiwRDf6ZHzoJ72Gd9KpsPOwCA7uCHz3bCroOY7rUhN8dwTBnN3cpsJGlYKbAU6DvYZ9AEYPpWroyjCP/2IXwg8gxZuboqDX2M3/bd0c+igvm6cBtdFoeF4nKm4oDJQiJy0FEG/pTMkCyB62Wch2w//5fR4jWKX7PKt0M32AJH7WFKPBJSEUzL2gQIHS5Qj72U8Y9fRAiooPSf3tqsjLM3vXvo2P3uf4BfEWUQbxnrwgSEnRBmQQRrHrKV4S7h+xmihVpDJFLZO/K5fLbwsK4kW1iq5WyxSPx1qhgjcZjYdySSDu8D6x5JdRvb6TI1N9u+m787uOpIyIhC8kls+GVP22pPZKZQE49UpN5faqsdCJI7kGeu0HtCp6xKCltWw9YdLTsXQrp1AQwHwyJ4u7LO7MsNMis4n66FL55KXeSaUEmrbMZhvAmzmZ9Ar7eeCnA20kqwM4BeL3TDQaXMM+J7PSeXMU5l+6v/2N/n3NNfz9uiKK7xUq8RcYiGf5AnH2Oi1lraIL4uxnY6PAhhEoBOLhKpBGi63EZ7PrWILx1Xa/7oU+ePFJYpubXbQaPvsfjReJVJ5WGtHjqDy4IbN+G6oYOicCAO4IX4CHMTL/uJ9JAmyjKw1r0qWSNMxXqg9AHMZXf6kCEEe1j6oVvwsgCNtVyPFkf7mOZirk3CDrJ8HK1smRQ/kBCR+8vTGJidNkip+pTfz5WpuZ1rHNIdCmlPWPG+hwuoVXkQo/DeARTtoJAF504z+iCtj+OHF/TobcT5xVyaH5iUtoatatCBwtGQfWs+5NzW6pGinGV9NqiX2oFYpy9k0/i02LjmZzc7BOrLuXjNLrNXMEN4RJoXC+u0+C767y1awbaY22SiDeykk5nHPjjncyEP9bjCY2hQU1R+bfb6DVOi19npvNgfx8gZsCxPkV3Pk6m5VvRkYvukg4zT5rMdLt1/m2EUhiGwZOAU8zEM/0I7fF+9RPp6NzaIymqKscwAV1yna7hdK8B5J4so+Jb9LRvoYQA+ePD8d7NIDhydtxEmKDnl8jCT0/tUzRWzyIJyWpxIQmRzsZA0eeBSaDaB4cMsLyAD7DYlbpgGkJfXcMFwJ13W9Ch6Y3hXuKuIP4IVa9hhonFg3OvOG/bqJl2hR6I8PGx9m/cQZQ/OCUG2J9xv58KKuk5V7AggDvY6wQKr3pRp5riQYqFkbZ4Ye+ngE4uOYW7FSqCDi3kcp/38QYKXdmKGWc7tH4yti0ZEX/JNe0qyMb1g+Ig94CB30iTqgUWGlniZ6BkV1Uy+WFokFcU1vzb7VM/qbY8fslUWpu4mdukBBbhGnM/LZ9Q5/EZN9X3HdyAkxjyIt7NzcFo6LjbqEQPJQh007Jf7kuLkDcvTLHc8r5x9+p4qZ/UrtbbuYLwQvg1dEUHerlGy2EXryQYeURZ2v1WlqpS6FVOg1tTtPx7MotdjMHcGXQ4TsHiC9nm8mVV1S9cmdZqtr32H0IafchNTUbtndz0vTNGhyMEyoF2LbCklZ5w/O/jotqaro9rmAg/rBYXhzG6tHarXZL2K1geGPKLnJICkOlUobcWUPNqaqHSgXacbVa43HaM3nFswkOfKYIOfBVxTKy5wpOu7ePuQc0KtH7GWXQ0UIGgqhmV7IbfGaagbqmavjwTFBf8WQ5t7AFnYKEoqo+pcDFEEZdU/1MH6blV0S9qWkqalxJ3eQO4oPjiEoBiMPLXBHJcftK3uJy+XCxIN4sipObr2fZqb1GPPmfotJwQ/hQq3EM7ziyLBNUSkyam/C9SDV4HIlxEtvtNZ6O/MzCG/9RbUAc0sGXWLXdxc90nqAtF063KW5/phR5H2Io6junHe58tZKbW+mu/xtvxEabI4d+/iVW5bbxIUSIRL6mGBA35tbzO/2r5oNVxrhQpQhBEN2kTGrK5ffXkvpQy+XN2Df/JoYXhy70OXbsOx6lahwRbHIJGnFbcSMGyHNDrsaRa5kA8dgtnS2nEq+5wmL2APHv83PDTmmvypXx9xs4iLeVUJBITQVCfwpyzNlpabQt3UovsHtyv91MG4ypdKeKVep1alPRP//BG6VQ3FwTQZ09frbvQR8ZpWj0ZG3UKcpN8e6Uas70yYc7pJxKfqqPBz4cOAlap674Sc3flTJZS8kgzgMiZPKPxPLiK6KkvcSbvtYqnhdXOUOOS/tOCk1myL4HypQEmMaOF4dlqa8Isu+9phB73H5btQFxBDe/5GxORitYWekW64YmHsbzURmPY0UQKJqtDNB3p5vpGauR1hlSOYc9QZ7EPcvB4+O0oPzrX+if11zNx/7FVu+IsQN/v8SXpSqamtbsKMcNBubDHQqnFC5ZfidOmprb2WdhFj+p+YVCodBKBvE6der8Vay3uCCTitbkJtI30NxSSKjGMxu0DVErPp8bWTl8UBKgGgsQdwxsqDxuQnhif553SWaI5mbPagDiVzircIDcMQYiDUO0kVAkJbvCpvl7wv4bfxbsvhSGjTROmww0UZHniAYr3PNQfGH0ey+rUg+yyn23zUSPm9if61LoLla9w5lwMltDkmrzMGRY4kIxY2eAD59zBQP9drfeTEfZPdrRFz0Az5SiRtEf8iltTio/Qz4AyplGfVxU4QKIz0kzSPn8X0+9445/1QrlwXa1RWJ5cRwTo8WLgz/q5cdH2R+IGyyZVD5oZkhyQ86Lt0/w4rHlxY2uozFuQpgqwZ3vvFtE2+A6teMawCE9hCrlBbuJq09g5ib6ROkG3vhalF+X+vbqRQvm3kMPLLyXRg4dSvXrlZEGxU0QMPcXxKxwcu9oHBcwcG+cksJPCj3Y8xzLqvd5JiOtYhX8ZpuZW8xCJfMkW8+iosdigL+LLWRrLjGn8eq/EpVSRUM+xpxSv68blgibqyiFTCyedZISjCxTPFgr1Ad4GPZB/CHm4gDntC9KeXV481dKk+Pw0du67frz0NRQePH8LiOrReJ8zRz66U6pFk9+U8l9ei45/mGwBhOT8Qrgt157LU1XyvgRfj0DkDKnfYTSR1C0r/BoVNoA6IYVFXTvvHl05NBB+uC9d+njDz/g68P336PXX3mZli5eTBWl9QKGTYsFd3eAFxqqKc7GMhbA0MruK9zrkOtVsNcEO2oUcL5MrziVYs+tmuslzbfpFV4TnufhOPAOD9G5EE3NfiGDuCo52a6Wyb8Xm7kJ7jpavPhettvnSgiHgNzQnFvKR+dDoVQKe41PgGkMKRUECCAh3f20h5zK79xAHMM1V8QhgMv/+hd6SJfC5WzInIT/t78b1mwwuqppLABxmk5PzZs04RX3ay8f46D90an3OXC7L/wZ/u7oi4do+JAhZNCmiq7Kw+HdfYG+r/sSqpTom171IGujjpSi1fvVh49np4oTcSQtRMyeXvyJ7Bx7Xbkhg7harf47+yH7xfLi0TRaxw3RW4q3uNOKtqTn2BC48flUb1CCF483vTiCFd7MzuSUCkD8cWPswpL98d/pf7+BR56B/x7NwEMv9928AtiWlZTQ45s306rly2ne3XfT3bNn030L5tPWxx6jd958g05/cMoneHuv0x+8T++fPEEPLVtGJQUFrs0gmmAuxgaDUykMYKM+IFbchFWrvvlwNFpXxonhVWj6cNkrycnJ/6wVzkMtl88QC+Lw/oYfQLQolUVmoyRKBUCeUd4ypAYnTLQyW/dLAGoMzbC0erPHERmf/Sa71WE0xUB8n9UUdqRYJI2yGv77JnrBZqJD7OjeLVXr2nx8AXimzUZPMAAX6BH3JRa8K4P5KTq4bx/17tGDUtUpYVflAkXjomokbgygNDGAE+2mJrzo/VEpoH0OZMTHlKZg6tdBK0lmuoFdX1eFB+LJijZieXHwZZDORMuaFpx7rkSVit6cQeWDZkhucMJ+NqfjkERzM4aUClJ/vM2wYPL0Xb6jsfl6ho1PCsYawKG57lX7Nnopw0I70y3UMsCIPMDQpDfQ8gcfDAmoxQD5ibffopXLllLj+g1Iq1KLUrII94sSVTxboHgMRhOZLOnOZSedzkhqnCySkvi/EXUaNlqjanzF/VLY7/AF4rhe4BL4VpwAODAMfvDZ4mnhP5VyeY9a4T6cevEPxfJl80yGqB1d8GH0F+1qeMlPpaDDoBAanPN52HECUGPoo8KPyYpKPiNv5WTyShxhB/DKjiWA4yQwXp5Eb7EKCz4/RQEaVgBwvUZLC+65hzcpIw3g7lw5wByNz2WLF1P71m0oPzuH/+4UfzK85GTSa3WUV1ROLbr1p76z7qcRyzbT2NVPOtbD22no4nXUZeJdVK9VJ7Jn5fNKOziYK3ieanREAs4QCLXW75Tm/XE0pSkINMSGQIAPT5HLs8IGcbVafR37Yc+KlRpCnvRmlE1jtHJpR0Jr3QqnRW3CDKs6LUz5abSGSlXWKquFc+Kf5WZR1t9viBmAQyONsIg3GIADLDKUyoCnRFyL2ekZ9NzuXS6FiSRwZsD85eef0bkff6DzP/5IX3/5JX380YdBwfzd4+9wdQvom0ULF1KG1ebBmQOMG7TpQoPnraCpm5+jmdsP08ynjrJ1hGY+efjSwv+zP5++7RCNe2QHdWWAnlfWiFKUar4JBCqkjPnlUQpFbujTL8XBDCjo6SgxA1WTGax4kdXQN9aKxIP9sDFiK3EoSF6IEgclRLZJ8eAVJjhDSfpBFFvCDCu+pIaOIBJHIDCix3ylwlfFQkjDVpOeXmfX5ARnA1Mhsqjo3KEDvfbyy5LolE9Of0QXL1yg//3vfyQ88N+//forff/tt3Tm9Omg1fknDPCPHTlMuZlZpEhy6zWoNTRowSqaveMYzWAAPmP7i0GXA9SP0uRNe6nzuNlkSc8OWJVDqYIU+mhfH+6nNnDP8TKlCeyCzLFUQlKZpBAIEc3NQgbQP4n5xYg/eohVyyeiOO2Em0bq1Ftuyx6SKRXIExNmWDGWGrIb37tQQOjA/sx0bvRUUMUmWBhHb3nLv2mfzUQvsptyoC6Va6mVEq/HCWPH0ql3T4oCcFTtP128SIEev//2G/3w/Xd05uPTAYEcFXlORqZHJQ4QHzh/Ja+0xQC4x3JW6MOXbKDCRi0DqlWgNuKJ9xEbCutUySzN/TrBVGQ8USlrpNiHyOS/wb8qYiCuUqluYT/0NbGUyhB2YR+PIohvleY74GgmhWRRO5dyOw1LDP3EMnezog2pVSk+bB6M9B0D8eY3/6vKAPzma6/hI+ivM/DGqHqTlBTJ4C1cj8ZUHa19eBWnO4JV0OfP/egTuP/44w+6yMAdX11/9vvv9OP339OnPsDcH4hrwwFxoTJn3ztx/S6q36Enb376OxVDdhgRR8MA0kJ8JsCHx23muBq1nyip+JS9I9U/XIRKRX6XWKkhwo2jlWN33Blr1DJAyonv/E0tFfcYLZFSwdDPhASYxlJq2LQbpZrSK6X9VDjTfqbIk6sk7AH0yRq9ljfXF5uNAb18AJBqEeP05SWl9OKB/QGB/KsvPqf//fmnB3j/xqruHU89xcfwmzVuTAP79aPdu3bR7wzAXZU5++8fvvvOg2bhEsQX9lGm3e4B4voULQ279+GwQFygWCZvfo4adu7j19eb05vmDK4qibR6yf36gEfNy1nxM6WJ0PcGUkLfk+WbEFofURBXyeXNxVjT8uNZlAX2+Ln3mAwSqyAZZTVsLxnEE0M/8eBqWOZziOOJdBvtZdfZjVHUit/Cqu+hSbXpSLqZ24ciACUQ/w1eOD3NQl37j6Sihi0C8sQA0v69+/DGoy9+HDTKL7/8XKkCX/XQQ6RVqej2m2+m2rfcwr/qNRratGFDZZqFgfn334Ez/4iD+J5nd5I1zeQCcceEqIFGLV4XNogLQD5p016uYPE3cIRGZ7iTnL7mCNxBHIHSx+OoCn+CndxM4tmD/6qTFV1qRfohk8luR0SQ2Gp8eBSnN/GmINczR+IYvtGey4d4pA/99E2AaSwplfJWlSgVTtuxG/X9nAwefhBp8L7+qquo/F//5F7cqL5XWdN4JaX0w38DsLRQeVQ0ptHzV9JsBogjlm4iW2auX+UGvkeXoqGVy5b5rMa/+epLj0YmHp+dPUsFeXkcvJNuv921AOTwWfnxR9/Uy2+//cor851PP82pHHcQN5ttNPahJzgAhwviArUy5uFtlFm3pPJrZ79Po0sLb5LTD83m3pd7xBo/hlfSqRT5V8o6yrRaUXhcpZTJHhUL4tDLHopynl0/nVaSZhyUClJ/pFTj9UfcQzkdBieamzGlVBCAa65kiIUQhP2Zdp6yHikPlb9ffRWfvETO5WvsCIyEeVxnxiDVt91koR5Dx9P0jbtdFS2+9py2gLQard9pR9Aq9YqK6PDBA5WAHKoT78fePXs4MLoDOFad225jFbWO3nn77YAN0AP79/ONw30jSbdn0sS1T/EmZSRAXHjt/eeuIL3e6Pna2fvIVSphceLOKc0A2LM/TqY08RxA6zRPSZFEpej1+mujAeKY3mwrZnpTMMR6OMoqFYdwXiFpDD+rUXvJ0W0F3cckQDzGy5BZ6NPgCMG8Oy1Guvmaa8LivDH5CdtYBBVD943JuokGPZ+uUwSovjXs+qtfvymNuW+1o5L1AsLpWw9Q056DgzY6Rw4bxv1PXCD+3rv0+dlP6U8vPvzI4cOcSgFou4P4HbfeSukWC334wQcBQXzv7j18itN9A8rJLaAp63dFFsSfPEKjVj5OJmv6JVqFT3Dawp7gRJ8k0JRmX7bpvhOHhlfKqnAtDGpNW0eZwn7Jx2JVKgN1qVHd4VDpF6ukjeEbbTlUPni2tKGfPpMSQBrroIjS5nwopfJYtZbezLJTdgh6cVAmSLRBug1CfuGHD+XTSL2OU3WqANJBR/VtpR5DxtG0Dbv98skA9gnrdlJuaQO//Lgwir9l00aPahyDPGhiuj8uXLhAHdq25fSJN50yqH//Sv/e+7F92zaPqU08p7rsuU3bsi9iAO7YvA5Sw069PYCWuxqWNAuvCheoFDdzNI/TNluL4mhK87gzXlJCFf6pOjlZXyuKjyvZLrFWLKWCDLnnoniskfwG8SDlFGeQ8gKJST+9EmAa06CITh5BEZeOzmp6JyeTUypigPuvV15Jqr/+hXrXvo3WG1LpFVYIHGXgvYqd6tprNWRxJssH8j4BUJTVa0Cj71vjs/r2TS0sJ73O4LfZB1qlfevW9PYbr3s0Oc/54Lhfe/VValBe7gJv2R13UDv2vadOnaJgjw3r13s8B0VSEpU1bEHTn9gfYSplOencNdwub/Hu4Te688v9Yk5BnFEpUgtNtUz2NKbkowniUKl0E0upYN1rMkZVpbJWmjevI7qtfhtJhlgVw+6mrLYDEmAaY3taX5IyAOpjdis9x0D43z4oFVAlN7CKG/mRXW+/lZanptABVm1Dpoq0GjScStUqTv8FS5YHF52m1VHH3kNp6qM7Jak5MKrenH1fwEE5dQo3xhKqcfirYMzeu7mJxxeff05rVq+mqZMn06aNG+m7774jMY+HVqzwMMMCiDdo2zVyVTjb0KZsfp4P/lw6eUAfruUVdNj68GaQnGb4pVK6sI34zThqaKI4kDDg86cqWdGnVrQfEKAzIH9bbDWO0ddoxbYJ+sv6kkZZnSoVCYM/3NEQzc3E0E8cUCqqSjfuAJ2OPsvLprGyOnTHdddRHbasDLSR/TgvRUGPpem4wyA8vnekW2iyUc9tk9OczUqFyOsmOz2LBk1fQDMZIEvljwVaJae43C+tAnBtWF5BLx896qrGITP89ZdfKFKP+xcu5K6Grt/J/hu0RySVKd2nzGMnXrVnRBrbgKvC8OqBOKJSsAZIM+z7Qp2cbKhVBY8rVcnyZWK9VJBq8lSUTWjAYUqYhCJNSioVd5c2+FO32+hEczPmHuO+VSoA44etFno3J4OPwz9nS6MXGVij2t7LjtbLWTWEdBds9hanVlchclReKXMM7lQ0aEbjlmwIC+wAcH1mP0CpmtSA3txzZs3yoFSg847UY86s2T5AvFdEQBw/Y/wjOyi7sOzSRoXmb6oxMuEQPPGpwiPxyRtrnrZb4mJKMxQZNCuOH7Pb7ddUBYjDS6WC/dJfxAL5xCjGI+HnYrxWgpCeX1g5TbuI58UZ2Jf0mxr1mKnECl6JGXNLfV5jaezz76zV0gi2oQ/Wp1I7dgKEUVomu4lS3OLElBLH43VKFbVhleqUdTsjMgwz7YkDVNGuW8BqvCg/nw4fPOgCcvihuI/Wh/MA/SK7o45bYzOJW89GpBJnP6PVwDGeKiK5ktIKI5V23510liy/VEr7ODK8wmngrjRJA4n/ZQVDz1pV9eBeKnL5y2IpFQxJHIlSUKlAqTRMkUKpSPdSKR9yGTsaNusWV7Ft8N/wBeRyr6UIwZjK/RpJS9VTj2ETacbjL0RMfgfpHXy6LfasgBFqs2dMd3HjAPML585FBMSnTPIC8eRk6jB4HM0Kd+QeJlhLN/LwCHdJISwTwh6xd332bf1SKUrup6OPiyocmATqrqkUbbhM9o42Kal2rap8sCPNnWJviFSnZvxkFKvx6Ua9JKmhlh3x6vUTb08LDj2rbf/LLiINhv7Q5BpzSiN0M4a/9Bl1fWrGIxYGzIDNajRTv0l308zthyKqnxZoh3bDJ/n1F0E1XpCbRy88t5cDORqcX3x2tpJmPBIgDqqo54Q7adbTR8M7YWw9SA069PQ4YWCi0lyvZWSq8ACqFAB4ukLJ+x3xQqVAG26Qpg2/j8HqFVUK4mqZzMZ++Zdiq/EuUTzqCM6GVgmUipod8/Ja9xFPqYy4/BwNAeDCpof3y1IFyeXimlusGtfoogLkHMDTLDRoxsKINft8csePPkNZBaUBaZUpEye6KBWA+c//+U/YID554iQPENco1TRgzmLuDR5OFd73riWUqtV5UB36zIKI9ZEcRmh2v1RKK01K3FApWAMlNTRlF9kqrlXVD2fiz1axvDgaStui2ODEB9iGfZByCTerJa+e+MQfVrEX9hx3+fiVuI6ul47G9nrN4yZ31JhX7t8pLwwKxZZmZgB+b9QA3EPFMXluJRWHO4gjUu3Q/hdctMrXX37hU24o9oHvHTNylAvE8XoNDHhH3L82dL4fhlcb91B+eWOvZqaBrA078E03UlSKvwEfLCTIx0sVvltqQ1Mm36dUKv9RKxYPpUzWUaxmHNU4BnOi6TOOiCyNlBDlNJv4EGU+uTn5sgFxb+dAYdOrN3AGZbbpFxd+KqnmTMkJ7ME48AFT50YdwAXwQypO3YqmASc558yc6QJxLjf8NXS54X//+18a2K+/B4ibTNawzK8A/p3H30kpSpWnP0p+ReRObbgec+v5LRChTnoiTrzDTzgbmpKuv2T52FqxeqjvUNeRohkvVKl4Yn20GpyY1CqQMh0lMUS5bNAsyrgMbGl9JYgL+no0g0v7T4uDJm9PVul1dByxxdAq/LUoKunMBSBIZSDUY/hEmhlt8PaebLxnWSUawr0aLysu4ZFqAq3y3TffhAziGMnv1rmLS2LIQdxi50HIoYA4vmfcmqcoPbfQowpPTbNHNOGeUylpdr+2s2ggHosD73BhQlNKBBvDz1MpycnKWrF8qOXyu0UnzzsnOONGM57s8BgXa4hVMfxuymo3oMbrxQGODgWIzOO9MlgyqWLIbH4qKeo9gdJjzY+z3w/9sc6a7QBn3OS+llxJGr2JO9/hqzcYqNn/t8LUIvxDqqIKd28IPr6fSpu391uNw+fkgYULXdU4Qh7cwx+ECvvwiy/SA/fdR3Pvvpu2bN7sc4Lzp59+otYtWnqAuM2WQeMZEIdaibfsN7JSlqa5tFlEq3B4j+PnBjrhx0sVjsAQKUHumLnB7E1MQVyZpMxgN/u3YqvxCrZLHY6S3BBv4kabiR+vlGKP0Ol5oj3GHZObQ2p2c9OfVzMH8QwHiI+cz9+Lut1GxU36j6mkGQdzBAVguASe1VqDhfTs8zWVNGWVYWf2uirzqgDP4uJymrzmqSoHcKEaRzSaLlXvtxqvKK1Hrx57yVWN//jD9y5ghmLloZUryZiayj3GsZJr12YVd2f68ssvPUD8+++/5xOhwtg9XntufjFN2bhb+gQqe96D719LBqPZMyUoo26V2C0IJyhYBOOePxEHVfir7DTQVkJfjq0LrAguqhXrh1wu/4tSJtsidufBLrU4iqOxeCNbiH0jITXUGqi0r3ipYY2f3HRlFyp8gDgq8Ts9gqRzOw+Lm+eNzRVUkK1xZ36cB7i7/o59hQGT++mC0wkMPEfcvSQigzyhDwDtp/I2XfxW4xqlipYuWsQ5cYD42U8+4dU3HsdeeolMej23ovW2psXkp3sj9IsvvqCi/LouEIdvSr0Qza+mPv4ClTRv59nM1EaymSkYn3XmG7I/KqVeFGdQpA73rJcqK5QpdphuvfX6WvHwYCDekD2pn8Va1LbVaDjYRqsan2syBM04dJca5rfpK44XR3Oz7+Qa39REU8qn54wtp9KppZyBena7gfG9sQm+K15HctAobTr3pplbD8YMwF1V7X2rKwcoCPdMnSRq16o1vfPmm65q/LzT3XAVq8K9AVxwN2zTsiX94ua7Aq/xLPslf29MazYNYeQez7fXrPtJm+KmXhKamREEcMfn1sxnH0OoxCcY4iOGDeq47qlaKY6qv6tlsl614uXBqvEb2ZN6XqzcEK6DEMOfiBKI70m3UK5IiQ/XBdetECk1nM/VGektetVoEOepKV5gwh38Muuy6vtun+9JRhxH2MHGFtSKd6M2OyObJj30eExoFF/+2+Vtuvqsxh1SwFTasnGjoxp/71367NMzHJhXLl9Od3hFtQkg3rpFCw8Qf/ONN8hsMLpFs0mf1nRp3OuWejYzTRlRGQbTp+f7VSABRzbZYh/DBszZLNX6QyY/XuUTmiKGfwZi/l8sN45d642sOGhw+qAJAo/f31mzMzcB4hjy8QHi5txSHlfn633BCSUuPdebdXdOeFbybaZuA0ZVjZxQNDf+UEBuvHf3HjxUWRjFx/DPC/v2+U36mTFtmgedcvDAAY9othR2Cu0zdZ60QR/2frUeNM6DblOrNGQuaxnxQTA0rUHR+FIfRdvOQ8p6y+lWqKgussIAfipJapn8XbHVuJntWhts0avGN0hocPLszW6jRPHiNd6WloO470rcVtQwYBZpdvtBcUarwPWufqVEIFSiWRY7TVzxGPcyiQcQd/DM+6m0RXu/1bjFmEbPPPWkQ6niHMX/9ddfaeb06TwYAtU3FpqboFI+/+wzj8bmk9u2e6T6aNQpNHDeCtH9gJnO8GeTJd2zmcknM6PQmylq5HegS+5MtD8RB1X4k3Yzz3sVHdouk59WKpWaWvH4UMvlE8TuRPgQekapGsfODBvSZiniO8W5DHzE6sXrdq/BzU3XYEVlEM8ob+l3o8PmxkE8XjY3qGzKW1eWSjq54FbtutEs+ILHCYC7xtfnLPbkmr2q8bEjR7p48Y8YmP908SJdvHCBHl27ljp37MjBe87s2fTpp59WkhiuX7fOA3xTWVU+eMEq0SA+XfBHSY7WZKaXNtyc4VeVggbiOqspLqSFI/QSq3CHT0p8PhwZnLIPxFbj4JA2RbEav0dkg/NSlTlXVHOzqPfEmt3YZNWrL9opu0lnvxtdvIE41Cm+BkS4LI1VoKNm3x9TRUpA1UfTtnyj8QXidXNyXaP43sZYGOYBB+7PKGvdo4+6qnyuzDGaaczyzaJOI3ives+632MwCSectMKGkffT8SdzdaNSkMZ0ODO2MWxCFZ4pbcT+K1Vysr1WPD8YiM8VuyPhw+iBoNsovcE70y2UIeYN5iP4diofNDP4CD68xftPjf2gSwwkhjnNu1UTEK9sG+BOS+SlZ9HUtU/FRUPTH1iC6vAbeThvnptN7Sn6z08/iZrYXLFsuYdGPDu3gCavfzZ4RihSidi/yymu8GxmWjKjY1Ms9GUCFIDj4kCV8rZkoytudrWiyoIfQn0oFAoTe7KfS6nGo6VUecv5JivEpP1oUqmk13hRvHiNbm7yCbmWPmRdsoCUUzyBuLVR5VBl9+Ge9k1b0Z2QFcYhiDs8VfZQbmkDn9w4QLhpo0b01uuvOWgVnsP5uShjrJnTZ5Dc6ZvCNeKNWtL0Jw6IUqS0HTrBbWOX8T4S6KpouFpiMAtDW4GolFirUgTnVJtCShUu+1Ytl2fXqgaPq9Qy+RIp3HgnZw7n8SgI8BHNJXYMNreFOF4cQy7x18SLrIMhFAeePJ4ioJ4+bkAcJ4lC/w0xfqKwplP/8bNpOgPLeKRUuKnU2Fl+XwMClVetWOEa/hFjU4vhoEH9B7jMr3gsW4eeQdU5POxhyQYy2zI8+HRUytHT9Der1Ix2P70jselojFUpKBD767RSFSmri4qKrq4OII4GZ7aUahx6T6RCn4hCg/NFbkgT3BQLvLi9pIm4yU14i3ccWkMVKj15o8o7PQeDMoWdh1WDSrxnQG2xQKnA8KqiogkNmf0ATX/8hbgCcyGrMjO/2Gc1juGfLh060Ml33nblcAazqf3p4k+86enyTUEsW/cBQUD8ME3dss9TMYMpZ4OFT1JGSxKqs+X4/fxwH4+NsVeKYO8hKb9AJv+e4WJhrWr0uEIll98vhRuHqfvLUZriFEOp8GEWdvOL9VGp231MjVWoXAJxmUe4dEmvcdVCnaK354myqAUw6VO01KRlBxp5/1qase1Q3IA5nkfrQWP9xwvqDfTk1q2sGj8lqhr/6suvqKSg0MWJo+HfbcwMmhVAI47n0GPaAtK4+c2AZkPPJDrhIM7AjwARbPBK2RxjrxSwBgi5kcaFyzcig6E6gTiGf6zsiX8hJcJtiTnyDoegVFZbxVAq4MV1VNJzXPBqnAcnT4m4rCp+Jhw7c+mYyj0rUZdG9fpPrVEgLgAiwNxkSKMWnfvQGCTaA8xjrB9HhTxq5eOemZVe3PioYcNclTjWV1/4r8Y/++wzrmwRQBxDP0MCaMS5zezapz1PAwiOZlVy1D5jyFtzSoMa6MWSSgE+gTXQS/JIkf+gTFbWq1UNH1dBDymlGscHdCDCfuP4WS9I8BnPa9VLBC9es8fvodH18BOHesecQeWDZwccgooXTtyQWSg5LIIDJSwYTFZq22MQjV+xhQNZTCc62WbSqEs/vw1OJP8c3LfPpVQ5/eEH9PPPP/sE8XdPnqR0i9WxaTnDIMYECIOYzn53s95DPU5jiMRDvyRaEX2QhWoN5oBUysQYUilCKHtzSQHI/L1bWVSr1tXVEcRrpcjlFvYiPpZyM80w6iO+y0IK1DtVG/z4wy6ezPptRCpUZsdBMEL0ls6a5bqZONWUUZfqD7u7WoB4IP9psWCemZ5FHQeMoomrtzuALg5tavFcZ0yZ4gJxKFW+/upLn9X43j17SOuMgsP32e1ZNIFV2r5AHL93AKvS9bpLPitoskK2GbXTZ5CGpqBKWR/DAR/J6WGO9Y1aJsupVZ0farl8upRqPE+pomcjnFp90ulsKGboB2CFZPvLWqGC5mBmgQeIW/LLApqExZVOHH4paG6GGZgM3jgrM5c6DR3vAHNQD1UM5hj+KWzYwu/wj3fyjz9ufNmSpW4WtMlUVN6IpiEEwweNMnH9Lsqr18ArrccW0bQen4VDgIamEIb8aowSfIBHz7MTfYmE5DBn72FJUa2iq6s3iCclqdiLeV8KkA/Rp0Z0AAgfwLNiBn9wsepNVDZgmqhqPL/ryJqpUPHK2OQTrcWNAg5CxePEJufGuUxPFh6YQ5aYU0Bdhk2kiWuf4nx5VdEs2Dh6Tl9AGj/Ti/BCWbZ48aVq3I9SZfqUqZeyNRk4t+jW3+9raMdep9rd4CrSaT3+Gpo+LBLcK/FpxtiGIWPASCnt+jkT99OZEqY4R7EX9D+xkkN0oNdE+NiEHbypCC+VFLWGiruPEtXcLOw1vuZObRY1dumUufyyuHHA9yTuvFOc3L4xv9wBDmEGKgP4UtjX7Ox86jx0Ak14eBsH2KiDubMyzioo9Ss3bN28BR1/65LXuDc3jjH8EcOGeQQkdxo1jWY9fbSyr/nC1WRMs3il9RRE98QpYkITcr6n7LEJQxYGe9IlDfYgq0A+vVZNeWjq1LmDvajXpFTjrTWRDz8dItKoJqdpl+DNTQRE9JlUc6c2EaLg5CerK4gLVZ65rBWlmtIdm1K4YO6szLMYmHcaPI7Gr9rKw5WjqWYBuLYdMsGnSkXwGt+0bp1r+Afc+Ddu3Pj5c+eoeZOmLo24RqGivjMWelrQ8knRvVTUuKVnWk+UDK681VD+JjQFPGjJ8OCVKFMpx52AfdJtnXCa6UkMfMA6qZXJFLVq0kOdrOjMXth/xL4JqHruTjNE7EMTpjc1YoZ+ggDWJYXKzPj00I5Uc9ANxNPZcbp6grjj9SCwIK2gPml0JpfaItzKHJx5uj2T2vYZRmOWboqazhwbxKgVW8hszfAJ5ADnPj17urzGsQDov/zy8yVlitXmUqaYWaU9ZrmnDS9OFO2GTfJsLCKtp279KNIogldPUx5mHagSv4thwckogLYA1HBThfLkmXQLrWQ4Md9koDnsd2KwCBPlksKPea6CYnCtmvZAlpwqWb5dSjVeV6Wi3RFqcuJnbGdHInOQKSsAlimzIKASQ1hogGa26VczQbzskn8KbvyMilbVF8TdXhd8VcD3p2j1rmozvMrcKU0026hZx540avF67kcSaTCH5K9++x5+vcbTdHra9vjjdPrDU2668c85iB9+8UXSa7SuzaewXkOa9tjzHpX+sMXrPH3Co5jW47m684Brf58D7lX0snZEAAfcK23EqUF6DDtbRLwh4BgSZ/iCa5y/V+FsqMqlXxdHNbU1/65VEx8QvLMX+J1KvHk69dVFxnNc0Hg2TFEHPhZhrDjVSPVEhCfHZxBCFKxAufSydfUHca+pVIRfOJJjIgfmaUYTNWzTmQbfvZQDZaQULfg5gxY+HDD5Z1D//nTq3ZMuEEez87fffqV1jzxy6d+xqr2Rm2cKvk7asJvq1m/qsUFgahI0VFSrcN7QbB+woSl3Op2+FSZwv+O8/xEWMytNT+1ZdZ3DNgcM7QhgrXBijircJZefQn5mcnLyP2sijl+llCkWSwFxvMnLIuirAtOaYDsrjpR12w8IzovXWA8VwT9FW7Mqca/X6HidHXkIBp9QjQhn7pgA1WtSqbi8MfWZMo8mrX/W2QQNrzqHj0lhw+Z+q/EMq41273zGQ6kCv/Fhg4e4+HC8vo5DJ1w6KTgdCtVeZltRM7jyleca4P1EVbzIbJRMpZxwLkx3Ykx/mD6VV9pGN9COCGAHCEJWyRTPsc2pmOHelTWLG3dIDk9IneTcH4FJTnyoGCYS4y+e06yrKEfDmpryA9rBQTnIHJx4WYsaBuLuYO54vUhr5xOD4GfDBHP+viUl8QGbnPwiDpxjlz/mxpsfDqEaP0pdJ97l3+GPgfu40aN5WISQw/nay8eotKjIoRHH5K1WR0PvfdixqWCYaMEqTzUKmpm6NJ5vWRUy0GANTcyNvCDy3heqbnibPGYz0ySDnuoz7EhzArci+sDtMwRCKZcPr1279t9qFpDzUGXZH1Iq8iG68LXj+IDhQ2yUB+fFuaOhiJQfBATXXP8Uhyd3tW9sSmmAMmCBvBJOfRwswwZzBw+Nn2OzpFPjdt1o2L2raOrm57j5lBSJosPd8BlKz6nrtxq3Wyy0a8cOXo1j7d31LNlMZldT02rLoPFrnuIAPuHRZyinpMLjZ3GDq6JGUaZRnH2XEv8TmgKVggDit0Xc1/iKQm+BycCVLOh9xRC4vdevMARUq9V/rzEgDq6IvbBnpYC4MQJ2tYI1bdCpK8i2rNlUMeTOoCBeOmB6jUz5AZhp9CYXiNtLm9Z8EPcB5oh4ixiYC1RLqp5TLT3GzqQJq7Zdqs7FADr7N837DPOpUhGq8dHDh/NqHAqVBxYudFEl+N0lDZpx613kZTbtMajSdY8mY1TSenxZzgZoaGJBEbKC3fMnA1TdaFCCLkHOJYQQmqqhSkI5mf2hTpYvrFEVOXtRJUi6kEKrlLGjEUZfwwFyfOgY35UHm9xkR8qyAK59gsywbNAsSm/ZuwaaYHV1mRFdNpW4H2kirFe5IVgEOHN3ME9xShSbtu9Bg+5ZSlM27GLV+ZGAyhb83dBFj5Jen+bXTyXTZqc9O3dyEB8yYKCbh3gytRs8jmbvOEY9ZywkrcZ9CErGeyBoaFdFFc5DrNWagPd7PXa/v+iVoynIAvHnS81GaqfReFTdqvhev6qS5WOr/Ri+2+NKZbJ8jqSLn62hYY7k4yIYrg+ei6dhF3Rxj7FBFSo1VWbInQwNlksgXq/55QfiXpW5Mb+C88WRULN4A3oqA7TC4nLqMnwSjX5wA01/Yr/fZui0rQeoom03n5SKUI2PHTmKXn/lZWpQXu7yTNEqVTRg9gM0csUWsmfnV/r+KmlmCnbBbt48/kAc1bU7ZXLcSZnAB6kBA/hoV9143xBnh89Iw947WBwIf6bw896LCYdgG2aDmjbJeUSqWuWBMHzHsYtjB08RE9fWsmfQ5ibAK6fjkBoHXrwS11+qxDPKWl6+IO6hMxfULMaIgrk7d45hnLJGLanX+Nk0DkM5nG456qJbAO5973qQtClavxtDdnoGzb/7bjLp9a6NAsHIYxiAFzVu7QngvJlp4s3dKpGvlreqHP/ndZ+jusao+7s5DvDelW6hyUY9FatUfMgqmlW30D9AiMaQQYNo9apV9MyOHfTktu206P77qU/PXlSUX5f/m9DAXPGiQqG4teZox2WylmxnuiiFVoE3+K4Qxf8A8c02M98Mgk1uBqs+XUZYXWqeERbnxHUCJ14TJYZhSjAxNAQwR2UeIZrFszpPohT2c20YIurQg/pMnUeT1jxJM7Ye5J4nUx57nnJL6vutxsGD280WXj0KcWyN2nWjNoPGVpITRjetRzoXLozZI+kL9zmGcXKc5nXRBm9QTxk2G90z5y4688kZnk3q/fj999/pk48/oSWLF1P9emUu0Jfwu/5Uy+UjagyI6/X6a9mHc6+kY45zACCUODf8+70ZFsoO4mgIELcW1BcX1dZtdM0Dcfd0nxo47BMxmqVxJz6aDs6cT7hGEMzd6RYNA+PMjBxq1KI99Zsyl1foHYdPqgTIlQaQhCahUkVl9ZuSQW/0BJyqbGayzS+toIFrEjhQJQ5VyhgneEdbYYL3A+ZgiLwbPmQovfbaaz7B22di0tmztGDePLJbrJe0+OIanR9Abl1jgFzOHuxDekPKGw86ZDo7XoWakddSRHPTYBOnUCnqPbFm52yKCMu4LEHcRwM01ZLpnHSVRQHQkx0NUQboNpOFiksqSKMSF34BThd5ot4VI5qLaDJG2x8FX00lTZ35mcHfl1SnDDia4M35bQa8ZoOR+vfpQ88/9xz99ttvJPUBl0iEbpSVlEqiV5TJ8nE1aySf0yry81L4cRu7mENJ+kA1jp1eHixzU6un0t4TAlMqLplhr7g9+kdm7D4B4qLAir1+gCIad5GaAg1UoYf7czAxGZVrrkVP5+bWjb8faJo6eHBZTBUiAmWC/y4uKKSpkyfTsZdeol9++YXCfcBorH2btlKA/DVtUlLtGgPidrv9GvYBPyCVVqkIQXaIfzuJHdWC8Wswwy/qOiJoc7OcVesZrfvEHXij8sHNI9lKtJKLoYwyyhOcuNTKk0+BFjTgNrhqpcpFTcWF3A0eQXozp4N8gW+l1bynn2uoO//MAdZ8NelClvrt+MAQfMi5zt5PoEVVAzfAFZRJ9y5dacP69fTpmTO8io7k4+OPP6Z2rVtzjxox2nFVsqJrjarGuVpFLj8oVXbYJ1UryWsYzc0VImxpwTfmt+0fXKEy/G7Kajcg7sbvhbgrmDzBuc/WpLO4Y3MLxwYg2INetjrxiFEt3fimiMg4h+GWIvZgzjZoUyEmM3s5TxDd+GYP90p4yePvEKiBSt2QVcgBWZ9Rl78GJCbp7Ln8+tJZstgmZedyVCw0ern+WziBxPB1CnQJHB5bNmvOuetXX3mFLl68SNF8HH/nHapXVCy2It9Z40byGWCUShkCEvjxGRL4cVTi8A22KYLHtYkJTo5LAGPPBVXQpRtJwZtvuElFxbPllkryWL88QTxA5Vpp9XJZ4Tqqc3vQBl80q3Bw97xqLmvFQLqInxbQA+HPCZu30DAVrh8pK4abE0AbC9a7jes34MB96OAhunD+vM8A6Wg9nnrySR7WIUK18iMwr6Y5HWIIaKrDBUx8NW5lgLzaKm4sHxU7THVyRChUzKwSQShyUDfDTvHnZqiz5XreVOy/0VjiVXnTbv4pFmwA5gyPoGRbUaPqt5GFA8I+3hNUq2hgQrkDvThsVNE7gGUrKm33ZSppxsf2AdioaCFHBLVlyCzkFS0qWEfjuOqBDjQhqmt8xpzqcIGvLN4nHgNW3ADupo0a8TzRgwcO0DfffFOlwO3+AMc+2G1aNvCmKl/KcO+KGoXiWq32BpVc/phUfhzeCU/bg+vHBW9xOJwF81DRpdmofNDMgCHBcelm2MIh5+JHd6+GLaosyMo4V+4DsABQKRqd66bmmxkDoECbWcxBvEUQQHbnbQUgZq/fUtGWn06QLsMBF2DLKlOBNuDUgS2HAV4mO8nYOI+MQR+8P9gQAYLgu9E/cF8e1azwvsdJxep4jqr44efD4LmhuikpLKI7Z82m5/bupR9/+CHiPHeojxcPHSKzMS1oNc4KydPK/2/vO+CjqtL2QXf/u/t9++3uV1x3JZl778ykEDqhhxJ6ExBEBUERkCJFFBCxUAWUZq+IgA0VFEQEC4ICCkpRUJoUpXekhhKSnP95zr0Tp986k0zyPr/f+SUkYWbuvec85z1ved4kd0qJEx5XFKUyv8AdZon8ltSUEL2FcAPKaMg110szTCtfkTXT01AppmmG8IEXulTCZd+kVxLWosgR9pFdYX9NT+BmVrEaaz5gbMT7EBsS7xVqLfufHkDM7e4Qm07VVioZC0vY59PlJw4QMk4kcBf4/LaFRAz3AUhYuBCUyGQb1mWQuASYyANWNwYqUu/p148tXvQRO7B/f5FZ3NGAdMVBAwaIMn3d4h9J6l0iOwF5Xcot8BmZfdADy6eL7vZbdPziYypm6GaopPKF3qTXCANphmOKoZohOqfcVlh5GW6TAoHBPwriEy4Wfg2wQoP/HkfwhrcPjhjkNU/iUSxmjZiFpdzqNkHMlUDK3EoWwTWfdcyJGUqLsIqRvoZrCbGCiYhLxIDVDW32G1u3YS889xzbtnWrqJws7li6ZAkrn5Jq5BqXyLL85xLZCYgvtPHYqcz4x5F1Ap2FzToZKq8ayFDxiAyVftEzVIahafK44pkr7lOM83OPhCVzTtIgRYg8paRmhP4tOry36aJviUci6ULruYfqygA5a5YzTgOCoPnmIYiZbzopKeVVS9mbqp0KlMhWMpFxiba84TLp2L4Dm/fue+zkyZPF0uqOBPjlWzdvYSRT5Zg72V2zRFrjSUlJ/+OVlPfNph1CfxxtnbZEIXE0iCivo6EiMlRa36qbodJ80GOsZnGVpBX+8TZRO4rrijmhgpVb7C34dYp7wQc2Nt9oPRQkPkDzNatBvyrNOon3RUDPZz2nVaouimBSvP6WcxiCJmIu1cPnR4blPe/dd9lvp06xRMXUyVMMBTi9LvnxMiUVKZJU3iPLP5r1j9dyR67oxM8+zKwi1NJ0u/zopNclgiSt0EIpX8lWMAuEm9Wpl5AiaNrnEZZ951DWqPu9rF7HnkIsLIOTtM/XLIJ+Pr96MUtDo1H8rW/kdj8wdCjbt29fzEkWln1OTo7wrf/w/fds7Zo1bOVXX7FPP/mErftunfgMeVevWn59vJbBdMO16eXK/W+JJXKvorTgF3nELJE38ngEWW8Nk6GysmY1oYio6JB41fotRBph9BS7Yt75vkMPtbGBLQKVWBq3oitUrcnS0rg17fYWEjXuE1nRNJwg8MYNGrI3Zs9mO7dvYzkXnC/MOXv2LPv1l1+EvOwTkyaxB4YNE+Xy9evUZZUyKhSW43/2yafsyJEjlvRU/HHu3Dnx+gas8Rw0yylTkuFxyfeK7hgmifzGFC9bEaY034gQFnbPihDCuneirpphVvf7imeedEc1wJkSQX/abKFISbGmfRKiPl3ocMNXPBIyyvmNCH8T6TUtSJcmRMaI77qhCBg8fPdD73m0a92afc4tYPQHRbPnM6dPO0LcINL169az5599lnXu2InVrVlLBErxuVw3lGPJ/76B1atdh02aMJHt3rXL8aDp4xMnGlQ5VKaVaBJPSkr6i6avkm/WR94lLVVY3sFE3re8wTTDfqN0XSr17yxOuuK/BxWR6SE0nEuBH9VHyOHIxJ9IsIBxxK1WuQqrwxd0g7r1WIN6WXyoX2GNtWzWnLVr05Z16tCB3XpzZ3b7bV3YHbd3E9obvXrcxXrf1ZOPu1jPO3vwn93BunftKiyuWzp1Yh1ubMdat2gpOs039HvdLG7t1ahaTbgL0jQFwuDP6vuciUD0kKbI4uSHe4Xg453duokil4dGPMjGjh4tCm9GDBvOevD7A5KMqlzoTeEW+Cy2d89uQeC7d2xnJ08ct0yckJOFxf3Siy+yrrfeJnRTfHPDN1fwPdrZPTZ2HPt5x46Y5ZgjZxzPXPeZyvI6xAFLNJGn3pD6f2YDnT6L/E5O5Gtr/Z56iK+Dyuu3akvxpLDsHsNYGx0Sb8D/pkhJXMsCQTFLNSFCdKPIky7sQpPI5BxkHQeTHeRZK/JFUjuzBmvaKJvdfFNH1rf33WzkAyPY6EceZWMeHcWmPjGZzZwxg70/b76QDv127bfspx9/ZHv27GEHDx5khw4eUsehQ+IYffLECWEJwoqDzxRVeJcvXxbH61wMbq1h4N8Y+N3FixfZhQsX2NkzZ9ipk6fYsaNHxesdwuvzr/v37Wfbt23nVuE6tuyzz9k7c+eKbjFjR49hox5+ROhZd731VlHAUq1SZZGZ4b8xWbfkpcIuTQGur4BTlSKCzF69ALjfQPrc4o8+Yr/99pu4T7gHwVrc8DnjPqGKsjrfNKN99mefelL0BgWJo9nz4YMHLGWj7Ni+gz02brzYOH1k7f++uI/p/LMPHjCQfW9CP9wqMA8M6qnkcCJvVaakw+12p/JJud4KIYC0fWJZsMofNqRm6GGN7rhPN82wUe+RRWZ1+7qzZ9TIEr5vodtcKIMqJQRRB1vQ+B7kDAuqXq3aYkG2at6cW3vd2YPDH2DPPPUUe/P119nct95mHy9ezNZ99x3bxY/CR/mCgcjRVU4ciZSO5tOmvsg3DGwiP/INBn7bF559lo0fM4b15tZ/iyZNRaEL7omR9mCCsJF2m1qela9QhVWqWZ9Vb3wjq922C6t7U4/CUa9TT5bV+W6RTouRUaWGIZcZLPEFH3xg6NquXr0qfM2R3Ar4+YC+fYUvXFjifOz79RdTQUWkIM6c8aponxbOhePbAFs1b8HmvzdPbLpxea58k4Dv3ZhLRRpfpjTA43Jl8Qv+2SxZQCxrWEZ50fUe/fvQr9NrJFf8lr66JN6k3yhr+t02CRx54Go3dnex9lcHE7XPOgJRV61YSVjQ3bvezkYMHy4sZ1ioiz78UCjPoR0WLFksUlh7iUbOdjInjhw6KHzEIDc0P/5m1Uq2+MOF7KmpU1m3Ll0KW7CFa/ZdrWFLVu+mu1gTbmCg4rbVkMfFfG0TlCIaMIZPZzVbdDI0j/A833rzTcPXs3nzZnFaCmeN+4Ka67/9lu3Z+bMgcbhWcnONBRZxuoHLCxtLuM0N8w2nm0mPTWAH9h+I+7Oc+9ZbRk9QGz0ezz9LBZF7ZbkDkuTN+sfTZLUYCKX37xjMFa/d5jYdd4pW8NOpd9xTB31d6YsbWfssanF09aYI32PDrCzhL4bbACT99ptvCSt686ZN7Ci3PuGyKC0EbZTED+3fL1wLIDWQGwZIfd8ve9jSjz4qtMqDLfCKmfUEaQvjQ8vtN9JuEH/fsOvAQj15PRJ/+cWXDF8PrPGhQ+4La5HiGkCyny1dUhjYxLVezLmgW97+3jvvCt98uNf1FQwhnvHlii9j7jqJhE0//CD6nhrQUrnAuS27TClBWa+k3G2m0bKPyEHcaO8GwaxMxZl+m6I5xM3xag6h+t6FyJXeJhTGN+pE7ra/Ze07usIKgt+zbctWIsA1mlvUaCgLH/TOn39mh7k1febMGXG8JJgncf8BgvtuzTesUVb9MG4DF6tUI4uT+BOGiDvkVHn3SOGC0XPFYZN++MGRpq7pyxUrhOJgpDn39LRphX5xjNO/RS70wakMxgCC1MH3wBdDQcUk3G6Yd0UJuPiga26o8EeWx5UWEhcdgfgFj+UXfsUskaPj/ZCMdFEUpEfi6oJ4XLfgp/Yt/WNK3jVvvpvVvrW/aEJRp+sgVrF2I+YWbglX2OFbKLCqEKDFwkxLr8jSy1cKGGlpGeL3hb0cIywwf/W4mtWqC98jjrDjx45jr8+ezRYt/FD4ck+dOlVkFk9pIXGMLZs3sfZt2oYQg5izNRuIhiWmSRxz+d5JrGKNLF2rEe8LC9dMezMoDd7W+ZawZIaf9enZs9Avjus+cexoRAJ/9ulnRHDVXSib/HsQsyHf3KZNmSq61heXeMfwocOMCGJhrChxzSKiARfrkeWn+YXnmSXyFG3ouVPKV6zKmg8YF70xwn2xL/ipfes9rEm/0WJxQq8EvnpofaOqNHigGw/0ThC0atB1AMvuMZRbWA+JdMnm/UcLdUbfUCsw72f1OvLP3rS92LREh5YgAke6HAokoB6HDIAjhw+LzA1CLEl8X0QS377lJ9a5Y8ewJF65VkPLJI55XrPlzbonNFi6zRs3YcePmUsFnDXztbAbBK6jfZs2YnPCSQPXffTwoTCBwnw24+WXC3O9fSfBCunl2c3c2n3x+RdEq7TiZkh89OEiYQAZ4KejKbJctUxpgsvl+m9+9HuDX3xBTPoRcmtVT5I2XpracNlkczLG+xX6OiOMwACW3t9OL/SfwhJr0HVgwJEaCwX50kihI8TPejvISXx3BBIHyfW7+27HSRzzABu6EZ94/br1RIqmGUCFEFk2ob58SRTirP7yy0K/+P69oWSMtMA2LVuxrDp1xGkQAV5kK61ds1akOxZX/LLnF3F9hgKcLrlvmdIGRHTdkjQ/JiSelsGt1Yd1Sbxu10FxyRWH7C0qRJsPnmDN0jJgiTW/Z4xwtfisMZE90LCRsL4J8SPxA/v2hiVwDBDd2FGjwvrE7ZJ4ozuGCGkFvbgIgnVbt2wxdV2XL11iPbp3D+tSgXX95pw5hX7xX/jXy0HuGuTh79u7V2weiXQaxAbTrnUbY35xSZ4FJddSR+Tect4kt0v+zGkix2SGuyF602S0aRsSx4Kfu4R/HKmNeG/nSXwsS69Qxa9NmySClmgES4gPYIEe4JZoJBIH0b38/PMioOy0OwXPv7yBzCe4Bz5ZutT0tcEdEs4ixc+eCgpunj931lEXFe6rb8QzGwrZOQ8OH26IxNHxJ8XlcpcpjVAUJQ2BAUeJXOSK99EhcZTex79qE2mNDXoMF4FVvTZypoJbgyeyClVrByxiZAF89+23xK5xJPH9v0Yn8ffmvi1SOB0lcZws+XxCmqKvYCiaSwWaJGaB4qyKYUrRlSQXe3jEiEJ3iqqh8pslsoaFvnXLVlGQNGfWbDZ18mRRxTt44EA2oH9/8RWyAJMmTGAzXnlF5LwveP8Dtm7dOmHhoxjISb96fn6eKN4ymC9+CcJ/ZUorPEker0dSvnbSpVK7bVfdXPGGPUcUmZIh/PFNufX0ey/Maabyg8MFaivXyQ5YxMgEWLVyFbFrvEicW26oWoxG4gvmzw/pHiOyU2o1sEfi909mVeo21iVxpBkildQsThw/wdq2ahXiCoKVetvNndk2fuIrzFA5fswUeUPeAKmHt3XuLLKofAVAegJdvjRZqBlC+gBZNEMGDWavz54jsq6OHzsmrGmrgFwDCrUM6aioqYZjy5RmaH06v3GmgMUlsjb0e20+VKTCV2hMUee2ASzrjvtYo14Pit6fTfuPETnsIOVWPkndQnKPTvDIfAlexChXJsTv+L3vl+gkvnjhQlYxvXwAKagphvWt5Yn7zecazTvqkg1IcMjgwabFo0C2sIKloJQ7ECly39etXVOYoXLogLE+mpAsePP1N1jT7MZhNVP0RNP8lRihbuj7bMhrh1QtAqiw6A8fshYXyrlwgf2wYb2QTzCgo4Lg5qder/dPpZrIZVlO98jyKkdIXK85BP9d476jioGC4V0BLh0EQWt17ivIHYFXqC0KcudWe7OB40UmSjhyh+uoVpvbAtwpmOBPTptG7BpHEt/7y56ogc0vv1gmlBFDSNxAbUPkwrUJ4lRZtUkHrTVe9FxxVOFaKaaBCyNchgpK81d/9VWhSwXVqXoWMIKfEx97TLwGpGVDrO1yyQF6KvDlIyUR9w4ZLrgGqB1CjfLegYNEKu3rc+YIobJv164VZf0oWDvGrXHkqFvBmd9+Yzu2bhGbgTEdFflnj8eTXKa0w5PsqQiJR7skXq1By+gBRDRM7l8cGyYHkbtG8Pic8KejI1HdroOFXx0nicZ9HxXkDsu9boc7A0gciwFl07GS7CQEkXhu7u/SrGGGWrW5RsgZ+Ft2ouy+Rj0TJD5NazOokjc2fahiooG2Xvm9j3R37dxp+vo2btggdHMCNyCJVSpfnn20YAH7ZfdOwxoqUJx86403RIEPis9GPfJo4YC7BwT/5LTp7FW+cbz3zjuicw+ULLdv3y4sazSL8ClVxiq//PjRI2JjmjB2rDFLXJIvuyWpbRlCmTJel6uCnWDn78fTxw00TO5VbNu0Re78c1eAL79Gp7tFVWjVxu1C/ZWdKVc8Xsg1QOI//vC9kDkwT+LqqQt+c5zKcEIT5O3fZLv5zULFU299ILD6xbJlllLubgyTcge/9IvPPVeYoWJEQ6W4QxRuHdgvSPzD998PcYFFcancSwzun7Vi1bXCb3ZG5UzWYuBjkf3IiUziERQSK2e3DdBmAVEg4AO5V0IcSPzKlagk7qvaRCDQnwhVEs9SA5vDggLc909hLTXibtRrpAiI1+jYO+zzr9amq+iZqqehAjKCSp9ZQLwKDTWCSRz/DslQKcZFPMYyU9Scf2xIa1avEvLKRkjcLSnPE3v7W+TJyR6vJC22VPCTjg4/j0b2i5c0EsdxunmnAEussELvwEFi2DiR+K86JI7A3909ewYSIYyOKjWFawTuMcRqEAeBy6zu7YPFKet3xc3I2VTV293J0jKqGCq/h9CZFUwY/1hYEr/z9m7s521b/TRUjiX0s7xy+XLhyQKyAugYZbBl2xfoakbsHVjZmeyW5Y/MluhDS6RxzweiBDeLRo42lpZ4tdZd1AYTfhYXAkHbt20jho3HwgeJ745O4rDs7h0wMITEIVGMLk/Rgt5G3GzpVWvpkridWMmHCxaGaKLjWjq2a8+2/fRjIYkfO5LYlcLnz54NCEg/+tBDRv3iWxVFuZ6YOwiSJP3bI8uv82PiVcP9BA1UbTYf9JhI8ysZJK7qlYv2bn6LGP7P5V98QQwbFxK/HFC5GInEhwwaFIHEe9ieAxmZ9XRJ3E6Gyto1a1Rp2iDLvk2Llmzz9xu1BhHb2cF9+xI6oP7byZMBqaEvPvesUQNyr9vtdhFrhwG/MX93S8p0ozK2IHG9Nm3QMomfpng8Ap49WHqlzIBFDGt8zqxZxLBxPoIXDYn3Yhk16htyp0DhEt2XzAJiWJkhKZISq1urFvtm5Uq2Z5fa5QduJbiXEjOomc8OHzhQKGQGS3zp4sUhmTkRxj4icR0ZW7dLfpDfqDO6JM6PfJB0jUbiLe6dyGr6R/hLwChfvW5ImuHE8Y8RwxYTEgchPDB0aBgSrxLGnWI+LlKhbhNdEgcRoTISHePNAi33WnOrOzC7RhJVjahu9O/yk5OgWVFqltGegI1308YNrFWz5kZcKkTiesguU+YPmoytrjVer2PPqCSOwplaJYzEMzKzQkj80YcfJoaNAy4bJPEQJUP+vFLLVxYNtO2SuOgeZWBtQH3ws08/tURwfXr1EsU4ATEobjTNmjEj4PrPnjltmUSRA44BPRRoqvj+jZEb46baF86fL+wb6p9VdGunTkaCm0TihoKdsvyMIf2UNl2i6qdAhArFMyWHxLklVqthCInf06+fLQ0JgnMkjt9PmTQplMTTK4qYhu0MJQMFP3aEsICHRz4UUn4Pa/yZJ6cHXP9vp04Zej1Y7D9u3iwabU8YP5717tlTVGNiQA8Fuvhdb7218Ge97+rJP8NI9spLL7HPP/tMiLzt3rVLvI4T5I7MmnCNPQYPGEAk7ph/3CWPNlLwU0NHP0W0aLu1f8khcb6IK9ZvERLEatemLTt9+jSxbDFwp+D3zz31VEgv1ZTUDFatbTfbz79qy1uY15OiS+KqENajlq5z3JgxYUl8+uTJhddvJEPl3Llzohrzzm7dRdNlWPNCD0UTuYo4/Jp640QBtU40rQDBP/TgSNEMeuPGjaKq02w1J/4eQdlwz+3xxx4z4k6hwKah/HFJGmCExKtyQmt9/5QoJP5EiSPxyk3aM4/sDlhcdWrWZLt37yaWLSYk/urLLwel6UmiSAfFOjhN2ZkDRgt+QIKQdrVSso52auHUDB958MHfC344iaPLUaQMlb1797J7+vYT9wHiVT5VwnDKhcEkrvipGPr/P7wOdFhA8lUqVBTGy/D7h7KPFy9me/bsMXQahTUf7ErxPbeXwmjBh2kOsV2W5X8RS+u7U27T69FpRKO5JJJ4sCUGEkfJMASBCMWDxN96/XVhQQbXNVRrfZttEodfPdWvw1O0NEOrJzS4PcLlivfp2SvADRFNCGs/t3bRqHvuW28LXXCM116dyZ5+8kn22Ljx3KJ+kN1/7xDWv09f1uOOO4SV3bljJ3bTje1Y21atWavmLYS6YNNG2Sy7QUOhpIiMmwb16omBIrd6teuISkt0uLq9Sxf23DPP6gZzTx4/LlIkwz2312e9ZqDnprQ647qMvxJL61niitICYjN6JK6nR6GS+D0lyif+uyUmB+iKr161mli2mJD4B++9F6Ipjo0XG3CmzQpipCmmGejwIzJUqldnOyxkqKA3JlwY7iDFTFQ1bv1xc+G1qkJYuZbvJ6x4bAIookJAExpAcJFAwwVZMsc54R47epQdOXyEHT58WKRMHjp4kI9DgeOQOtAeLlpuPPTgIzX1EJvvnDkhm29oQxr5vTKlsU2bWaTIcm1+w846Q+L9S1R2SrW2t7MUv4bJvgHfI6F4pBh+vOjDkEYDkEuo0vzmuJG4nQwVKAnWqBaYKy50erjFu+G7bwvdEbjWSxcvJszzu3D+XFhXio/EZ8+cacASVyYSQxtTOczgN+yonqVRsXodkUZYagKbvuN0RuUQXXHoLROKB4l//slSEcgLIHHFLTJL7JI4Cr7SKlU3ROJ4/7ctCGEd5lZto/oNQnLF0RkeYlH+ROhkv81YA4HYcFkpPhJ//plnDDRMlgYSQxuAzOFxyfuNKRmOj6hkWPJSDDX9jCo1A0m8XBLrd3cfoXdNKHoS/2r5F6LYJqD6T1ZY5cbt7JM4Cr6Ceq1GTDNMcrEXnnvO9HXCjx7cBV4E0GvUFFWb/mqGpw2mGRZ5euilS1HFy3BN44Lz+0NHnkeWuxBDGyvBdyEfU4/E07lF2vyeMRHTDEtisY8ovQ7KFRfaFi1bsVMJsqBKMokLadNVq4TVGlzCXalRG0dI3EjpvR0hLBTgIH87mMRxuvh86dIAEj+0f7+QpT175gy3ys+J7I+LF3MKx6VLF8V9g+8c/m9ky+DzxLOrPXDqxAld9cm+vXrr5IlLJxRFqUIMbZzE9+pEiVlaWgZr2ufhiCReEsvuRa54VvMAnzhIvAG0Mg6SJG1MSVyoGOqTOPpRIpsi2KqrVL+lfRI3WHr/ezDyJpGvbQYIMiJbJJjQEKydN3du5HvAr31P0ADh4+8RBEV/0gN7fxWpiYcPHmBHDx8S3XWOHztaOJA9AnEqbAznzp4Rfmw0oIDvXd0MrogTZ+EI2hjCbQ74u2gNrjGg0NipfXs9El8vy/I/iKGNuVP+hXxMfTnatKhytGhvVaIEsHyl1w1ahtXK2LF9OzFtrEl8j74U7ffr17HmjZuEkDgKtZwg8UoNWhkqvfc1OUZmhxEUcCIEWR7hf9+5Y8ewHX6QS623kekObvXuijKC72fwZoA+p76BNMf9fGNAgwecCvw3B1RmnjpxnB05dEj3mX33zTesUf360d0psrwoMzPzj8TQxkj8H0b6cEZXMpwmelPWKEFStIUFP2jTFlSUIFpyfb6MmDaGyDVI4uFatDlJ4uGef6TAZt1atdmvv/4ambi55YrN6fRvpwQBgiyRRtgxjFWK65kwbpx9Eo/JMLYpRApqzn3zDbGGdFqzjSB2Nk7if+Y3bbkhJcMuAyKTuOjs07vEkXi40mssMGhNEGJI4jo9Nn0DJIiilWASrJjlDIlXaWZMP8VXCIYGxCE503l5wocNq9W3MfkID2JQXYJ84j73zLD77ouYppeoAxvX+NGj9YKaF90uV1NiZ4PAkQVHF90jI7dGsjrfHZ7ES1yPTf9c8W4sNS0jwC+OINZYPhEJscNVgyQO/yo64QTL0cKX7QyJdzRE4j4XyPx58wqtbpwmkFEC/RBBxmEsVbRhu7Nbt7AkPmTgoBJF4rgWNLto16aNnitlp6IoErGzcVzDb9w7+pOUHxdv6hGRxNF8tiSSuCj4qFgtRM1w+NBhcY/6lyoSv3pV+GGtkjiyiuyW3ask3omTuMcQieMzTHniCeHrhp/YyCa0c/s21rtHj7Akfk/fviXOCv9g3nshxVkRGiSXJWo2jrIelzzHkBxt264RSbxJv9GOpHQlQnMILLDbOncWpcuE2JH4PhskXr56vZi506KR+P333qv6sQ34h31ulX697w5L4l1vuUW4W0oKiePUAf105NRHyw93S1I3omXzIlivGPH51Wx5c/jsFP6z7LsfKpEEruYKZ4XkimfVqcP2RgliEewB2ht6qWo+n/ItwQ0GUNdQpaa5xsgm9HOikTjyn3cZJHDfgMUdLrCJ7jfoglMSXCqwwhctWBBSXRtm/EyuFCskLknPGZGjzYyiKd7gruEOLJriGdysUKdJSK9NUjOMMYnn5Yl0NiPWXY9u3UNbtFWs5kizZNEwO62C4Vzxju3asS2bN5kiuAH9+oWQuDtZYvVq1w4pvbfih/alDfpSB40M/K2Tm8eOrVuEMqNuIwiXPAcuXmJl0/op8lOGSLzxjRFIfAqr121IiSXxyo3ahk0z/HLFl8S2MSTxAwZIXFiyffqEkDgkZG23aBMxkTtFz05DpfdompyVxb5b840pAhzYr38oifP3QzPhZZ98ItxKPhKORMY+0oWPHacTuJmQuQNL/ttvvmZfLlvGPl60iM1/9132xqxZ7JUXXxT6Jc9Mn86enj5NNNd45YUX2Jtz5nCL+QMhZ/DDhvXidXypgf7Vo2at8FmvvioMHx0r/LI3WWlPjGzNEp9ih8Rb3T+F1e06qMSSeNUWN4s8+eBFNmvma8S2MQKqAlFUYsTSHH7f/UEkKLGUNAe6+/j0cyrXMCyCBXcBiNcM4Q0I407xGQrTnniCfbrkY/bZ0iVi4HuQ8cL357N33nqTzXz5ZUHC40aPZkPvvZf17nEXu6VjJ3EiQOplq2bNWP06dVmNqtVYpYwMUQkK9UBfQwZ8Zt/Az6DGCLKtVT2TtWzajHVq30G0Unttxgy2+qsvBamb2aBwH1auWM4aN2hooJOP8nXqDan/R4xsicSVibZI/L7JrM5tA/ikL4Ek7vOLetNCtDJGjhhBGSoxJHGUjOsFCMM2Sw7o7uN8YDvayEhN4wT7viHJAPwNvvbrHVlHBKSLzjpVK1USGwSsc5Ax3ifd6xUNJUDAvo48IZ17tG49PqI2cg2+v/V1BkKXH9EsvVYtNuiee4RVb4TIfZ3te95xh5FWbPkeWe5HbGxVP8Ulj7FD4i0GQzelT4kNbIbTFccEv+P220VDX4LzwOaI0m69ICGIcPqUyUEE5VyLNhHYzswyTOIg3Q/mzYtI4j63x8Z13wmyf3TkSNExJ2rKnZ+1bIaMzYzgjQDfY6OonZkpuv4M6n8Pm/Hii2zJRx+JKlkjBI7YwNB7h+i2YdNasW1KS06+gdjYKonL8kgjJF49u22oFC3SC/uPLpE54gF+0YwqIWmGHflR06zgEcF5Ep/x0oshRJGSkuYciRtUMsSAq+KN2bMLSdxncftK7Bd/uJCNefRR1qJpU+G28FnJTpOyUcLG93ChIHcbeibdu3RlQwYNYpPGj2fz3nlHuFCgT4PnYDTgib+BBX7f4MHifhi4vny+8Q4jJrZH4vcZapac1UxtlhxgjU9jDXuOKLEEXnikrlYnJEOlTs1abPeuXcS4RUzi7779VogWh1Mt2tTspMaGSRzz4qlp0wSRIcCIoCIChVOfeIJ1vqkjq1apUoCLI57ErVrYasC0dYsW7E5+kpzIyfqdN98UHZIQkEUWibrx7DSdpeLLglmx7HPWo3t3sbEau0ZpPVnh9kn8HiMTAX5hpBk2vmt4AJln3XF/yQxq6ixkEMeyzz8nxi1iEl8wf15on03FI6otHVEyrN/SFFkiIIiills73cwaZWWJHpq+01u8rW6fLxqBTRDrxHHjRGAU5e9Iz/RluthJKfSdNn7a9AN75cUXWHZQpyKdkeNxKXcSC8eJxAvTt1LLs+qNWrPsHsNEM4g6XQaWbEscuuL1W4RdIOj6TShqEp8v/LfBWj+OdPcxoWToPy/8fcvxJm5//3z7tm3Z9MmT2ReffSqs7F9277SdA+4vVyukZdesYTNfeVlkxcCwMUHg8IXPgggfsbDd7BSX0sfcBJFUMk9JZ1UbtGTVWt2qWuIl1S8Oa6xRG6RAhWSojHrkEWLcIiRxkMnSjz5ilTMqhHb3adDKERIPl2Ja3AfuRevmLUQqIsg7IKfcj8gjjXC56L4KWVjxyz79RMQiHh4xgjXNzha+bzPkrQld/agoShoxsBPFPrLcgd/UXEsTBvmlnlRWPrMen+ydC9PySkOuuOi32aePkE0lOE/ihw8cMETiCL7VzqwRkqFSsW5TBwwLpJh2EYHSGBPvJT4OuyX5B7dLXsm//5KPJXzM5dfyKqqq+e+e5IbENPWr9KymeXQyovtTcYv7cnOHm9gD9w8V1vKCefNEcBXFPPDXI0sGRT0YCGCu/3ataHn3xWefiTJ5nHKg//3U1KkiUAkXUZsWLVlmlarC5+3z71u43sP8GloT+zqEFFmuGm0yGCXzFG+qUI+rCsu8hJF5uDRDTF74P48fP06sGwMSP3LooC6J+9L1mmU3DiQTKBnWbOjIHKzerjtLTa9oOLhpYFzh4wgn4U/dkvICJ+YHuFXaClZpUlLS//DxF4yMjIz/p1OCfi3/f08bCWhigNThYkEmCrpTNahbjzVtlM3ncFMxj9EhKbtBA9GzFCRdIT1d/D2yV/xfxwEX0RmvJPUm5nUQ6eXK/S+/sRudmaBqjm6F2o1YtdZdSnSaoa80evOmzcS6McDRw4cNiUmhihD+2BAlw2p1nJMjrlDVLonD0t4I0kZpeYoklQdR2127aZKk8NfdYNbV4kszDDdimY8OY9Ety/2zy2T/gZjXWRiTozXjM8dxjluuEI8S5c+J7i/vEKor7gserebHT4LzgCa3UUXAcPop6ZUyxXNzovQ+rVJ1qyR+0ivJr8FlCWOpTAzEnfhrt0R3+ATw1W9xu9w34gRBlBub0vtB/CYXOPvQ1Emfml5JpGlVvzGxyTxc+TWslTfmzCHGjQFOHD9miMThUkEXnBAlQ249W1IyxBzV5ilOYMg3D7eB61ne3OqemSLLtTW3SCxxjdslP6i5aYojeR/hG9mLsiynE9PGMriZnOzhN3tPTB6imPwKS8uozCo1bC0WRsKROdIM6zUN8In7MlRGDBtOGioxwKkTJ0RTXiMiSw8OG2aexH1kXUjYPYT0bJXmnfizbiaC9XgN0RTCRIqhZsAcwJqK1/q94YYb/oOvsQma26aoSTuPj7P8Hqz2StLDHpcrk6zveLlUJGlYTHdzkLnsFkdT5N6KBZYoZB4hXxjE0a1LV9JQiQHQn9KIKwXpb6iIDPDhgsS50VBoMIh51qvQNQYXH7KpqjS9iVVq0FJ0AoK1nZpe4fcsJJdkxw9+0JPk8cZzAVe+/vr/5Gu4Iz8BTFeDpvK32Ewg8Rpb0pauiuuV5DXIpnFLUi+cQLjl/Q+i1ThDnQTKtJgfy5CWqLiFxGflJh0SI8dctOq6NaRVFwJBrVu0ZCdPniTWdRhnTp82TOJzZs4UucoBAfbUDJWouWWNnHFkTsG6Tq+cKZpfC7KW3YGE7Vwwb5uiKNcXlUHm9Xr/xMff3EnuFKTyoRZEldcQ6/sDPr7hY4fIkpHkM+gwrzPO8XGMv9Yujazf4d+PR6EgJ+1OcJVkXJfxVwpYFhMi1/xrx2J+7AKZ84VUvlpttUS6WJO5f6uu0AyVH77/nljXYZw7e9YwiS/64IPQpgP81ASpiMJGxwFEHdsqSq+kvJ+ZmfnH4rjGQbRpaWn/JUnSv0G+7mR3zRRFaeiV5UYRhyTV9bpcFVKTksphcyD3SPHHtR6XK8sjy+9pO3CcyLyOON6KjIJiSOaiVVd6+FZdb7/1FrGuw7hw/ryh8nD4xL/8YpnQBymqEvcQ9wK3fIlGCEUOBEu8itICVkVcUpj8LfPmnYofmUfo8oLg5vgxY4l1HcbFnBzDzQegwNewXpbV6kGH57H8ocvl+m9iEEKxAVKkcJyCDwx6B5qPLPZkXpWTedMOxSibpZfwq4Yj8cEDBoq+kATncOnSJUNtzkDi0PNAOXgRkzgCiO+43W4XsQah2GawIFgjtFZkeZ4WkS6IbQDUI4o2RDYLGt8WJZkjzTCreYg/FcTRqnkLduLECWJeB3Hl8mXdNme+gYYL6Cup2009NgNGzRp+Yr0bvmaiCUJCAEEbBDrcLnkI8kH5OB/z1MQKVYUkbGHvxHgTOtQMG7YOW8aM4OamTZuIeR0EhMX27tltiMRRet+xXft4kji3uqWf+JiKKkRKpyMkNDCBIeDDJ/ZCLV2JxbJoSJTz126kqibGM6OFv0+VZh1/z3YIahDx5fIVxLwO4ipI/Jc9hkgcEqkh+ikGW5SZbSTsyz7RUgivIQYglCQy/zO3TBqrOiyxDIRKhS240qvU5NZxG6EyGHvrPHyaoc+l8vyzzxHzOk3ie4yR+M7t20RX9Ugk7k/acAFWr1yloGmjRvn39OmTP2XSpIJnpk8XBUMN6tbLN+ZXVwbRiieU6EAot1JqcTJ/OeZZLcLVolrnaGgrfOc3dler82JA6KqaYeWwwc1+d/dhV69eJfZ1isT5vdxn0BLfvfNnNvieASEkDs1rdP2B9GqHtjcWDL7nnoKnpk3NX/bppwUb131X4GsArLUoK+jTq1euAWs+h8/rJrTSCSUeKCpQkpUGEAKKfYqi9LvvnJNsRs0GIudciG4FiRrFQs0QC//mm25i58+fJ/Z1CMj22b/3V0MkjiwWdJnxJ2BY3/Vq1b4y9403rn75xReiB6R/9/ng9EX8bNzo0bkGLPGjXpcrg1Y4oVRZ5l5ZruOR5VdsN58wap1rmS2paRVEqTUCkqJZhZAmDdLSMKtmWC28mmGdGjXZrp07iX0dQn5+Pju4fx/bbUDJEMSMzu3+BCyadjRrdmXL5k1X0ZJML+ccr/H6rNfyUt0evYyrffykKdHKJpRKyxwlvNxqfiMuZB4kYoTOQyjWQceXytk3iqYVquslVNEuapph3aZhy7ZT3G728eLFxL4OQbRoO3jQkBwtCPipadMCgpMg8Rtbtbq6ZdOmfCNFQ3iNhe+/X5CRmqZL4pQLTij1ljnK+oVYviSfim81nfS7H92bJtpuodwf0qMIkFZpfrMaJPVvJuBP8B17s8pN2v8unBQU3Jw5Ywaxr4M4duSwYRJ/5cUXhA/c38XVvk3b/K0/bs436pL5avkXeTWrVc/TyVQhEicQfJY5slm8kvJW3CzziJa6lvHi9gr1u/RK1UUTiIwaWaxC7WwhV1q5cXtB8pWz24btfg7SGHbf/cINQHAGRhtDgMTfmD07QMkQz6ND2xtB4gVGSBzW+pbNm/I73HjjVZ3gJrlTCAR/CNlMtax/hiaNWVDEAkaBinc+q4xbefCzqxKmSlhLvEXTZuzY0aPEvg7ht1MnDSsZzn/3XdEuL9ASb3PVqCXuI/IRw4bl6ZD4MRS60colEMJY5tzCqeKW5Cf5Qjlc9GRubuAIXimjAtu4YSOxr0Mwoym+YP78ABLHptq2VatcBDaNkjhe5+np0wt03Ck5iO3QiiUQIgAl/e4kdyWPpEzUhOvzEoXIcZxf8vHHxL4O4awpEp8XQuItmza79OMP3+caCWz6Xue9uW9f5a+TH+U553tdSndaqQSCPsrKHG5Z7u+RpPXFpH9g1IFj+PixJEvrGImfOWOLxJs2apSzaeOGy0ZJXJO1zW9YLysver64NJ6WJ4FgAqk3pP6fW5JuRg8/FFvAGiquJN696+3Uc9MhGG0M4XOnoDrTn8QbZmVd+H7dOsMkrolpFXRq3yE/ml8c2inUioxAsOhqURSlssclj3BL8g98XChOJA7iaN6kKTtKwU1HcOniRUOa4iDxjxYsCGjRhq9ZtWtfWrd2Ta4ZEuej4L7Bg6NnqMjyKjRNoRVJINhwtcA6h3qiW1Ke5wtrc3Fwt4A4KqSls1UrVxIDO4ArV65wgt5tKMf7k48XsyoVKgaQeN2atfLWfr063wyJY0OY+coreSmKuyAKie/0eDzJtAwJBOd85//yynJLtZu38rWm1VJQVNb467PnEAM7oZ8CEaxfYOOvtAAAK5BJREFUfzFE4l989inLrFIlmMTZmtWrmFkSX/zhwgJu1UfLUrmI+UZLj0CIAaFnXJfxV4/LlQmXC0r8vZK8iS+6s3zkxssv/vDIkaJsnOCAfso+ff0UkPjKFctZreqZtkkcf7tu7Zr8RvUbRJWl9UrSAFpuBELscY3X670uRZZr8yPwTZzUH+NfF8GnqXZmkY9p7bX0AqUF2iZwxYgl3rpFS3b8+HFiYQf0Uw7t369btQniBVnXrVUrmMQL+M8LTPrEoU9e0KtHj6jBTbjxaHkRCEUABEcRlPJ4PP/0JHsqul2upm5J6uZxKYM9kvKomp8uTeHH5SdEc2hJeQD9E/nftOH/foSPq3p+8coZFdj3G6noxxESP2CMxIM73uM51KxWPfebVSsvmSVxWPYjhw/Pj165Ka2nrvYEQoIBmhkiqKVjjacobrZwwQJiYQdw9PAhQyS+cd13rGmj7AASr1Kh4sUVyz4/ayTDJdgvPufVV6/qyNIecie5U2hVEAgJBKGNLkmLjfjFH3qQ/OJO4KQBESyQ+KaNG1irZs0DNMUzUtMuLV28+JxZEsffr1qxIq9W9cxoioa5qF2gVUEgJBjQX1Ev8wUkftvNnVlOTg6xsF39lN9+MxSMROeedq1bB3T3SfN4cxfMn3cWlrUZEtcUDQvatW5ToONSmUorgkBIMEDBTqsajeoXr1urNtu1axexsE2cP3fOaKUl69S+QwCJe2Ul9805s0+aJXGMn7dtLejRrVt0RUOX/CFOZ7QqCIQEgtvt/ruai67vF1+08ENi4ThVbW7f8hPr0vmW4D6bV19+/vlTVkgc7/nY2LFXlWRXtFPXPk+Sx0urgkBINCJ3yaON+MWffvJJYmGbyL1yhe3ds9uI5czu7NYtgMQ5AedPffzxE5zEC8ySOIh/7ptv5Kd5vNFIPM8jy7fRiiAQEs2lkqy05wv4sh6Jd+vSlfziNnE1N5eT+B5d0kXw8+6ePQNInH9fMOqhh45aJfFFCxbkV0hLjxr/cMvySFoRBEKCAWX+WrFQ1KKf+nXqsv379xMTx6H0HmNgv34hJD7svvuQnVJgxZ3y9cqv8mrXqHE1apMIWV5EfnECIcGQnZ39B7ckzddzqUAadcXy5cTEdgp+8vMNV20OGTgwmMTZkEGDTFdsFmaobNqU3651m6tRtcVleWdacvINtCoIhETzi0tSL71yfZDI2NFjiIltwkjXe5XEB4WQ+L0DB+ZbIXHNRVPQt3dvnZ6b0gm0FaQVQSAkGoknu2vyRXxaj8S73HILu3jxIjGxDZw6ecKQ5RyOxPv36XOO/y7PComL1xwU+Jrh2rV5XMqdtCIIhARDWlraf/EFvFwvX7we8sV37iQmtlPwY6DXZiQS796163FuUedaIXFNQ+WKDokzSCDTiiAQEhBeWX5Izy/ulRW28IMPiIlt4JyBXpsg8aH3Dgkh8Y7t2p3asXXLFSskjgyV6VOmILAZPUNFUmbSaiAQEhAeSWqtSdlGdak8MWkSMbENXMzJ0dUEh9X8yMiRwXnirEWTpqe3bN6UY5XEX5sx4xLfiHWkipUvkpKS/kIrgkBINEvc671OazoRlcQ7tu8gOrcTrEG0adMp+AHhThw/LkAAC99n1a175vv163KsBDfxmvPffScv3ZsS1RLnc2C7JEn/phVBICQervVKylt6fvHamTXIL24nVzwvjx3Y+6su4T41dSrzz+nG97WqZ+as/Xr1BSskDut+8cKFuRXS0vJ03GbHvC5XBi0HAiEB4Zak20X5tY6Oyrtz5xIbW80VN9DhByT+8gsviBhEQIOOChUsaYr7NWC+VLF8+dyoBT+SfM4rSXVpNRAICQjkCPNFfDwaiUvlktjAe+5heVfziJEtkviRQwd1SfzNObMhPxtccHX540WLzlkl8c+WLrlUqXyGHolf8khSY1oNBEICAgEtvUYR8M22admKnTx5khjZIk6eOB61YTJIfMH8eaJK1v/ep7o9V9+bO/esFSVD/B+DJH6RSJxASGBwEh+q5xevkJbOVq1cSWxsNc3w7BkDro+P0ZKNBRKudHXWjBmnzZA4Xov/ff6ObVtz5rw282R6Skqujk/8LJpx00ogEBIUKYrSEAtZzxp/5aWXiI1jlGYI4l25fDmaIwcHN/Off+bpS9FIHK+rEXfBrh3b4UM/NPWJxw/e1K7dvioVKuTodXLiG8UBb3Kyh1YCgZCgkGX5H16X/J1eqmGvHnexS5cuESNbwGV+36L5tUHEa1avYnVr1grJUHl6+nShSY6/8SNsQdr8+8s/bfrh/JfLlx2fPnnyr927dj1aOaPCCb7p5mHj1XGj+MY3Xq/3b7QSCITERVm3pDyvZ4ln1anL9u3dR4xsAVd1JGmjkfgTEyac3/bTj8e/X7/uyNrVqw98suTjPa/Peu3Ak1OmnL53wICfmzZsdLhKhYoX+DMSJfYGidvfEn+VlgCBkOh+cZfSji/oK9EWOzInFn/0ETGyxQyVwwcPRMxQAYl/t+Yb1qBePRYsHVutUuVTWXXq7KtVPfMgJ+tj/Dmc5kR9CZ1/oDluwuIOR+BXPbLcg1YAgZDgcCe5U/ii3quXajhm1ChiZKsZKsePRyXxTRs3sFbNm4eQOAjaf1gj64hjI5qE0AogEBIf1/IFPVfPL96pw03s9OnTxMgWcOb0b7rNkm/t1Inpqw46M9ySfIFkaAmEkuRSoVTDmOL8uXO6fTb79u4dLxK/7JXlsdSajUAoUX5xVwZf3Af1ApwvvvACMbIVIazLl1m0VEFknTw0YkQ8SDwHBE7KhQRCCYMsy392u+TP9Fwq3bvezi5cuECsbBL5Qghrb9QKyyenTImF3/v3Lj6StN4jy13wrGnGEwglEB5JGa7nUqlToybbvWsXsbIVIawDkYWwhH7K7NkotXfcdeKW5G/dsnxfalJSOZrlBEKJJnGpnl71JpT25r79NrGyBRw/djQqiUM/pXxKql3SLlBFreQdXkmexcm7q8vl+m+a3QRC6XCp/IMft1fppRoOv3+osCwJzmmogMQ/WriAVUwvb9alAjfJCbhKOGF/5HHJI/j3TTweTzJ/pNfQrCYQSp81PlUvuNm0UTY7cOAAsbJZDZWLkTVUENhctWKFaMJhgMQPcSv7bbckP8k33btSZLkqNuDMzMw/0gwmEEo53C53MzQK0GsU8eHChcTKJpF75YrQQYlc8LORtW7eIqTgJ0KpfFmarQQCIZTE3e6/IxCml6UyZtRocqmYCWzm54vO99HSDHdu38Z63nGnbpoht8JfpJlKIBCiuFSUaXoulRZNmrLjx44ROxvISoEULbr76PXKxO+HDBxIJE4gEOxBcSnN1Y4vkVMNEYBbvWoVsXRk9hbSvceOHFZlaKN09vH3i4955BFddwqROIFAiE7iinI9xJH0XCqTJkwksg5jeYO8kU4oXCcGyNs/Q2XWq68ayBWXZtAsJRAI0V0qsvyMHonf0qkTO3PmDDG3j7wvXhSWt5WemD5LfNmnn7DqlatEzVBxS9L87DLZf6BZSiAQIpO4JLUWSndRXCqVMjLY+nXrSnc5fX4+y7lwgR09fEiQ9y4Tlnc4n/jar1ezrNp19FwqX91www3/QbOUQCBEJnGP55/cGv9Rr9gEWSqHDx1iubm5pYq88/Ly2NnTp0UpvQhY2iBvfxL/adMPrEPbG/WCm9tIB5xAIBiwxpUJeiSOnPEmDRuxu3v1YnNmzWYb1q9nJ0+eLJHph6q/+yI7deI427/3V5V8HSDvoIbH7IGhQ/VI/Lg7yV2JZiiBQIgKt8tdX09LxZdyKJdLEt9XKp/B2rVpyx4a8SCbPWsW2/LTT+zE8eOiz2SiEjdOGWfPnGaHDx6M2vDYKmnj39+vX8c+W7qETZ44kd+/NnpVmxdTFKUhzVACgRAV6ILOCWOFqY4xnHxA6pJG6plVqrLmTZqyIYMGs3fnvsO+XbuW7du3j125cqVYkzc2nZwL59mxI0fY3j17Chs3WCVsf9LG91s2b2LLPv2UvTlnDhvBLW/k3VerVLnw/unc5ytuSWpLM5RAIBhwqUiP2GoDppES3ANQQER3oIb1sljvu3qy0Y8+yl6bOVMQ+/59+4Ub5moR+dZhcYO4L5w/z04cOyrcJXrFOXoWts/K/vGH70U3+48XfcimT57MhgwcxDp16MA3uCqiATXuj9mGx5CWpdlJIBB0oShKFfhgndS49pE6rHWR5VI+Q2RkoFFw/z592ZPTprOlHy8R5A53zLFjx0TutdN+duEq4ScCEDcs7n2/7BEkHGxx+yzpYIsaA9/7yH7bTz+yb7/5mi1ZtIjNf/dd9vzTT7P7Bg1i7Vq3ZnVr1WKVMyoUpmdi2GgAUeCR5X40OwkEgi6QyuaVpMUxbdqrWes+NwwIDgUvGdxqR850s8ZN2B23d2MPPvCAsN6nTp4iNM1XLF/Ofty8me3bu5cdOnhIZMmcOHGCneekDHcNMkiCiR8aJmiVhsbFx48eERa3j4x9w0fkO7ZuYVt/3Mw2bdjAvlvzjbCmv1m1UrhB3n/vXfbyCy+wcaNHs/sHD2YD+vZjnTt2FKcMbEo+XXBci8/Kdqxrj0vej3Z6NDsJBIIxl4os3+aRpKvx6MIezR0DgveRPH6X7k0RfuR63IpvUK8ea5hVn7Vs1px16nAT69H9Djagf3/2wNBhbMyoUWzShAnsiYmT2KTHJrBJ48er47HH2MRx49iEsePY2EdHsUdGPigyQwYPGMD69OrFunfpyjq2a89fs5l4/bo1a7E6NWuKjQUkDfeQ77P5hlm3iLWhTCtDKoYEAsGES0VCbnJRkLgZK943fITqI30f8QuSTXKF/H3w/wse/j5rRy1qK0OW16VJkkKzkkAgmIJbUqYXRxIvZeNnryzXodlIIBDMW+PJSgNOIqeJSIuOwKEuSTORQCBYQsZ1GX+FBConk5NEqHEdeQgs81GdZiGBQLAFr9f7J3eyu6ZHkoZxcvmEj8NFFfAsBSMf1rdHUh5ISkr6H5p9BALBUSD10O12p6JRr8clv8QJZ62REn0a+pa3W5J/QJGVFsCkLBQCgRBzlEW3dfjN3bLcX2iRy/I65DNzMjpPxKw3+D2S5Z18vO51Kd3TkpNvoClFIBCKlNRdLtd/c2KXvbKc7ZGU4W5JeR7NDDhpbVb96qXODZPHxzl+3Qf41w18fIAYg9slP8jvUSMQd2Zm5h9p6hAIhGILdKNJvSH1/7ySVI1bnLdyq/0ePkZyYnuVj2Wc2LbysVcjut/4uKz5hosbIRdom1AO/3pCPXHI+/jYrRH0J5ygX+PkPJZf60CUyPPrvYX/bT1vcrIHGxx15iEQCCXKck9KSvoLenu63W4XfMGc6TK9itIC7gVY8pwIJ3Nr/gWRISN88NIbnCwXcKL8nP/+a/7v9bDy+e+38+938e9/FcSqunSwKRwUX1XC5RuFvEe4MPjGwf/PJuH+kaTVYjOR5UX8Z2+jlyXeT1jMeG+X/Dg+Cyfm3vx3HXHKgK43Thz43KlJSeVA0AgAlyFfNoFAIEQnflizIMzK11//n/DJw8pHxxu4JjweTzIqTbEhpLhcbljA+N5HuN5y3iT8HTaO9HLl/pf/7O/a6/xZc2tcQ7eYQCAQCAQCgUAgEAgEAoFAIBAIBAKBQCAQCAQCgUAgEAgEAoFAIBAIBAKBQCAQCAQCgUAgEAgEAoFAIBAIBAKBQCAQCAQCgUAgEAgEAoFAIBAIBAKBQCAQCAQCgUAgEAgEAoFAIBAIBAKBQCAQCAQCgUCwgrKZmZl/TEpK+ovb7f67x+P5J74vAdd1jdfr/RMGvqfHTCAQih2ys7P/IMvynzlR/Y2P67zlvEmciFO9klTd7XLX98pyI21kuyWprUeWu/DRzyMpD/Ax0S0pz3sk6Q2PS/7QI8kr+O/WeSV5O//7J0DsCXhLrk2RpPJuWe7Jr+tVfk2f8Gv7VHwvyz3wOyJ0AoFQLFD5+uv/k5PwdEG+kryWk9SP/OsePg5zIj7lluQL/PuLfuMKH/l8MANjI7fG/yeR7keKy+Xm9+Bp/tkPRrjOPE7o+90ueVJqUlI5mkEEAqFIAZIF2RokZbPj+woJROIpitIQn9ngtXGCl1anyHJVmkUEAoFIvIjhdbkyOCn/ZP4apdUyB80kAoFQJLjhhhv+wy3LIz2y/Aofi9yS/Asnp9zSROK4B15Jftvqdbol5QX+MtfSbCJERFpa2n8piiK53W5XUQ2Px5OsRegJJRQZGRn/D1alW5Ju5oT+Orcyz5cGEkfAln/WMzau87hXkurSDCJEBF9QdyGYwifLviIcP/PJXoeeRukhdG6h36cFM0syiZflVviLdk8dfG3cT7OGEJnEXcrgGPkszYyLSDOjp1F6gMwVbjy8W5JJHKmVWmaOzfUhzaAZQyASJxS/uSdJTWy4VYo9iaMgiX/Or2xb4pLyfnaZ7D/QjCGE99m5XBU8kjKBT5alHlneyb/+xkdBjEk7H3nC/OteLe1qLrda0ulplC64XK7/5s9+DVniusHNmTRbCIYmXFpy8g3uZHcNryQN5cT+MZ9A55wlb2mXyFRwyX1FxZ7b7UIaGlkZpdoaf7Uk+8SRXeLAuhlGM4VgGiI9zOVuxifQMicsc7ck/6AoShW6s4SAk6D1wF9CZKdoRT6nKTuFUGRA+S+3yr+2TeKyfB/dTUJpI3Eh2iVJb1pfO8q0MpQnTrC90GT5fpskfsbjcmXRnSSUNhIHIPjFT7TrLVzjctJQITgzCV2upjZzendIkvRvupOE0kjiADdiMjXXpAGBL+kqVBtB/jRDCM6QeLK7hh2/Hvzh6eXK/S/dSUJpJXFxrV7vdW6X/KCm5hhOfuAKvx+b+N8MkWX5HzQ7CA5bESL1kEicQCRuD2U5Qf/L61Lu4GT+DLe4XxKDf++W5a5oeIG/oZlBIBInEIkTCAQicQKROIFAJE4kTiASJxCIxAlE4kTiBAKROIFInEAgEicSJxCJEwhE4nFHZmbmHyG6hS4zUHCEngsflVFY4S3nTeJf/16CBbmuQQobv95akP6FNo7XpbTzJivtFZfSXPws2V1De1ZxSXMjEi9ZwNoRncJc7vroasRHS8wvzDNID2OOeZI9FdFRrBh+/Gu9Xu/fUCXLryENvIBm1fi8KS6XG3n+EAo0sjZwfVhrGFrOf9GmjSYwiZdF8wGhmOiSh2iKcgs0+Vt0FDrGx0k+uU7wr4f52O11yd/xrx8gdxf9ISFgBMnUMs7qV5TFZoIJAW0NDAiO4WEjhzhNkhQxcWS5NojWLUmd+GfpCf0ZvgjG8s/4lCA//hlBvnrvJRoWy/Jt/P+8xq9tMx9ntQrcS1rRCcZl7Wen1ebG0qt84d2CSZ3IJC6aT0hSPZCHwyMbZBXpnoPM/J8vBu6ltrCTIb2MdYX5xZ/xjfwZ386f7z2Yc/y1n+Bz9Xktf3wy5oOVDVtriVf4GXAvMBegVupNTvbAgMG94e/Rij/rWz0upY9HUoar0tTSc+L9JWWaAZnoa0SbRUkZxF/rPawjvuYvaPPpst8cu6T9DOvuK36N08W9LKLWjHhfYbxJUm9+vc9CEluVRpZ2qXwgeOGk+Lyi+5n0E+eRz1TlTWUif2ZtsF6xloPnnLbWtvGv2/n/nV3k7ScTjcTFw+EWJb/ho/mkWgUlOBtKjCC8jSrZSE0yrsv4q5XPJPqJ4vNgsqDHpEv+ENoYWtOAr7TPuUF76Pu1iX5WnfjS1YifX5YXYbGGe0+QjLoohW7HZSvNOvj4ki/wzrGahLEmcWyG/PoP+BGIU+MKX/wP+95HbJSS8oBWwDNbGAJqmb14vvzZr+Tr4Fv+/RatYfQRbU3l4LWiluNzcjV0L2W5Dt/gH8c9RXNm/vkWa3rm6hyTlK+xFrW+AQc1A+a8NjfydES4wpI3f49q4pol+eforxFx/IYOTzBY8HrxMOxgVUMOW/RQUNdantVmNnxsFYYhf0aaSuu10IkK7KuqfA1iJxI3St6S1JZPqnla0wlHm1to1sVSPvE7miU1cYy0pz8TaYF9oR3xAo6FoiExtxyMaXUYuW7pudQbUv8v0UgcR2LNonK8uQkn5jGFm3SSO4X/7FBM3odb6IbWqSQNi8X74xmFcxcICQHnrvkIuowFW7VOAvpNmmG304l1EdzoRhiLouWg6MXg/7uNSUXt+ksAEr9GWN6q5OdZnc+DXXeLeuxTpmlHxi800jd6TedgbZnpRhQ7EpeW+ZM4juyYqCavx+Akld5wejLGmsRVBUHhQsp1+H5cgYuuNJK48A9LylvO31PpPBrSRDpZ2vF1w2XF1/w6E1b3FfXEJGS4tZOMvEFzrxSYvH/b4XYhEo9sff9Nm7xGFtBx/rePaPKePh83tCz+7FWUFhbkQjfDZ23kc4oAiXqc/SXwqOUcieO61I1MuF9i0lYPPlonF1msSRy+aUE6COCiY5VwYwn3itkjdIHmfljNn+MonPj8RaoQFOcb9efaa18sEhKX5S4Q0NJcBJdiQeJwe2hxo5i0bsSpD/Efp+YXYk1wc5kwas6o7jCpI5IftDiCiCngeQsxQLUv8QoTz3kfXotIPFwEGO3kVOs715j1rNwZLUqMo7fwSZu5PiwYWb7JkDXgdv8di131mUnPOWO5Scu0AJbM/70k1k2thWtFlm9L1OwUbHiadb7A4PtcggXHCXoc/L94hpF8rQiAi+cgy60QmNTmUn68SDww80ppx9fGfCdaLPpIHD53zUUX68bpO5zouQuXp9Y/+IrB9z2MjdCIkSKMR84n4lSv/7pHUySpPJF4mEBhGN9TNLJ71oi/jS/UgaYtWU7k0Fw37QJCGhYsJ5skrkkFr4jixz+kWWcnbQRx/N9ztVPPs6hSDPlzHqDz+gg4LkFsQXMhmU0RK4vAssgmsunaMkri4UiMk3l328aCS34ZmRha8DKcL/iMegIRp5AzzrRzVKbbDHSW5YTcT3uOhtwnmBOmeQhuNOGajcoZp8GhROKBk/M6/roLTXyGbUbTtISlzP/eArGtt5IKpiQrDfj/32tjgYGcdwT9/LLqGhKpYo0x0WCdiZQykUYmCP+KjUV2CRkrCUziZfl9mRrJZQR3AWRhrWYiBW/WWobQ1XiTuN+G1dume2W3loIbbBx8ia5fqDuAywrzX7PWHzFooUYbh5BZZPWa4fYxt3lJ661yFNwsamwt4jPOQSopkbjfcZjvfE+b2+2l8SYzScZZtB5esBJdt/p+Efy2G7jV1C2a9QiXADIr7PhuOfnOKuNAAUNRkLjWqepImNfci7RBp4NQyOrhr722qEhcFJ5I8idOBXRxAoa7JtomJ2odJPkdG1Z5gRXL2OdW4qQ6x9T7cWu6jI1aELhXtLlcED5IKrUhEi/8LMIPlWMm4g23hblF7m5m0XL5DZa1BUupuubqYLasY0l+DW4mw75hFJRYf7+tiEkkGom7k901w1iJcDF9gudQJkaVdZp1WiQkrr6/8oADbrQTOFUYLQDTTrXfWH6/KDUQOi6OSmZdSFg7DnkIloTNiHMwjpTQJI4yeS3H08z7b8TNNeXisJFbzIlxptkdXfXv23CpiA1HGYUIuslTTTr/v3ssv6cst0okElczhES1rv/iPYWUzFjXMWg+5StFR+JSE5tZM/uQsWHWTy26FVl33VnKr9YKecy+1xInsq7U4jJRABS0SUi9Sz2JI1VMLXe1dOwvY5LEr7fmFxfjV/igTREZNFvU1EMr75eLEuAwBT/G/LVmj52BllK/RCFx+G1VOYGAubEJ+cPZZcrEXCsHsQmrfmknSFz1VevWUEQ8YUKCwcr7qpWslq3x4zCoLNzrZy2cMnZ5kjxeR561LN8VvHE58QwTnsSFxoMVl4MsTzb7XkJvQy2Dt+aXVlMZTZG4DYv4S03bxaqFeLvVjBX/YpfiTOJqIZj8Q2BGhfKxE2lspYLEXfJLtvzF1p/xZbOnPZFW6JI/tZoR44Q1jpiTWtlNJO6PazVBGQsBOOVuS4ERc9kvwbv61HiROIKpdp4toubWj9nmAsZFQeKIhwTlNl/hxPAKTltxXUOJTeL32rx2q5Wk+UiRNEugNoqRcmD0ORHYxsnF/3mXehIXgQo1lc6039aAyl8kcnnN8vW65JVm0tOKksQRzLOex2xus4o3iWsB6p8DUy+VR4tCjCixSVwZbDMe0MlqiqVZI8wmifvy3tciFVer7LaUq665ZDdobpXLVjNtSgyJW03BAzmhyi7O5IJxEFWBiUDidjQ/tIKMYkniqn51SLD4EtIvi2QNlWIS14KqlyyeAvqa9MH/BS5GB1Ipc9X6C2kqXDr+EgsGURZBTk1TPRvyw6WWxLUc1+VWyRS6yfEmcaH/YCKtsShJXOTzWjvlFFcSv0ZoY0femDZD8J9IPH4krhW05cSDxMXzV8W5nJQBuCiEsGT5aVTwYs2YzQQrchQlidt878MQtkKlIvKDuVVeV51Q3DJQhfDbiaMehINcyh1IA+ILpr8YLnmlnYcO1cJEIHGpZJH4tVpmwHEdYpgDYSQi8RJJ4khrHBlDXZfL2npZgmpVVIbGey4lHInb8ach60J1qQif72lNDChHW0xaxxHx2nkOa48nDImXFEscwWhky2jPWTdWwudVLyLxkknimivtUgyJPMBlC/0iGICaD70skXjo5B8fj4fh9PGLSDx+JI6jrWZ9nTOx+LZTimHJJHGk3Go64PFc87lqkY/0iObCLUsk/vvx+D0icSLxcCSOxarqRQsxq0sWCOLdeDXsJRKPH4mL+y3LPWyKvNnRL9qBZ+bU3EJ6zLWJSuJC7CqCxKqJasavNcnaJXEcC5EWSSQeUxLfAItHq86zulivxCt/l0g8viSu6n2jVVqRGXJw1y6AVIhp0lYJQeqIpHU0S8WFqAL1Um8cH600vC0qEtfShb6ycSOhc1wPGxkqseI5zByniMQtzalf1EbAtrsY/aoJXxGJlyASF/E0kT5ruluX02MzEiqMWq3/0JTKdkSwTPJEtoYkv8Z3h4zSQeLSeXTRKe6BYyJxy8dWZ4LRLvlDO9IFROLFk8T9rntDURK5aPyip40OSVAD3SUCdwcTPtsEtsQvO6G0RyReLEm8kMy1BgU2CF26Ch3xWAajiMSLhsQ1Azddc6nmFyGZL4joI9d0oV+wMHF/Mtr3rahIXLSXEs1nrZfQmtVeIBJPOBL/RJM73W3zdQ5rrjci8RJG4hqXXOd2yZP4ax4rIhKPXC0M/7dmiVixQF410onGLonjOGOhbBUoa0sqVb3GR4jESySJwz04V8vNdaIFGQjjU3ThIRIveSSu4VqtfdyrVue8LbcKN0hDrHEE0LyS8r6dPnZGSpC1RrynbbzPV1armviFP2Sz4erzROIlksS3+etRYH6JQL69hZaPtnWxcKsQiRcLEhcQvQlE8wZlouinatsdZ1yOAxXkgTdHFbo/adPdcIf+QpPqmimkCDPmlrGoBqZVX+XaaFwwDw+NSLzEkfjG4LJ7iI4F6YZbGcfQg5NIPCFJ/Fq4YOFiNqoLjpMX4oNQtxSNny0rehr2DAwLWgDK3fZfVJmoa4lb7zlp2xrWeiKesXGNPxe5ghiReCxIPKwAltbkIsfmulhhtqUfkXjRk7hq8ClfiOGSZ5vUjC8rTnP8PuE0xu/5R2ozbdsprOF6eZb1t5CHOkDi03SJVJK62YvsKoOsTgC1hFZeY+MacyB4RSReOkhcFIi55JftZrzwxfxEGQcK5YjE40fiuE/+MRMI2dkIhP4JqdgwCjSX9WGHLPFlAQqI/AePOUDig/QnoDLKTodsNKi1uQCetbX7ueTH48jJZYnEi47ExWuKSk55s11hoxD/JZF4IpE4XKmrnAhUwzUDDtOyW2ySubQa1aSOkbjo9J3srqnnZ7JZvrrGbiEF3w3bisIdG9kxHo/nnzG3qCWpGp9I95nt0E0k7nxTCL6Ab7LphhMdmiRJ+jeReIK4U9QMpQDZDYe7zF+D4kEb/XcxlgckedjoXecbS/XaiOH3NrpVYwKOtL0Tqp9huY3rzLPbJ1B3oqrtmJaK4hNZ/oi0U4qWxEWfVFl+xrYPUz3FXUskngCWuBoPCXb7brHaGCYSUlwutw0+mhswn/gk7WdHV8SbrLQ3sLtVt54gLx3g5FbZEUtGFfvPtXHq2CRzxILA0bNRK7gqCOogU5lIvGhIvPDa+N/ZJPLfcBIkEi/+JK6evkIDkZhjVjSjdN6rlRXvAD/djQ7zQpYmRi76VhpJvdOE9q2m9z1dxmJqYTBQ8Wm3d14sHiaORpqvLFiv5hujXbOps0/sut3zed7BMnn9nt/7ra+oKFFJHB1oSrw7RZZbauqBofnZBlKpzUBoVcnyOtMB8+AKcu0Iv9G81oQy04jWrSqqZU27BKL7UBFz8sahv51N33gO3DtGc0j1AN83NqowBH5EcSnNzbhToMqXeJa4/GRRkriR2AOeNVJcbeuz8I3aSHVzybTE7bki40XiKYrSMMr77EZdjVNcZFHXaXdYTuSTY4pJ5bd3jAb50MLK4sS76HBAQZ2I3IqG9Wcn3VGtzpLGW5QB+P2zuFwZ/PU+0Mq/A1MaZbmfmSwVt9vtCtOZ3eBmqbxl57TjSfJ4rXa75/dxhu1jqfV0wC1G57F6jdJPNon8LFoF2iDx1tZ1z6XxDrhzmqgNfy1lsI1y4BRyMdYbmFb8eCaKZ2CdmViV8yQuPReWFzSf9REjLhRY4EaLGCCOJUqbLVSB8oX5Uqy6QWPhQvTIfislqJpJjZFXbOb9kWmjFllJu8Jeu6RMM2vpqyXAFuMOfGLayf6xI6mA7A073Uu0hWD1WR41I7ivGSSXbaaHrbcaV4FLwsZ7r7Wb4QVr2oZb9BVbJ2hVoCwv1tpHaIhuoIL9KyNSIwbdu2biLQej6dajhdlkvQ4m2M2NLjjNMlxqUeN5rtV+miat4LUOJN+fgZY0JjiCkPB74h5px2bRFQk+b/i2MUE4aT2o9e67EiEDZraVxWZTHwaNL1rbW2CWq9JOu13uG60TiyvLRpkzXBwPmoldYG46ISlqlshVt6S0zE67P61wxdKJS7v2hTbefxskDWwEAZ+2o4Bq1C2rSs4aMmi/19aM5awjbhS0Me4iwvpSHo36/ISeeJSgn5YPXsPAZysrdjOX/KkFQZgCbYL/q0wcACvMISLXLGjphBZcXMMn3SKx4GV5ntYe7mft9wWRH5I0w2x+uAiKqlbKQZuffwuC3GZPAFr2xje23tsl7+cWxkA+byQTLqRrNWXMr2xe90FUEwcUT+ifOg7Z9Y+DBPDctGDnNTrW4fWo/rSl/6NlycCtgWdmxlUHgwpa6Q4oPH6ouSJMbSSqZId0wFb1rBCpkjrpGYfYXI3Hd6QTMALMrlnNyP27CeHBAgizGXLfwpKM1sECraxA0OEyUoRmAEpMXfJotKuy5Gfmu61JrQL7rpUkj5c/3PlF1BC1MIiJyWDklIPNlk/q+rCqRBWq2CxtBWoDrGJ1YimjEKUPdyIQgVhJqgc/oxbs2+iMepuw5H9WZYOVCUjJ899Q1EkvVedzpItGaO84sHEVWqnQykA+NwLfIJooipllcSJ16H2viOC9JL2JojuvS+mMew6ShYCWqOGQ5VdUQS7H9Dfy+WvuhFsUrw/hJv95J4K43GJGpSl/FiPw/loGRa5D778P2h/IWEOgNIzRcA02cwT1kUDA/3YW/o9TetziWlzyy3htrWNXwGaGTTWCmzOyi9klr8S8MXqCRvGXmk5s6Jnm4nRuqtBQEHn0aqJDWGjw6WLSoSM0Ug21xgtHLAQMQQBbNGvoT2WKAKIhqqQMt7nbW7XeV/N7l23EOsHmqS4+EeCJtewlJvxd4fyy8ZHdlH7yn7iaP/q002JCETaTw9Eyg0Q6p/nUMEOWHY7oIAXN6i2IwxwMcKXB18t/ttW+799YpgWMqIBMIFGUJzroxMGoUj4O3kS0eNmW4IC0np9cWxNrsT6wOcHYQrwGr48aEPwbQVNuiAzQDGUj/v1j/LXGwoApY8HUd2lW1lkd8s2zMdEKhKOeWz/a8a6oURYl71q62tHYkzf6mCoPmDl5CA1jNZslLptMuKi+XW12E2Or/72xGdQzXwPhUtpFd8Upd9h2L4TTWlFlk7fF81pR4BIUID8erxMofNABJ01+KnDQxanb0SnYcNTE8jYG1zIgxVE7MZ3Q4bx8TXJ7h+ZG/UTblH/W+NSIkXsS76U1R77WjnX6J+F4V327OQ7euDz+mj/iyAyfdHHT6UZAUs3WUabhqOtwTz1sehtwlDPrlywkcdEHVUyi3NgObpGqaY7BGQojtOuI5fvnCfEpP0scPvM4vK9v5OgFWzWyWejcZxIngKN4X014K27X6l91rcWJDmmfJ7bzyyXvD87yUO+rtFpbd7G87gK4h4Mt8TASISd92lDgRDUOI/Sm1jq8ieN5b+NG7VPCYnfSK6GWg0ttkfKnkdoZc9a3mAzHQNzwA0GbwG7lWrwscxG0k+W7NBfGVs1ddMXkaeOM8LHJ8uuotLIphlQWgTUsOiz2WA5YhFqgMSSGgN/F+r3hYvKfyHgWsX5f33tjvhs5IUH/wqnPpF1zSwT1xbXH8Vr9EwlAovCHx+MZw2UVrLskXIYud/2Yvz9fQ6hADXZjCqKW5aeFn5sPeArCESpiQ7h34vcu+Tst2G2G1C9raoabBbfykx08IGVi2Gi7THY2twI9nmQ1UqxM0CzCT4RVrUZzj2luiF9RYiysFJc8GxYUiEcjr2vLJCAwseDTgrsFMQBRLMSvHwFRTfh9uRZH+BK7O36utvlSHkWACmToVIUngUCILVD3gcA2hoF1W1bkeyd7KiLbCBXIGjd+wDeBz3y8AP+7SKAQvKFMRwwQSSLaBmqJF/8/6m5r8bVchtQAAAAASUVORK5CYII=;" vertex="1" parent="1"><mxGeometry x="232.5" y="323.27" width="85" height="138.44" as="geometry"/></mxCell><mxCell id="63" style="edgeStyle=none;rounded=0;orthogonalLoop=1;jettySize=auto;html=1;exitX=0;exitY=0.5;exitDx=0;exitDy=0;startArrow=none;startFill=0;" edge="1" parent="1" source="36" target="4"><mxGeometry relative="1" as="geometry"/></mxCell><mxCell id="36" value="" style="shape=image;verticalLabelPosition=bottom;labelBackgroundColor=#ffffff;verticalAlign=top;aspect=fixed;imageAspect=0;image=data:image/png,iVBORw0KGgoAAAANSUhEUgAAAlgAAAIICAMAAACFNmAZAAAABGdBTUEAALGPC/xhBQAAAAFzUkdCAK7OHOkAAAAfdEVYdFNvZnR3YXJlAE1hY3JvbWVkaWEgRmlyZXdvcmtzIDi1aNJ4AAAACXBIWXMAAAsSAAALEgHS3X78AAACrFBMVEVMaXFtsz9tsz9tsz9tsz9tsz9tsz9tsz9tsz9tsz9tsz9tsz9tsz9tsz9tsz9tsz9tsz9tsz9tsz9tsz9tsz9tsz9tsz9tsz9tsz9tsz9tsz9tsz9tsz9tsz9tsz9tsz9tsz9tsz9tsz9tsz9utEBtsz9tsz9tsz9tsz9tsz9tsz9tsz9tsz9tsz9tsz9tsz9tsz9tsz9tsz9tsz9tsz9tsz9tsz9tsz9tsz9tsz9tsz9tsz9tsz9tsz9tsz9ssz5tsz9tsz9tsz5tsz9tsz9tsz9tsz9tsz9tsz9tsz9tsz9tsz9tsz9tsz9tsz9tsz9tsz9tsz9tsz9tsz9tsz9tsz9tsz9tsz9tsz9tsz9tsz9tsz9tsz9osDhtsz9tsz9tsz9tsz/u9un2+vO93amSxnDg7tU1lQBnsDev1pZtsz////9rsjxssj1psTlssz5osThtsz5mrzVqsTv8/ftutEBkrjO32aBxtURqsjxssj50t0iCvlv///77/flnsDfb7M9grC5vtEHu9+jW6sn+/v13uEzw+Otqsjv6/Pjr9eXz+e6ezX+Yyne626Xe7tT2+vN+vFVmsDaSxm/K5Lmn0Yt1t0rF4bO93aiBvlljrjJhrS+OxWpytkaVyHS526LJ47iz2Jrj8NmHwWKdzH38/vy83Kb3+/T0+fHs9uZ6ulC12Z2KwmVcqijo8+HM5byGwF+gzoLW6si/3qt8u1OQxW2Mw2fh8Nhztkeq05Dk8tx/vVeUyHLD4LCTx3F7ulGRxm5erCzc7dGiz4Ws1JLU6cbq9OOp0o2l0Imj0IZirjHa7M5wtUPG4rTS6MSt1JOv1ZV4uU7a682ay3rm8t6Ev13H4rXo8uDg79ZYqCOJwmTO5r/B363R58L3+/X5+/bY68yx1piy15nQ58EgjLiCAAAAanRSTlMAMN/P7xBggEC/nyCPUK9w/PgB7HryGgYL1rTahhJ1xP0KK7EY7t1Hgz6qi/oNu1oVfkSjAgj0NGojxlTKvldkmMLpTXLROWFBqOOmKJQlzTvUZ+ZtuOScp0kUro4tHBZdMqiF8lrINvXU9ALZWQAAIABJREFUeNrs3ftfTekeB3CMUcPMVCRKEoahiTAj9yLjMsYMc3CMY6aZ8+v32Tft2qXSroYoRYXQRYxKJKlccsk9hnHQiOMyRy7/yFm7cp3ae68unu8an/ePrdbrtV/7+3k961nPfi7dugEAAAAAAAAAAAAAAAAAAAAAAAAAAAAAAAAAAAAAAAAAAAAAAAAAAAAAAAAAAAAAAAAAAAAAAAAAAAAAAAAAAAAAAAAAOG/w4vmuo0d7uihG+U1b7Oo6wasvvhVop77hs/1cApbNCaZWjRwb4Ok3t88X+KLA+SZqxfivBrmTU+YE+AaF4ysDB4a6en4c5k8qjVjpsmIwHo/QuoGLfee4U7u95zthDL5EeMMnQT7B1FEeM+YNxlcJL0wZ1ZGm6jWBizyHoUcPCi/P76hT+Xv7fouv9V03e0YgdYFFQUPx3b6z+i4c1Y+6Sr+Zk/ANv5MmThviTl3Jf9an+JbfOWOWjqQu5z5o6UB81e+SwePD6O3o/9lPTn2in5aiKpo3YPICenuCXZwYN+3bK/B9FEbbhoZ609sV7OnwQ3071WPeRNRGy132EG93eut6hAyw/7F6UeDHaLI0bP50ksJ/+lx74/FTfJT/WYjyaFWf70ka995T2v5g82z/4YffsDVqck+SKditrV7UsA9s1328UCJNNlc+JNv0f7f+0fyaL/+IImnQl2EkX+Co1jrxK3o0X/XEaKrWfLHQJ5BYmNH9r59uecu1qei+a22MISiMuFgS+uanCx3x/Np8lEpTwlcSI+7LXn/7GzyDyBR/xaRc+gzvhVri6k2s+I90fXVM60MiQ0xJqVG5MmQYqqUdP7sTN4F+L7vpQQuIknaJ0gxaRfQRyqUVfb8hjmaOa/l8Y6YTRRypEKnbo5Q2axQKphEDviaefFrG4QM8SH/thBCiNEX56yw8C7Vh4SziqodteulEt2Cia8fuKcF69FuMjigINdOCCT2Ir3+GdOs2qafSc6cKJVci8kaKWXkvRNE08BgM6UechQWNsS08Ky8Tze7ojHgWasBAt0DiLdg2kdWScbklWFdqVlO/EBSOe66+JC3Q5dxryZWoOmJSXhdROebDDKGayBUZq8QLeyOIxmLuDG9+2ogVbU99GayyOAMtwXsha27aeA7WRL+SK1G1MwLvhchVx5lznojXHM1TnoUDUD62eo3QRHsVVfl6rsRNMpP3aNSPq2k9NNFe0Yk3ciUeZkWQB34v5GqutxZypbekJ7wZrNIzSUSzUEGevKZqIle529aJvziRpydvrKngOTDq466JXD0RrXh4JIJGeKKIDA2dGayBXMVaNrWWK5F2TnkW+qCKDNsrNy20V0ZT7ZpWgyW2lRMNwiYO/EzQQq4o5Vlx67kStbEGCvsZZxFw86MGBhqMyQf3i7YkHrZQ8HLs583thfBz/rnaUHPlUZu5Eqm/2Z6FCBYzk/nnylS/Q9hTfZ+o5yQki5XZ/dnn6tqxk3ZzJW7kmCjYD5vEcxI+nP1j0HCr2H6uRMOWXHIf8i9UkxFf7rmyZt0QjiTcUjpZhNl+jHw6iHmuLBfXC8cqlE4WBWHuDB8reccqaueNYidyJS7UG15ZKA3SjffgvWaiMEE4JS0jgsgbx4exGcJaxDhWq5PT1wsnJRQmKXd0R0WZ+IZvg6U3H6wSzvvD1nvvhV91eFg4km2uIo78R6hxMkundLI+QU1Z+Jprg2VOKWlUlSuxP0PpvWO2HwsDRjPdpSHqQHSmUKmxxKrciSUVHLw/luM2DcZVWZsShHpVymshhaKqDBqsaf4MJ4mu3luxTrTH5Rzl9h+wz6184fy2V9tAlSdFO60/F7UK+9xysIJbrAzxT34R7VZ6KcpIIyagrrIxOCTntQ57ffrjBNEBkc+S9UTzUFjZRnNqq3Iq6xpFB6XZguWLwko2biafVF18nCo6LnOn8iwMwNQZ2Q0WjzGsuC2bjieITvGoKEZPiyahtHJJ32JNH5VVVL15neg0qYVxOgqehtJK1Xw6qSwFDy6WrN0oOldknW1nbqy0l6uXlLU2d7YUPd1R1ZnN1CvWrD9rIPoBtZXqLZyVo4vL37JlS/6lwuiykmcXEn9PEF3Ntn/ySqyokNp1/65ruk1Kk7QpuvpxYtVGIUFljA69979V1z32+p2ipxV1UtL0ij05ZpwlINfyThyGSrm9416k4GC7bUXFUlRXnu7TOylVNRm1aYKNzaesRB+ivPK4dcLMUSOdulkXKTg5FJ9N1Bvllad3xx+ABZVdNGrQEQctRD6YkiWN7QT4jq16j68uFQydsRrJez4KLMuKji2rN59OXCMzPsVtToi/GWOmkbNRYFlcOtDF0sWkN8h9BmY2tHnJdl6Thx8KLMuy9i9Ovl7UIPt5t7+izUsPs5TeuwsKLEl4e9fV6035mxkMKpTYD9ZXqLCsLlY71z+bcv5k0EG//Gdi2wsqDuYSrUSFJfFr3ylfebf3sxhePyrsB2vWOJRYjs/bs57QWLCbxbjV/otX7Fw9l4dgyTOnHbGKOvZfHkNVd/Mf27makUTk7YoSS+GlfhRLV3MigUeuUncdEw6ChYEsSYap7rtbT/3OZWy9NmaPvcvbTDpagIPH5Zisdn2O5fBxLrla/yDrV3vXo2MM5IG1hXJ4qnwpzMtv4JIrcev+VYFgMfW9uh90kk7zmXF14ZR5N4LFlbqzVPNOX+YzeyHjfob9bUOqc0xEw1FjKZao2gr08D0+uaqtL7d/VpNYG28h+gA1Zh+sDQWJfHL1y87zdy4gWFx1D1Pz8+BjPrladyb5voMGC8GSyFXFaINhdwKbXDWWFVjrExGsv0Gw9DFP9vFpsO7FUZLDA1AQLA0ES598lE97JQ6dJT05nA2GYMnj1tPZ/lVW2ho+Hfd0K1n3ZCJYfLk4eVKvqb6a0fqbHeeJchyPqCFY7IMVa93FKFe7TTpj1I5GBEv7wYo49T8+uao6G2GM2unEMSgIFvdg6UyX+OSq4WgebUjZmoBgaT9YefmH+AQrvZx0MZXO/CeCxTxY+qQnfHJ1NVdP2fFOBf3ugWwEi3Owrj3YzCZX26LMZIgrc+p/bdNmECzGwSrn08MqTFGykndOOB8sTJthG6yIA3VcfnmOzjETWeLXOh8sTPST4yMnZiafv5rJI1ep22t0yitq9h4n/7/SEotgSeLEb4X687t55Gpfoa4p50XOnuBkW/7VH2cIcA0Wl2mj67bqmsdq1woVwcK6QrbBSrrE4km4pjrb2DT0scPZO5r2bkCwJHE8Nbl8K4sGKzpX3/QgvJKpKlhYYs81WOazLJ6EN6815cr6wPljopv2x8KmIJJMddjFKvpFfqyKrza3V7HJKqbdbz9rRbCkcbhg1RL9SP44w+2IplxR9nYV01htm9tiRz9ZfB2NkCbJX5pTes4U27R9UvJNNe8Rt3U6BEsah5uCmH6V/TqYtne1sWlA7fouVY2n7QAB7Josy9wFDuaOxkueMZNaW6Br3u5t9WFVp5A3HXnS8x8osRyO9sfS7ZLbd98XveH5W8SdjarurLCdhImTKaRxsFWkbttGmbm6fNr6PFfxa9XdajuvkMZ6ocKSDHdwSEChzGWqf+yNaPkc2Qfuqrw336j0+ANQYJ6vhavMWyWuU60lw/Pl/bGbVN7beMR2L84rlCZkAddgFV+06J/vc2NVm6vIuhTlSRgcigLLYv/IE4nBOr7X8mLmTu5T1S+Tt2xzt9B3l2gGy2CllqUYXv4OXqj6/sydUUaiZX1QX2n+z96Z/0Vxn3GcPWdmT/Rl1EBojEeiYqyIVzwaNUbjmca0r4S8rK+kdycIBCVcoglGFrwxAYxRIHK8IlhFKyooxGqC2HglHm1TW43+I3WXa3Z3rp1j57vwef+8zDDP8/nez/N8XQQKq+j4oeKC/n/iYFvkF20eKfYPo+vgXkInWcYI68H9w9y9/+bIA8L2Nfs7LBbbowbinEuasPae2crZ+r+Wq2DDw3cx5wOWTUQwlpEsJ0tYRTX56dz7Va6UKdFmYOI/GdujRjKCKGHtrTvILU9Z2azkIfu+DPR5SKQwlElvkHOks6+ieKMGZbnOVvo7vXjEuxvLSmKEda8pKzhVVmHmWe3f/X/+7Fj41lBSyAib2fLt3cBSbkBXpx8re9Lxi4EjxiVwrbGkmUUuvWyK1qVM7Z35IRnYt30KH/X448Am2HS41liSJosl2EcnSWfHrtKCkKJcl5XqynfyY/8D5q6Caw1mjoiwDv4tCsvCfW35pSHL0cxbiid3tfsDfd+vRsGzBvPe64amfzU8OpcV+tq8G4pvMy/r/qv/CbMwdTceSuSik7vtuqqqyPeIc9zcu2IoPrS3QfETa3tk+jZ2R43nFbEU+xs6ymr72frglWAgajXvapnyRz6oD+w1sEvhVuNZv9KYoiCnuKeC/beZn1ZVN6mmwN8Bxr8xDW4lALcBZYz+d/1uNk85rq0XVG1wtB/7R2CG9fJMeJUA1iwSVta/dbnt5EhFZQbfZZsZP21X9dzb2YFti+eT4FQSGLVWZCys92mtqp3364oL+N619bzKeqdVTYHB1ZoyA04lAqdwfmFpdoe2quqo3ijwqpwKlRr2be4ZXRNtcCkZjF4yRrjLunBUu63Q2s7D+QIhOjl3TzWofHx1cSCWawICZogh6XlBZeXvz9Xo3KbxzLV0wY6xsnmT2gyM3MKex7+KJApyZlnvWnW9S2fLw+7z4VtWA+E5mdVdql/xn5yeiduwifAnQQjHvm/48KQqjxf988AhtkC0vFvLKQ2CT/t0u+gdeJMg0oTTdbIqaxS7u+uzyyUZEjW4Sg5ocNLdXt47eRuGQCyy8Ijskm5WVH+t68Cu8/50GVEyM65osZ9xpG5/7wPHvQhfEsXSp4Wdn9/SFeFl43cO3P4+Q84tmxVdWiwMeoOw/Jvuy+BKwkgWufikuFV+t7Lpu8b6yo1yrtjML/xmx3YtdLVtd5+u2GQ4kjRsU0USwXI2yzrD2/nZlRZZmvKH5BRWaBRR39X6Rd9DEyfBkcSxTOwysIImifswH3xUs6spi5VLVsmXWmUAtR8bSEZE5SISEa0QUlpZJbQzvuXsgV11xZmsfLJ/1O4WxL2cMInl6+FFAnlvvugNc9kVPHVfjp+42cJuYCOisu1sg2a66uAsEp5CfB+ZvCsuiP3fV3En6e0dbdWH0yPTFJueV/34qyLNZLXtah5H1cigIJRRyRJ13/PrTviXcZuO37u6uTjCfsrf6eUfu65lbnXD43Lu41eOhwsJZRUjtZ/Jlt+qb7kWuab84VYte7SN7dp2OZ0zsRtjXgMHEsv0eFYXNuTdvq91JllVSdAi1PoaBkKCB8O1OoiK/bztVJnGqnr/XxezgvpNRGGRTZJL2z4rvfLinqPva86O3ZnBy4YxqfAd2bw4XzNlZRbXdT/UIUd/0w+380JXo1MRjkw4w0c+Hb5F0HorN3dP2+mtEagq6+srJ3SprlVWWxceMvG6CZ4jnqXmkHCsm33T7ksXSmWtBwvY1tyz+uQjHm0r4TmMfPMXcFsMMG9FUGQyp3xDQ1VlqdT4l3O+4p5O6dM7r/+Yz6tsBPfFBt6BCPgvQqLRH4qeM28s7GzcoVNVmiNVx3IE+ksKLosR+utHbi2/FHLgXCsYv5dRcvU7ncpp+TpONgnHorqwgRUzrOurNhOWruo7wxvHkLP5kYYny9y5+p2qy1+LdpMLp8FfscMzPTGe5y6FxcicCDt4zs+rrt22XQdJ/feny2fypJYLCUgjjCXGpwpV9PMVBgmr9Fr1DW0HwLIfLnU0du8ulxc1mIASa7HFO6v9GX83w0OwygoHsuQ/uHbxyQrQ98mpxtya3a2fdrae5szA0gurP+3hUP2e3ADNjTf2fsTDpW8bm3Nz93R3dp4piSgQZ8oCbIzGGraJ/MVtucI6V3F19+ks1jDifw1dxaCy1sVnd/tEhWUw8SvhpVhk5sI/XwhL+yu6cy6dEF2NWQ0fxSgvL/4krMZjTd4GQoSF6h+xy5/+EtplbWvKIURXOMeJZX7zx+ANKl93KRmyWuGGc2J7Q+u3XF199c2HZOgKcTKxz+8eDGQRXjhIhq5SsS06CPjD73uCi9tPsmSMg/FLRsMrg4GlicWt1eU5mYTM2hPHotz2ICHprSmkbIqy8W+jtNrgYcYLiYToajEqqw0unkuNJ0FXCUh3HnS4zYbLasocuGEQYlttsK7GvQQnDE5+OdfIxeAriG0ftMycM8sgWT01AncQDmrWJw8zQFazFmKPYbAzfHxq1HutcTgZHBKMnBxVWS1Aje0hw0ueqMlq7gsw91Bi9rionN9Mno1zwaHGmtUrxugrqwnPjBwOOw9BZsybr+M5z6v252DiIYtz4mJ9Dm+Wz4Zxh3i35Z6q+fZDwhxckwri4pLWarhIHLZg7TSYFPRpa95bE7Q4uJmchi12EMKqlGdVDYrzkyfhmBnwMnr6xKlWJT2VZ8R0iAqIM9KdsvxN+ZmnjOvniLMCsvuusfOSU5lEkSSMxQkrRyxLQyIXUMQo02tp3olUSkpywiLm2QTXCIqifpY2aRJWfgAAAAAAAAAAAAAAAAAAAAAAAAAAAAAAAAAAAAAAAAAAAAAAAAAAAAAAAAAAAAAAAAAAAAAAAAAAAAAA6TgpxsKaGZcbpgDaYWL6r0Ux22EOoBFU0I07jA0WAVrgCLnLyQJlAc37q4CyYBSgGprn/jkKZgFqYfhuNnTCLkDlgpD3ykx0WUAlLl5hmWEYoMNIyLJYGAJ1CFwfTcMyAMICEBYYIlj4hWWCZYAqHLy6ssIwQB12XmF5YBigDpsVUyygBxSPrhiYBegwfbdi6g7U4wwbDBFECrTAFNxnWaEroNEEnnsSzWAcBNoNhw5z7z4D1oNAY23RNI3OCgAAAAAAAAAAAAAAAAAAAAAAAAAARAcnTdspivLSNCKhpKBpqg87LauEl4msUCDaSzFMfyQ4wziefEckWvEG/tjskKhtTVMec3BQMOOyKyh5RjssgT/2OkVexVhYsR+5A8+wOITDkp0U8+S/tXjsooVonG7Kw1g4lqO1qeEWZiv/t1DiXrF7ev8NOwm1c2iXQNK52eGVJX5unK9ZUFo2u8cq8J4Ia63THIM7bGIGFv6Re+AZVi+/YAbKHVldtoi+yexQ6VhhW7FW4cbL+SYRP0RLVQ6hL+j9Do9kj2IKblgO/h+Jv8fqkt/MXRKJW07KKpnd5ZAsmmwPeojZJC3fkMxqt34+oZzSdhHwQ5Swm1kZWLxiXjeFWoHni2hG+i2MTE84xEVj4y3NEPIji2Q5bruUNG2UVeKDFF5MYLfIcInDKWkXA5UlT1Y97U/QSLbwh7iEBxVxT8iRljdcNFwjC7nbItK2ecpx01LS9FrlfJBdN59YKZuUXYxKlqTly0pssHJJ1kGg5L+EkVwxOK1i6fEm4dZOiakmtLYtT2sJSsI3WeR+UGQTeZqRbyszLWUXqxEzeJuLjRie/jfOybIa+aC3t7NFNhAGCdkr5oeBZ/B5L9gJvG3BrqSpRJILG6lPXBLt24hK0CYzq4Tw1E5KooiZ3RrhK8yinRZ/pRiPyOwqvBvlL8cdtDQ0izUXGxNZc9RpCPEP4AMt3UpGJeiI3S24creIjzsK+sWwKVrQipr/TwL+lugaKfG2wJ1lmcTqKkfYBcu+AopSYKr+iR9NRpVCO6uckIW3gC3j5PQhCjxBCfZGUroaqKzGCItTfEileRfBMjoWGcqyeRSZyuoWtYs7dnQVsjxyignLZtFGvFJTrIDLJccnRkJYJkn5Usp0JecKKMWm6p35UZIrlijgZtVhiRNfYMkdm+SKlwsjZEDpgURKWLQcYZmUzSGk5lkmq3J32EkRlpqPCNsfERMWo1W3KENYJjYqwlLcVrw6uoQmQ1gq+hGexYaIsByq3iGgLCFhyRCxSwNhKW8rJv2aut9UBAjLxarHKUNYlMp38CtLwLOeSPpZ5cJSYTuRaZbNrNZUNgKEZdJAVxwfCArLrb5ftMkXVkStQbGw1IztwoOhBkOIhQBhMVoIyyspLPUTOf5Grvzfd8T9v70zS3AbhMGwbXa83TP3P0An02kni0ECZGwT/e9txuJDCCFEMVilbiVpo5uW+jscLEtiJA3+f4LiZyZKsMaDwQoNsib5z8XRYEWCEbl8VwtbbTw0fJYY1JBmOrB0dzRY2y6LwrUnw0yvMfjV03Os3OtYsZnKBks4Z77Adblj4Qic30FgbY8yzrU7/7fu3Tt5TrBCx/+bNQX9NACHI2lgLY+FzuPsEZuhhQas5xKDo8Aa8g4IhXma8/26nBCs7fkhgwUF2wXFNgMssVEFbuG41RKA9VoTRwaWM/PfMVdWTwjXM6Oqy15Wko1SJbUOJwNLpSfv1HtJ45S+GQgV8IH1vUMhWIN/v9dCA9bbRZjRQMPtU0LerSmRXGhaC6w547jhrazRJ+8yYyVW45KU/kkCK1CrTwHW9kwB6pVl4h59GUurbGqBZbBLfwQtk5y+mADaZUL8jgcrfO+nHCw55xW/JC3sEqh5wdSF1QJryRj3p2BreB0tGCwJl7ELvG2wYIUXEQKwxJi+Pdoa56jxBFyk508DlsNMo+D4b92IB8FC2CdeDzjkgOVV+uEDGqzofx5NeDp8hIUpDoSTq7XAon9aFAJL4MpyPS61iQQLcJKFYEFv/MZ8Fi6piLebPglYt9pgCewFJI88MsSABdWYl4EFf1LEEfXIOhO03fRngoW/2BY74u/TwAJvxRSBJeGLgkriMlmSwG7Aqn0oWNN+YCVcEomkCqcksOB7fEVgrUVuxIC5n1S7xVNhh4JVdF/WJuSgcnJsr+G7K+eqCCyB+pYBM0c8DQ7RMsFDwSpqHmHxe6D8qdfjwcK43xKwcHGDxphElsGLGoJjwSohK/ZVif3HwqHJhAZr6fYFSxR+isN46NSgdzlpHgvMzGSClfxRmOGMgzWoncHCNmLw8Ko+FU0OZNri0Mw7dJqXCVZ66BZ2WQoJVt/tDBb2m2Y4kSWIHH105T70rBBx4JkDliH882YcWKbbGSy0M1EgWIooMo27rFpgRfdwWa+5h//HjNVVwUGWSyykowULv80VEFgWX7RVkF6uVugHlLesigysrA3BAs5il1RHRw1WXzzU4E9IUodRDSywqnVJbPdLOvEQoYkjyG7kg1W+qoMjkZeuHo4GC3GNVCa1kraUEy/sUUcEWHZ3sES5ocG1Mq/x0HQ0WB2uohXvtyxtamyBoHHFEVbJTejyCQdOIdrguR5Y6OuRC+7BCFuY8EGuICsMlt4frIkOrJFuTxjjtOIV+4QGFPH27nEDjjvNPEewCy3pj1U60nu5GHc4WGk3TME10ZJ69OB4LCBYS3cpsGbSECsYZJ24jZH0fQZYjtihOhAsfS2wDNE54T+tx4PVJffrEDoZrOxjbZcLlmoDLOKFqCpYGf2Ywk93UH/QAmz0HUGpCYN1HrKCaFF/EGRwR5BXPDFY+R3/zwBWXg85YRPAmmuDNV8MLE8cm54DrMzG/lstaSxtDJoN1ngxsFybYGW+ebLR1/8sYHUM1jnAQr8hCGzqTwKWY7DOAtbzC8JoeRxYmsHKCt6bACvphdUQWSfZFZpGwMpON4ynAusLLVdI1knyWB8Plj0ZWODr8tAyZ4tP7kgy782AlXtdaj4dWPdmkIlP5fXnOyu8HFgr8VmhOSFYyWwNMFjU1Q2+NbAsVHhGE0IcDda3M/XoUN7AYGW+GZtbj9UMWJ7W058BrHu8teLOeiT8gEBmvmHNrCC9HFgdwWE6vCk8C1j3vxC1KBoQrIXUo4M179cDS5JG7/r0YN0DrhncKA4gWJm3dEBzNwOWI3X1yxXA+p4BgN+aIbBo7xXKrjmwJkpXr25XAev+zkLMbU0gWFkGChVduPbA0jfCtXC9EFhdtAJCgGDl3NMJtpsx7YHV3wjXwuFaYHUqfPECBivjmzS8rjYDVjCczCginW8XA+uLGwls0yj7Y4UnnmoQrGAUm558F9cDK/gAKAxWensLDS68LYG1Ir620G5nBisUCxgYrNTsu8JECu2ANd6IoqxIW/kzgxUwMgYsQfFDL4S2A1Z4AUsMIqbbNcEas8FK+6wedejdEFjhN3eSUjXz7aJgbc8sFFgpcWikD/7UJljjjWIx7OVlwXL5YEl8mBVJ9Y9tghVrIoe2G3BFtNrTvcud78Hb4nHQKLCQjde76OtfrmsULF0+I6Grx3XA6n8t6sbCcbA4sKKPkeK4Qr1XeEmwYr3KcGSBV9qrgPW0GktTZiIsWDgLeWS9amNgmUK7wa9C1wDr9d027GMUc+aRzn8LgZGoil4V0u2CpaKBN1ilPMPXYGqA9W5OZ7OHYcCD9bV7VnnHRltHZ02BBbxiGbebwnTQqwDWZpoIgdYcz7SgOk/GnBbUn0S3DJaKXzOQEaeFa75RAawA327OSpOsSWCF22spA9hHdC2DBTaxDtkNe4fdHLES/vvbY72RQ8vUmAjW9s/MHvxntm2w4Bdj5fQWxfcT+o5xBbBif4sLsBVcpuCa903vM82/UUOvMVewp65xsHpMJLEY+zNAyq5Lys31CmClDDroT9YssP5C/C2kJ3/Pr7YGFhC/l6oCWIihlG4ys/3WalxsYoz5YCXJds2D1bmLg0X59z9c17WVzdIeWEpWnZnkWgn/3BEGSxD8zNJ9Algkc1OKw8BSuzis8Fs65fNQqM8AC/9wVqQa4jiw6KLEpwLHYLeZvvhnxu5DwEp9hWYriwyvLftJEIE1Y/x48TwMHMI2CVbny2y1BosGq1TNqIV8IYz2x9I7cNUoWGVk+eAwyK6OZoINiOiwYJWQFSwaaRSskkDFdzs0Ya7utF4j6mhHP031K79aEMvzFcHKt5WJfJLvqskOpFwBrSJ1nouM1IsYgt2PA8fclOMLnYVhj/vhuD2CcdW7FGvBeuhV3h/rAAADbElEQVRUlwRWnrViFW6BiZ10E28CxzzwVX0xvbGLXSojhy1tpLapTrYhoVQFfyQMN7dNt5bo09NxaVdjZ/jjZKK7wSakNe2c/zfR/ZHZhmK0NmuZ4a7JidaCvLdPHy/cuWkP/krSwjKCKcCtf+SybBU6FZJddan0106mTaMg2nGnWGsZcwYstY2GBheprYMDgpvvMJoJDxz93rTSCWdiFcL4pNyJD4w4qs871lqoInxTFvsEAqBXatbCnefm1SyBQRM55R/XjyEjWN3XbSGzD9IHHQnyAQGMtbDXaH3hQrg16O95s/Jfedu4YG+hzrCLf6ooX28nCbEeLYx4NmDRkYmGfpkCcJBixVvh+X+SOW10X/YUW0M+ldL7eu1vwDvWcRqi8/zpf1KEvQFJNWofPEYUfgbubuETgV8OMmACt6bNrceldcmclo/7F6+glJ/LemlDGTBGDVO5bvstMc24nHFG57tdIi5tvHvky7lptbAtEt/S6Vf/bC+3mJxkyw+jYsr39upn5CJU/7hz4e2OPxKDSxv3a67BebMxIuGUfd9dWFmPNPX2Rx2rVOEU9NB9HFisRzImUeB7I0cbhsH6YD2UBfiRlKsj94QM1rkWsmS0Yof8vmOwmKsstOJtQUYG63O1keZx6IRZ/Dzj4g6LwSqRDuQ/MSlfKD0/MljssDbY0tEU4rhC5yVTx2B9rMb4IZfX2xlOa+D7VlIxWJ8rxBXowU1G2/8yxuEu8c0dg8Vg0ct3DBaDRS+hGCyOsegl+47B+mjt1MCoibN9BqtA0y5c6Y7B+vS1UDJXDNYe0vTxVSNcMVjnIquJuD0G1sDM4DQPlFw51Y5lDu6fc3mplQ4t05JhhlZTvxXXQ5pei65vyiq+5a1JtYCivNni0JrJbZuH69UzD2ZgrJ7lWl/sq8XxPjetJZpcIPry7i+sArZeLty3nIuRPSOSH1qYlFB+mOaGbfFC1sBcFWYgbPyJrN8S07FxSzy1VfEcuJNE89b40Ot74t5X40NSMQvYSYuV573uBcn/tX5gw4t7TTZTxWKxWCwWi8VisVgsFovFYrFYLBaLxWKxWCwWi8VisVgsFovFYrFYLBaLxWKxWCwWi8VisVgsFovFYrFYLBaLxWKxWCwWi8VisVgsFovFYrFYLBaLxWKxWCwWq0x/AAsoPGAmEeBiAAAAAElFTkSuQmCC;" vertex="1" parent="1"><mxGeometry x="460" y="126.7" width="85" height="73.67" as="geometry"/></mxCell><mxCell id="47" value="Cache Server" style="text;html=1;align=center;verticalAlign=middle;resizable=0;points=[];autosize=1;" vertex="1" parent="1"><mxGeometry x="450.5" y="646.73" width="90" height="20" as="geometry"/></mxCell><mxCell id="48" value="Push" style="text;html=1;align=center;verticalAlign=middle;resizable=0;points=[];autosize=1;" vertex="1" parent="1"><mxGeometry x="140" y="170" width="40" height="20" as="geometry"/></mxCell><mxCell id="51" value="Polling properties" style="text;html=1;align=center;verticalAlign=middle;resizable=0;points=[];autosize=1;" vertex="1" parent="1"><mxGeometry x="340" y="140" width="110" height="20" as="geometry"/></mxCell><mxCell id="54" value="Webhook" style="text;html=1;align=center;verticalAlign=middle;resizable=0;points=[];autosize=1;" vertex="1" parent="1"><mxGeometry x="240" y="250" width="70" height="20" as="geometry"/></mxCell><mxCell id="55" style="edgeStyle=orthogonalEdgeStyle;rounded=0;orthogonalLoop=1;jettySize=auto;html=1;" edge="1" parent="1" source="4" target="54"><mxGeometry relative="1" as="geometry"><mxPoint x="275" y="206.03999999999996" as="sourcePoint"/><mxPoint x="275" y="323.27" as="targetPoint"/></mxGeometry></mxCell><mxCell id="57" value="Build image" style="text;html=1;align=center;verticalAlign=middle;resizable=0;points=[];autosize=1;" vertex="1" parent="1"><mxGeometry x="122.5" y="323.27" width="80" height="20" as="geometry"/></mxCell><mxCell id="58" value="Push image" style="text;html=1;align=center;verticalAlign=middle;resizable=0;points=[];autosize=1;" vertex="1" parent="1"><mxGeometry x="122.5" y="461.71000000000004" width="80" height="20" as="geometry"/></mxCell><mxCell id="60" value="Spring Cloud Config Server" style="text;html=1;align=center;verticalAlign=middle;resizable=0;points=[];autosize=1;" vertex="1" parent="1"><mxGeometry x="422.5" y="200.37" width="160" height="20" as="geometry"/></mxCell><mxCell id="62" value="Deploy" style="text;html=1;align=center;verticalAlign=middle;resizable=0;points=[];autosize=1;" vertex="1" parent="1"><mxGeometry x="347.5" y="370" width="50" height="20" as="geometry"/></mxCell><mxCell id="73" value="AWS EC2" style="text;html=1;align=center;verticalAlign=middle;resizable=0;points=[];autosize=1;" vertex="1" parent="1"><mxGeometry x="511.5" y="270" width="70" height="20" as="geometry"/></mxCell><mxCell id="77" value="Services" style="text;html=1;align=center;verticalAlign=middle;resizable=0;points=[];autosize=1;" vertex="1" parent="1"><mxGeometry x="684" y="370" width="60" height="20" as="geometry"/></mxCell></root></mxGraphModel></diagram></mxfile>